<svg fill="none" height="16" width="16" xmlns="http://www.w3.org/2000/svg" xmlns:xlink="http://www.w3.org/1999/xlink"><clipPath id="a"><path d="m0 0h16v16h-16z"/></clipPath><g clip-path="url(#a)"><path clip-rule="evenodd" d="m.527 9.237a1.75 1.75 0 0 1 0-2.474l6.25-6.251a1.75 1.75 0 0 1 2.475 0l6.251 6.25a1.75 1.75 0 0 1 0 2.475l-6.25 6.251a1.75 1.75 0 0 1 -2.475 0l-6.251-6.25zm1.06-1.414a.25.25 0 0 0 0 .354l6.251 6.25a.25.25 0 0 0 .354 0l6.25-6.25a.25.25 0 0 0 0-.354l-6.25-6.25a.25.25 0 0 0 -.354 0l-6.25 6.25z" fill-rule="evenodd"/></g></svg>