<svg fill="none" height="16" width="16" xmlns="http://www.w3.org/2000/svg" xmlns:xlink="http://www.w3.org/1999/xlink"><clipPath id="a"><path d="m0 0h16v16h-16z"/></clipPath><g clip-path="url(#a)"><path clip-rule="evenodd" d="m10.41.24 4.711 2.774a1.767 1.767 0 0 1 .879 1.526v5.01a1.77 1.77 0 0 1 -.88 1.53l-7.753 4.521-.002.001a1.767 1.767 0 0 1 -1.774 0h-.001l-4.717-2.752a1.762 1.762 0 0 1 -.873-1.523v-5.035c0-.304.078-.598.22-.855l.004-.005.01-.019c.15-.262.369-.486.64-.643l7.767-4.531a1.75 1.75 0 0 1 1.765 0l.002.001zm-1.013 1.294a.25.25 0 0 1 .252 0l4.115 2.422-7.152 4.148a.267.267 0 0 1 -.269 0l-4.116-2.388zm-2.032 7.868 1.365-.792v4.46l-1.5.875v-4.472c.046-.022.092-.045.136-.071zm2.864 2.794v-4.455l1.521-.882v4.45zm3.021-1.762 1.115-.65h.002a.268.268 0 0 0 .133-.232v-4.288l-1.25.725zm-11.621 1.12 4.1 2.393v-4.473a1.766 1.766 0 0 1 -.138-.072l-4.091-2.373v4.298c0 .095.05.181.129.227z" fill-rule="evenodd"/></g></svg>