<svg xmlns="http://www.w3.org/2000/svg" width="16" height="16" viewBox="0 0 16 16">
  <g id="ic-16-google-color__ic16_google-color">
    <g id="ic-16-google-color__Google__G__logo 1" clip-path="url(#ic-16-google-color__clip0_5195_1120)">
      <path id="ic-16-google-color__Vector" fill="#4285F4" d="M13.28 8.125c0-.39-.035-.765-.1-1.125H8v2.13h2.96a2.536 2.536 0 0 1-1.105 1.655v1.385h1.785c1.04-.96 1.64-2.37 1.64-4.045Z"/>
      <path id="ic-16-google-color__Vector_2" fill="#34A853" d="M8 13.5c1.485 0 2.73-.49 3.64-1.33l-1.785-1.385c-.49.33-1.115.53-1.855.53-1.43 0-2.645-.965-3.08-2.265H3.09v1.42A5.495 5.495 0 0 0 8 13.5Z"/>
      <path id="ic-16-google-color__Vector_3" fill="#FBBC05" d="M4.92 9.045c-.11-.33-.175-.68-.175-1.045 0-.365.065-.715.175-1.045v-1.42H3.09A5.432 5.432 0 0 0 2.5 8c0 .89.215 1.725.59 2.465l1.425-1.11.405-.31Z"/>
      <path id="ic-16-google-color__Vector_4" fill="#EA4335" d="M8 4.69a3 3 0 0 1 2.105.82l1.575-1.575C10.725 3.045 9.485 2.5 8 2.5a5.49 5.49 0 0 0-4.91 3.035l1.83 1.42C5.355 5.655 6.57 4.69 8 4.69Z"/>
    </g>
  </g>
  <defs>
    <clipPath id="ic-16-google-color__clip0_5195_1120">
      <path fill="#fff" d="M2 2h12v12H2z"/>
    </clipPath>
  </defs>
</svg>
