<svg xmlns="http://www.w3.org/2000/svg" width="16" height="16" viewBox="0 0 16 16">
  <g clip-path="url(#ic-16-palette__a)">
    <path d="M4 9.333a1.333 1.333 0 1 0 0-2.666 1.333 1.333 0 0 0 0 2.666Zm4-4.666a1.333 1.333 0 1 1-2.667 0 1.333 1.333 0 0 1 2.667 0Zm2.667 2a1.333 1.333 0 1 0 0-2.667 1.333 1.333 0 0 0 0 2.667Z"/>
    <path fill-rule="evenodd" d="M8 .667a7.333 7.333 0 1 0 0 14.666 2.55 2.55 0 0 0 2.55-2.55v-.341c0-.334.001-.452.013-.544a1.55 1.55 0 0 1 1.335-1.335 4.94 4.94 0 0 1 .544-.013h.341A2.55 2.55 0 0 0 15.333 8 7.333 7.333 0 0 0 8 .667ZM1.667 8a6.333 6.333 0 0 1 12.666 0 1.55 1.55 0 0 1-1.55 1.55h-.38c-.28 0-.47 0-.636.022a2.55 2.55 0 0 0-2.195 2.195 5.131 5.131 0 0 0-.022.636v.38A1.55 1.55 0 0 1 8 14.333 6.333 6.333 0 0 1 1.667 8Z" clip-rule="evenodd"/>
  </g>
  <defs>
    <clipPath id="ic-16-palette__a">
      <path d="M0 0h16v16H0z"/>
    </clipPath>
  </defs>
</svg>
