<svg width="16" height="16" viewBox="0 0 16 16" fill="none" xmlns="http://www.w3.org/2000/svg">
<g clip-path="url(#clip0_5206_1097)">
<circle cx="8" cy="8" r="8" fill="#F9C513"/>
<path fill-rule="evenodd" clip-rule="evenodd" d="M5.63389 8.13389C5.39946 8.3683 5.08152 8.5 4.75 8.5C4.41847 8.5 4.10054 8.3683 3.86611 8.13389C3.6317 7.89946 3.5 7.58152 3.5 7.25C3.5 6.91847 3.6317 6.60054 3.86611 6.36611C4.10054 6.1317 4.41847 6 4.75 6C5.08152 6 5.39946 6.1317 5.63389 6.36611C5.8683 6.60054 6 6.91847 6 7.25C6 7.58152 5.8683 7.89946 5.63389 8.13389ZM12.1339 8.13389C12.3682 7.89946 12.5 7.58152 12.5 7.25C12.5 6.91847 12.3682 6.60054 12.1339 6.36611C11.8995 6.1317 11.5815 6 11.25 6C10.9185 6 10.6005 6.1317 10.3661 6.36611C10.1318 6.60054 10 6.91847 10 7.25C10 7.58152 10.1318 7.89946 10.3661 8.13389C10.6005 8.3683 10.9185 8.5 11.25 8.5C11.5815 8.5 11.8995 8.3683 12.1339 8.13389ZM5.87486 12.479C5.68064 12.5118 5.48134 12.4668 5.32 12.3538C5.1574 12.2396 5.04581 12.0654 5.01149 11.8697C4.97718 11.6739 5.02196 11.4726 5.136 11.3098L5.75 11.7398L5.138 11.3078V11.3058L5.14 11.3028L5.145 11.2968L5.159 11.2768C5.1727 11.2589 5.1867 11.2412 5.201 11.2238C5.39676 10.9927 5.62319 10.7895 5.874 10.6198C6.348 10.2978 7.054 9.98984 8 9.98984C8.75607 9.98124 9.49722 10.2004 10.127 10.6188C10.3187 10.7483 10.4963 10.8974 10.657 11.0638C10.7233 11.1304 10.7848 11.2015 10.841 11.2768L10.855 11.2958L10.86 11.3028L10.862 11.3058L10.863 11.3078V11.3088C10.863 11.3088 10.8635 11.3089 10.8424 11.324L10.864 11.3088C10.9794 11.4708 11.0256 11.6721 10.9926 11.8683C10.9596 12.0644 10.85 12.2395 10.688 12.3548C10.526 12.4702 10.3247 12.5165 10.1285 12.4835C9.93239 12.4505 9.75737 12.3409 9.642 12.1788L9.635 12.1708C9.53215 12.0529 9.41451 11.9487 9.285 11.8608C9.02 11.6818 8.602 11.4898 8 11.4898C7.398 11.4898 6.979 11.6818 6.715 11.8598C6.58549 11.9477 6.46785 12.0519 6.365 12.1698L6.358 12.1788C6.24262 12.3384 6.06908 12.4463 5.87486 12.479Z" fill="#9E6A03"/>
</g>
<defs>
<clipPath id="clip0_5206_1097">
<rect width="16" height="16" fill="white"/>
</clipPath>
</defs>
</svg>
