<svg xmlns="http://www.w3.org/2000/svg" width="16" height="16" viewBox="0 0 16 16">
  <path fill-rule="evenodd" d="M6.004 2.54 3.94 6.668H2.5c-.644 0-1.167.522-1.167 1.166v6.334c0 .644.523 1.166 1.167 1.166h11c.644 0 1.167-.522 1.167-1.166V7.833c0-.644-.523-1.166-1.167-1.166h-1.441L9.996 2.54a2 2 0 0 0-3.992 0ZM7 2.659v.018a1 1 0 1 0 0-.018Zm2.564 1.255a1.996 1.996 0 0 1-3.128 0L5.059 6.667h5.882L9.564 3.913ZM2.5 7.667a.167.167 0 0 0-.167.166v6.334c0 .092.075.166.167.166h11a.167.167 0 0 0 .167-.166V7.833a.167.167 0 0 0-.167-.166h-11Z" clip-rule="evenodd"/>
</svg>
