<svg xmlns="http://www.w3.org/2000/svg" width="16" height="16" fill="none" viewBox="0 0 16 16">
  <g clip-path="url(#ic-16-google-analytics__a)">
    <path fill="#F8AB00" d="M10.313 3.427v9.002c0 1.005.697 1.573 1.43 1.573.687 0 1.432-.473 1.432-1.573v-8.93c0-.924-.686-1.503-1.431-1.503s-1.431.639-1.431 1.431Z"/>
    <path fill="#E37300" d="M6.563 8.005v4.435c0 1.006.698 1.574 1.431 1.574.686 0 1.431-.473 1.431-1.573V8.075c0-.923-.686-1.502-1.43-1.502-.746 0-1.432.626-1.432 1.43Zm-.875 4.565a1.43 1.43 0 0 1-1.432 1.432 1.429 1.429 0 0 1-1.43-1.431 1.43 1.43 0 1 1 2.862 0Z"/>
  </g>
  <defs>
    <clipPath id="ic-16-google-analytics__a">
      <path fill="#fff" d="M0 0h16v16H0z"/>
    </clipPath>
  </defs>
</svg>
