<svg fill="none" height="16" width="16" xmlns="http://www.w3.org/2000/svg"><g clip-rule="evenodd" fill-rule="evenodd"><path d="m4.177 7.823 2.396-2.396a.25.25 0 0 1 .427.177v4.792a.25.25 0 0 1 -.427.177l-2.396-2.396a.25.25 0 0 1 0-.354z"/><path d="m0 1.75c0-.966.784-1.75 1.75-1.75h12.5c.966 0 1.75.784 1.75 1.75v12.5a1.75 1.75 0 0 1 -1.75 1.75h-12.5a1.75 1.75 0 0 1 -1.75-1.75zm1.75-.25a.25.25 0 0 0 -.25.25v12.5c0 .138.112.25.25.25h7.75v-13zm12.5 13h-3.25v-13h3.25a.25.25 0 0 1 .25.25v12.5a.25.25 0 0 1 -.25.25z"/></g></svg>