<svg xmlns="http://www.w3.org/2000/svg" width="16" height="16" viewBox="0 0 16 16">
  <g id="ic-16-rating-positive__ic16__rating-positive">
    <g id="ic-16-rating-positive__Union">
      <path fill="#3FB950" d="M1.5 8a6.5 6.5 0 1 1 13 0 6.5 6.5 0 0 1-13 0Zm4.207-.293a1 1 0 1 1-1.414-1.414 1 1 0 0 1 1.414 1.414Zm6 0a1 1 0 1 0-1.414-1.414 1 1 0 0 0 1.414 1.414ZM5.32 9.636a.75.75 0 0 1 1.038.175l.007.009c.103.118.22.222.35.31.264.178.683.37 1.285.37.602 0 1.02-.192 1.285-.371.13-.088.247-.192.35-.31l.007-.008a.75.75 0 1 1 1.222.87l-.022-.015.021.015v.001l-.001.002-.002.003-.005.007-.014.019a1.984 1.984 0 0 1-.184.213c-.16.166-.338.316-.53.445-.63.418-1.37.638-2.127.629-.946 0-1.652-.308-2.126-.63a3.32 3.32 0 0 1-.715-.657l-.014-.02-.005-.006-.002-.003v-.002l.612-.432-.614.43a.75.75 0 0 1 .183-1.044h.001Z"/>
      <path fill="#3FB950" d="M3.404 3.404a6.5 6.5 0 1 0 9.192 9.192 6.5 6.5 0 0 0-9.192-9.192Zm-1.06-1.06a8 8 0 1 1 11.313 11.313A8 8 0 0 1 2.343 2.343Z"/>
    </g>
    <path id="ic-16-rating-positive__Vector" fill="#22863A" d="M5.707 7.707a1 1 0 1 1-1.414-1.414 1 1 0 0 1 1.414 1.414Zm6 0a1 1 0 1 0-1.414-1.414 1 1 0 0 0 1.414 1.414ZM5.32 9.636a.75.75 0 0 1 1.038.175l.007.009c.103.118.22.222.35.31.264.178.683.37 1.285.37.602 0 1.02-.192 1.285-.371.13-.088.247-.192.35-.31l.007-.008a.75.75 0 1 1 1.222.87l-.022-.015.021.015v.001l-.001.002-.002.003-.005.007-.014.019a1.984 1.984 0 0 1-.184.213c-.16.166-.338.316-.53.445-.63.418-1.37.638-2.127.629-.946 0-1.652-.308-2.126-.63a3.32 3.32 0 0 1-.715-.657l-.014-.02-.005-.006-.002-.003v-.002l.612-.432-.614.43a.75.75 0 0 1 .184-1.044Z"/>
  </g>
</svg>
