<svg fill="none" height="16" width="16" xmlns="http://www.w3.org/2000/svg" xmlns:xlink="http://www.w3.org/1999/xlink"><clipPath id="a"><path d="m0 0h16v16h-16z"/></clipPath><g clip-path="url(#a)"><path clip-rule="evenodd" d="m6.21 8.5-1.636-4.906-1.717 4.906zm.5 1.5.829 2.487a.75.75 0 0 0 1.423-.474l-3.227-9.681a1.216 1.216 0 0 0 -2.302-.018l-3.39 9.688a.75.75 0 0 0 1.415.496l.874-2.498zm3.13-4.358c.69-1.268 2.03-1.642 3.16-1.642 1.5 0 3 .939 3 2.601v5.649a.75.75 0 0 1 -1.448.275c-.557.295-1.252.475-2.052.475-.77 0-1.514-.231-2.078-.709-.577-.488-.922-1.199-.922-2.041 0-.694.265-1.411.887-1.944.613-.526 1.493-.806 2.613-.806h1.5v-.899c0-.54-.5-1.101-1.5-1.101-.869 0-1.528.282-1.84.858a.75.75 0 1 1 -1.32-.716zm4.66 3.358h-1.5c-.881 0-1.375.22-1.637.444-.253.217-.363.5-.363.806 0 .408.155.697.39.896.249.21.63.354 1.11.354.732 0 1.26-.209 1.588-.449.35-.257.412-.495.412-.551z" fill-rule="evenodd"/></g></svg>