<svg xmlns="http://www.w3.org/2000/svg" width="16" height="16" viewBox="0 0 16 16">
  <path fill-rule="evenodd" d="M9.833 2a.5.5 0 0 0 0 1h1.297c.078 0 .146.055.163.131l.751 3.445-2.775 4.511a.167.167 0 0 1-.142.08H4.613a2.334 2.334 0 1 0 0 1h4.514c.406 0 .782-.21.994-.556l2.23-3.626.341 1.56a2.334 2.334 0 1 0 .977-.212l-1.4-6.415A1.167 1.167 0 0 0 11.13 2H9.834Zm3.082 8.566.263 1.207a.5.5 0 0 0 .977-.213l-.263-1.208a1.334 1.334 0 1 1-.977.213Zm-9.345.6H2.333a.5.5 0 1 0 0 1H3.57a1.334 1.334 0 1 1 0-1Z" clip-rule="evenodd"/>
</svg>
