<svg xmlns="http://www.w3.org/2000/svg" width="16" height="16" viewBox="0 0 16 16">
  <path fill-rule="evenodd" d="M3.833 1.833a.5.5 0 1 0-1 0V8.73a2 2 0 0 0 0 3.874v1.563a.5.5 0 0 0 1 0v-1.563a2 2 0 0 0 0-3.874V1.833Zm-.5 9.834a1 1 0 1 0 0-2 1 1 0 0 0 0 2Zm9.834-9.834a.5.5 0 0 0-1 0V8.73a2 2 0 0 0 0 3.874v1.563a.5.5 0 1 0 1 0v-1.563a2 2 0 0 0 0-3.874V1.833Zm.5 8.834a1 1 0 1 1-2 0 1 1 0 0 1 2 0Zm-5.667 4a.5.5 0 0 0 .5-.5V7.27a2 2 0 0 0 0-3.874V1.833a.5.5 0 0 0-1 0v1.563a2 2 0 0 0 0 3.874v6.897a.5.5 0 0 0 .5.5ZM8 4.333a1 1 0 1 1 0 2 1 1 0 0 1 0-2Z" clip-rule="evenodd"/>
</svg>
