<svg width="16" height="16" viewBox="0 0 16 16" fill="none" xmlns="http://www.w3.org/2000/svg">
  <g clip-path="url(#ic16__heart--filled__clip0)">
    <path fill-rule="evenodd" clip-rule="evenodd" d="M7.655 15.416L8 14.75l.345.666a.752.752 0 01-.69 0zm0 0L8 14.75l.345.666.002-.001.006-.003.018-.01a7.643 7.643 0 00.31-.17 22.08 22.08 0 003.433-2.414C13.956 11.231 16 8.85 16 6c0-2.664-2.086-4.5-4.25-4.5-1.547 0-2.903.802-3.75 2.02C7.153 2.302 5.797 1.5 4.25 1.5 2.086 1.5 0 3.336 0 6c0 2.85 2.045 5.231 3.885 6.818a22.075 22.075 0 003.744 2.584l.018.01.006.003h.002z" />
  </g>
  <defs>
    <clipPath id="ic16__heart--filled__clip0">
      <path fill="#fff" d="M0 0h16v16H0z"/>
    </clipPath>
  </defs>
</svg>
