<svg xmlns="http://www.w3.org/2000/svg" width="16" height="16" fill="none" viewBox="0 0 16 16">
  <path fill="#000" d="M2.41 5.147v-2.31h-.563v2.336c0 .11.01.22.026.324.02.1.047.193.08.283.037.09.077.173.13.25.05.077.107.15.17.213a1.464 1.464 0 0 0 .454.3c.086.034.173.057.266.074.097.02.194.026.294.026.193 0 .373-.04.546-.12.17-.076.32-.186.437-.323v.373h.563V2.837h-.56v2.31c0 .3-.09.54-.273.72a.873.873 0 0 1-.653.273c-.26 0-.48-.09-.657-.273-.173-.18-.26-.42-.26-.72ZM5.23 6.58h.533v-.34c.124.127.267.227.434.3a1.406 1.406 0 0 0 .796.08 1.37 1.37 0 0 0 .244-.063c.076-.03.153-.06.226-.104a3 3 0 0 0 .2-.136 1.17 1.17 0 0 0 .17-.17c.054-.064.1-.13.137-.2.043-.07.077-.144.107-.227a1.17 1.17 0 0 0 .07-.24 1.67 1.67 0 0 0 .023-.257 1.29 1.29 0 0 0-.093-.496 1.555 1.555 0 0 0-.244-.427.912.912 0 0 0-.17-.17.922.922 0 0 0-.2-.137 1.182 1.182 0 0 0-.226-.106 1.29 1.29 0 0 0-.244-.064 1.308 1.308 0 0 0-.79.087 1.31 1.31 0 0 0-.433.293v-1.37h-.54V6.58Zm.53-1.357c0-.066.007-.133.017-.193.013-.06.036-.12.056-.177a1.36 1.36 0 0 1 .087-.16 1.072 1.072 0 0 1 .41-.343.674.674 0 0 1 .177-.053.958.958 0 0 1 .193-.024.7.7 0 0 1 .187.024c.06.01.12.03.176.053a.882.882 0 0 1 .41.343c.037.05.067.104.09.16a.674.674 0 0 1 .054.177.804.804 0 0 1 0 .387.83.83 0 0 1-.144.336.749.749 0 0 1-.113.137.977.977 0 0 1-.137.12c-.05.033-.103.06-.16.087a.682.682 0 0 1-.176.056 1.143 1.143 0 0 1-.38 0c-.06-.013-.12-.036-.177-.056a.784.784 0 0 1-.297-.207c-.043-.043-.08-.09-.12-.137a1.222 1.222 0 0 1-.086-.16 1.08 1.08 0 0 1-.054-.176 1.257 1.257 0 0 1-.013-.194Zm2.597-.006c0 .09.006.176.023.26.013.086.037.166.063.243.034.077.067.153.107.227.043.066.09.136.137.2a1.42 1.42 0 0 0 .606.41c.084.03.16.05.244.063.09.013.176.023.266.023.244 0 .47-.05.67-.153a1.38 1.38 0 0 0 .507-.427l-.39-.29c-.1.137-.22.237-.353.307a.995.995 0 0 1-.434.097.88.88 0 0 1-.596-.22A.93.93 0 0 1 8.9 5.4h2.22v-.177c0-.09-.007-.176-.023-.26a1.372 1.372 0 0 0-.064-.243 1.298 1.298 0 0 0-.096-.22 1.084 1.084 0 0 0-.297-.367 1.268 1.268 0 0 0-.633-.303 1.323 1.323 0 0 0-.51.003 1.64 1.64 0 0 0-.24.064 1.543 1.543 0 0 0-.414.243 1.503 1.503 0 0 0-.47.83c-.006.077-.016.16-.016.247ZM9.75 4.27c.2 0 .377.063.53.193.153.13.253.297.3.504H8.917a.88.88 0 0 1 .3-.504.814.814 0 0 1 .533-.193Zm3.037.067v-.504H12.6c-.15 0-.28.034-.39.097a.748.748 0 0 0-.26.26v-.337h-.533V6.58h.54V5.03c0-.21.056-.377.17-.503a.567.567 0 0 1 .436-.194h.224v.004ZM5.173 10.02c0 .26-.05.507-.153.743-.1.237-.237.44-.41.61a1.951 1.951 0 0 1-1.363.557h-1.36V8.1H3.25a1.907 1.907 0 0 1 1.667.957c.173.296.256.616.256.963Zm-1.92-1.683H2.15v3.36h1.107c.226 0 .44-.044.643-.134.203-.086.38-.206.527-.356a1.693 1.693 0 0 0 .353-1.84 1.7 1.7 0 0 0-.35-.537 1.68 1.68 0 0 0-.527-.36 1.598 1.598 0 0 0-.65-.133Zm2.627.256a.185.185 0 0 1-.273 0 .194.194 0 0 1-.06-.143c0-.053.02-.1.06-.137a.202.202 0 0 1 .28 0c.04.04.06.084.06.137a.23.23 0 0 1-.067.143Zm-.02.63v2.707h-.25V9.223h.25Zm1.623.217h-.18c-.2 0-.363.073-.483.223a.84.84 0 0 0-.183.554v1.71h-.25V9.22h.25v.397a.707.707 0 0 1 .657-.417h.19v.24Zm.184 1.837a1.376 1.376 0 0 1-.184-.704c0-.256.06-.49.18-.703a1.355 1.355 0 0 1 1.193-.693c.237 0 .454.06.654.18.197.12.357.283.47.49.113.206.173.43.173.67v.126h-2.42c.014.204.07.39.177.557.103.167.243.3.413.397a1.146 1.146 0 0 0 1.08.017c.164-.087.297-.204.404-.354l.203.137c-.127.176-.29.316-.49.42a1.367 1.367 0 0 1-.643.153 1.384 1.384 0 0 1-1.21-.693Zm1.19-1.874c-.28 0-.527.097-.737.29a1.17 1.17 0 0 0-.373.724H9.89a1.089 1.089 0 0 0-.333-.72.973.973 0 0 0-.7-.294Zm1.846 1.17c0 .327.11.604.334.83.223.227.493.34.806.34a1.134 1.134 0 0 0 .93-.48l.204.137c-.127.177-.29.317-.49.42a1.368 1.368 0 0 1-.644.153 1.368 1.368 0 0 1-1.21-.697 1.377 1.377 0 0 1-.183-.703 1.385 1.385 0 0 1 1.393-1.393c.23 0 .447.05.644.153.196.104.36.244.49.42l-.204.137a1.2 1.2 0 0 0-.406-.357 1.097 1.097 0 0 0-.524-.13 1.1 1.1 0 0 0-.81.34c-.22.227-.33.504-.33.83Zm3.334 1.357a.523.523 0 0 1-.374-.127.43.43 0 0 1-.136-.34V9.45h-.504v-.23h.504v-.827h.25v.827h.663v.23h-.663v1.987a.25.25 0 0 0 .076.193c.05.047.124.07.217.07h.37v.23h-.403Z"/>
</svg>
