<svg width="16" height="16" fill="none" xmlns="http://www.w3.org/2000/svg">
  <path fill-rule="evenodd" clip-rule="evenodd" d="M2.75 2.5a.25.25 0 00-.25.25v2.5a.75.75 0 01-1.5 0v-2.5C1 1.784 1.784 1 2.75 1h2.5a.75.75 0 010 1.5h-2.5zM10 1.75a.75.75 0 01.75-.75h2.5c.966 0 1.75.784 1.75 1.75v2.5a.75.75 0 01-1.5 0v-2.5a.25.25 0 00-.25-.25h-2.5a.75.75 0 01-.75-.75zM1.75 10a.75.75 0 01.75.75v2.5c0 .138.112.25.25.25h2.5a.75.75 0 010 1.5h-2.5A1.75 1.75 0 011 13.25v-2.5a.75.75 0 01.75-.75zm12.5 0a.75.75 0 01.75.75v2.5A1.75 1.75 0 0113.25 15h-2.5a.75.75 0 010-1.5h2.5a.25.25 0 00.25-.25v-2.5a.75.75 0 01.75-.75z" />
  <path d="M10.25 12H12v-1.75h-1.75V12zM8.5 10.25h1.75V8.5H8.5v1.75z" />
  <path fill-rule="evenodd" clip-rule="evenodd" d="M7.5 8.5H4V12h3.5V8.5zM5 11h1.5V9.5H5V11zm2.5-7H4v3.5h3.5V4zM5 6.5h1.5V5H5v1.5zM12 4H8.5v3.5H12V4zM9.5 6.5H11V5H9.5v1.5z" />
</svg>
