<svg width="16" height="16" viewBox="0 0 16 16" fill="none" xmlns="http://www.w3.org/2000/svg">
  <path d="M6 5.442v5.117a.25.25 0 00.379.214l4.264-2.559a.25.25 0 000-.428L6.379 5.227A.25.25 0 006 5.442z" />
  <path fill-rule="evenodd" clip-rule="evenodd" d="M1.75 2A1.75 1.75 0 000 3.75v8.5A1.75 1.75 0 001.75 14h12.5A1.75 1.75 0 0016 12.25v-8.5A1.75 1.75 0 0014.25 2H1.75zm-.177 1.573A.25.25 0 011.75 3.5h12.5a.25.25 0 01.25.25v8.5a.25.25 0 01-.25.25H1.75a.25.25 0 01-.25-.25v-8.5a.25.25 0 01.073-.177z" />
</svg>
