<svg fill="none" height="16" width="16" xmlns="http://www.w3.org/2000/svg"><path clip-rule="evenodd" d="m2.5 3.5c0-.133.058-.318.282-.55.227-.237.592-.484 1.1-.708 1.017-.447 2.472-.742 4.118-.742 1.647 0 3.102.295 4.117.742.51.224.874.47 1.101.707.224.233.282.418.282.551s-.058.318-.282.55c-.227.237-.592.484-1.1.708-1.017.447-2.472.742-4.118.742-1.647 0-3.102-.295-4.117-.742-.51-.224-.874-.47-1.101-.707-.224-.233-.282-.418-.282-.551zm-1.5 0c0-.626.292-1.165.7-1.59.406-.422.956-.767 1.579-1.041 1.246-.549 2.916-.869 4.721-.869s3.475.32 4.722.869c.622.274 1.172.62 1.578 1.04.408.426.7.965.7 1.591v9c0 .626-.292 1.165-.7 1.59-.406.422-.956.767-1.579 1.041-1.245.549-2.915.869-4.721.869-1.805 0-3.475-.32-4.721-.869-.623-.274-1.173-.62-1.579-1.04-.408-.426-.7-.965-.7-1.591zm1.5 4.5v-2.276c.241.15.503.286.779.407 1.246.549 2.916.869 4.721.869s3.475-.32 4.722-.869c.275-.121.537-.257.778-.407v2.276c0 .133-.058.318-.282.55-.227.237-.592.484-1.1.708-1.017.447-2.472.742-4.118.742-1.647 0-3.102-.295-4.117-.742-.51-.224-.874-.47-1.101-.707-.224-.233-.282-.418-.282-.551zm0 2.225v2.275c0 .133.058.318.282.55.227.237.592.484 1.1.708 1.016.447 2.471.742 4.118.742s3.102-.295 4.117-.742c.51-.224.874-.47 1.101-.707.224-.233.282-.418.282-.551v-2.275c-.241.15-.503.285-.778.406-1.247.549-2.917.869-4.722.869s-3.475-.32-4.721-.869a6.236 6.236 0 0 1 -.779-.406z" fill-rule="evenodd"/></svg>