<svg xmlns="http://www.w3.org/2000/svg" width="16" height="16" viewBox="0 0 16 16">
  <path fill-rule="evenodd" d="M3.55 1.333h8.901c.171 0 .33 0 .46.011.143.012.299.038.452.116.22.112.398.29.51.51.078.154.105.31.116.451.011.132.011.29.011.461v11.285a.5.5 0 0 1-.82.384l-1.65-1.375-1.343 1.344a.5.5 0 0 1-.69.017L8 13.176l-1.497 1.36a.5.5 0 0 1-.69-.016L4.47 13.176l-1.65 1.375a.5.5 0 0 1-.82-.384V2.882c0-.171 0-.329.01-.46.012-.143.039-.298.117-.452.112-.22.29-.398.51-.51.154-.078.309-.104.451-.116.132-.01.29-.01.461-.01Zm-.463 1.02h.001Zm.002 0a.418.418 0 0 1 .08-.012c.087-.007.203-.008.398-.008h8.866c.195 0 .311 0 .398.008.052.004.074.01.08.011.03.016.054.04.07.07a.422.422 0 0 1 .012.08C13 2.59 13 2.706 13 2.9v10.2l-1.18-.984a.5.5 0 0 0-.674.03l-1.33 1.33-1.48-1.346a.5.5 0 0 0-.672 0l-1.48 1.346-1.33-1.33a.5.5 0 0 0-.674-.03L3 13.099V2.9c0-.194 0-.31.007-.396a.418.418 0 0 1 .012-.08.167.167 0 0 1 .07-.07Zm-.07.067v.002Zm9.961 0v.001Zm-.067-.067h-.001Z" clip-rule="evenodd"/>
</svg>
