<svg fill="none" height="16" width="16" xmlns="http://www.w3.org/2000/svg" xmlns:xlink="http://www.w3.org/1999/xlink"><clipPath id="a"><path d="m0 0h16v16h-16z"/></clipPath><g clip-path="url(#a)"><path clip-rule="evenodd" d="m14.184 1.143a1.75 1.75 0 0 0 -2.502-.57l-10.77 7.343a1.75 1.75 0 0 0 -.53 2.32l.447.775a1.75 1.75 0 0 0 2.275.702l11.746-5.655a1.75 1.75 0 0 0 .756-2.451zm-1.657.669a.25.25 0 0 1 .358.081l1.422 2.464a.25.25 0 0 1 -.108.35l-2.016.97-1.505-2.605 1.85-1.26zm-3.091 2.108 1.391 2.41-5.42 2.61-.942-1.63 4.97-3.39zm-6.214 4.237-1.466 1a.25.25 0 0 0 -.075.33l.447.775a.25.25 0 0 0 .325.1l1.598-.769-.83-1.436zm6.253 2.306a.75.75 0 0 0 -.944-.252l-1.809.87a.75.75 0 0 0 -.293.253l-2.049 2.992a.75.75 0 1 0 1.238.848l1.881-2.75v2.826a.75.75 0 0 0 1.5 0v-2.826l1.881 2.75a.75.75 0 0 0 1.238-.848l-2.644-3.863z" fill-rule="evenodd"/></g></svg>