<svg fill="none" height="16" width="16" xmlns="http://www.w3.org/2000/svg" xmlns:xlink="http://www.w3.org/1999/xlink"><clipPath id="a"><path d="m0 0h16v16h-16z"/></clipPath><g clip-path="url(#a)"><path clip-rule="evenodd" d="m3.404 12.596a6.5 6.5 0 1 1 9.192-9.192 6.5 6.5 0 0 1 -9.192 9.192zm-1.06-10.253a8 8 0 1 0 11.313 11.314 8 8 0 0 0 -11.314-11.314zm3.686 2.627a.75.75 0 0 0 -1.06 1.06l1.97 1.97-1.97 1.97a.75.75 0 1 0 1.06 1.06l1.97-1.97 1.97 1.97a.75.75 0 1 0 1.06-1.06l-1.97-1.97 1.97-1.97a.75.75 0 1 0 -1.06-1.06l-1.97 1.97z" fill-rule="evenodd"/></g></svg>