<svg fill="none" height="16" width="16" xmlns="http://www.w3.org/2000/svg"><g clip-rule="evenodd" fill-rule="evenodd"><path d="m6.823 7.823-2.396-2.396a.25.25 0 0 0 -.427.177v4.792c0 .223.27.335.427.177l2.396-2.396a.25.25 0 0 0 0-.354z"/><path d="m1.75 0a1.75 1.75 0 0 0 -1.75 1.75v12.5c0 .966.784 1.75 1.75 1.75h12.5a1.75 1.75 0 0 0 1.75-1.75v-12.5a1.75 1.75 0 0 0 -1.75-1.75zm-.25 1.75a.25.25 0 0 1 .25-.25h7.75v13h-7.75a.25.25 0 0 1 -.25-.25zm9.5 12.75v-13h3.25a.25.25 0 0 1 .25.25v12.5a.25.25 0 0 1 -.25.25z"/></g></svg>