<svg xmlns="http://www.w3.org/2000/svg" xmlns:xlink="http://www.w3.org/1999/xlink" width="16" height="16" fill="none" viewBox="0 0 16 16">
  <g clip-path="url(#a)">
    <mask id="b" width="14" height="10" x="1" y="3" maskUnits="userSpaceOnUse" style="mask-type:luminance">
      <path fill="#fff" d="M10.903 3.57c-1.093 0-1.946.823-2.72 1.87C7.12 4.087 6.23 3.57 5.167 3.57c-2.17 0-3.834 2.823-3.834 5.81 0 1.87.904 3.05 2.42 3.05 1.09 0 1.874-.513 3.27-2.95l.98-1.733c.14.226.287.47.444.73l.653 1.1c1.273 2.13 1.983 2.853 3.27 2.853 1.477 0 2.297-1.197 2.297-3.103 0-3.13-1.7-5.757-3.764-5.757ZM5.96 8.82c-1.13 1.773-1.52 2.17-2.15 2.17-.647 0-1.033-.57-1.033-1.583 0-2.17 1.08-4.387 2.37-4.387.696 0 1.283.403 2.176 1.683-.85 1.3-1.363 2.117-1.363 2.117Zm4.267-.223-.784-1.304c-.21-.343-.413-.66-.61-.95.704-1.086 1.287-1.63 1.977-1.63 1.437 0 2.583 2.114 2.583 4.71 0 .99-.323 1.564-.996 1.564-.64 0-.95-.424-2.17-2.39Z"/>
    </mask>
    <g mask="url(#b)">
      <mask id="c" width="14" height="10" x="1" y="3" maskUnits="userSpaceOnUse" style="mask-type:luminance">
        <path fill="#fff" d="M14.713 3.527H1.29v8.95h13.423v-8.95Z"/>
      </mask>
      <g mask="url(#c)">
        <mask id="d" width="14" height="10" x="1" y="3" maskUnits="userSpaceOnUse" style="mask-type:luminance">
          <path fill="#fff" d="M14.713 3.527H1.29v8.95h13.423v-8.95Z"/>
        </mask>
        <g mask="url(#d)">
          <path fill="url(#e)" d="M1.285 3.524h13.47v8.981H1.285z"/>
        </g>
      </g>
    </g>
    <path fill="url(#f)" d="M9.443 7.293C7.75 4.537 6.62 3.57 5.163 3.57l-.016 1.447c.953 0 1.693.75 3.3 3.46l.096.163.9-1.347Z"/>
  </g>
  <defs>
    <linearGradient id="f" x1="9.002" x2="5.312" y1="8.292" y2="3.457" gradientUnits="userSpaceOnUse">
      <stop offset=".134" stop-color="#0869E1"/>
      <stop offset=".873" stop-color="#0064E0"/>
    </linearGradient>
    <clipPath id="a">
      <path fill="#fff" d="M0 0h16v16H0z"/>
    </clipPath>
    <pattern id="e" width="1" height="1" patternContentUnits="objectBoundingBox">
      <use xlink:href="#g" transform="scale(.00032 .00048)"/>
    </pattern>
  </defs>
</svg>
