<svg xmlns="http://www.w3.org/2000/svg" width="16" height="16" viewBox="0 0 16 16">
  <path fill-rule="evenodd" d="M6 4.333A2.333 2.333 0 1 0 6 9a2.333 2.333 0 0 0 0-4.667ZM2.667 6.667a3.333 3.333 0 1 1 5.277 2.708 5.316 5.316 0 0 1 3.345 4.777.5.5 0 1 1-.999.03 4.312 4.312 0 0 0-8.621 0 .5.5 0 0 1-1-.03 5.315 5.315 0 0 1 3.373-4.787 3.329 3.329 0 0 1-1.375-2.698ZM10.875.883A2.986 2.986 0 0 0 10 3a3 3 0 0 0 5.117 2.125l.008-.008A2.986 2.986 0 0 0 16 3 3 3 0 0 0 10.875.883Zm.399 1.106a2 2 0 0 0 2.737 2.737L11.274 1.99Zm3.446 2.032L11.98 1.28a2 2 0 0 1 2.74 2.74Z" clip-rule="evenodd"/>
</svg>
