<svg fill="none" height="16" width="16" xmlns="http://www.w3.org/2000/svg" xmlns:xlink="http://www.w3.org/1999/xlink"><clipPath id="a"><path d="m0 0h16v16h-16z"/></clipPath><g clip-path="url(#a)"><path d="m5.029 2.217a6.5 6.5 0 0 1 9.437 5.11.75.75 0 1 0 1.492-.154 8 8 0 0 0 -14.315-4.03l-1.216-1.216a.25.25 0 0 0 -.427.177v3.646a.25.25 0 0 0 .25.25h3.646a.25.25 0 0 0 .177-.427l-1.358-1.358a6.491 6.491 0 0 1 2.314-1.998zm-3.767 5.952a.75.75 0 0 0 -1.22.658 8.001 8.001 0 0 0 14.315 4.03l1.216 1.216a.25.25 0 0 0 .427-.177v-3.646a.25.25 0 0 0 -.25-.25h-3.646a.25.25 0 0 0 -.177.427l1.358 1.358a6.501 6.501 0 0 1 -11.751-3.11.75.75 0 0 0 -.272-.506z"/><path d="m9.06 9.06a1.5 1.5 0 1 1 -2.195-2.045 1.5 1.5 0 0 1 2.195 2.045z"/></g></svg>