<svg xmlns="http://www.w3.org/2000/svg" width="24" height="16" fill="none" viewBox="0 0 24 16">
  <g clip-path="url(#a)">
    <path fill="#1A1A1A" d="M22.105 0H1.895A1.86 1.86 0 0 0 0 1.895v11.368a1.9 1.9 0 0 0 1.895 1.895h20.21A1.861 1.861 0 0 0 24 13.263V1.895A1.9 1.9 0 0 0 22.105 0Z" opacity=".16"/>
    <path fill="#fff" d="M22.105.632c.695 0 1.263.568 1.263 1.263v11.368c0 .695-.568 1.263-1.263 1.263H1.895a1.267 1.267 0 0 1-1.263-1.263V1.895C.632 1.2 1.2.632 1.895.632h20.21Z"/>
    <path fill="#E21836" d="M7.733 3.159h3.484c.486 0 .789.396.675.884l-1.622 6.964c-.114.486-.601.882-1.088.882H5.7c-.486 0-.789-.396-.675-.882l1.622-6.964c.114-.488.6-.884 1.087-.884Z"/>
    <path fill="#00447C" d="M10.927 3.158h4.006c.486 0 .267.396.153.884l-1.622 6.964c-.114.486-.078.883-.566.883H8.892c-.487 0-.788-.397-.674-.883L9.84 4.042c.115-.488.6-.884 1.087-.884Z"/>
    <path fill="#007B84" d="M14.774 3.158h3.484c.487 0 .79.396.675.884l-1.622 6.964c-.114.486-.602.883-1.088.883H12.74c-.488 0-.79-.397-.676-.883l1.622-6.964c.114-.488.6-.884 1.087-.884Z"/>
    <path fill="#FEFEFE" d="M8.643 5.39c-.358.003-.464 0-.498-.009A565.53 565.53 0 0 1 7.89 6.56c-.052.226-.09.387-.219.49a.39.39 0 0 1-.257.09c-.159 0-.251-.079-.267-.228l-.003-.052.048-.304s.254-1.016.3-1.15a.1.1 0 0 0 .003-.016c-.494.005-.581 0-.587-.008l-.016.074-.259 1.146-.022.097-.043.318c0 .094.018.17.055.236.118.206.455.237.645.237.246 0 .476-.052.632-.147.27-.16.34-.41.403-.63l.03-.115s.26-1.055.305-1.192l.005-.016Zm.89.85a.69.69 0 0 0-.282.067c-.038.02-.073.041-.11.064l.033-.122-.019-.021c-.219.044-.268.05-.47.079l-.018.011a5.993 5.993 0 0 1-.131.725 45.34 45.34 0 0 1-.102.425l.009.018c.208-.01.27-.01.451-.008l.015-.016c.023-.117.025-.145.076-.383.024-.112.074-.36.098-.448a.336.336 0 0 1 .132-.042c.102 0 .09.088.085.124a4.427 4.427 0 0 1-.079.417l-.025.107c-.017.079-.037.155-.054.233l.007.016c.205-.01.267-.01.442-.008l.02-.016c.032-.183.042-.232.098-.5l.028-.122c.055-.24.082-.362.04-.461-.043-.111-.148-.138-.245-.138Zm.993.252c-.11.021-.179.035-.248.044l-.24.036-.008.007-.008.006c-.01.078-.018.146-.033.226a4.132 4.132 0 0 1-.062.31 1.218 1.218 0 0 1-.05.175c-.013.036-.027.071-.054.172l.006.01.005.008c.099-.005.163-.008.229-.009.066-.002.134 0 .24.001l.01-.008.01-.008c.014-.091.017-.116.026-.16l.065-.29c.018-.083.039-.166.058-.25l.06-.25-.002-.01-.004-.01Zm.002-.339c-.099-.058-.272-.04-.39.041-.116.08-.129.191-.03.25.097.057.271.04.387-.041.116-.08.13-.192.033-.25Zm.598 1.351c.2 0 .405-.055.559-.218a.99.99 0 0 0 .192-.412c.061-.269.013-.395-.047-.471-.09-.117-.252-.154-.42-.154-.1 0-.34.01-.526.182-.135.124-.197.293-.234.455-.038.165-.081.462.192.572a.8.8 0 0 0 .284.046Zm-.016-.606c.046-.204.1-.375.24-.375.108 0 .116.128.068.332a.917.917 0 0 1-.102.286c-.038.053-.082.086-.131.086-.015 0-.102 0-.103-.13 0-.063.012-.128.028-.199Zm1.267.58.015-.016c.023-.117.026-.145.075-.383.025-.112.075-.36.1-.448.045-.021.088-.042.132-.042.1 0 .088.088.084.124a4.01 4.01 0 0 1-.079.417l-.024.107c-.018.079-.038.155-.055.233l.008.016c.205-.01.265-.01.44-.008l.022-.016c.03-.183.039-.232.097-.5l.027-.122c.055-.24.083-.362.042-.461-.045-.111-.15-.138-.246-.138a.687.687 0 0 0-.391.13l.031-.122-.017-.021c-.219.044-.269.05-.471.079l-.016.011a6.23 6.23 0 0 1-.131.725l-.103.425.01.018c.207-.01.27-.01.45-.008Zm1.508.008.09-.436s.066-.274.07-.284c0 0 .02-.029.04-.04h.031c.285 0 .607 0 .86-.186a.916.916 0 0 0 .341-.544.821.821 0 0 0 .024-.19.398.398 0 0 0-.068-.241c-.13-.18-.385-.184-.681-.185l-.146.002c-.379.004-.53.003-.593-.005l-.015.077-.136.63-.34 1.4c.33-.004.466-.004.523.002Zm.252-1.117.143-.625.005-.032.002-.025.058.006.304.026c.118.046.166.163.132.316a.459.459 0 0 1-.238.313c-.096.048-.213.052-.334.052h-.078l.006-.031Zm.898.54c-.038.163-.082.46.19.566a.53.53 0 0 0 .243.044.401.401 0 0 0 .232-.106l-.02.074.013.016c.195-.009.256-.009.467-.007l.02-.015c.03-.181.06-.358.14-.705l.118-.498-.006-.018c-.219.04-.277.05-.487.08l-.016.012-.007.05a.3.3 0 0 0-.153-.127c-.093-.036-.313.011-.502.183a.853.853 0 0 0-.232.452Zm.459.01c.047-.2.1-.369.24-.369.088 0 .134.081.125.22a6.267 6.267 0 0 1-.025.112l-.044.178a.433.433 0 0 1-.052.104c-.035.05-.12.082-.17.082-.014 0-.1 0-.103-.127 0-.063.013-.128.029-.2Zm2.397-.66-.017-.02a5.095 5.095 0 0 1-.454.078l-.015.014c0 .003 0 .006-.002.01v-.004c-.148.342-.144.268-.265.537l-.001-.033-.03-.583-.02-.019c-.226.044-.23.051-.44.078l-.016.014c-.003.007-.003.015-.004.023l.001.003c.026.134.02.104.046.315.013.104.029.208.041.31.02.171.032.255.058.516-.142.234-.175.322-.311.526v.002l-.095.152c-.011.016-.021.027-.035.031a.145.145 0 0 1-.063.01h-.053l-.079.262.271.004a.334.334 0 0 0 .313-.174l.17-.292h-.003l.018-.02c.114-.247.985-1.74.985-1.74Zm-2.856 3.445h-.115l.425-1.405h.14l.046-.145.004.161c-.005.1.073.188.279.173h.238l.081-.27h-.09c-.05 0-.074-.013-.071-.041l-.005-.164h-.44v.001c-.143.003-.568.014-.654.037a.77.77 0 0 0-.214.105l.043-.145h-.412l-.086.288-.43 1.427h-.084l-.082.269h.82l-.027.09h.405l.027-.09h.113l.089-.29Zm-.337-1.12c-.066.019-.189.074-.189.074l.11-.359h.327l-.079.262s-.101.006-.169.024Zm.006.514s-.102.013-.17.028c-.067.02-.192.084-.192.084l.113-.374h.33l-.08.262Zm-.183.61h-.328l.095-.316h.327l-.094.316Zm.79-.872h.474l-.068.22h-.48l-.072.241h.42l-.318.447a.131.131 0 0 1-.064.054.188.188 0 0 1-.085.025H15l-.08.263h.305a.37.37 0 0 0 .32-.166l.219-.298.046.303a.14.14 0 0 0 .079.102c.03.016.062.042.106.046l.105.003h.15l.09-.295h-.06c-.033 0-.092-.005-.101-.016-.01-.013-.01-.033-.016-.063l-.047-.303h-.195l.086-.102h.478l.074-.24h-.443l.069-.221h.442l.081-.272h-1.317l-.08.272Zm-3.997.933.11-.367h.455l.083-.274h-.455l.07-.226h.444l.082-.265h-1.111l-.08.265h.252l-.068.226h-.253l-.084.278h.253l-.148.486c-.02.065.01.09.028.12.02.028.039.048.082.058.044.01.075.016.116.016h.512l.091-.302-.227.03c-.044 0-.165-.004-.152-.045Zm.052-1.76-.115.209a.24.24 0 0 1-.066.086c-.018.011-.053.016-.103.016h-.06l-.08.266h.199c.096 0 .17-.035.204-.053.038-.02.048-.008.077-.037l.068-.058h.622l.083-.277h-.456l.08-.151h-.453Zm.92 1.765c-.011-.015-.003-.042.013-.098l.17-.563h.605c.088-.001.152-.002.194-.005a.395.395 0 0 0 .145-.05.272.272 0 0 0 .106-.097.83.83 0 0 0 .104-.237l.214-.713-.628.004s-.193.029-.278.06a1.16 1.16 0 0 0-.21.133l.058-.195h-.388l-.544 1.802c-.019.07-.032.12-.035.151 0 .033.042.065.07.09.032.025.08.02.126.025.048.003.117.005.213.005h.298l.091-.309-.267.026a.07.07 0 0 1-.057-.029Zm.293-1.041h.635l-.04.126c-.006.003-.02-.006-.084.002h-.55l.039-.128Zm.127-.425h.641l-.046.152s-.302-.003-.35.006c-.213.037-.338.15-.338.15l.093-.308Zm.482.975a.068.068 0 0 1-.025.04c-.013.008-.034.01-.065.01h-.09l.005-.153h-.377l-.015.754c0 .054.005.086.044.111.04.031.163.036.328.036h.236l.085-.283-.205.011-.069.004c-.009-.004-.018-.007-.028-.017-.008-.009-.023-.003-.02-.058v-.193l.216-.01a.28.28 0 0 0 .21-.073c.04-.035.053-.074.068-.128l.036-.171h-.296l-.038.12Z"/>
  </g>
  <defs>
    <clipPath id="a">
      <path fill="#fff" d="M0 0h24v15.158H0z"/>
    </clipPath>
  </defs>
</svg>
