<svg xmlns="http://www.w3.org/2000/svg" width="16" height="16" viewBox="0 0 16 16">
  <g id="ic-16-rating-negative__ic16__rating-negative" clip-path="url(#ic-16-rating-negative__clip0_5206_1097)">
    <g id="ic-16-rating-negative__ic16__smiley__frown--filled" clip-path="url(#ic-16-rating-negative__clip1_5206_1097)">
      <g id="ic-16-rating-negative__Vector">
        <path fill="#F9C513" d="M1.5 8a6.5 6.5 0 1 1 13 0 6.5 6.5 0 0 1-13 0Zm4.207-.293a1 1 0 1 1-1.414-1.414 1 1 0 0 1 1.414 1.414Zm6 0a1 1 0 1 0-1.414-1.414 1 1 0 0 0 1.414 1.414Zm-5.832 4.278a.75.75 0 0 1-.555-.125h-.001a.75.75 0 0 1-.183-1.044l.614.43-.612-.432v-.002l.002-.003.005-.006.014-.02.042-.053a3.32 3.32 0 0 1 .673-.604c.474-.322 1.18-.63 2.126-.63a3.766 3.766 0 0 1 2.127.63c.192.129.37.278.53.444.066.067.128.138.184.213l.014.02.005.006.002.003.001.002v.001l-.07.05.071-.05a.75.75 0 1 1-1.222.87l-.007-.008a1.823 1.823 0 0 0-.35-.31c-.265-.179-.683-.37-1.285-.37-.602 0-1.021.191-1.285.37-.13.087-.247.191-.35.31l-.007.008a.75.75 0 0 1-.483.3Z"/>
        <path fill="#F9C513" d="M3.404 3.404a6.5 6.5 0 1 0 9.192 9.192 6.5 6.5 0 0 0-9.192-9.192Zm-1.06-1.06a8 8 0 1 1 11.313 11.313A8 8 0 0 1 2.343 2.343Z"/>
      </g>
    </g>
    <path id="ic-16-rating-negative__Vector_2" fill="#9E6A03" d="M5.32 11.864a.75.75 0 0 0 1.038-.175l.007-.009a1.82 1.82 0 0 1 .35-.31C6.979 11.192 7.398 11 8 11c.602 0 1.02.192 1.285.371.13.088.247.192.35.31l.007.008a.75.75 0 0 0 1.222-.87l-.022.015.021-.015v-.001l-.001-.002-.002-.003-.005-.007-.014-.019a1.984 1.984 0 0 0-.184-.213 3.322 3.322 0 0 0-.53-.445A3.766 3.766 0 0 0 8 9.5c-.946 0-1.652.308-2.126.63a3.32 3.32 0 0 0-.715.657l-.014.02-.005.006-.002.003v.002l.612.432-.614-.43a.75.75 0 0 0 .184 1.044Zm.387-5.571a1 1 0 1 0-1.414 1.414 1 1 0 0 0 1.414-1.414Zm6 0a1 1 0 1 1-1.414 1.414 1 1 0 0 1 1.414-1.414Z"/>
  </g>
  <defs>
    <clipPath id="ic-16-rating-negative__clip0_5206_1097">
      <path fill="#fff" d="M0 0h16v16H0z"/>
    </clipPath>
    <clipPath id="ic-16-rating-negative__clip1_5206_1097">
      <rect width="16" height="16" fill="#fff" rx="8"/>
    </clipPath>
  </defs>
</svg>
