<svg fill="none" height="16" width="16" xmlns="http://www.w3.org/2000/svg" xmlns:xlink="http://www.w3.org/1999/xlink"><clipPath id="a"><path d="m0 0h16v16h-16z"/></clipPath><g clip-path="url(#a)"><path clip-rule="evenodd" d="m16 2.75a1.75 1.75 0 0 0 -1.75-1.75h-12.5a1.75 1.75 0 0 0 -1.75 1.75v2.5a1.75 1.75 0 0 0 1.75 1.75h12.5a1.75 1.75 0 0 0 1.75-1.75zm-1.75-.25a.25.25 0 0 1 .25.25v2.5a.25.25 0 0 1 -.25.25h-12.5a.25.25 0 0 1 -.25-.25v-2.5a.25.25 0 0 1 .25-.25zm1.75 8.25a1.75 1.75 0 0 0 -1.75-1.75h-12.5a1.75 1.75 0 0 0 -1.75 1.75v2.5a1.75 1.75 0 0 0 1.75 1.75h12.5a1.75 1.75 0 0 0 1.75-1.75zm-1.75-.25a.25.25 0 0 1 .25.25v2.5a.25.25 0 0 1 -.25.25h-12.5a.25.25 0 0 1 -.25-.25v-2.5a.25.25 0 0 1 .25-.25z" fill-rule="evenodd"/></g></svg>