<svg xmlns="http://www.w3.org/2000/svg" width="16" height="16" viewBox="0 0 16 16">
  <g clip-path="url(#ic-16-target__a)">
    <path fill-rule="evenodd" d="M8 .667a.5.5 0 0 1 .5.5V2.69a5.335 5.335 0 0 1 4.81 4.81h1.523a.5.5 0 1 1 0 1H13.31a5.335 5.335 0 0 1-4.81 4.81v1.523a.5.5 0 1 1-1 0V13.31A5.335 5.335 0 0 1 2.69 8.5H1.167a.5.5 0 1 1 0-1H2.69A5.335 5.335 0 0 1 7.5 2.69V1.167a.5.5 0 0 1 .5-.5Zm-.5 3.028A4.335 4.335 0 0 0 3.695 7.5H5.5a.5.5 0 0 1 0 1H3.695A4.335 4.335 0 0 0 7.5 12.305V10.5a.5.5 0 1 1 1 0v1.805A4.335 4.335 0 0 0 12.305 8.5H10.5a.5.5 0 1 1 0-1h1.805A4.335 4.335 0 0 0 8.5 3.695V5.5a.5.5 0 0 1-1 0V3.695Z" clip-rule="evenodd"/>
  </g>
  <defs>
    <clipPath id="ic-16-target__a">
      <path d="M0 0h16v16H0z"/>
    </clipPath>
  </defs>
</svg>
