<svg xmlns="http://www.w3.org/2000/svg" width="16" height="16" viewBox="0 0 16 16">
  <path fill-rule="evenodd" d="M2.07 1.754c.731-.266 1.708-.42 2.763-.42s2.033.154 2.764.42c.364.132.693.301.94.514.247.212.463.514.463.899v2.666a.947.947 0 0 1-.003.076 9.25 9.25 0 0 1 2.17-.242c1.055 0 2.032.154 2.763.42.364.132.693.302.941.515.246.211.462.513.462.898v5.333c0 .385-.216.687-.462.898-.248.213-.577.383-.94.515-.732.266-1.71.42-2.764.42-1.056 0-2.033-.154-2.764-.42-.364-.132-.693-.302-.94-.515-.247-.211-.463-.513-.463-.898v-.075A9.25 9.25 0 0 1 4.833 13c-1.055 0-2.032-.155-2.763-.42-.364-.133-.693-.302-.941-.515-.246-.212-.462-.514-.462-.898v-8c0-.385.216-.687.462-.899.248-.213.577-.382.94-.514ZM7 11.724v-1.632a9.25 9.25 0 0 1-2.167.241c-1.055 0-2.032-.154-2.763-.42a4.111 4.111 0 0 1-.403-.17v1.422c.002.01.016.058.114.142.123.105.33.223.63.332.596.217 1.452.36 2.422.36.838 0 1.592-.106 2.167-.276Zm0-2.668V7.5c0-.026 0-.05.003-.076a9.249 9.249 0 0 1-2.17.243c-1.055 0-2.032-.155-2.763-.421a4.104 4.104 0 0 1-.403-.17v1.423c.002.009.016.057.114.14.123.107.33.225.63.334.596.216 1.452.36 2.422.36.838 0 1.592-.107 2.167-.277Zm-5.333-5.89c.003-.012.02-.06.114-.14.123-.105.33-.223.63-.332.596-.217 1.452-.36 2.422-.36.97 0 1.826.143 2.422.36.3.109.508.227.63.333.094.08.112.127.115.14-.003.012-.02.06-.114.14-.123.105-.33.223-.63.333-.597.216-1.453.36-2.423.36s-1.826-.144-2.422-.36c-.3-.11-.507-.228-.63-.334-.093-.08-.111-.127-.114-.14Zm5.93 1.413c.14-.05.276-.107.403-.17v1.423c-.002.01-.017.057-.114.141-.123.106-.33.224-.63.333-.597.217-1.453.36-2.423.36s-1.826-.143-2.422-.36c-.3-.109-.507-.227-.63-.333-.098-.084-.112-.132-.114-.141V4.409c.127.063.262.12.403.17.731.266 1.708.42 2.763.42s2.033-.154 2.764-.42Zm.517 2.781c-.093.08-.11.128-.114.14.003.012.02.06.114.14.123.106.33.224.63.333.597.216 1.453.36 2.423.36s1.826-.144 2.421-.36c.3-.11.508-.227.631-.333.093-.08.111-.128.114-.14-.003-.012-.02-.06-.114-.14-.123-.106-.33-.224-.63-.333-.596-.217-1.453-.36-2.422-.36-.97 0-1.826.143-2.422.36-.3.11-.508.227-.63.333Zm5.816 1.553a4.2 4.2 0 0 0 .403-.17v1.422c-.002.01-.016.058-.114.142-.123.105-.33.223-.63.332-.596.217-1.453.36-2.422.36-.97 0-1.826-.143-2.422-.36-.3-.108-.508-.227-.63-.332-.098-.084-.113-.133-.115-.142V8.743a4.2 4.2 0 0 0 .403.17c.731.266 1.708.42 2.764.42 1.055 0 2.032-.154 2.763-.42Zm0 2.666c.14-.05.276-.107.403-.17v1.423c-.002.01-.016.057-.114.141-.123.106-.33.224-.63.333-.596.217-1.453.36-2.422.36-.97 0-1.826-.143-2.422-.36-.3-.109-.508-.227-.63-.333-.098-.084-.113-.132-.115-.141v-1.423c.127.063.263.12.403.17.731.266 1.708.42 2.764.42 1.055 0 2.032-.154 2.763-.42Z" clip-rule="evenodd"/>
</svg>
