<svg xmlns="http://www.w3.org/2000/svg" width="16" height="16" viewBox="0 0 16 16">
  <path fill-rule="evenodd" d="M9.603 4.529a2 2 0 1 0-3.207 0c-2.791.7-4.865 3.22-5.05 6.638h-.18c-.644 0-1.166.522-1.166 1.166V13.5c0 .644.522 1.167 1.167 1.167h13.666c.645 0 1.167-.523 1.167-1.167v-1.167c0-.644-.522-1.166-1.167-1.166h-.18c-.184-3.418-2.258-5.938-5.05-6.638ZM7 3.333a1 1 0 1 1 2 0 1 1 0 0 1-2 0Zm1 2c-2.96 0-5.438 2.286-5.652 5.834h11.304C13.439 7.619 10.96 5.333 8 5.333ZM1 13.5c0 .092.075.167.167.167h13.666A.167.167 0 0 0 15 13.5v-1.167a.167.167 0 0 0-.167-.166H1.167a.167.167 0 0 0-.167.166V13.5Z" clip-rule="evenodd"/>
</svg>
