<svg xmlns="http://www.w3.org/2000/svg" width="26" height="16" fill="none" viewBox="0 0 26 16">
  <g clip-path="url(#a)">
    <path fill="#AFF5B4" d="M23.333 0H2C.867 0 0 .867 0 2v12c0 1.133.933 2 2 2h21.333c1.134 0 2-.867 2-2V2c0-1.133-.933-2-2-2Z"/>
    <path fill="#22863A" fill-rule="evenodd" d="M12.667 4.167a.5.5 0 0 1 .5.5V7.5H16a.5.5 0 1 1 0 1h-2.833v2.833a.5.5 0 0 1-1 0V8.5H9.333a.5.5 0 0 1 0-1h2.834V4.667a.5.5 0 0 1 .5-.5Z" clip-rule="evenodd"/>
  </g>
  <defs>
    <clipPath id="a">
      <path fill="#fff" d="M0 0h25.333v16H0z"/>
    </clipPath>
  </defs>
</svg>
