<svg width="16" height="16" fill="none" xmlns="http://www.w3.org/2000/svg">
  <path fill-rule="evenodd" clip-rule="evenodd" d="M4 5.5c0-2.145 1.465-4 4-4s4 1.855 4 4c0 1.259-.51 2.098-1.11 2.94l-.188.257c-.46.629-1.008 1.378-1.16 2.303H6.458c-.153-.925-.701-1.674-1.161-2.303a28.086 28.086 0 01-.188-.258C4.51 7.6 4 6.76 4 5.5zm2.5 7v.5a1.5 1.5 0 003 0v-.5h-3zM8 0C4.535 0 2.5 2.631 2.5 5.5c0 1.741.74 2.902 1.39 3.81l.166.232c.59.823.944 1.315.944 1.958V13a3 3 0 106 0v-1.5c0-.643.353-1.135.944-1.958.054-.074.11-.151.166-.231.65-.91 1.39-2.07 1.39-3.811C13.5 2.631 11.465 0 8 0z" />
</svg>
