<svg xmlns="http://www.w3.org/2000/svg" width="16" height="16" viewBox="0 0 16 16">
  <path d="M2.16 10.152c.756 0 1.34-.585 1.34-1.45V5.333h.82v5.458h-.811v-.506a1.97 1.97 0 0 1-1.443.6C.896 10.885 0 10.035 0 8.749V5.334h.819v3.368c0 .88.576 1.45 1.34 1.45m2.769-4.819h.787v1.989a1.966 1.966 0 0 1 1.412-.593c1.17 0 2.09.928 2.09 2.082 0 1.146-.92 2.074-2.09 2.074a1.983 1.983 0 0 1-1.42-.593v.5h-.78V5.333Zm2.144 4.858c.749 0 1.365-.616 1.365-1.38a1.37 1.37 0 0 0-1.365-1.38A1.37 1.37 0 0 0 5.7 8.811c0 .764.608 1.38 1.372 1.38Zm4.498-3.454c1.147 0 1.99.881 1.99 2.066v.257h-3.236c.11.648.647 1.131 1.317 1.131.46 0 .85-.187 1.146-.585l.57.421c-.398.53-.99.85-1.716.85-1.193 0-2.113-.889-2.113-2.074 0-1.123.881-2.066 2.043-2.066m-1.232 1.7h2.425c-.132-.609-.624-1.014-1.208-1.014-.585 0-1.076.405-1.217 1.014Zm5.333-.92c-.514 0-.889.397-.889 1.013v2.261h-.787V6.815h.78v.492c.195-.32.514-.523.951-.523H16v.733h-.328Z"/>
</svg>
