<svg width="16" height="16" viewBox="0 0 16 16" fill="none" xmlns="http://www.w3.org/2000/svg">
  <path d="M1.787 13.976h.692a.77.77 0 00.787-.775v-.994A83.78 83.78 0 008 12.349c1.52 0 3.426-.06 4.74-.142v.994c0 .438.337.775.78.775h.699a.764.764 0 00.781-.775V9.787c0-.994-.201-1.556-.746-2.266l-.502-.645c-.213-1.065-.61-2.184-.811-2.622-.32-.668-.93-1.065-1.716-1.171C10.828 3.035 9.533 3 8 3c-1.527 0-2.822.041-3.219.083-.787.095-1.402.503-1.716 1.171-.207.438-.598 1.557-.816 2.622l-.498.645C1.201 8.23 1 8.793 1 9.787v3.414a.77.77 0 00.787.775zm1.657-7.591c.136-.651.426-1.497.621-1.84.16-.279.331-.397.651-.438.45-.066 1.456-.101 3.284-.101 1.834 0 2.84.024 3.284.1.32.048.485.16.65.438.202.338.474 1.19.628 1.84.053.22-.041.302-.266.285A63.741 63.741 0 008 6.544a62.97 62.97 0 00-4.29.125c-.23.017-.32-.065-.266-.284zm.29 4.367a.934.934 0 01-.953-.953c0-.539.414-.947.953-.947.538 0 .952.408.952.947a.934.934 0 01-.952.953zm8.532 0a.929.929 0 01-.947-.953c0-.539.409-.947.947-.947.545 0 .953.408.953.947a.93.93 0 01-.953.953z" />
</svg>
