<svg width="16" height="16" viewBox="0 0 16 16" fill="none" xmlns="http://www.w3.org/2000/svg">
  <path fill-rule="evenodd" clip-rule="evenodd" d="M7.282 1a4.66 4.66 0 014.613 5.266 5.007 5.007 0 011.605 3.69A5.05 5.05 0 018.455 15H6.09A3.093 3.093 0 013 11.91V4.09A3.093 3.093 0 016.09 1h1.192zm0 1.487H6.09c-.884 0-1.603.719-1.603 1.603v7.82c0 .884.719 1.603 1.603 1.603h2.365a3.562 3.562 0 002.904-5.615 4.664 4.664 0 01-1.376 1.545l-.011.007a5.61 5.61 0 01-.196.132l-.035.022a2.517 2.517 0 01-3.789-2.175A2.524 2.524 0 018.46 4.91a5.018 5.018 0 011.97.402 3.172 3.172 0 00-3.148-2.825zm1.179 3.91a1.033 1.033 0 10.52 1.93c.042-.028.087-.058.13-.09l.01-.006a3.17 3.17 0 001.089-1.37A3.527 3.527 0 008.55 6.4h-.008l-.081-.003z" />
</svg>
