<svg fill="none" height="16" width="16" xmlns="http://www.w3.org/2000/svg"><path d="m8.004 0 .737 1.283a.882.882 0 0 1 0 .855l-4.394 7.624 2.08 3.598c.324.56.928.915 1.577.915s1.254-.354 1.578-.915l2.08-3.598-.546-.973-2.36 4.085a.855.855 0 0 1 -.737.427.837.837 0 0 1 -.738-.427l-1.813-3.112 4.084-7.078.738 1.283a.882.882 0 0 1 0 .855l-2.846 4.94.56.973 3.097-5.367 2.035 3.524c.31.546.31 1.21 0 1.755l-2.066 3.583c-.31.546-1.297 1.77-3.067 1.77s-2.743-1.224-3.067-1.77l-2.065-3.583a1.773 1.773 0 0 1 0-1.755z"/></svg>