<svg xmlns="http://www.w3.org/2000/svg" width="27" height="16" viewBox="0 0 27 16">
  <g clip-path="url(#a)">
    <path fill="#AFF5B4" d="M24.254 0H2.08C.9 0 0 .867 0 2v12c0 1.133.97 2 2.079 2h22.175c1.178 0 2.08-.867 2.08-2V2c0-1.133-.97-2-2.08-2Z"/>
    <path fill="#22863A" fill-rule="evenodd" d="M13.167 4.167a.53.53 0 0 1 .367.146.49.49 0 0 1 .152.354V7.5h2.946a.53.53 0 0 1 .367.146.49.49 0 0 1 0 .708.53.53 0 0 1-.367.146h-2.946v2.833c0 .133-.054.26-.152.354a.53.53 0 0 1-.735 0 .491.491 0 0 1-.152-.354V8.5H9.702a.53.53 0 0 1-.368-.146.49.49 0 0 1 0-.708.53.53 0 0 1 .368-.146h2.945V4.667a.49.49 0 0 1 .152-.354.53.53 0 0 1 .368-.146Z" clip-rule="evenodd"/>
  </g>
  <defs>
    <clipPath id="a">
      <path fill="#fff" d="M0 0h26.333v16H0z"/>
    </clipPath>
  </defs>
</svg>
