<svg xmlns="http://www.w3.org/2000/svg" width="16" height="16" viewBox="0 0 16 16">
  <path d="M3.167 1.333C2.522 1.333 2 1.856 2 2.5v1.667a.5.5 0 0 0 1 0V2.5c0-.092.075-.167.167-.167h9.666c.092 0 .167.075.167.167v7.833a.167.167 0 0 1-.167.167h-.5a.333.333 0 0 0-.333.333v.834c0 .184.15.333.333.333h2.917a.75.75 0 0 0 0-1.5h-1.262c.008-.055.012-.11.012-.167V2.5c0-.644-.522-1.167-1.167-1.167H3.167Zm.5 10.834a.5.5 0 0 1 .5-.5h2.666a.5.5 0 1 1 0 1H4.167a.5.5 0 0 1-.5-.5Z"/>
  <path fill-rule="evenodd" d="M0 7.167c0-1.013.82-1.834 1.833-1.834h7.334c1.012 0 1.833.821 1.833 1.834v5.666c0 1.013-.82 1.834-1.833 1.834H1.833A1.833 1.833 0 0 1 0 12.833V7.167Zm1 0c0-.46.373-.834.833-.834h7.334c.46 0 .833.373.833.834v5.666c0 .46-.373.834-.833.834H1.833A.833.833 0 0 1 1 12.833V7.167Z" clip-rule="evenodd"/>
</svg>
