<svg xmlns="http://www.w3.org/2000/svg" width="16" height="16" viewBox="0 0 16 16">
  <g clip-path="url(#ic-16-sparkles__a)">
    <path fill-rule="evenodd" d="M10.316.744a.683.683 0 0 0-.632 0 .715.715 0 0 0-.304.333 3.474 3.474 0 0 0-.108.261L8.66 2.934c-.216.562-.296.758-.41.918-.11.154-.243.288-.397.397-.16.114-.356.194-.918.41l-1.596.613c-.09.035-.185.072-.26.109a.715.715 0 0 0-.334.303.683.683 0 0 0 0 .633.715.715 0 0 0 .333.303c.076.037.172.073.261.108l1.596.614c.562.216.757.295.918.41.154.108.288.242.397.396.114.16.194.357.41.918l.613 1.596c.035.09.071.185.108.26.03.062.115.235.304.334a.683.683 0 0 0 .633 0 .715.715 0 0 0 .303-.333c.037-.076.073-.172.108-.261l.614-1.596c.215-.561.295-.757.41-.918a1.64 1.64 0 0 1 .396-.397c.16-.114.357-.194.918-.41l1.596-.613c.09-.035.185-.071.26-.108a.715.715 0 0 0 .334-.303.683.683 0 0 0 0-.633.715.715 0 0 0-.333-.303c-.076-.037-.172-.074-.261-.109l-1.596-.613c-.562-.216-.757-.296-.918-.41a1.685 1.685 0 0 1-.397-.397c-.114-.16-.194-.356-.41-.918l-.613-1.596a3.953 3.953 0 0 0-.108-.26.715.715 0 0 0-.303-.334ZM10 2.302l.408 1.06c.184.48.309.805.508 1.084.175.247.39.463.638.638.279.199.605.324 1.084.508l1.06.408-1.06.408c-.48.184-.805.31-1.084.508a2.71 2.71 0 0 0-.638.638c-.199.279-.324.605-.508 1.084L10 9.698l-.408-1.06c-.184-.48-.309-.805-.508-1.084a2.71 2.71 0 0 0-.638-.638c-.279-.199-.605-.324-1.084-.508L6.302 6l1.06-.408c.48-.184.805-.309 1.084-.508a2.71 2.71 0 0 0 .638-.638c.199-.279.324-.605.508-1.084L10 2.302ZM4.622 8.065a.674.674 0 0 0-.577 0 .692.692 0 0 0-.289.27c-.038.063-.076.14-.11.206l-.352.705c-.208.415-.283.562-.38.686a1.74 1.74 0 0 1-.315.316c-.125.096-.272.172-.686.38l-.706.352a2.714 2.714 0 0 0-.205.11.693.693 0 0 0-.27.288.674.674 0 0 0 0 .578c.078.164.21.25.27.288.062.038.14.077.205.11l.706.352c.414.208.561.283.686.38.118.09.224.197.316.315.096.125.171.272.379.687l.353.705c.033.066.071.143.11.205.036.06.123.193.288.27a.674.674 0 0 0 .577 0 .692.692 0 0 0 .288-.27c.039-.062.077-.14.11-.205l.353-.705c.207-.415.283-.562.379-.687a1.74 1.74 0 0 1 .316-.316c.125-.096.271-.171.686-.379l.706-.352a2.71 2.71 0 0 0 .204-.11.693.693 0 0 0 .271-.288.674.674 0 0 0 0-.578.693.693 0 0 0-.27-.288 2.712 2.712 0 0 0-.205-.11l-.706-.353c-.415-.207-.561-.283-.686-.379a1.74 1.74 0 0 1-.316-.316c-.096-.124-.172-.271-.38-.686l-.352-.705c-.033-.066-.071-.143-.11-.205a.692.692 0 0 0-.288-.27Zm-.289 1.362-.156.314c-.179.357-.299.597-.462.808a2.749 2.749 0 0 1-.5.5c-.21.163-.45.283-.807.461l-.314.157.314.156c.356.179.596.299.808.462.187.144.355.312.5.5.162.21.282.451.46.808l.157.313.157-.313c.178-.357.298-.597.461-.809a2.75 2.75 0 0 1 .5-.5c.211-.162.452-.282.808-.46l.314-.157-.314-.157c-.356-.178-.597-.298-.808-.461a2.75 2.75 0 0 1-.5-.5c-.163-.211-.283-.451-.46-.808l-.158-.314Z" clip-rule="evenodd"/>
  </g>
  <defs>
    <clipPath id="ic-16-sparkles__a">
      <path d="M0 0h16v16H0z"/>
    </clipPath>
  </defs>
</svg>
