<svg xmlns="http://www.w3.org/2000/svg" width="16" height="16" viewBox="0 0 16 16">
  <g clip-path="url(#ic-16-sale__a)">
    <path d="M11.187 4.813a.5.5 0 0 1 0 .707L5.52 11.187a.5.5 0 0 1-.707-.707l5.667-5.667a.5.5 0 0 1 .707 0Zm-4.52 1.02a.833.833 0 1 1-1.667 0 .833.833 0 0 1 1.667 0ZM11 10.167a.833.833 0 1 1-1.667 0 .833.833 0 0 1 1.667 0Z"/>
    <path fill-rule="evenodd" d="M8 .333c.512 0 1.011.164 1.424.467l.917.673c.183.134.395.222.619.256l1.125.173a2.407 2.407 0 0 1 2.013 2.014l.173 1.124c.034.224.122.437.256.62l.673.916a2.406 2.406 0 0 1 0 2.848l-.673.917a1.406 1.406 0 0 0-.256.619l-.173 1.125a2.406 2.406 0 0 1-2.014 2.013l-1.124.173a1.405 1.405 0 0 0-.62.256l-.916.673a2.406 2.406 0 0 1-2.848 0l-.917-.673a1.404 1.404 0 0 0-.619-.256l-1.125-.173a2.407 2.407 0 0 1-2.013-2.014l-.173-1.124a1.411 1.411 0 0 0-.256-.62L.8 9.425a2.407 2.407 0 0 1 0-2.848l.673-.917a1.4 1.4 0 0 0 .256-.619l.173-1.125a2.407 2.407 0 0 1 2.014-2.013L5.04 1.73c.224-.034.437-.122.62-.256L6.575.8A2.407 2.407 0 0 1 8 .333Zm0 1c-.3 0-.59.096-.832.273l-.917.673a2.4 2.4 0 0 1-1.06.439l-1.124.172A1.407 1.407 0 0 0 2.89 4.067l-.172 1.124c-.059.384-.21.747-.439 1.06l-.673.917a1.407 1.407 0 0 0 0 1.664l.673.917c.23.313.38.676.439 1.06l.172 1.124a1.406 1.406 0 0 0 1.177 1.177l1.124.172c.384.059.747.21 1.06.439l.917.673a1.407 1.407 0 0 0 1.664 0l.917-.673c.313-.23.676-.38 1.06-.438l1.124-.174a1.407 1.407 0 0 0 1.177-1.176l.172-1.124c.059-.384.21-.747.439-1.06l.673-.917a1.407 1.407 0 0 0 0-1.664l-.673-.917a2.406 2.406 0 0 1-.438-1.06l-.174-1.124a1.406 1.406 0 0 0-1.176-1.177l-1.124-.172a2.406 2.406 0 0 1-1.06-.439l-.917-.673A1.407 1.407 0 0 0 8 1.334Z" clip-rule="evenodd"/>
  </g>
  <defs>
    <clipPath id="ic-16-sale__a">
      <path d="M0 0h16v16H0z"/>
    </clipPath>
  </defs>
</svg>
