<svg xmlns="http://www.w3.org/2000/svg" width="16" height="16" viewBox="0 0 16 16">
  <g clip-path="url(#ic-16-serving-dome-on-hand__a)">
    <path fill-rule="evenodd" d="M2.216 8.667h.568c.172 0 .33 0 .461.01.142.012.298.039.451.117.22.112.398.29.51.51.07.138.1.277.113.407.31-.077.707-.175 1.123-.273.453-.106.93-.214 1.337-.296.386-.077.763-.142.983-.142.306 0 .61.036.908.109l1.59.386c.684.166 1.179.77 1.179 1.478v.204c0 .023 0 .045-.002.067l1.43-.948a1.573 1.573 0 0 1 2.007.148 1.502 1.502 0 0 1 0 2.162l-1.439 1.4c-.485.472-1.254.756-1.837.87l-2.034.396a3.351 3.351 0 0 1-1.431-.034l-1.839-.446a5.715 5.715 0 0 0-.484-.081 4.767 4.767 0 0 0-.477-.046h-1c-.002.09-.004.172-.01.247a1.183 1.183 0 0 1-.117.451c-.112.22-.29.398-.51.51a1.183 1.183 0 0 1-.45.116c-.133.011-.29.011-.462.011h-.568c-.172 0-.33 0-.461-.01a1.183 1.183 0 0 1-.451-.117 1.166 1.166 0 0 1-.51-.51 1.183 1.183 0 0 1-.117-.451c-.01-.132-.01-.29-.01-.461v-4.235c0-.172 0-.33.01-.461.012-.142.039-.298.117-.451.112-.22.29-.398.51-.51.153-.078.309-.105.45-.117.133-.01.29-.01.462-.01Zm2.117 4.998h1c.15 0 .395.026.608.055.216.028.452.066.59.1l1.838.447c.329.08.672.088 1.005.023l2.032-.395c.49-.096 1.043-.325 1.332-.606l1.439-1.4a.503.503 0 0 0 0-.729.573.573 0 0 0-.75-.037l-1.833 1.218a1.914 1.914 0 0 1-1.118.359h-.01l-1.62-.033a.5.5 0 1 1 .021-1l1.205.024c.145-.009.216-.062.26-.12.058-.075.107-.206.107-.394v-.204a.528.528 0 0 0-.414-.506l-1.59-.387a2.853 2.853 0 0 0-.673-.08c-.102 0-.376.04-.787.123-.39.078-.855.183-1.304.289a90.737 90.737 0 0 0-1.338.327v2.926Zm-2.58-3.978h.002-.001Zm.003-.001a.418.418 0 0 1 .08-.012c.086-.007.202-.007.397-.007h.534c.195 0 .31 0 .397.007a.37.37 0 0 1 .08.012c.03.016.054.04.07.07a.419.419 0 0 1 .012.08c.007.086.007.203.007.397v4.2c0 .195 0 .312-.007.398a.418.418 0 0 1-.012.08.167.167 0 0 1-.07.07.418.418 0 0 1-.08.012 5.506 5.506 0 0 1-.397.007h-.534c-.195 0-.31 0-.397-.007a.418.418 0 0 1-.08-.012.167.167 0 0 1-.07-.07.417.417 0 0 1-.012-.08 5.557 5.557 0 0 1-.007-.398v-4.2c0-.194 0-.31.007-.397a.418.418 0 0 1 .012-.08.167.167 0 0 1 .07-.07Zm-.07.068v.001-.001Zm0 5.159v-.001Zm.068.067Zm1.492 0Zm.068-.067v-.001Zm0-5.159v.001-.001Zm-.069-.068h.001Zm8.18-7.154a1.667 1.667 0 1 0-2.85 0A5.171 5.171 0 0 0 4.857 7H4.5a.5.5 0 1 0 0 1h11a.5.5 0 0 0 0-1h-.357a5.171 5.171 0 0 0-3.718-4.468ZM10 1a.667.667 0 1 0 0 1.333A.667.667 0 0 0 10 1Zm0 2.333A4.167 4.167 0 0 0 5.863 7h8.274A4.167 4.167 0 0 0 10 3.333Z" clip-rule="evenodd"/>
  </g>
  <defs>
    <clipPath id="ic-16-serving-dome-on-hand__a">
      <path d="M0 0h16v16H0z"/>
    </clipPath>
  </defs>
</svg>
