<svg fill="none" height="16" width="16" xmlns="http://www.w3.org/2000/svg" xmlns:xlink="http://www.w3.org/1999/xlink"><clipPath id="a"><path d="m0 0h16v16h-16z"/></clipPath><g clip-path="url(#a)"><path clip-rule="evenodd" d="m1.643 3.143-1.216-1.216a.25.25 0 0 0 -.427.177v3.646c0 .138.112.25.25.25h3.646a.25.25 0 0 0 .177-.427l-1.358-1.358a6.5 6.5 0 1 1 -1.18 4.458.75.75 0 1 0 -1.493.154 8.001 8.001 0 1 0 1.6-5.684zm6.107.857a.75.75 0 0 1 .75.75v2.992l2.028.812a.75.75 0 0 1 -.557 1.392l-2.5-1a.75.75 0 0 1 -.471-.696v-3.5a.75.75 0 0 1 .75-.75z" fill-rule="evenodd"/></g></svg>