<svg xmlns="http://www.w3.org/2000/svg" width="16" height="16" viewBox="0 0 16 16">
  <path d="M4.667 4a.667.667 0 1 1-1.334 0 .667.667 0 0 1 1.334 0Z"/>
  <path fill-rule="evenodd" d="M1.333 2.5c0-.644.523-1.167 1.167-1.167h3c.644 0 1.167.523 1.167 1.167v3c0 .644-.523 1.167-1.167 1.167h-3A1.167 1.167 0 0 1 1.333 5.5v-3ZM2.5 2.333a.167.167 0 0 0-.167.167v3c0 .092.075.167.167.167h3a.167.167 0 0 0 .167-.167v-3a.167.167 0 0 0-.167-.167h-3Z" clip-rule="evenodd"/>
  <path d="M1.333 8a.5.5 0 0 1 .5-.5h4.334a.5.5 0 0 1 0 1H1.833a.5.5 0 0 1-.5-.5ZM8 4.667a.5.5 0 0 1 .5.5v2.166c0 .092.075.167.167.167H9.5a.5.5 0 0 1 0 1h-.833A1.167 1.167 0 0 1 7.5 7.333V5.167a.5.5 0 0 1 .5-.5ZM8 9.5a.5.5 0 0 0 0 1h1.5a.5.5 0 1 0 0-1H8Zm6.167-.167a.5.5 0 0 1 .5.5V13.5c0 .644-.523 1.167-1.167 1.167h-1.667a.5.5 0 0 1 0-1H13.5a.167.167 0 0 0 .167-.167V9.833a.5.5 0 0 1 .5-.5ZM8.5 12.667c0-.092.075-.167.167-.167H9.5a.5.5 0 1 0 0-1h-.833c-.645 0-1.167.522-1.167 1.167v1.5a.5.5 0 0 0 1 0v-1.5Zm-4.5 0a.667.667 0 1 0 0-1.334.667.667 0 0 0 0 1.334Z"/>
  <path fill-rule="evenodd" d="M2.5 9.333c-.644 0-1.167.523-1.167 1.167v3c0 .644.523 1.167 1.167 1.167h3c.644 0 1.167-.523 1.167-1.167v-3c0-.644-.523-1.167-1.167-1.167h-3ZM2.333 10.5c0-.092.075-.167.167-.167h3c.092 0 .167.075.167.167v3a.167.167 0 0 1-.167.167h-3a.167.167 0 0 1-.167-.167v-3Z" clip-rule="evenodd"/>
  <path d="M12 4.667a.667.667 0 1 0 0-1.334.667.667 0 0 0 0 1.334Z"/>
  <path fill-rule="evenodd" d="M9.333 2.5c0-.644.523-1.167 1.167-1.167h3c.644 0 1.167.523 1.167 1.167v3c0 .644-.523 1.167-1.167 1.167h-3A1.167 1.167 0 0 1 9.333 5.5v-3Zm1.167-.167a.167.167 0 0 0-.167.167v3c0 .092.075.167.167.167h3a.167.167 0 0 0 .167-.167v-3a.167.167 0 0 0-.167-.167h-3Z" clip-rule="evenodd"/>
  <path d="M12.667 8a.667.667 0 1 1-1.334 0 .667.667 0 0 1 1.334 0ZM12 12.667a.667.667 0 1 0 0-1.334.667.667 0 0 0 0 1.334Z"/>
</svg>
