<svg width="16" height="16" viewBox="0 0 16 16" fill="none" xmlns="http://www.w3.org/2000/svg">
<path d="M5.30792 5.30786C5.49918 5.1166 5.77625 5.03819 6.03937 5.10083L14.4915 7.11548C14.7749 7.18318 14.9788 7.43261 14.9876 7.72388C14.9952 7.98376 14.8455 8.22282 14.6087 8.33032L10.9739 9.97876L10.8128 10.0608C10.4467 10.2686 10.154 10.5877 9.97882 10.9739L8.33038 14.6086L8.28448 14.6936C8.16314 14.8806 7.95128 14.9942 7.72394 14.9875L7.61652 14.9749C7.4076 14.9332 7.2319 14.7901 7.14874 14.594L7.11554 14.4915L5.10089 6.03931C5.03825 5.77619 5.11666 5.49912 5.30792 5.30786ZM7.84698 13.2512L9.06769 10.5618L9.19171 10.3196C9.50353 9.77022 9.98233 9.33041 10.5618 9.06763L13.2513 7.84692L6.15656 6.15649L7.84698 13.2512Z" />
<path d="M6.16666 1C6.44281 1 6.66666 1.22386 6.66666 1.5V2.83337C6.66666 3.10952 6.44281 3.33337 6.16666 3.33337C5.89052 3.33337 5.66666 3.10952 5.66666 2.83337V1.5C5.66666 1.22386 5.89052 1 6.16666 1Z" />
<path d="M3.14645 3.14648C3.34171 2.95122 3.65829 2.95122 3.85355 3.14648L4.65355 3.94641C4.84881 4.14167 4.84881 4.4583 4.65355 4.65356C4.45829 4.84883 4.14171 4.84883 3.94645 4.65356L3.14645 3.85352C2.95118 3.65825 2.95118 3.34175 3.14645 3.14648Z" />
<path d="M1 6.16663C1 5.89048 1.22386 5.66663 1.5 5.66663H2.83334C3.10948 5.66663 3.33334 5.89048 3.33334 6.16663C3.33334 6.44277 3.10948 6.66663 2.83334 6.66663H1.5C1.22386 6.66663 1 6.44277 1 6.16663Z" />
<path d="M2.11312 9.01487C2.05065 8.74588 2.21805 8.47719 2.48704 8.41471L3.7858 8.11305C4.05478 8.05057 4.32348 8.21798 4.38596 8.48696C4.44843 8.75594 4.28103 9.02464 4.01204 9.08712L2.71328 9.38878C2.4443 9.45126 2.1756 9.28385 2.11312 9.01487Z" />
<path d="M9.90922 2.32843C10.1175 2.50975 10.1393 2.82558 9.95802 3.03385L9.08253 4.03948C8.90121 4.24776 8.58538 4.26961 8.37711 4.08829C8.16884 3.90697 8.14699 3.59114 8.32831 3.38287L9.2038 2.37723C9.38512 2.16896 9.70095 2.14711 9.90922 2.32843Z" />
</svg>
