<svg xmlns="http://www.w3.org/2000/svg" width="16" height="16" viewBox="0 0 16 16">
  <path fill-rule="evenodd" d="M2.5 3.333a.5.5 0 0 0-.5.5V5.09c0 .728 0 1.305.038 1.77.039.475.12.878.307 1.245a3.17 3.17 0 0 0 1.384 1.384c.367.187.77.268 1.245.307.466.038 1.043.038 1.77.038h5.498l-2.085 1.97a.5.5 0 1 0 .686.727l3-2.833a.5.5 0 0 0 0-.727l-3-2.834a.5.5 0 1 0-.686.727l2.085 1.97H6.767c-.755 0-1.291 0-1.711-.034-.414-.034-.67-.098-.873-.202a2.167 2.167 0 0 1-.947-.947c-.103-.203-.168-.459-.201-.873C3 6.357 3 5.822 3 5.067V3.833a.5.5 0 0 0-.5-.5Z" clip-rule="evenodd"/>
</svg>
