<svg fill="none" height="16" width="16" xmlns="http://www.w3.org/2000/svg" xmlns:xlink="http://www.w3.org/1999/xlink"><clipPath id="a"><path d="m0 0h16v16h-16z"/></clipPath><g clip-path="url(#a)"><path d="m8.101 4.597c-.632 0-1.61-.718-2.64-.693-1.36.018-2.606.789-3.307 2.01-1.411 2.45-.364 6.068 1.013 8.06.675.969 1.472 2.06 2.528 2.025 1.013-.043 1.393-.658 2.623-.658 1.22 0 1.567.658 2.64.632 1.091-.017 1.784-.986 2.45-1.965a8.705 8.705 0 0 0 1.109-2.277c-.026-.008-2.122-.814-2.147-3.238-.017-2.026 1.653-2.996 1.731-3.039-.952-1.393-2.415-1.55-2.926-1.584-1.334-.104-2.45.727-3.074.727zm2.252-2.044c.562-.674.934-1.618.83-2.553-.803.035-1.773.537-2.353 1.212-.52.597-.97 1.559-.849 2.476.892.07 1.81-.459 2.373-1.134"/></g></svg>