<svg width="16" height="16" viewBox="0 0 16 16" fill="none" xmlns="http://www.w3.org/2000/svg">
  <g clip-path="url(#ic16__person-add__clip0)">
    <path fill-rule="evenodd" clip-rule="evenodd" d="M13.25 0a.75.75 0 01.75.75V2h1.25a.75.75 0 110 1.5H14v1.25a.75.75 0 11-1.5 0V3.5h-1.25a.75.75 0 110-1.5h1.25V.75a.75.75 0 01.75-.75zM5.5 4a2 2 0 100 4 2 2 0 000-4zm2.4 4.548a3.5 3.5 0 10-4.799 0 5.527 5.527 0 00-3.1 4.66.75.75 0 101.498.085A4.01 4.01 0 015.5 9.5a4.01 4.01 0 014.001 3.793.75.75 0 001.498-.086 5.526 5.526 0 00-3.1-4.659H7.9z" />
  </g>
  <defs>
    <clipPath id="ic16__person-add__clip0">
      <path fill="#fff" d="M0 0h16v16H0z"/>
    </clipPath>
  </defs>
</svg>
