<svg xmlns="http://www.w3.org/2000/svg" width="16" height="16" viewBox="0 0 16 16">
  <path fill-rule="evenodd" d="M5.459 1.917a1.99 1.99 0 0 0-2.815 0l-.485.486c-.676.676-.95 1.642-.771 2.585.389 2.059 1.576 4.278 3.461 6.163 1.885 1.886 4.105 3.073 6.164 3.462.942.178 1.909-.095 2.585-.771l.485-.485a1.99 1.99 0 0 0 0-2.814l-.874-.874a1.617 1.617 0 0 0-2.288 0l-.673.673a.077.077 0 0 1-.037.021.037.037 0 0 1-.023-.001A8.932 8.932 0 0 1 7.5 8.499a8.914 8.914 0 0 1-1.86-2.686.037.037 0 0 1-.001-.023.078.078 0 0 1 .02-.038l.61-.61c.678-.677.714-1.7.064-2.35l-.874-.875Zm-.708.707a.99.99 0 0 0-1.4 0l-.485.486c-.428.428-.616 1.055-.496 1.692.347 1.835 1.422 3.879 3.186 5.642 1.764 1.764 3.808 2.84 5.643 3.186.637.12 1.263-.067 1.691-.495l.486-.485a.99.99 0 0 0 0-1.4l-.874-.874a.617.617 0 0 0-.873 0l-.673.673c-.297.297-.76.41-1.172.228a9.934 9.934 0 0 1-2.99-2.071 9.914 9.914 0 0 1-2.069-2.99 1.058 1.058 0 0 1 .228-1.171l.61-.61c.323-.322.287-.712.063-.936l-.875-.875Z" clip-rule="evenodd"/>
</svg>
