<svg fill="none" height="16" width="16" xmlns="http://www.w3.org/2000/svg" xmlns:xlink="http://www.w3.org/1999/xlink"><clipPath id="a"><path d="m0 0h16v16h-16z"/></clipPath><g clip-path="url(#a)"><path clip-rule="evenodd" d="m13.25 0a.75.75 0 0 1 .75.75v1.25h1.25a.75.75 0 1 1 0 1.5h-1.25v1.25a.75.75 0 1 1 -1.5 0v-1.25h-1.25a.75.75 0 1 1 0-1.5h1.25v-1.25a.75.75 0 0 1 .75-.75zm-7.75 4a2 2 0 1 0 0 4 2 2 0 0 0 0-4zm2.4 4.548a3.5 3.5 0 1 0 -4.799 0 5.527 5.527 0 0 0 -3.1 4.66.75.75 0 1 0 1.498.085 4.01 4.01 0 0 1 4.001-3.793 4.01 4.01 0 0 1 4.001 3.793.75.75 0 0 0 1.498-.086 5.526 5.526 0 0 0 -3.1-4.659z" fill-rule="evenodd"/></g></svg>