<svg xmlns="http://www.w3.org/2000/svg" width="24" height="16" fill="none" viewBox="0 0 24 16">
  <g clip-path="url(#a)">
    <path fill="#1A1A1A" d="M22.105 0H1.895A1.86 1.86 0 0 0 0 1.895v11.368a1.9 1.9 0 0 0 1.895 1.895h20.21A1.861 1.861 0 0 0 24 13.263V1.895A1.9 1.9 0 0 0 22.105 0Z" opacity=".16"/>
    <path fill="#fff" d="M22.105.632c.695 0 1.263.568 1.263 1.263v11.368c0 .695-.568 1.263-1.263 1.263H1.895a1.267 1.267 0 0 1-1.263-1.263V1.895C.632 1.2 1.2.632 1.895.632h20.21Z"/>
    <path fill="url(#b)" d="M14.59 7.75c.273.006.547-.012.819.009.275.051.342.468.097.605-.167.09-.365.033-.546.05h-.37V7.75Zm.977-.751c.06.214-.146.406-.352.377h-.626c.005-.202-.008-.422.007-.613.25.007.503-.014.752.011a.298.298 0 0 1 .219.225Zm1.505-3.176c.012.41.002.84.005 1.257 0 1.696.002 3.392-.001 5.089-.011.635-.575 1.188-1.206 1.2-.632.003-1.264 0-1.896.002V8.806c.689-.003 1.378.007 2.066-.005.32-.02.67-.23.684-.582.038-.353-.295-.597-.611-.636-.121-.003-.118-.035 0-.05.301-.064.538-.376.45-.689-.076-.328-.44-.455-.741-.455-.616-.004-1.232 0-1.848-.001.004-.48-.008-.958.007-1.437.049-.624.626-1.139 1.249-1.127h1.842Z"/>
    <path fill="url(#c)" d="M7.016 5.016c.016-.634.582-1.182 1.212-1.192h1.89c-.003 2.123.003 4.247-.003 6.37-.025.627-.584 1.165-1.208 1.176-.63.002-1.261 0-1.892 0V8.72c.612.145 1.255.206 1.88.11.374-.06.782-.243.909-.63.093-.332.04-.681.054-1.022v-.79H8.777c-.005.523.01 1.046-.008 1.568-.03.321-.347.525-.65.514C7.744 8.474 7 8.198 7 8.198c-.002-.98.011-2.206.016-3.182Z"/>
    <path fill="url(#d)" d="M10.52 6.706c-.056.013-.01-.194-.025-.272.004-.494-.008-.989.006-1.482.049-.627.63-1.143 1.256-1.129h1.84c-.002 2.124.004 4.248-.002 6.371-.025.627-.584 1.164-1.208 1.175-.63.003-1.262 0-1.893.002V8.466c.431.354 1.017.409 1.554.41.404 0 .806-.063 1.2-.156v-.532c-.443.22-.964.36-1.455.234a.792.792 0 0 1-.585-.77c-.04-.367.175-.755.537-.864.448-.14.937-.033 1.357.15.09.046.181.105.146-.046v-.418c-.704-.167-1.452-.229-2.158-.047a1.582 1.582 0 0 0-.57.28Z"/>
  </g>
  <defs>
    <linearGradient id="b" x1="13.953" x2="17.058" y1="7.436" y2="7.436" gradientUnits="userSpaceOnUse">
      <stop stop-color="#58B03A"/>
      <stop offset="1" stop-color="#55B330"/>
    </linearGradient>
    <linearGradient id="c" x1="6.949" x2="10.066" y1="7.669" y2="7.669" gradientUnits="userSpaceOnUse">
      <stop stop-color="#0F6EB6"/>
      <stop offset="1" stop-color="#006DBA"/>
    </linearGradient>
    <linearGradient id="d" x1="10.49" x2="13.597" y1="7.509" y2="7.509" gradientUnits="userSpaceOnUse">
      <stop stop-color="#DE0D3D"/>
      <stop offset="1" stop-color="#E30138"/>
    </linearGradient>
    <clipPath id="a">
      <path fill="#fff" d="M0 0h24v15.158H0z"/>
    </clipPath>
  </defs>
</svg>
