<svg width="16" height="16" viewBox="0 0 16 16" fill="none" xmlns="http://www.w3.org/2000/svg">
  <path fill-rule="evenodd" clip-rule="evenodd" d="M4.25 3C2.914 3 1.5 4.164 1.5 6c0 2.15 1.58 4.144 3.365 5.682A20.565 20.565 0 008 13.893a20.561 20.561 0 003.135-2.211C12.92 10.144 14.5 8.15 14.5 6c0-1.836-1.414-3-2.75-3-1.373 0-2.609.986-3.029 2.456a.75.75 0 01-1.442 0C6.859 3.986 5.623 3 4.25 3zM8 14.75l-.345.666-.002-.001-.006-.003-.018-.01a7.643 7.643 0 01-.31-.17 22.075 22.075 0 01-3.434-2.414C2.045 11.231 0 8.85 0 6c0-2.664 2.086-4.5 4.25-4.5 1.547 0 2.903.802 3.75 2.02.847-1.218 2.203-2.02 3.75-2.02C13.914 1.5 16 3.336 16 6c0 2.85-2.045 5.231-3.885 6.818a22.08 22.08 0 01-3.744 2.584l-.018.01-.006.003h-.002L8 14.75zm0 0l.345.666a.752.752 0 01-.69 0L8 14.75z" />
</svg>
