<svg fill="none" height="16" width="16" xmlns="http://www.w3.org/2000/svg" xmlns:xlink="http://www.w3.org/1999/xlink"><clipPath id="a"><path d="m0 0h16v16h-16z"/></clipPath><g clip-path="url(#a)"><path clip-rule="evenodd" d="m2.003 2.5a.5.5 0 0 0 -.723-.447l-1.003.5a.5.5 0 0 0 .446.895l.28-.14v2.692h-.503a.5.5 0 0 0 0 1h2.006a.5.5 0 1 0 0-1h-.503zm2.997.75a.75.75 0 0 1 .75-.75h8.5a.75.75 0 0 1 0 1.5h-8.5a.75.75 0 0 1 -.75-.75zm0 5a.75.75 0 0 1 .75-.75h8.5a.75.75 0 0 1 0 1.5h-8.5a.75.75 0 0 1 -.75-.75zm0 5a.75.75 0 0 1 .75-.75h8.5a.75.75 0 0 1 0 1.5h-8.5a.75.75 0 0 1 -.75-.75zm-4.076-2.93.003-.004a.851.851 0 0 1 .144-.153.66.66 0 0 1 .429-.163c.195 0 .306.068.374.146a.57.57 0 0 1 .128.376c0 .453-.269.682-.8 1.078l-.035.025c-.475.355-1.167.87-1.167 1.875a.5.5 0 0 0 .5.5h2.003a.5.5 0 0 0 0-1h-1.357c.132-.197.351-.372.654-.597l.047-.035c.47-.35 1.156-.858 1.156-1.845 0-.365-.118-.744-.377-1.038-.268-.303-.658-.484-1.126-.484-.48 0-.84.202-1.068.392a1.858 1.858 0 0 0 -.348.384l-.007.011-.002.004-.001.002-.001.001a.5.5 0 0 0 .851.525zm-.424-.265-.427-.26z" fill-rule="evenodd"/></g></svg>