<svg fill="none" height="16" width="16" xmlns="http://www.w3.org/2000/svg" xmlns:xlink="http://www.w3.org/1999/xlink"><clipPath id="a"><path d="m0 0h16v16h-16z"/></clipPath><g clip-path="url(#a)"><path clip-rule="evenodd" d="m1.19 1.143a.75.75 0 1 0 -.88 1.214l2.69 1.948v9.945a.75.75 0 0 0 1.206.596l3.794-2.902 3.794 2.902a.75.75 0 0 0 1.206-.596v-2.703l1.81 1.31a.75.75 0 1 0 .88-1.214l-2.994-2.168a1.09 1.09 0 0 0 -.014-.01l-8.486-6.145a.712.712 0 0 0 -.014-.01zm3.31 4.247v7.341l3.044-2.328a.75.75 0 0 1 .912 0l3.044 2.328v-2.271zm1.365-4.39a.75.75 0 0 0 0 1.5h5.385a.25.25 0 0 1 .25.25v3.624a.75.75 0 0 0 1.5 0v-3.624a1.75 1.75 0 0 0 -1.75-1.75z" fill-rule="evenodd"/></g></svg>