<svg fill="none" height="16" width="16" xmlns="http://www.w3.org/2000/svg"><path d="m12.898 2.58c.716 0 1.281.214 1.695.644.414.414.62.947.62 1.6v.955c0 .637-.206 1.17-.62 1.6-.414.414-.98.621-1.695.621h-.86l-.024.137c-.048 1.306-.255 1.827-.621 2.384-.366.542-.963.812-1.791.812h-4.275c-.828 0-1.425-.27-1.79-.812-.367-.557-.574-1.078-.622-2.384l-.175-5.557zm0 4.202c.366 0 .636-.087.811-.263.175-.19.263-.437.263-.74v-.955c0-.319-.088-.565-.263-.74-.175-.191-.445-.287-.811-.287h-.765v2.985zm-11.252 7.294c-.494 0-.78-.247-.86-.74l-.12-.67h14.667l-.12.67c-.079.493-.365.74-.859.74z"/></svg>