<svg width="16" height="16" viewBox="0 0 16 16" fill="none" xmlns="http://www.w3.org/2000/svg">
  <path fill-rule="evenodd" clip-rule="evenodd" d="M2.5 2.5c-.03 0 0 3.5 0 3.5H1V1h5v1.5H2.5zM10 1h5v5h-1.5V2.5c0-.031-3.164 0-3.5 0V1zm-7.5 9v3.5H6V15H1v-5h1.5zM15 10v5h-5v-1.5h3.5c.026 0 0-3.151 0-3.5H15z" />
  <path d="M10.25 12H12v-1.75h-1.75V12zM8.5 10.25h1.75V8.5H8.5v1.75z" />
  <path fill-rule="evenodd" clip-rule="evenodd" d="M7.5 8.5H4V12h3.5V8.5zM5 11h1.5V9.5H5V11zm2.5-7H4v3.5h3.5V4zM5 6.5h1.5V5H5v1.5zM12 4H8.5v3.5H12V4zM9.5 6.5H11V5H9.5v1.5z" />
</svg>
