<svg xmlns="http://www.w3.org/2000/svg" width="16" height="16" fill="none" viewBox="0 0 16 16">
  <g clip-path="url(#a)">
    <mask id="b" width="16" height="16" x="0" y="0" maskUnits="userSpaceOnUse" style="mask-type:luminance">
      <path fill="#fff" d="M16 0H0v16h16V0Z"/>
    </mask>
    <g mask="url(#b)">
      <g filter="url(#c)">
        <path fill="#fff" fill-rule="evenodd" d="m16 5.005-.001-.573a23.54 23.54 0 0 0-.007-.483 6.98 6.98 0 0 0-.093-1.05 3.538 3.538 0 0 0-.329-1 3.358 3.358 0 0 0-1.469-1.47 3.545 3.545 0 0 0-.999-.328 7.023 7.023 0 0 0-1.05-.093 24.31 24.31 0 0 0-.484-.007L10.995 0h-5.99l-.573.001a25.93 25.93 0 0 0-.483.007c-.35.01-.704.03-1.051.093-.352.063-.68.166-.999.329A3.359 3.359 0 0 0 .43 1.899a3.54 3.54 0 0 0-.33 1 7.11 7.11 0 0 0-.091 1.05c-.005.16-.007.322-.008.483L0 5.005v5.99l.001.573c.001.161.003.322.008.483.009.35.03.704.092 1.05.063.353.166.68.33 1a3.352 3.352 0 0 0 1.468 1.47c.32.162.647.265.999.328.347.062.7.083 1.051.093.16.004.322.006.483.007l.573.001h5.99l.573-.001c.161-.001.322-.003.483-.007.35-.01.704-.03 1.051-.093.352-.063.68-.166 1-.329a3.35 3.35 0 0 0 1.468-1.469c.163-.32.266-.647.33-1 .062-.346.082-.7.092-1.05.004-.16.006-.322.007-.483l.001-.573v-5.99Z" clip-rule="evenodd"/>
      </g>
      <mask id="d" width="16" height="16" x="0" y="0" maskUnits="userSpaceOnUse" style="mask-type:alpha">
        <path fill="#fff" d="M0 1.28C0 .573.573 0 1.28 0h13.44C15.427 0 16 .573 16 1.28v13.44A1.28 1.28 0 0 1 14.72 16H1.28A1.28 1.28 0 0 1 0 14.72V1.28Z"/>
      </mask>
      <g mask="url(#d)">
        <path fill="#000" d="M16.8-.36H-.8v16.72h17.6V-.36Z"/>
        <path fill="#fff" d="M3.11 9.707c.634 0 1.123-.489 1.123-1.212V5.682h.686v4.559h-.68v-.423c-.306.319-.73.501-1.207.501-.98 0-1.73-.71-1.73-1.784V5.683h.685v2.812c0 .736.483 1.212 1.123 1.212Zm2.318-4.025h.66v1.66a1.647 1.647 0 0 1 1.182-.494c.98 0 1.75.775 1.75 1.739 0 .957-.77 1.732-1.75 1.732a1.665 1.665 0 0 1-1.19-.495v.417h-.653l.001-4.56Zm1.796 4.057a1.15 1.15 0 0 0 1.143-1.152 1.145 1.145 0 1 0-2.292 0c0 .638.51 1.152 1.149 1.152Zm3.768-2.885c.96 0 1.665.736 1.665 1.726v.215h-2.71c.092.54.543.945 1.104.945.386 0 .712-.157.96-.489l.477.352c-.333.443-.83.71-1.437.71-.999 0-1.77-.743-1.77-1.733a1.71 1.71 0 0 1 1.711-1.726ZM9.96 8.274h2.031c-.11-.508-.522-.847-1.012-.847s-.9.339-1.019.847Zm4.467-.768c-.431 0-.745.332-.745.846v1.89h-.66V6.918h.654v.411a.89.89 0 0 1 .797-.436h.228v.612h-.274Z"/>
      </g>
    </g>
  </g>
  <defs>
    <clipPath id="a">
      <path fill="#fff" d="M0 0h16v16H0z"/>
    </clipPath>
    <filter id="c" width="48" height="48" x="-16" y="-16" color-interpolation-filters="sRGB" filterUnits="userSpaceOnUse">
      <feFlood flood-opacity="0" result="BackgroundImageFix"/>
      <feColorMatrix in="SourceAlpha" result="hardAlpha" values="0 0 0 0 0 0 0 0 0 0 0 0 0 0 0 0 0 0 127 0"/>
      <feOffset/>
      <feGaussianBlur stdDeviation="8"/>
      <feColorMatrix values="0 0 0 0 0 0 0 0 0 0 0 0 0 0 0 0 0 0 0.1 0"/>
      <feBlend in2="BackgroundImageFix" result="effect1_dropShadow_3174_195"/>
      <feBlend in="SourceGraphic" in2="effect1_dropShadow_3174_195" result="shape"/>
    </filter>
  </defs>
</svg>
