<svg fill="none" height="16" width="16" xmlns="http://www.w3.org/2000/svg" xmlns:xlink="http://www.w3.org/1999/xlink"><clipPath id="a"><path d="m0 0h16v16h-16z"/></clipPath><g clip-path="url(#a)"><path clip-rule="evenodd" d="m7.655 15.416.345-.666.345.666a.752.752 0 0 1 -.69 0zm0 0 .345-.666.345.666.002-.001.006-.003.018-.01a7.643 7.643 0 0 0 .31-.17 22.08 22.08 0 0 0 3.433-2.414c1.842-1.587 3.886-3.968 3.886-6.818 0-2.664-2.086-4.5-4.25-4.5-1.547 0-2.903.802-3.75 2.02-.847-1.218-2.203-2.02-3.75-2.02-2.164 0-4.25 1.836-4.25 4.5 0 2.85 2.045 5.231 3.885 6.818a22.075 22.075 0 0 0 3.744 2.584l.018.01.006.003h.002z" fill-rule="evenodd"/></g></svg>