<svg xmlns="http://www.w3.org/2000/svg" width="16" height="16" viewBox="0 0 16 16">
  <path d="M13.185 5.426 11.762 4.03h3.74a.485.485 0 0 0 .352-.154.542.542 0 0 0 .146-.372.542.542 0 0 0-.146-.373.485.485 0 0 0-.352-.154h-3.74l1.423-1.396a.525.525 0 0 0 .161-.368.552.552 0 0 0-.133-.38.5.5 0 0 0-.35-.166.475.475 0 0 0-.358.145l-2.347 2.307a.527.527 0 0 0-.158.385.552.552 0 0 0 .158.384l2.347 2.307a.483.483 0 0 0 .7-.029.543.543 0 0 0-.02-.74Z"/>
  <path fill-rule="evenodd" d="M6 4.333A2.333 2.333 0 1 0 6 9a2.333 2.333 0 0 0 0-4.667ZM2.667 6.667a3.333 3.333 0 1 1 5.277 2.708 5.316 5.316 0 0 1 3.345 4.777.5.5 0 1 1-.999.03 4.313 4.313 0 0 0-8.621 0 .5.5 0 0 1-1-.03 5.315 5.315 0 0 1 3.373-4.787 3.329 3.329 0 0 1-1.375-2.698Z" clip-rule="evenodd"/>
</svg>
