<svg xmlns="http://www.w3.org/2000/svg" width="16" height="16" viewBox="0 0 16 16">
  <path d="M3.333 1.833a.5.5 0 0 0-1 0v5C2.333 7.478 2.856 8 3.5 8h1v6.167a.5.5 0 0 0 1 0V8h1c.644 0 1.167-.522 1.167-1.167v-5a.5.5 0 0 0-1 0v5A.167.167 0 0 1 6.5 7h-1V1.833a.5.5 0 0 0-1 0V7h-1a.167.167 0 0 1-.167-.167v-5Z"/>
  <path fill-rule="evenodd" d="M12.333 1.333a3 3 0 0 0-3 3v5c0 .645.523 1.167 1.167 1.167h1.833v3.667a.5.5 0 0 0 1 0V2.333a1 1 0 0 0-1-1Zm0 1V9.5H10.5a.167.167 0 0 1-.167-.167v-5a2 2 0 0 1 2-2Z" clip-rule="evenodd"/>
</svg>
