<svg xmlns="http://www.w3.org/2000/svg" width="16" height="16" viewBox="0 0 16 16">
  <path fill-rule="evenodd" d="M7.375.97a1.167 1.167 0 0 1 1.25 0l5.588 3.545a1.167 1.167 0 0 1 0 1.97L8.625 10.03a1.167 1.167 0 0 1-1.25 0L1.787 6.485a1.167 1.167 0 0 1 0-1.97L7.375.97Zm.714.845a.167.167 0 0 0-.178 0L2.322 5.36a.167.167 0 0 0 0 .282l5.589 3.544a.167.167 0 0 0 .178 0l5.589-3.544a.166.166 0 0 0 0-.282L8.089 1.815Z" clip-rule="evenodd"/>
  <path fill-rule="evenodd" d="M1.245 8.216a.5.5 0 0 1 .69-.155l5.976 3.79a.166.166 0 0 0 .178 0l5.976-3.79a.5.5 0 0 1 .536.845l-5.976 3.79a1.167 1.167 0 0 1-1.25 0L1.4 8.906a.5.5 0 0 1-.154-.69Z" clip-rule="evenodd"/>
  <path fill-rule="evenodd" d="M1.245 10.883a.5.5 0 0 1 .69-.155l5.976 3.79a.167.167 0 0 0 .178 0l5.976-3.79a.5.5 0 1 1 .536.845l-5.976 3.79a1.166 1.166 0 0 1-1.25 0L1.4 11.573a.5.5 0 0 1-.154-.69Z" clip-rule="evenodd"/>
</svg>
