<svg width="16" height="16" viewBox="0 0 16 16" fill="none" xmlns="http://www.w3.org/2000/svg">
<path d="M5.92285 5.58691L14.376 7.60156C14.4236 7.61307 14.4609 7.6474 14.4775 7.69141L14.4873 7.73828C14.4886 7.78208 14.4702 7.82343 14.4385 7.85156L14.4023 7.875L10.7676 9.52344C10.2846 9.74248 9.8858 10.1085 9.62598 10.5664L9.52344 10.7676L7.875 14.4023C7.85069 14.4555 7.79676 14.4891 7.73828 14.4873L7.69141 14.4775C7.6474 14.4609 7.61307 14.4236 7.60156 14.376L5.58691 5.92285C5.57021 5.8522 5.58237 5.7789 5.61816 5.71777L5.66113 5.66113C5.72952 5.59275 5.82876 5.56467 5.92285 5.58691Z" stroke="#1A1A1A"/>
<path d="M6.16666 1C6.44281 1 6.66666 1.22386 6.66666 1.5V2.83337C6.66666 3.10952 6.44281 3.33337 6.16666 3.33337C5.89052 3.33337 5.66666 3.10952 5.66666 2.83337V1.5C5.66666 1.22386 5.89052 1 6.16666 1Z" fill="black"/>
<path d="M3.14645 3.14648C3.34171 2.95122 3.65829 2.95122 3.85355 3.14648L4.65355 3.94641C4.84881 4.14167 4.84881 4.4583 4.65355 4.65356C4.45829 4.84883 4.14171 4.84883 3.94645 4.65356L3.14645 3.85352C2.95118 3.65825 2.95118 3.34175 3.14645 3.14648Z" fill="black"/>
<path d="M1 6.16663C1 5.89048 1.22386 5.66663 1.5 5.66663H2.83334C3.10948 5.66663 3.33334 5.89048 3.33334 6.16663C3.33334 6.44277 3.10948 6.66663 2.83334 6.66663H1.5C1.22386 6.66663 1 6.44277 1 6.16663Z" fill="black"/>
<path d="M2.11312 9.01487C2.05065 8.74588 2.21805 8.47719 2.48704 8.41471L3.7858 8.11305C4.05478 8.05057 4.32348 8.21798 4.38596 8.48696C4.44843 8.75594 4.28103 9.02464 4.01204 9.08712L2.71328 9.38878C2.4443 9.45126 2.1756 9.28385 2.11312 9.01487Z" fill="black"/>
<path d="M9.90922 2.32843C10.1175 2.50975 10.1393 2.82558 9.95802 3.03385L9.08253 4.03948C8.90121 4.24776 8.58538 4.26961 8.37711 4.08829C8.16884 3.90697 8.14699 3.59114 8.32831 3.38287L9.2038 2.37723C9.38512 2.16896 9.70095 2.14711 9.90922 2.32843Z" fill="black"/>
</svg>
