<svg xmlns="http://www.w3.org/2000/svg" width="16" height="16" viewBox="0 0 16 16">
  <g clip-path="url(#ic-16-coins-hand__a)">
    <path fill-rule="evenodd" d="M2.216 8h.568c.172 0 .33 0 .461.01.142.013.298.04.451.117.22.112.398.29.51.51.07.138.1.278.113.408a75.84 75.84 0 0 1 1.123-.273c.453-.107.93-.215 1.337-.296.386-.077.763-.143.983-.143.306 0 .61.037.908.109l1.59.387c.684.166 1.179.77 1.179 1.477v.205c0 .022 0 .044-.002.067l1.43-.949a1.573 1.573 0 0 1 2.007.148 1.502 1.502 0 0 1 0 2.163l-1.439 1.399c-.485.472-1.254.757-1.837.87l-2.034.396a3.351 3.351 0 0 1-1.431-.033l-1.84-.447a5.705 5.705 0 0 0-.483-.08 4.799 4.799 0 0 0-.477-.046h-1a4.379 4.379 0 0 1-.01.246 1.183 1.183 0 0 1-.117.452 1.17 1.17 0 0 1-.51.51 1.181 1.181 0 0 1-.45.116c-.133.01-.29.01-.462.01h-.568c-.172 0-.33 0-.461-.01a1.181 1.181 0 0 1-.451-.117 1.166 1.166 0 0 1-.51-.51 1.183 1.183 0 0 1-.117-.45c-.01-.132-.01-.29-.01-.462V9.55c0-.171 0-.329.01-.46.012-.143.039-.298.117-.452.112-.22.29-.398.51-.51a1.19 1.19 0 0 1 .45-.116c.133-.01.29-.01.462-.01Zm2.117 5h1c.15 0 .395.026.608.054.216.029.452.066.59.1l1.838.447c.329.08.672.088 1.004.024l2.033-.396c.49-.095 1.043-.325 1.332-.606l1.439-1.4a.502.502 0 0 0 0-.728.573.573 0 0 0-.75-.037l-1.833 1.217c-.325.235-.717.36-1.118.36h-.01L8.846 12a.5.5 0 1 1 .021-1l1.205.025c.145-.01.216-.063.26-.121.058-.075.107-.206.107-.393v-.205a.528.528 0 0 0-.414-.505l-1.59-.387a2.854 2.854 0 0 0-.673-.08c-.102 0-.376.04-.787.123-.39.078-.855.182-1.304.288a90.065 90.065 0 0 0-1.338.327v2.927Zm-2.58-3.98h.002-.001Zm.003 0a.418.418 0 0 1 .08-.012A5.56 5.56 0 0 1 2.233 9h.534c.195 0 .31 0 .397.008.052.004.074.01.08.011.03.016.054.04.07.07a.418.418 0 0 1 .012.08c.007.087.007.203.007.398v4.2c0 .195 0 .31-.007.397a.417.417 0 0 1-.012.08.167.167 0 0 1-.07.07.422.422 0 0 1-.08.012 5.583 5.583 0 0 1-.397.008h-.534c-.195 0-.31 0-.397-.008a.422.422 0 0 1-.08-.012.167.167 0 0 1-.07-.07.418.418 0 0 1-.012-.08 5.562 5.562 0 0 1-.007-.397v-4.2c0-.195 0-.311.007-.397a.419.419 0 0 1 .012-.08.167.167 0 0 1 .07-.07Zm-.07.067v.001Zm0 5.16v-.002.001Zm.068.067Zm1.492 0Zm.068-.068Zm0-5.159v.001Zm-.069-.067h.001ZM5.667 3.5a2.833 2.833 0 0 1 4.944-1.89 2.833 2.833 0 1 1-.888 4.447A2.833 2.833 0 0 1 5.666 3.5Zm3.526 1.698A2.826 2.826 0 0 1 9 4.167c0-.764.302-1.457.793-1.966a1.833 1.833 0 1 0-.6 2.997Zm2.64-2.865a1.833 1.833 0 1 0 0 3.667 1.833 1.833 0 0 0 0-3.667Z" clip-rule="evenodd"/>
  </g>
  <defs>
    <clipPath id="ic-16-coins-hand__a">
      <path d="M0 0h16v16H0z"/>
    </clipPath>
  </defs>
</svg>
