<svg xmlns="http://www.w3.org/2000/svg" width="26" height="16" fill="none" viewBox="0 0 26 16">
  <g clip-path="url(#a)">
    <path fill="#1A1A1A" d="M23.333 0H2C.867 0 0 .867 0 2v12c0 1.133.933 2 2 2h21.333c1.134 0 2-.867 2-2V2c0-1.133-.933-2-2-2Z" opacity=".16"/>
    <path fill="#fff" d="M23.333.667c.734 0 1.334.6 1.334 1.333v12c0 .733-.6 1.333-1.334 1.333H2c-.733 0-1.333-.6-1.333-1.333V2c0-.733.6-1.333 1.333-1.333h21.333Z"/>
    <g clip-path="url(#b)">
      <path fill="#011E0F" d="M12.53 5.92a.518.518 0 0 1 1.034 0c0 .28-.229.516-.517.516a.514.514 0 0 1-.517-.517Zm-1.535-.44h.9v5.04h-.9V5.48Zm2.507 1.44h-.907v3.6h.907v-3.6Zm6.522 1.678c.683-.42 1.147-1.046 1.33-1.68h-.906c-.237.606-.78 1.06-1.376 1.254V5.479h-.907v5.04h.907V9.02c.693.173 1.24.772 1.427 1.499h.913c-.139-.763-.66-1.477-1.388-1.921ZM15.11 7.323c.238-.315.7-.499 1.076-.499.701 0 1.28.512 1.282 1.286v2.409h-.907V8.31c0-.318-.142-.685-.601-.685-.54 0-.851.478-.851 1.039v1.856h-.907V6.922h.908v.401Z"/>
      <path fill="#00D66F" d="M6.5 11a3 3 0 1 0 0-6 3 3 0 0 0 0 6Z"/>
      <path fill="#011E0F" d="M6.362 6.2h-.925c.18.752.705 1.396 1.363 1.8-.659.404-1.183 1.048-1.363 1.8h.925c.23-.696.864-1.3 1.644-1.424v-.753C7.225 7.501 6.59 6.896 6.362 6.2Z"/>
    </g>
  </g>
  <defs>
    <clipPath id="a">
      <path fill="#fff" d="M0 0h25.333v16H0z"/>
    </clipPath>
    <clipPath id="b">
      <path fill="#fff" d="M3.5 5h18v6h-18z"/>
    </clipPath>
  </defs>
</svg>
