<svg fill="none" height="16" width="16" xmlns="http://www.w3.org/2000/svg" xmlns:xlink="http://www.w3.org/1999/xlink"><clipPath id="a"><path d="m0 0h16v16h-16z"/></clipPath><g clip-path="url(#a)"><path clip-rule="evenodd" d="m6.75 0a1.75 1.75 0 0 0 -1.75 1.75v1.25h-3.25a1.75 1.75 0 0 0 -1.75 1.75v8.5c0 .966.784 1.75 1.75 1.75h12.5a1.75 1.75 0 0 0 1.75-1.75v-8.5a1.75 1.75 0 0 0 -1.75-1.75h-3.25v-1.25a1.75 1.75 0 0 0 -1.75-1.75zm2.75 3v-1.25a.25.25 0 0 0 -.25-.25h-2.5a.25.25 0 0 0 -.25.25v1.25zm-4.5 1.5h-3.25a.25.25 0 0 0 -.25.25v1.25a2 2 0 0 0 2 2h9a2 2 0 0 0 2-2v-1.25a.25.25 0 0 0 -.25-.25zm-1.5 5a3.484 3.484 0 0 1 -2-.627v4.377c0 .138.112.25.25.25h12.5a.25.25 0 0 0 .25-.25v-4.377a3.484 3.484 0 0 1 -2 .627z" fill-rule="evenodd"/></g></svg>