<svg fill="none" height="16" width="16" xmlns="http://www.w3.org/2000/svg" xmlns:xlink="http://www.w3.org/1999/xlink"><clipPath id="a"><path d="m0 0h16v16h-16z"/></clipPath><g clip-path="url(#a)"><path clip-rule="evenodd" d="m0 1.75c0-.966.784-1.75 1.75-1.75h12.5c.966 0 1.75.784 1.75 1.75v3.585a.746.746 0 0 1 0 .83v8.085a1.75 1.75 0 0 1 -1.75 1.75h-7.941a.75.75 0 0 1 -1.118 0h-3.441a1.75 1.75 0 0 1 -1.75-1.75v-8.085a.746.746 0 0 1 0-.83zm1.5 4.75v7.75c0 .138.112.25.25.25h3.25v-8zm3.5-1.5h-3.5v-3.25a.25.25 0 0 1 .25-.25h3.25zm1.5 1.5v8h7.75a.25.25 0 0 0 .25-.25v-7.75zm8-1.5h-8v-3.5h7.75a.25.25 0 0 1 .25.25z" fill-rule="evenodd"/></g></svg>