<svg xmlns="http://www.w3.org/2000/svg" width="16" height="16" viewBox="0 0 16 16">
  <g clip-path="url(#ic-16-timer__a)">
    <path d="M8 .667a.5.5 0 0 0-.5.5V3.5a.5.5 0 0 0 1 0V1.686a6.334 6.334 0 1 1-4.978 1.836.5.5 0 1 0-.707-.707A7.333 7.333 0 1 0 8 .667Z"/>
    <path d="M9.131 9.215a1 1 0 0 0 0-1.414c-.39-.39-4.205-3.573-4.596-3.182-.39.39 2.792 4.205 3.182 4.596a1 1 0 0 0 1.414 0Z"/>
  </g>
  <defs>
    <clipPath id="ic-16-timer__a">
      <path d="M0 0h16v16H0z"/>
    </clipPath>
  </defs>
</svg>
