<svg xmlns="http://www.w3.org/2000/svg" width="16" height="16" viewBox="0 0 16 16">
  <g clip-path="url(#ic-16-person-circle-arrow-up__a)">
    <path fill-rule="evenodd" d="M3.833 16a3.833 3.833 0 1 0 0-7.667 3.833 3.833 0 0 0 0 7.667Zm-.53-4.571-1.062.923a.543.543 0 0 1-.74.02.483.483 0 0 1-.029-.7l1.973-1.847a.527.527 0 0 1 .385-.158.552.552 0 0 1 .384.158l1.974 1.847a.496.496 0 0 1 .145.358.476.476 0 0 1-.167.35.531.531 0 0 1-.38.133.551.551 0 0 1-.367-.161l-1.063-.923v2.906a.485.485 0 0 1-.154.352.542.542 0 0 1-.372.146.542.542 0 0 1-.372-.146.485.485 0 0 1-.154-.352V11.43Z" clip-rule="evenodd"/>
    <path d="M8 .667A7.333 7.333 0 0 0 .683 8.5c.3-.257.63-.478.986-.657a6.333 6.333 0 1 1 11.06 4.37 7.96 7.96 0 0 0-4.296-1.536c.152.47.234.97.234 1.489 0 1.203-.44 2.304-1.168 3.15A7.333 7.333 0 1 0 8 .667Z"/>
    <path d="M7.74 9.32a2.667 2.667 0 1 0-2.226-1.687A4.847 4.847 0 0 1 7.74 9.322Z"/>
  </g>
  <defs>
    <clipPath id="ic-16-person-circle-arrow-up__a">
      <path d="M0 0h16v16H0z"/>
    </clipPath>
  </defs>
</svg>
