<svg xmlns="http://www.w3.org/2000/svg" width="24" height="16" fill="none" viewBox="0 0 24 16">
  <rect width="24" height="15.158" fill="#fff" rx="2.526"/>
  <rect width="23.368" height="14.526" x=".316" y=".316" stroke="#1A1A1A" stroke-opacity=".16" stroke-width=".632" rx="2.211"/>
  <path fill="#0079BE" d="M12.976 12.316c2.461.012 4.708-2.026 4.708-4.505 0-2.711-2.247-4.585-4.708-4.584h-2.119C8.367 3.226 6.316 5.1 6.316 7.811c0 2.48 2.05 4.517 4.541 4.505h2.119Z"/>
  <path fill="#fff" d="M10.867 3.603c-2.276 0-4.12 1.862-4.121 4.16 0 2.298 1.845 4.16 4.121 4.16 2.277 0 4.122-1.862 4.122-4.16s-1.845-4.16-4.122-4.16Zm-2.612 4.16a2.64 2.64 0 0 1 1.677-2.46v4.92a2.64 2.64 0 0 1-1.677-2.46Zm3.547 2.462V5.302a2.639 2.639 0 0 1 1.678 2.461 2.64 2.64 0 0 1-1.678 2.462Z"/>
  <path fill="#0079BE" d="M12.976 12.316c2.461.012 4.708-2.026 4.708-4.505 0-2.711-2.247-4.585-4.708-4.584h-2.119C8.367 3.226 6.316 5.1 6.316 7.811c0 2.48 2.05 4.517 4.541 4.505h2.119Z"/>
  <path fill="#fff" d="M10.867 3.603c-2.276 0-4.12 1.862-4.121 4.16 0 2.298 1.845 4.16 4.121 4.16 2.277 0 4.122-1.862 4.122-4.16s-1.845-4.16-4.122-4.16Zm-2.612 4.16a2.64 2.64 0 0 1 1.677-2.46v4.92a2.64 2.64 0 0 1-1.677-2.46Zm3.547 2.462V5.302a2.639 2.639 0 0 1 1.678 2.461 2.64 2.64 0 0 1-1.678 2.462Z"/>
</svg>
