<svg xmlns="http://www.w3.org/2000/svg" width="16" height="16" viewBox="0 0 16 16">
  <path d="M2.5 12.333a.5.5 0 1 0 0 1h3a.5.5 0 0 0 0-1h-3Z"/>
  <path fill-rule="evenodd" d="M1.833 3.833A1.834 1.834 0 0 0 0 5.667V13.5c0 1.012.82 1.833 1.833 1.833h4.334C7.179 15.333 8 14.513 8 13.5V5.667c0-1.013-.82-1.834-1.833-1.834H1.833ZM1 5.667c0-.46.373-.834.833-.834h.834v.334c0 .368.298.666.666.666h1.334a.667.667 0 0 0 .666-.666v-.334h.834c.46 0 .833.373.833.834V13.5c0 .46-.373.833-.833.833H1.833A.833.833 0 0 1 1 13.5V5.667Z" clip-rule="evenodd"/>
  <path d="M3.167 1.333C2.522 1.333 2 1.856 2 2.5a.5.5 0 0 0 1 0c0-.092.075-.167.167-.167h9.666c.092 0 .167.075.167.167v7.833a.167.167 0 0 1-.167.167H9.667a.333.333 0 0 0-.334.333v.834c0 .184.15.333.334.333h5.583a.75.75 0 0 0 0-1.5h-1.262c.008-.055.012-.11.012-.167V2.5c0-.644-.522-1.167-1.167-1.167H3.167Z"/>
</svg>
