<svg xmlns="http://www.w3.org/2000/svg" width="16" height="16" fill="none" viewBox="0 0 16 16">
  <g clip-path="url(#ic-16-stripe-payments__a)">
    <path fill="#635BFF" fill-rule="evenodd" d="M14.667 8.093c0-.946-.46-1.696-1.337-1.696-.88 0-1.413.746-1.413 1.69 0 1.113.63 1.676 1.533 1.676.44 0 .773-.1 1.027-.24v-.74c-.254.127-.54.204-.907.204-.36 0-.677-.127-.72-.564h1.81c0-.05.007-.243.007-.33Zm-1.83-.353c0-.42.256-.593.49-.593.226 0 .466.173.466.593h-.956Zm-2.35-1.343c-.364 0-.597.17-.727.29l-.047-.23H8.9v4.32l.927-.197.003-1.047c.133.097.33.234.657.234.663 0 1.266-.534 1.266-1.707-.01-1.08-.62-1.663-1.266-1.663Zm-.224 2.55c-.22 0-.346-.077-.436-.174L9.823 7.4a.553.553 0 0 1 .44-.18c.337 0 .57.377.57.863 0 .494-.23.864-.57.864Zm-2.64-2.77.93-.2v-.75l-.93.196v.754Z" clip-rule="evenodd"/>
    <path fill="#635BFF" d="M8.553 6.46h-.93V9.7h.93V6.46Z"/>
    <path fill="#635BFF" fill-rule="evenodd" d="m6.627 6.733-.06-.273h-.8V9.7h.926V7.503c.22-.286.59-.233.704-.193v-.853c-.12-.044-.554-.124-.77.276ZM4.773 5.657l-.903.193-.003 2.967c0 .546.41.953.96.953.303 0 .526-.057.646-.123v-.754c-.12.047-.703.22-.703-.33V7.25h.703v-.79H4.77l.003-.803ZM2.27 7.4c0-.143.12-.2.313-.2.28 0 .637.087.92.237v-.87a2.416 2.416 0 0 0-.92-.17c-.75 0-1.25.393-1.25 1.046 0 1.024 1.407.86 1.407 1.3 0 .17-.147.227-.357.227-.306 0-.7-.127-1.01-.297v.88c.344.147.694.21 1.01.21.77 0 1.3-.38 1.3-1.043C3.68 7.62 2.27 7.813 2.27 7.4Z" clip-rule="evenodd"/>
  </g>
  <defs>
    <clipPath id="ic-16-stripe-payments__a">
      <path fill="#fff" d="M0 0h16v16H0z"/>
    </clipPath>
  </defs>
</svg>
