<svg width="16" height="16" viewBox="0 0 16 16" fill="none" xmlns="http://www.w3.org/2000/svg">
  <path fill-rule="evenodd" clip-rule="evenodd" d="M3.25 0a.75.75 0 00-.75.75V5h-.75A1.75 1.75 0 000 6.75v4.5C0 12.216.784 13 1.75 13H3v2.25c0 .414.336.75.75.75h8.5a.75.75 0 00.75-.75V13h1.25A1.75 1.75 0 0016 11.25v-4.5A1.75 1.75 0 0014.25 5h-.75V.75a.75.75 0 00-.75-.75h-9.5zM4 5V1.5h8V5H4zM1.75 6.5h12.5a.25.25 0 01.25.25v4.5a.25.25 0 01-.25.25H13V9.75a.75.75 0 00-.75-.75h-8.5a.75.75 0 00-.75.75v1.75H1.75a.25.25 0 01-.25-.25v-4.5a.25.25 0 01.25-.25zm2.75 8h7v-4h-7v4z" />
</svg>
