<svg width="16" height="16" viewBox="0 0 16 16" fill="none" xmlns="http://www.w3.org/2000/svg">
<g clip-path="url(#clip0_5261_1069)">
<path d="M15.9956 8.17798C15.9956 7.6352 15.9524 7.09243 15.8643 6.5567H8.1507V9.63536H12.5577C12.468 10.1246 12.2784 10.5911 12.0003 11.0069C11.7223 11.4226 11.3614 11.7791 10.9395 12.0549V14.0533H13.5718C14.3722 13.2943 15.0014 12.3793 15.4189 11.3674C15.8363 10.3554 16.0328 9.26892 15.9956 8.17798Z" fill="#4285F4"/>
<path d="M8.16146 15.9971C10.1507 16.0506 12.086 15.3593 13.5736 14.0639L10.9376 12.055C10.3043 12.453 9.58667 12.7042 8.83936 12.7895C8.09206 12.8748 7.33474 12.792 6.625 12.5473C5.91527 12.3026 5.2718 11.9026 4.74354 11.3775C4.21528 10.8525 3.81613 10.2163 3.57645 9.5173H0.875793V11.5791C1.55159 12.9062 2.59121 14.0225 3.87808 14.8028C5.16496 15.5832 6.64819 15.9967 8.16146 15.9971Z" fill="#34A853"/>
<path d="M3.57646 9.52789C3.23446 8.53628 3.23446 7.46199 3.57646 6.47038V4.40854H0.875804C0.300047 5.52132 0 6.75144 0 7.99913C0 9.24682 0.300047 10.4769 0.875804 11.5897L3.57646 9.52789Z" fill="#FBBC04"/>
<path d="M8.16146 3.16612C9.32481 3.1453 10.4494 3.57604 11.2901 4.36446L13.6275 2.08586C12.1371 0.714851 10.1603 -0.0329703 8.11651 0.00111612C6.61221 0.00851076 5.13938 0.424064 3.86132 1.2017C2.58326 1.97934 1.5499 3.08869 0.875793 4.40675L3.57645 6.47035C3.89223 5.51888 4.5044 4.68837 5.32686 4.09566C6.14932 3.50295 7.14067 3.17786 8.16146 3.16612Z" fill="#EA4335"/>
</g>
<defs>
<clipPath id="clip0_5261_1069">
<rect width="16" height="16" fill="white"/>
</clipPath>
</defs>
</svg>
