<svg width="16" height="16" viewBox="0 0 16 16" fill="none" xmlns="http://www.w3.org/2000/svg">
  <g clip-path="url(#ic16__fire__clip0)">
    <path fill-rule="evenodd" clip-rule="evenodd" d="M8.498 14.5c2.832 0 5-1.98 5-4.5 0-1.49-.703-2.212-1.941-3.445-1.018-1.015-2.281-2.289-2.808-4.41a3.88 3.88 0 00-.796.85c-.487.72-.712 1.638-.114 2.834.473.947.67 2.284-.278 3.232-.565.564-1.53.962-2.579.522-.47-.197-.86-.526-1.184-.938A3.16 3.16 0 003.5 10c0 2.53 2.164 4.5 4.998 4.5zm1.516-14c-.016-.276-.24-.498-.507-.427C7.798.523 4.763 3.03 6.497 6.5c.344.689.285 1.218.003 1.5-.461.461-1.349.497-2.074-1.276-.107-.26-.4-.407-.642-.263C2.683 7.117 2 8.536 2 10c0 3.512 2.998 6 6.498 6s6.5-2.5 6.5-6c0-2.137-1.128-3.26-2.312-4.438-1.23-1.225-2.522-2.511-2.672-5.062z" />
  </g>
  <defs>
    <clipPath id="ic16__fire__clip0">
      <path fill="#fff" d="M0 0h16v16H0z"/>
    </clipPath>
  </defs>
</svg>
