<svg xmlns="http://www.w3.org/2000/svg" width="16" height="16" viewBox="0 0 16 16">
  <path d="M3 3.167C3 3.075 3.075 3 3.167 3H5.5a.5.5 0 0 0 0-1H3.167C2.522 2 2 2.522 2 3.167V5.5a.5.5 0 0 0 1 0V3.167Zm0 9.666c0 .092.075.167.167.167H5.5a.5.5 0 0 1 0 1H3.167A1.167 1.167 0 0 1 2 12.833V10.5a.5.5 0 0 1 1 0v2.333ZM12.833 3c.092 0 .167.075.167.167V5.5a.5.5 0 0 0 1 0V3.167C14 2.522 13.478 2 12.833 2H10.5a.5.5 0 0 0 0 1h2.333ZM13 12.833a.167.167 0 0 1-.167.167H10.5a.5.5 0 0 0 0 1h2.333c.645 0 1.167-.522 1.167-1.167V10.5a.5.5 0 0 0-1 0v2.333Z"/>
</svg>
