<svg width="16" height="16" viewBox="0 0 16 16" fill="none" xmlns="http://www.w3.org/2000/svg">
  <path fill-rule="evenodd" clip-rule="evenodd" d="M2.5 7.775V2.75a.25.25 0 01.25-.25h5.025a.25.25 0 01.177.073l6.25 6.25a.25.25 0 010 .354l-5.025 5.025a.25.25 0 01-.354 0l-6.25-6.25a.25.25 0 01-.073-.177zm1.793-3.482a1 1 0 111.414 1.414 1 1 0 01-1.414-1.414z" />
  <path fill-rule="evenodd" clip-rule="evenodd" d="M2.5 2.75v5.025a.25.25 0 00.073.177l6.25 6.25a.25.25 0 00.354 0l5.025-5.025a.25.25 0 000-.354l-6.25-6.25a.25.25 0 00-.177-.073H2.75a.25.25 0 00-.25.25zm-1.5 0v5.025a1.75 1.75 0 00.513 1.238l6.25 6.25a1.75 1.75 0 002.474 0l5.026-5.026a1.75 1.75 0 000-2.474l-6.25-6.25A1.748 1.748 0 007.775 1H2.75A1.75 1.75 0 001 2.75z" />
</svg>
