<svg xmlns="http://www.w3.org/2000/svg" width="16" height="16" viewBox="0 0 16 16">
  <path d="M11.296 1.43a.5.5 0 0 0-.796.403v1.334H5.012c-.542 0-.979 0-1.333.029-.364.03-.684.092-.98.243a2.5 2.5 0 0 0-1.093 1.093c-.273.536-.273 1.051-.273 2.04V7.5a.5.5 0 0 0 1 0v-.8c0-1.168.013-1.418.164-1.714a1.5 1.5 0 0 1 .655-.656c.132-.067.306-.113.608-.138.309-.025.705-.025 1.273-.025H10.5V5.5a.5.5 0 0 0 .796.403l2.5-1.833a.5.5 0 0 0 0-.807l-2.5-1.833Zm3.371 7.07a.5.5 0 0 0-1 0v.8c0 1.167-.013 1.418-.164 1.714a1.5 1.5 0 0 1-.655.656c-.132.067-.306.113-.609.138-.308.025-.704.025-1.272.025H5.5V10.5a.5.5 0 0 0-.796-.403l-2.5 1.833a.5.5 0 0 0 0 .806l2.5 1.834a.5.5 0 0 0 .796-.403v-1.334h5.488c.542 0 .979 0 1.333-.029.364-.03.684-.092.98-.243a2.5 2.5 0 0 0 1.093-1.093c.273-.536.273-1.052.273-2.04V8.5Z"/>
</svg>
