<svg xmlns="http://www.w3.org/2000/svg" width="16" height="16" viewBox="0 0 16 16">
  <path d="M7.343 12.547a5.926 5.926 0 0 1-.778.848c-.565.49-1.527.53-2.062-.087-.28-.323-.412-.712-.497-1.123-.09-.436-.037-.869.038-1.297.307-1.754.9-3.417 1.578-5.05.185-.447.381-.888.589-1.324.014-.031.048-.066.022-.1-.026-.034-.066-.008-.1-.002-1.25.207-2.294.808-3.176 1.716-.399.411-.74.865-.97 1.397a2.032 2.032 0 0 0-.179 1.06c.021.179-.035.238-.204.215-.412-.055-1.015-.527-1.092-.974-.027-.152-.003-.298.02-.444.136-.873.532-1.62 1.131-2.249 1.023-1.075 2.285-1.681 3.73-1.918.3-.049.602-.05.903-.042a.833.833 0 0 1 .358.083c.365.185.655.454.873.803.09.146.118.3.08.474-.128.577-.339 1.126-.537 1.68-.428 1.193-.876 2.38-1.246 3.593-.196.644-.367 1.294-.46 1.963-.034.239-.047.48-.008.722.043.262.22.375.464.286.28-.1.484-.303.674-.523.465-.539.816-1.153 1.138-1.784A32.92 32.92 0 0 0 8.86 7.714c.368-.917.65-1.861.921-2.81.042-.143.058-.292.075-.44.021-.185.108-.252.29-.232a.562.562 0 0 1 .204.06c.355.189.633.457.813.824a.56.56 0 0 1 .033.41c-.362 1.356-.852 2.668-1.333 3.984-.4 1.097-.82 2.186-1.197 3.292-.02.057-.055.116-.022.2.114-.096.222-.181.325-.274 1.112-1 2.051-2.149 2.857-3.411a19.55 19.55 0 0 0 1.938-3.919c.264-.736.475-1.487.623-2.256.027-.14.077-.168.21-.12.146.052.26.153.375.253.183.157.347.333.472.542.06.098.07.197.042.312-.2.797-.505 1.554-.859 2.291a26.41 26.41 0 0 1-3.527 5.536c-.522.626-1.086 1.213-1.76 1.678a2.71 2.71 0 0 1-.592.309.733.733 0 0 1-.622-.025c-.407-.208-.687-.525-.811-.976-.035-.128.018-.246.028-.394h.001Z"/>
</svg>
