<svg fill="none" height="16" width="16" xmlns="http://www.w3.org/2000/svg" xmlns:xlink="http://www.w3.org/1999/xlink"><clipPath id="a"><path d="m0 0h16v16h-16z"/></clipPath><g clip-path="url(#a)"><path clip-rule="evenodd" d="m4.75 2.37a6.5 6.5 0 0 0 6.5 11.26.75.75 0 0 1 .75 1.298 8 8 0 1 1 3.994-7.273.754.754 0 0 1 .006.095v1.5a2.75 2.75 0 0 1 -5.072 1.475 4 4 0 1 1 1.072-2.725v1.25a1.25 1.25 0 1 0 2.5 0v-1.383a6.5 6.5 0 0 0 -9.75-5.496zm5.75 5.63a2.5 2.5 0 1 0 -5 0 2.5 2.5 0 0 0 5 0z" fill-rule="evenodd"/></g></svg>