<svg fill="none" height="16" width="16" xmlns="http://www.w3.org/2000/svg" xmlns:xlink="http://www.w3.org/1999/xlink"><clipPath id="a"><path d="m0 0h16v16h-16z"/></clipPath><g clip-path="url(#a)"><path clip-rule="evenodd" d="m8 1.5a6.491 6.491 0 0 0 -5.285 2.715l1.358 1.358a.25.25 0 0 1 -.177.427h-3.646a.25.25 0 0 1 -.25-.25v-3.646a.25.25 0 0 1 .427-.177l1.216 1.216a8 8 0 0 1 14.315 4.03.748.748 0 0 1 -.668.83.75.75 0 0 1 -.824-.676 6.501 6.501 0 0 0 -6.466-5.827zm-7.288 6.504a.75.75 0 0 1 .822.67 6.501 6.501 0 0 0 11.751 3.111l-1.358-1.358a.25.25 0 0 1 .177-.427h3.646a.25.25 0 0 1 .25.25v3.646a.25.25 0 0 1 -.427.177l-1.216-1.216a8 8 0 0 1 -14.315-4.03.75.75 0 0 1 .67-.823zm8.288 2.996a1 1 0 1 1 -2 0 1 1 0 0 1 2 0zm-.25-6.25a.75.75 0 0 0 -1.5 0v3.5a.75.75 0 0 0 1.5 0z" fill-rule="evenodd"/></g></svg>