<svg width="16" height="16" viewBox="0 0 16 16" fill="none" xmlns="http://www.w3.org/2000/svg">
<circle cx="8" cy="8" r="8" fill="#3FB950"/>
<path fill-rule="evenodd" clip-rule="evenodd" d="M5.63389 8.13389C5.39946 8.3683 5.08152 8.5 4.75 8.5C4.41847 8.5 4.10054 8.3683 3.86611 8.13389C3.6317 7.89946 3.5 7.58152 3.5 7.25C3.5 6.91847 3.6317 6.60054 3.86611 6.36611C4.10054 6.1317 4.41847 6 4.75 6C5.08152 6 5.39946 6.1317 5.63389 6.36611C5.8683 6.60054 6 6.91847 6 7.25C6 7.58152 5.8683 7.89946 5.63389 8.13389ZM12.1339 8.13389C12.3682 7.89946 12.5 7.58152 12.5 7.25C12.5 6.91847 12.3682 6.60054 12.1339 6.36611C11.8995 6.1317 11.5815 6 11.25 6C10.9185 6 10.6005 6.1317 10.3661 6.36611C10.1318 6.60054 10 6.91847 10 7.25C10 7.58152 10.1318 7.89946 10.3661 8.13389C10.6005 8.3683 10.9185 8.5 11.25 8.5C11.5815 8.5 11.8995 8.3683 12.1339 8.13389ZM5.87486 10.0108C5.68064 9.97807 5.48134 10.023 5.32 10.136C5.1574 10.2503 5.04581 10.4244 5.01149 10.6201C4.97718 10.8159 5.02196 11.0172 5.136 11.18L5.75 10.75L5.138 11.182V11.184L5.14 11.187L5.145 11.193L5.159 11.213C5.1727 11.2309 5.1867 11.2486 5.201 11.266C5.39676 11.4971 5.62319 11.7003 5.874 11.87C6.348 12.192 7.054 12.5 8 12.5C8.75607 12.5086 9.49722 12.2894 10.127 11.871C10.3187 11.7415 10.4963 11.5924 10.657 11.426C10.7233 11.3594 10.7848 11.2883 10.841 11.213L10.855 11.194L10.86 11.187L10.862 11.184L10.863 11.182V11.181C10.863 11.181 10.8635 11.1809 10.8424 11.1658L10.864 11.181C10.9794 11.019 11.0256 10.8177 10.9926 10.6215C10.9596 10.4254 10.85 10.2504 10.688 10.135C10.526 10.0196 10.3247 9.97337 10.1285 10.0064C9.93239 10.0394 9.75737 10.149 9.642 10.311L9.635 10.319C9.53215 10.437 9.41451 10.5411 9.285 10.629C9.02 10.808 8.602 11 8 11C7.398 11 6.979 10.808 6.715 10.63C6.58549 10.5421 6.46785 10.438 6.365 10.32L6.358 10.311C6.24262 10.1514 6.06908 10.0436 5.87486 10.0108Z" fill="#22863A"/>
</svg>
