<svg fill="none" height="16" width="16" xmlns="http://www.w3.org/2000/svg" xmlns:xlink="http://www.w3.org/1999/xlink"><clipPath id="a"><path d="m0 0h16v16h-16z"/></clipPath><g clip-path="url(#a)"><path d="m2.673 0a2.673 2.673 0 0 0 -2.673 2.673v10.654c0 1.473 1.2 2.666 2.673 2.673h10.654c1.473 0 2.673-1.2 2.673-2.673v-10.66a2.673 2.673 0 0 0 -2.673-2.667h-10.66zm1.08 2.907h8.494c.466 0 .84.38.84.846v8.494a.842.842 0 0 1 -.84.846h-8.494a.842.842 0 0 1 -.84-.846v-8.494a.847.847 0 0 1 .84-.846zm2.554 2.9a.487.487 0 0 0 -.487.486v3.394c0 .266.213.48.48.48h3.4a.487.487 0 0 0 .487-.48v-3.394a.486.486 0 0 0 -.487-.486h-3.4z"/></g></svg>