<svg xmlns="http://www.w3.org/2000/svg" width="16" height="16" viewBox="0 0 16 16">
  <path d="M15.093 3.852 13.53 2.429v3.74a.485.485 0 0 1-.154.352.542.542 0 0 1-.372.146.542.542 0 0 1-.373-.146.485.485 0 0 1-.154-.353v-3.74l-1.563 1.424a.526.526 0 0 1-.367.161.553.553 0 0 1-.38-.134.5.5 0 0 1-.167-.35.475.475 0 0 1 .145-.357L12.62.825a.527.527 0 0 1 .385-.158.552.552 0 0 1 .384.158l2.474 2.347a.483.483 0 0 1-.029.7.544.544 0 0 1-.74-.02Z"/>
  <path fill-rule="evenodd" d="M6 4.333A2.333 2.333 0 1 0 6 9a2.333 2.333 0 0 0 0-4.667ZM2.667 6.667a3.333 3.333 0 1 1 5.277 2.708 5.316 5.316 0 0 1 3.345 4.777.5.5 0 1 1-.999.03 4.313 4.313 0 0 0-8.621 0 .5.5 0 0 1-1-.03 5.315 5.315 0 0 1 3.373-4.787 3.329 3.329 0 0 1-1.375-2.698Z" clip-rule="evenodd"/>
</svg>
