<svg fill="none" height="16" width="16" xmlns="http://www.w3.org/2000/svg" xmlns:xlink="http://www.w3.org/1999/xlink"><clipPath id="a"><path d="m0 0h16v16h-16z"/></clipPath><g clip-path="url(#a)"><path clip-rule="evenodd" d="m0 4.25a.75.75 0 0 1 .75-.75h2.5a.75.75 0 0 1 0 1.5h-2.5a.75.75 0 0 1 -.75-.75zm0 4a.75.75 0 0 1 .75-.75h4.5a.75.75 0 0 1 0 1.5h-4.5a.75.75 0 0 1 -.75-.75zm0 4a.75.75 0 0 1 .75-.75h7.5a.75.75 0 1 1 0 1.5h-7.5a.75.75 0 0 1 -.75-.75zm12.927-9.677a.25.25 0 0 0 -.354 0l-3 3a.25.25 0 0 0 .177.427h2.25v6.75a.75.75 0 0 0 1.5 0v-6.75h2.25a.25.25 0 0 0 .177-.427z" fill-rule="evenodd"/></g></svg>