<svg xmlns="http://www.w3.org/2000/svg" width="16" height="16" viewBox="0 0 16 16">
  <g clip-path="url(#ic-16-person-circle-plus__a)">
    <path fill-rule="evenodd" d="M3.833 16a3.833 3.833 0 1 0 0-7.667 3.833 3.833 0 0 0 0 7.667Zm0-6.333a.5.5 0 0 1 .5.5v1.5h1.5a.5.5 0 0 1 0 1h-1.5v1.5a.5.5 0 1 1-1 0v-1.5h-1.5a.5.5 0 0 1 0-1h1.5v-1.5a.5.5 0 0 1 .5-.5Z" clip-rule="evenodd"/>
    <path d="M8 .667A7.333 7.333 0 0 0 .684 8.5c.298-.257.629-.478.985-.657a6.333 6.333 0 1 1 11.06 4.37 7.96 7.96 0 0 0-4.296-1.536c.152.47.234.97.234 1.489 0 1.203-.44 2.304-1.168 3.15A7.333 7.333 0 1 0 8 .667Z"/>
    <path d="M7.74 9.32a2.667 2.667 0 1 0-2.226-1.687A4.847 4.847 0 0 1 7.74 9.322Z"/>
  </g>
  <defs>
    <clipPath id="ic-16-person-circle-plus__a">
      <path d="M0 0h16v16H0z"/>
    </clipPath>
  </defs>
</svg>
