<svg fill="none" height="16" width="16" xmlns="http://www.w3.org/2000/svg" xmlns:xlink="http://www.w3.org/1999/xlink"><clipPath id="a"><path d="m0 0h16v16h-16z"/></clipPath><g clip-path="url(#a)"><path clip-rule="evenodd" d="m8 2.75a.75.75 0 0 0 -1.238-.57l-3.29 2.82h-1.722a1.75 1.75 0 0 0 -1.75 1.75v2.5c0 .966.784 1.75 1.75 1.75h1.723l3.289 2.82a.75.75 0 0 0 1.238-.57zm-3.762 3.57 2.262-1.94v7.24l-2.262-1.94a.75.75 0 0 0 -.488-.18h-2a.25.25 0 0 1 -.25-.25v-2.5a.25.25 0 0 1 .25-.25h2a.75.75 0 0 0 .488-.18zm7.042-1.1a.75.75 0 1 0 -1.06 1.06l1.72 1.72-1.72 1.72a.75.75 0 1 0 1.06 1.06l1.72-1.72 1.72 1.72a.75.75 0 1 0 1.06-1.06l-1.72-1.72 1.72-1.72a.75.75 0 0 0 -1.06-1.06l-1.72 1.72z" fill-rule="evenodd"/></g></svg>