<svg xmlns="http://www.w3.org/2000/svg" width="16" height="16" viewBox="0 0 16 16">
  <g clip-path="url(#ic-16-speedometer__a)">
    <path fill-rule="evenodd" d="M8 15.333A7.333 7.333 0 1 0 8 .667a7.333 7.333 0 0 0 0 14.666ZM7.5 13v1.314a6.306 6.306 0 0 1-3.61-1.496l.928-.93a.5.5 0 1 0-.707-.706l-.929.929a6.306 6.306 0 0 1-1.496-3.61H3a.5.5 0 0 0 0-1H1.686a6.307 6.307 0 0 1 1.472-3.584l.927.928a.5.5 0 0 0 .707-.708l-.931-.93A6.306 6.306 0 0 1 7.5 1.686V3a.5.5 0 0 0 1 0V1.686a6.306 6.306 0 0 1 3.637 1.519l-3.12 3.073a2 2 0 1 0 .706.708l3.118-3.07A6.306 6.306 0 0 1 14.314 7.5H13a.5.5 0 0 0 0 1h1.314a6.306 6.306 0 0 1-1.496 3.611l-.928-.928a.5.5 0 1 0-.707.707l.928.928A6.306 6.306 0 0 1 8.5 14.314V13a.5.5 0 1 0-1 0ZM9 8a1 1 0 1 1-2 0 1 1 0 0 1 2 0Z" clip-rule="evenodd"/>
  </g>
  <defs>
    <clipPath id="ic-16-speedometer__a">
      <path d="M0 0h16v16H0z"/>
    </clipPath>
  </defs>
</svg>
