<svg fill="none" height="16" width="16" xmlns="http://www.w3.org/2000/svg" xmlns:xlink="http://www.w3.org/1999/xlink"><clipPath id="a"><path d="m0 0h16v16h-16z"/></clipPath><g clip-path="url(#a)"><path clip-rule="evenodd" d="m8.498 14.5c2.832 0 5-1.98 5-4.5 0-1.49-.703-2.212-1.941-3.445-1.018-1.015-2.281-2.289-2.808-4.41a3.88 3.88 0 0 0 -.796.85c-.487.72-.712 1.638-.114 2.834.473.947.67 2.284-.278 3.232-.565.564-1.53.962-2.579.522-.47-.197-.86-.526-1.184-.938a3.16 3.16 0 0 0 -.298 1.355c0 2.53 2.164 4.5 4.998 4.5zm1.516-14c-.016-.276-.24-.498-.507-.427-1.709.45-4.744 2.957-3.01 6.427.344.689.285 1.218.003 1.5-.461.461-1.349.497-2.074-1.276-.107-.26-.4-.407-.642-.263-1.101.656-1.784 2.075-1.784 3.539 0 3.512 2.998 6 6.498 6s6.5-2.5 6.5-6c0-2.137-1.128-3.26-2.312-4.438-1.23-1.225-2.522-2.511-2.672-5.062z" fill-rule="evenodd"/></g></svg>