<svg width="16" height="16" viewBox="0 0 16 16" fill="none" xmlns="http://www.w3.org/2000/svg">
  <path d="M8.75 5.75a.75.75 0 00-1.5 0v2.5a.75.75 0 001.5 0v-2.5zM9 11a1 1 0 11-2 0 1 1 0 012 0z" />
  <path fill-rule="evenodd" clip-rule="evenodd" d="M14.243 15a1.66 1.66 0 001.467-2.437L9.467 1.25c-.623-1.178-2.31-1.178-2.934 0L.29 12.563A1.66 1.66 0 001.757 15h12.486zm-12.63-1.728l6.24-11.309.006-.011a.146.146 0 01.056-.065.171.171 0 01.085-.02.19.19 0 01.085.02.146.146 0 01.056.065l.006.011 6.24 11.309a.142.142 0 01.018.072.169.169 0 01-.025.079.168.168 0 01-.058.058.148.148 0 01-.08.019H1.758a.148.148 0 01-.08-.019.168.168 0 01-.057-.059.169.169 0 01-.025-.078c0-.017.001-.04.017-.072z" />
</svg>
