<svg fill="none" height="16" width="16" xmlns="http://www.w3.org/2000/svg"><g clip-rule="evenodd" fill-rule="evenodd"><path d="m2.5 2.75a.25.25 0 0 1 .25-.25h10.5a.25.25 0 0 1 .25.25v10.5a.25.25 0 0 1 -.25.25h-10.5a.25.25 0 0 1 -.25-.25zm9.28 2.47a.75.75 0 0 1 0 1.06l-4.5 4.5a.75.75 0 0 1 -1.06 0l-2-2a.75.75 0 0 1 1.06-1.06l1.47 1.47 3.97-3.97a.75.75 0 0 1 1.06 0z"/><path d="m2.75 2.5a.25.25 0 0 0 -.25.25v10.5c0 .138.112.25.25.25h10.5a.25.25 0 0 0 .25-.25v-10.5a.25.25 0 0 0 -.25-.25zm-1.75.25c0-.966.784-1.75 1.75-1.75h10.5c.966 0 1.75.784 1.75 1.75v10.5a1.75 1.75 0 0 1 -1.75 1.75h-10.5a1.75 1.75 0 0 1 -1.75-1.75z"/></g></svg>