<svg width="16" height="16" viewBox="0 0 16 16" fill="none" xmlns="http://www.w3.org/2000/svg">
  <path fill-rule="evenodd" clip-rule="evenodd" d="M8.25 2.5h-5.5a.25.25 0 00-.25.25v5.5c0 .138.112.25.25.25h.75V10h-.75A1.75 1.75 0 011 8.25v-5.5C1 1.784 1.784 1 2.75 1h5.5C9.216 1 10 1.784 10 2.75v.75H8.5v-.75a.25.25 0 00-.25-.25zM6.5 6.75a.25.25 0 01.25-.25h6.5a.25.25 0 01.25.25v6.5a.25.25 0 01-.25.25h-6.5a.25.25 0 01-.25-.25v-6.5zm-1.5 0C5 5.784 5.784 5 6.75 5h6.5c.966 0 1.75.784 1.75 1.75v6.5A1.75 1.75 0 0113.25 15h-6.5A1.75 1.75 0 015 13.25v-6.5z" />
</svg>
