<svg xmlns="http://www.w3.org/2000/svg" width="16" height="16" viewBox="0 0 16 16">
  <g clip-path="url(#ic-16-person-check__a)">
    <path d="M15.864 2.177a.5.5 0 1 0-.728-.687l-2.83 2.643-1.47-1.336a.5.5 0 1 0-.672.74l1.833 1.666a.5.5 0 0 0 .7-.026l3.167-3Z"/>
    <path fill-rule="evenodd" d="M6 4.333A2.333 2.333 0 1 0 6 9a2.333 2.333 0 0 0 0-4.667ZM2.667 6.667a3.333 3.333 0 1 1 5.277 2.708 5.315 5.315 0 0 1 3.345 4.777.5.5 0 1 1-.999.03 4.312 4.312 0 0 0-8.621 0 .5.5 0 0 1-1-.03 5.316 5.316 0 0 1 3.373-4.787 3.329 3.329 0 0 1-1.375-2.698Z" clip-rule="evenodd"/>
  </g>
  <defs>
    <clipPath id="ic-16-person-check__a">
      <path d="M0 0h16v16H0z"/>
    </clipPath>
  </defs>
</svg>
