<svg fill="none" height="16" width="16" xmlns="http://www.w3.org/2000/svg"><g clip-rule="evenodd" fill-rule="evenodd"><path d="m0 9.25c0 .966.784 1.75 1.75 1.75h1.5a.75.75 0 1 0 0-1.5h-1.5a.25.25 0 0 1 -.25-.25v-7.5a.25.25 0 0 1 .25-.25h7.5a.25.25 0 0 1 .25.25v1.5a.75.75 0 0 0 1.5 0v-1.5a1.75 1.75 0 0 0 -1.75-1.75h-7.5a1.75 1.75 0 0 0 -1.75 1.75z"/><path d="m5 14.25c0 .966.784 1.75 1.75 1.75h7.5a1.75 1.75 0 0 0 1.75-1.75v-7.5a1.75 1.75 0 0 0 -1.75-1.75h-7.5a1.75 1.75 0 0 0 -1.75 1.75zm1.75.25a.25.25 0 0 1 -.25-.25v-7.5a.25.25 0 0 1 .25-.25h7.5a.25.25 0 0 1 .25.25v7.5a.25.25 0 0 1 -.25.25z"/></g></svg>