<svg xmlns="http://www.w3.org/2000/svg" width="16" height="16" viewBox="0 0 16 16">
  <path fill-rule="evenodd" d="M11.678 2H4.293a.5.5 0 0 0-.378.173l-3.46 4a.5.5 0 0 0 .013.668L7.626 14.5a.501.501 0 0 0 .747 0l7.159-7.658a.5.5 0 0 0 .019-.661l-3.334-4a.5.5 0 0 0-.384-.18h-.155ZM9.136 12.22 14.016 7h-3.24l-1.64 5.22ZM10.043 6H5.957l-.942-3h5.97l-.942 3Zm1.048 0 .824-2.622L14.099 6H11.09ZM9.728 7 8 12.499l-1.728-5.5h3.456ZM1.926 6l2.188-2.53L4.91 6H1.926Zm.06 1h3.238l1.64 5.22L1.985 7Z" clip-rule="evenodd"/>
</svg>
