<svg xmlns="http://www.w3.org/2000/svg" width="24" height="16" fill="none" viewBox="0 0 24 16">
  <rect width="24" height="15.158" fill="#fff" rx="2.526"/>
  <rect width="23.368" height="14.526" x=".316" y=".316" stroke="#1A1A1A" stroke-opacity=".16" stroke-width=".632" rx="2.211"/>
  <path fill="#FD6020" d="m10.168 14.526 13.2-3.994v2.1a1.895 1.895 0 0 1-1.894 1.894H10.168Z"/>
  <path fill="#000" fill-rule="evenodd" d="M20.863 4.877c.726 0 1.126.336 1.126.97.036.486-.29.896-.727.971l.98 1.381h-.762l-.835-1.344h-.072V8.2h-.618V4.877h.908Zm-.29 1.53h.181c.4 0 .581-.186.581-.522 0-.299-.182-.485-.581-.485h-.181v1.007ZM17.813 8.2h1.743v-.56H18.43v-.896h1.09v-.56h-1.09v-.746h1.126v-.56h-1.743V8.2Zm-1.816-1.082-.835-2.24h-.653l1.343 3.397h.327l1.343-3.397h-.653l-.872 2.24Zm-7.37-.56c0 .933.726 1.717 1.633 1.717.29 0 .545-.075.8-.187v-.746c-.182.223-.437.373-.727.373-.58 0-1.053-.448-1.053-1.045v-.075a1.105 1.105 0 0 1 1.017-1.157c.29 0 .58.15.762.373v-.746c-.218-.15-.508-.187-.762-.187-.944-.075-1.67.71-1.67 1.68ZM7.5 6.147c-.363-.15-.472-.225-.472-.411.036-.224.218-.411.436-.374.181 0 .363.112.508.262l.327-.448c-.255-.224-.581-.374-.908-.374-.508-.037-.944.374-.98.896v.038c0 .447.181.709.762.895.145.038.29.112.436.187a.394.394 0 0 1 .181.336c0 .261-.218.485-.435.485h-.037a.717.717 0 0 1-.653-.448l-.4.41c.218.411.654.635 1.09.635.58.038 1.053-.41 1.089-1.007v-.112c-.036-.448-.218-.672-.944-.97ZM5.395 8.198h.617V4.877h-.617v3.322ZM2.526 4.877h1.09a1.608 1.608 0 0 1 1.525 1.68c0 .485-.218.933-.581 1.269-.327.261-.727.41-1.126.373h-.908V4.877Zm.8 2.762c.29.037.616-.075.834-.261a1.2 1.2 0 0 0 .327-.859c0-.298-.109-.597-.327-.82a1.128 1.128 0 0 0-.835-.262h-.181v2.202h.181Z" clip-rule="evenodd"/>
  <path fill="#FD6020" fill-rule="evenodd" d="M12.911 4.8c-.908 0-1.67.747-1.67 1.717 0 .933.726 1.717 1.67 1.754.944.038 1.67-.746 1.707-1.717-.037-.97-.763-1.754-1.707-1.754Z" clip-rule="evenodd"/>
</svg>
