<svg xmlns="http://www.w3.org/2000/svg" width="16" height="16" viewBox="0 0 16 16">
  <path fill-rule="evenodd" d="M8.035 2.352a.167.167 0 0 0-.07 0l-5.5 1.19a.167.167 0 0 0-.132.162v1.13c0 .091.075.166.167.166h11a.167.167 0 0 0 .167-.167V3.704a.167.167 0 0 0-.132-.162l-5.5-1.19Zm-.282-.977c.163-.035.331-.035.494 0l5.5 1.19c.536.115.92.59.92 1.14v1.128C14.667 5.478 14.144 6 13.5 6H13v5h.5c.644 0 1.167.522 1.167 1.167V13.5c0 .644-.523 1.167-1.167 1.167h-11A1.167 1.167 0 0 1 1.333 13.5v-1.333c0-.645.523-1.167 1.167-1.167H3V6h-.5a1.167 1.167 0 0 1-1.167-1.167V3.704c0-.549.384-1.024.92-1.14l5.5-1.189ZM4 6v5h2V6H4Zm3 0v5h2V6H7Zm3 0v5h2V6h-2Zm-7.5 6a.167.167 0 0 0-.167.167V13.5c0 .092.075.167.167.167h11a.167.167 0 0 0 .167-.167v-1.333A.167.167 0 0 0 13.5 12h-11Z" clip-rule="evenodd"/>
</svg>
