<svg xmlns="http://www.w3.org/2000/svg" width="16" height="16" viewBox="0 0 16 16">
  <path fill-rule="evenodd" d="M9.167 3.333a.5.5 0 1 0 0 1h1.148l.718 2H6.498l-.344-.666h.68a.5.5 0 1 0 0-1H4.5a.5.5 0 1 0 0 1h.529l.531 1.03-.97 1.092a3 3 0 1 0 1.368 3.044H8a.5.5 0 0 0 .444-.73l-1.43-2.77h4.378l.138.385A3 3 0 0 0 13 13.333a3 3 0 1 0-.529-5.953l-1.334-3.716a.5.5 0 0 0-.47-.33h-1.5Zm2.708 5.346.654 1.823a.5.5 0 1 0 .942-.338l-.655-1.822a2 2 0 1 1-.941.338ZM5.96 9.833h1.22L6.052 7.65l-.714.804c.315.391.534.863.62 1.38Zm-1.3-.616c.126.186.22.393.278.616h-.824l.547-.616Zm-.747-.664L2.626 10a.5.5 0 0 0 .374.832h1.937a2 2 0 1 1-1.025-2.28Z" clip-rule="evenodd"/>
</svg>
