<svg width="16" height="16" viewBox="0 0 16 16" fill="none" xmlns="http://www.w3.org/2000/svg">
  <path fill-rule="evenodd" clip-rule="evenodd" d="M0 9.25C0 10.216.784 11 1.75 11h1.5a.75.75 0 100-1.5h-1.5a.25.25 0 01-.25-.25v-7.5a.25.25 0 01.25-.25h7.5a.25.25 0 01.25.25v1.5a.75.75 0 001.5 0v-1.5A1.75 1.75 0 009.25 0h-7.5A1.75 1.75 0 000 1.75v7.5z" />
  <path fill-rule="evenodd" clip-rule="evenodd" d="M5 14.25c0 .966.784 1.75 1.75 1.75h7.5A1.75 1.75 0 0016 14.25v-7.5A1.75 1.75 0 0014.25 5h-7.5A1.75 1.75 0 005 6.75v7.5zm1.75.25a.25.25 0 01-.25-.25v-7.5a.25.25 0 01.25-.25h7.5a.25.25 0 01.25.25v7.5a.25.25 0 01-.25.25h-7.5z" />
</svg>
