<svg xmlns="http://www.w3.org/2000/svg" width="16" height="16" fill="none" viewBox="0 0 16 16">
  <g clip-path="url(#ic-16-marsello-loyalty__a)">
    <path fill="url(#ic-16-marsello-loyalty__b)" d="M10.94 10.203a.352.352 0 0 1-.167-.223 2.344 2.344 0 0 1-.056-.403c-.01-.154.01-3.167.01-4.137 0-.043-.004-.087-.007-.133a.403.403 0 0 0-.31-.354.393.393 0 0 0-.427.154c-.133.203-1.773 2.65-2 2.993-.036.057-.053.033-.076-.003-.304-.464-1.597-2.42-1.937-2.937a.456.456 0 0 0-.213-.183c-.254-.104-.58.05-.577.356.003.33-.003 4.704-.003 5.09 0 .044 0 .087.006.13.037.217.21.34.437.31.18-.023.297-.133.32-.313.03-.203.01-.41.01-.613l.003-.054v-2.8L5.95 7.03c0-.157.003-.31.003-.467.017-.003.014-.016.014-.026.063.053.1.126.146.193.134.207 1.337 2.093 1.464 2.287.116.176.353.256.546.133a.63.63 0 0 0 .177-.187c.19-.293 1.473-2.26 1.56-2.346.01.003.017.01.027.013v1.29l.003.423c-.007.327-.007.654-.007.98-.003.26.027.517.08.77.054.244.17.444.35.607.14.127.294.213.49.19.2-.023.364-.153.34-.377a.404.404 0 0 0-.203-.31Z"/>
    <path fill="url(#ic-16-marsello-loyalty__c)" d="M8 2.383a5.593 5.593 0 0 1 3.973 1.643A5.593 5.593 0 0 1 13.617 8a5.592 5.592 0 0 1-1.643 3.973A5.594 5.594 0 0 1 8 13.617a5.593 5.593 0 0 1-3.973-1.643A5.592 5.592 0 0 1 2.383 8a5.593 5.593 0 0 1 1.643-3.973A5.592 5.592 0 0 1 8 2.383Zm0-.716A6.335 6.335 0 0 0 1.667 8 6.335 6.335 0 0 0 8 14.333 6.335 6.335 0 0 0 14.333 8 6.335 6.335 0 0 0 8 1.667Z"/>
  </g>
  <defs>
    <linearGradient id="ic-16-marsello-loyalty__b" x1="12.098" x2="4.732" y1="3.998" y2="11.365" gradientUnits="userSpaceOnUse">
      <stop stop-color="#2EB5E4"/>
      <stop offset="1" stop-color="#A654D6"/>
    </linearGradient>
    <linearGradient id="ic-16-marsello-loyalty__c" x1="12.05" x2="4.684" y1="3.95" y2="11.316" gradientUnits="userSpaceOnUse">
      <stop stop-color="#2EB5E4"/>
      <stop offset="1" stop-color="#A654D6"/>
    </linearGradient>
    <clipPath id="ic-16-marsello-loyalty__a">
      <path fill="#fff" d="M0 0h16v16H0z"/>
    </clipPath>
  </defs>
</svg>
