<svg width="16" height="16" viewBox="0 0 16 16" fill="none" xmlns="http://www.w3.org/2000/svg">
  <path fill-rule="evenodd" clip-rule="evenodd" d="M5.97.47A.75.75 0 016.5.25h3a.75.75 0 01.53.22l1 1c.141.14.22.331.22.53v1.75H14a.75.75 0 01.75.75v9a2.25 2.25 0 01-2.25 2.25h-9a2.25 2.25 0 01-2.25-2.25v-9A.75.75 0 012 3.75h2.75V2a.75.75 0 01.22-.53l1-1zM4.75 5.25V7a.75.75 0 001.5 0V5.25h3.5V7a.75.75 0 001.5 0V5.25h2v8.25a.75.75 0 01-.75.75h-9a.75.75 0 01-.75-.75V5.25h2zm5-1.5h-3.5V2.31l.56-.56h2.38l.56.56v1.44z" />
</svg>
