<svg xmlns="http://www.w3.org/2000/svg" width="16" height="16" viewBox="0 0 16 16">
  <g clip-path="url(#ic-16-person-circle-arrow-left__a)">
    <path d="M.667 8a7.333 7.333 0 1 1 6.832 7.317 4.815 4.815 0 0 0 1.168-3.15c0-.52-.082-1.02-.234-1.489a7.96 7.96 0 0 1 4.296 1.535 6.333 6.333 0 1 0-11.06-4.37c-.356.18-.687.4-.986.658A7.442 7.442 0 0 1 .667 8Z"/>
    <path d="M8 9.333c-.088 0-.174-.004-.26-.012a4.847 4.847 0 0 0-2.226-1.687A2.667 2.667 0 1 1 8 9.334Z"/>
    <path fill-rule="evenodd" d="M7.667 12.167a3.833 3.833 0 1 1-7.667 0 3.833 3.833 0 0 1 7.667 0Zm-4.572.53 1.09 1.062a.543.543 0 0 1 .02.74.483.483 0 0 1-.7.029L1.49 12.555a.528.528 0 0 1-.158-.385.552.552 0 0 1 .158-.384l2.014-1.974a.495.495 0 0 1 .358-.145.476.476 0 0 1 .35.167.532.532 0 0 1 .133.38.55.55 0 0 1-.16.367l-1.09 1.063h2.74c.131 0 .258.055.351.154a.542.542 0 0 1 .146.372c0 .14-.052.274-.146.372a.485.485 0 0 1-.352.155h-2.74Z" clip-rule="evenodd"/>
  </g>
  <defs>
    <clipPath id="ic-16-person-circle-arrow-left__a">
      <path d="M0 0h16v16H0z"/>
    </clipPath>
  </defs>
</svg>
