<svg width="16" height="16" viewBox="0 0 16 16" fill="none" xmlns="http://www.w3.org/2000/svg">
  <path fill-rule="evenodd" clip-rule="evenodd" d="M4 8v1.867a1.75 1.75 0 001.533 1.737l2.83.354.761.912c.332.4.825.63 1.344.63h.782A1.75 1.75 0 0013 11.75V11h2.25a.75.75 0 000-1.5H13v-4h2.25a.75.75 0 000-1.5H13v-.75a1.75 1.75 0 00-1.75-1.75h-.782c-.519 0-1.012.23-1.344.63l-.76.913-2.831.353A1.75 1.75 0 004 5.133V6.5H.75a.75.75 0 000 1.5H4zm6.468-5a.25.25 0 00-.192.09l-.95 1.14a.75.75 0 01-.483.264l-3.124.39a.25.25 0 00-.219.249v4.734a.25.25 0 00.219.248l3.124.39a.75.75 0 01.483.265l.95 1.14a.25.25 0 00.192.09h.782a.25.25 0 00.25-.25v-8.5a.25.25 0 00-.25-.25h-.782z" />
</svg>
