<svg xmlns="http://www.w3.org/2000/svg" width="16" height="16" viewBox="0 0 16 16">
  <g clip-path="url(#ic-16-heart-hand__a)">
    <path fill-rule="evenodd" d="M2.216 8h.568c.172 0 .33 0 .461.01.142.012.298.039.451.117.22.112.398.29.51.51.07.138.1.278.113.408.31-.078.707-.176 1.123-.273.453-.107.93-.215 1.337-.296.386-.077.763-.143.983-.143.306 0 .61.037.908.109l1.59.387a1.528 1.528 0 0 1 1.179 1.477v.205c0 .022 0 .044-.002.067l1.43-.949a1.573 1.573 0 0 1 2.007.148 1.502 1.502 0 0 1 0 2.163l-1.439 1.399c-.485.472-1.254.757-1.837.87l-2.034.396a3.351 3.351 0 0 1-1.431-.033l-1.839-.447a5.747 5.747 0 0 0-.484-.08 4.789 4.789 0 0 0-.477-.046h-1a4.379 4.379 0 0 1-.01.246 1.182 1.182 0 0 1-.117.451c-.112.22-.29.398-.51.51a1.183 1.183 0 0 1-.45.117c-.133.01-.29.01-.462.01h-.568c-.172 0-.33 0-.461-.01a1.183 1.183 0 0 1-.451-.117 1.167 1.167 0 0 1-.51-.51 1.182 1.182 0 0 1-.117-.45c-.01-.133-.01-.29-.01-.462V9.55c0-.171 0-.33.01-.46.012-.143.039-.298.117-.452.112-.22.29-.398.51-.51.153-.078.309-.105.45-.116C1.888 8 2.045 8 2.217 8Zm2.117 4.999h1c.15 0 .395.026.608.054.216.028.452.066.59.1l1.838.447c.329.08.672.088 1.005.023l2.032-.395c.49-.096 1.043-.325 1.332-.606l1.439-1.4a.503.503 0 0 0 0-.728.573.573 0 0 0-.75-.037l-1.833 1.217c-.325.234-.717.36-1.118.36h-.01L8.846 12a.5.5 0 1 1 .021-1l1.205.025c.145-.01.216-.063.26-.121.058-.075.107-.206.107-.393v-.205a.528.528 0 0 0-.414-.506l-1.59-.386a2.854 2.854 0 0 0-.673-.08c-.102 0-.376.04-.787.122-.39.078-.855.183-1.304.289-.448.105-.876.211-1.193.29l-.145.037v2.927Zm-2.58-3.98h.002-.001Zm.003 0a.417.417 0 0 1 .08-.012C1.922 9 2.038 9 2.233 9h.534c.195 0 .31 0 .397.007.052.005.074.01.08.012.03.016.054.04.07.07a.419.419 0 0 1 .012.08c.007.087.007.203.007.398v4.2c0 .195 0 .31-.007.397a.419.419 0 0 1-.012.08.166.166 0 0 1-.07.07.413.413 0 0 1-.08.012 5.506 5.506 0 0 1-.397.007h-.534c-.195 0-.31 0-.397-.007a.413.413 0 0 1-.08-.012.166.166 0 0 1-.07-.07.418.418 0 0 1-.012-.08 5.553 5.553 0 0 1-.007-.397v-4.2c0-.195 0-.311.007-.397a.418.418 0 0 1 .012-.081.167.167 0 0 1 .07-.07Zm-.07.068v.001Zm0 5.16v-.002.001Zm.068.066Zm1.492 0Zm.068-.067Zm0-5.159v.001Zm-.069-.068h.001Zm7.545-7.317c-.498-.133-1.147.18-1.32.823-.207.774.18 1.655.693 2.399.28.402.597.778.946 1.122a7.993 7.993 0 0 0 1.38-.5c.816-.387 1.594-.957 1.801-1.731.173-.643-.233-1.239-.73-1.372a1.11 1.11 0 0 0-.967.187.711.711 0 0 1-1.06-.284 1.11 1.11 0 0 0-.743-.644Zm-2.286.564C8.819 1.09 10.018.46 11.049.736a2.09 2.09 0 0 1 1.24.909 2.092 2.092 0 0 1 1.53-.168c1.03.276 1.754 1.42 1.438 2.597-.33 1.232-1.483 1.97-2.339 2.376h-.002a8.982 8.982 0 0 1-1.587.572 6.145 6.145 0 0 1-.185.043.705.705 0 0 1-.596-.171l-.002-.002A8.98 8.98 0 0 1 9.34 5.494l-.002-.002c-.537-.78-1.166-1.994-.835-3.226Z" clip-rule="evenodd"/>
  </g>
  <defs>
    <clipPath id="ic-16-heart-hand__a">
      <path d="M0 0h16v16H0z"/>
    </clipPath>
  </defs>
</svg>
