<svg xmlns="http://www.w3.org/2000/svg" width="16" height="16" viewBox="0 0 16 16">
  <path fill-rule="evenodd" d="M12.347 2.379a.418.418 0 0 0-.065.048 5.602 5.602 0 0 0-.287.276L6.583 8.115l-.08.081-.015.018a.167.167 0 0 0-.018.031l-.007.022a4.076 4.076 0 0 0-.029.11L6.04 9.953l1.574-.395a4.027 4.027 0 0 0 .133-.036m0 0a.167.167 0 0 0 .031-.017l.018-.016.081-.08 5.412-5.412c.138-.138.22-.22.276-.286a.42.42 0 0 0 .049-.066.166.166 0 0 0 0-.098.42.42 0 0 0-.049-.066 5.533 5.533 0 0 0-.276-.286l-.491-.491a5.569 5.569 0 0 0-.286-.276.424.424 0 0 0-.065-.048.167.167 0 0 0-.1 0m-.31-.95c.234-.077.486-.077.72 0 .165.052.293.144.402.236.1.085.212.197.334.318l.516.516c.121.122.233.233.318.334.093.109.184.238.237.401.076.235.076.487 0 .721a1.184 1.184 0 0 1-.237.402c-.085.1-.197.212-.318.333l-5.425 5.425-.015.015c-.062.063-.129.13-.207.185a1.17 1.17 0 0 1-.218.124c-.089.038-.18.061-.266.083a1.29 1.29 0 0 0-.02.005l-2.384.598a.5.5 0 0 1-.607-.607l.598-2.383.006-.021c.02-.086.044-.177.082-.265.033-.078.075-.15.124-.22.056-.077.123-.144.185-.206l.015-.015 5.425-5.425c.121-.121.233-.233.333-.318.11-.092.238-.184.402-.237Z" clip-rule="evenodd"/>
  <path fill-rule="evenodd" d="M.667 3.167C.667 2.522 1.189 2 1.833 2h5.5a.5.5 0 1 1 0 1h-5.5a.167.167 0 0 0-.166.167v11c0 .092.074.166.166.166h11a.167.167 0 0 0 .167-.166v-5.5a.5.5 0 0 1 1 0v5.5c0 .644-.522 1.166-1.167 1.166h-11a1.167 1.167 0 0 1-1.166-1.166v-11Z" clip-rule="evenodd"/>
</svg>
