<svg width="16" height="16" viewBox="0 0 16 16" fill="none" xmlns="http://www.w3.org/2000/svg">
<path fill-rule="evenodd" clip-rule="evenodd" d="M1.59295 0.891389C1.42808 1.06859 1.33331 1.34132 1.33331 1.69572V14.3015C1.33331 14.6559 1.42808 14.9286 1.59911 15.0997L1.6438 15.1374L8.7071 8.07411V7.9154L1.63763 0.853638L1.59295 0.891389V0.891389Z" fill="url(#paint0_linear_2148_127)"/>
<path fill-rule="evenodd" clip-rule="evenodd" d="M11.0569 10.438L8.70093 8.08125V7.91638L11.0577 5.55963L11.1085 5.59122L13.8959 7.17522C14.6941 7.62516 14.6941 8.36631 13.8959 8.8224L11.1085 10.4064C11.1078 10.4064 11.0569 10.438 11.0569 10.438V10.438Z" fill="url(#paint1_linear_2148_127)"/>
<path fill-rule="evenodd" clip-rule="evenodd" d="M11.1078 10.4064L8.70095 7.99881L1.59296 15.1068C1.85259 15.3857 2.28943 15.4173 2.77788 15.1446L11.1078 10.4064Z" fill="url(#paint2_linear_2148_127)"/>
<path fill-rule="evenodd" clip-rule="evenodd" d="M11.1078 5.592L2.77788 0.860014C2.2902 0.581118 1.85259 0.618869 1.59296 0.897765L8.70018 7.99882L11.1078 5.592Z" fill="url(#paint3_linear_2148_127)"/>
<path opacity="0.2" fill-rule="evenodd" clip-rule="evenodd" d="M11.0569 10.3555L2.78404 15.0559C2.32178 15.3217 1.9096 15.3032 1.64381 15.0621L1.59912 15.1067L1.64381 15.1445C1.9096 15.3849 2.32178 15.4041 2.78404 15.1383L11.1139 10.4063L11.0569 10.3555V10.3555Z" fill="black"/>
<path opacity="0.12" fill-rule="evenodd" clip-rule="evenodd" d="M13.8952 8.73996L11.0508 10.3556L11.1016 10.4064L13.889 8.8224C14.2881 8.59435 14.4846 8.29697 14.4846 7.99881C14.4592 8.27154 14.2565 8.53118 13.8952 8.73996V8.73996Z" fill="black"/>
<path opacity="0.25" fill-rule="evenodd" clip-rule="evenodd" d="M2.77787 0.942407L13.8952 7.25839C14.2565 7.46102 14.4591 7.72682 14.4907 7.99955C14.4907 7.70216 14.2943 7.40401 13.8952 7.17596L2.77787 0.859971C1.9797 0.403876 1.33331 0.783698 1.33331 1.69589V1.77832C1.33331 0.866134 1.9797 0.492475 2.77787 0.942407Z" fill="white"/>
<defs>
<linearGradient id="paint0_linear_2148_127" x1="8.07285" y1="1.56022" x2="-3.24135" y2="4.5749" gradientUnits="userSpaceOnUse">
<stop stop-color="#00A0FF"/>
<stop offset="0.007" stop-color="#00A1FF"/>
<stop offset="0.26" stop-color="#00BEFF"/>
<stop offset="0.512" stop-color="#00D2FF"/>
<stop offset="0.76" stop-color="#00DFFF"/>
<stop offset="1" stop-color="#00E3FF"/>
</linearGradient>
<linearGradient id="paint1_linear_2148_127" x1="14.9346" y1="7.99916" x2="1.13931" y2="7.99916" gradientUnits="userSpaceOnUse">
<stop stop-color="#FFE000"/>
<stop offset="0.409" stop-color="#FFBD00"/>
<stop offset="0.775" stop-color="#FFA500"/>
<stop offset="1" stop-color="#FF9C00"/>
</linearGradient>
<linearGradient id="paint2_linear_2148_127" x1="9.79901" y1="9.30856" x2="0.715931" y2="24.596" gradientUnits="userSpaceOnUse">
<stop stop-color="#FF3A44"/>
<stop offset="1" stop-color="#C31162"/>
</linearGradient>
<linearGradient id="paint3_linear_2148_127" x1="-0.1963" y1="-3.30169" x2="3.85594" y2="3.52591" gradientUnits="userSpaceOnUse">
<stop stop-color="#32A071"/>
<stop offset="0.069" stop-color="#2DA771"/>
<stop offset="0.476" stop-color="#15CF74"/>
<stop offset="0.801" stop-color="#06E775"/>
<stop offset="1" stop-color="#00F076"/>
</linearGradient>
</defs>
</svg>
