<svg xmlns="http://www.w3.org/2000/svg" width="16" height="16" viewBox="0 0 16 16">
  <g clip-path="url(#ic-16-iphone-ipad__a)">
    <path d="M.667 2.5c0-1.012.82-1.833 1.833-1.833h11.667C15.179.667 16 1.487 16 2.5v8.333c0 1.013-.82 1.834-1.833 1.834H9.833a.5.5 0 1 1 0-1h4.334c.46 0 .833-.373.833-.834V2.5a.833.833 0 0 0-.833-.833H2.5a.833.833 0 0 0-.833.833.5.5 0 0 1-1 0ZM2.5 12.333a.5.5 0 0 0 0 1h3a.5.5 0 1 0 0-1h-3Z"/>
    <path fill-rule="evenodd" d="M1.833 3.833A1.834 1.834 0 0 0 0 5.667V13.5c0 1.013.82 1.833 1.833 1.833h4.334C7.179 15.333 8 14.513 8 13.5V5.667c0-1.013-.82-1.834-1.833-1.834H1.833ZM1 5.667c0-.46.373-.834.833-.834h.834v.334c0 .368.298.666.666.666h1.334a.667.667 0 0 0 .666-.666v-.334h.834c.46 0 .833.374.833.834V13.5c0 .46-.373.833-.833.833H1.833A.833.833 0 0 1 1 13.5V5.667Z" clip-rule="evenodd"/>
  </g>
  <defs>
    <clipPath id="ic-16-iphone-ipad__a">
      <path d="M0 0h16v16H0z"/>
    </clipPath>
  </defs>
</svg>
