<svg xmlns="http://www.w3.org/2000/svg" width="16" height="16" viewBox="0 0 16 16">
  <path fill-rule="evenodd" d="M1.333 2.5c0-.644.523-1.167 1.167-1.167h3.667c.644 0 1.166.523 1.166 1.167v3.667c0 .644-.522 1.166-1.166 1.166H2.5a1.167 1.167 0 0 1-1.167-1.166V2.5ZM2.5 2.333a.167.167 0 0 0-.167.167v3.667c0 .092.075.166.167.166h3.667a.167.167 0 0 0 .166-.166V2.5a.167.167 0 0 0-.166-.167H2.5Zm-1.167 7.5c0-.644.523-1.166 1.167-1.166h3.667c.644 0 1.166.522 1.166 1.166V13.5c0 .644-.522 1.167-1.166 1.167H2.5A1.167 1.167 0 0 1 1.333 13.5V9.833ZM2.5 9.667a.167.167 0 0 0-.167.166V13.5c0 .092.075.167.167.167h3.667a.167.167 0 0 0 .166-.167V9.833a.167.167 0 0 0-.166-.166H2.5Zm7.333-8.334c-.644 0-1.166.523-1.166 1.167v3.667c0 .644.522 1.166 1.166 1.166H13.5c.644 0 1.167-.522 1.167-1.166V2.5c0-.644-.523-1.167-1.167-1.167H9.833ZM9.667 2.5c0-.092.074-.167.166-.167H13.5c.092 0 .167.075.167.167v3.667a.167.167 0 0 1-.167.166H9.833a.167.167 0 0 1-.166-.166V2.5Zm-1 7.333c0-.644.522-1.166 1.166-1.166H13.5c.644 0 1.167.522 1.167 1.166V13.5c0 .644-.523 1.167-1.167 1.167H9.833A1.167 1.167 0 0 1 8.667 13.5V9.833Zm1.166-.166a.167.167 0 0 0-.166.166V13.5c0 .092.074.167.166.167H13.5a.167.167 0 0 0 .167-.167V9.833a.167.167 0 0 0-.167-.166H9.833Z" clip-rule="evenodd"/>
</svg>
