<svg width="16" height="16" viewBox="0 0 16 16" fill="none" xmlns="http://www.w3.org/2000/svg">
  <path fill-rule="evenodd" clip-rule="evenodd" d="M2.732 2.333l-.738 2.584h12.012l-.738-2.584H2.732zM14.25 6.417h-3.167v.416a1.583 1.583 0 002.3 1.413.748.748 0 01.155-.09 1.588 1.588 0 00.712-1.323v-.416zm.333 2.832a3.084 3.084 0 001.167-2.415V5.666c0-.07-.01-.14-.029-.206L14.675 1.8a1.333 1.333 0 00-1.282-.968H2.607a1.333 1.333 0 00-1.282.967L.279 5.46a.75.75 0 00-.029.207v1.166A3.083 3.083 0 001.417 9.25v4.584a1.333 1.333 0 001.333 1.334h10.5a1.333 1.333 0 001.333-1.334V9.25zm-1.5.64a3.084 3.084 0 01-2.75-1.04 3.083 3.083 0 01-4.667 0 3.088 3.088 0 01-2.75 1.04v3.778h10.167V9.888zM2.618 8.245a1.583 1.583 0 002.299-1.413v-.416H1.75v.416a1.583 1.583 0 00.712 1.322.749.749 0 01.156.09zm3.799-1.83v.417a1.583 1.583 0 103.166 0v-.416H6.417z" />
</svg>
