<svg width="16" height="16" viewBox="0 0 16 16" fill="none" xmlns="http://www.w3.org/2000/svg">
  <path fill-rule="evenodd" clip-rule="evenodd" d="M8 0a5 5 0 00-5 5v2.947a.25.25 0 01-.042.139L1.255 10.64A1.518 1.518 0 002.518 13h10.964a1.518 1.518 0 001.263-2.36l-1.703-2.554A.25.25 0 0113 7.947V5a5 5 0 00-5-5zM4.5 5a3.5 3.5 0 117 0v2.947c0 .346.102.683.294.97l1.703 2.556a.017.017 0 01.003.01v.004l-.001.002-.004.006-.006.004-.007.001H2.518l-.007-.001-.006-.004a.028.028 0 01-.004-.006l-.001-.007.003-.01 1.703-2.554a1.75 1.75 0 00.294-.97V5z" />
  <path d="M9.985 14.25a2 2 0 01-3.97 0c-.017-.137.097-.25.235-.25h3.5c.138 0 .252.113.235.25z" />
</svg>
