<svg xmlns="http://www.w3.org/2000/svg" width="16" height="16" viewBox="0 0 16 16">
  <g clip-path="url(#ic-16-groupon__a)">
    <path d="M9.667 1.167a.5.5 0 0 1-.5.5H6.833a.5.5 0 0 1 0-1h2.334a.5.5 0 0 1 .5.5Zm-8 5.666a.5.5 0 0 0-1 0v2.334a.5.5 0 0 0 1 0V6.833Zm13.166-.5a.5.5 0 0 1 .5.5v2.334a.5.5 0 1 1-1 0V6.833a.5.5 0 0 1 .5-.5Zm-5.166 8.5a.5.5 0 0 1-.5.5H6.833a.5.5 0 1 1 0-1h2.334a.5.5 0 0 1 .5.5ZM1.167 12a.5.5 0 0 1 .5.5v1c0 .46.373.833.833.833h1a.5.5 0 0 1 0 1h-1A1.833 1.833 0 0 1 .667 13.5v-1a.5.5 0 0 1 .5-.5Zm13.166.5a.5.5 0 1 1 1 0v1c0 1.013-.82 1.833-1.833 1.833h-1a.5.5 0 1 1 0-1h1c.46 0 .833-.373.833-.833v-1ZM1.167 4a.5.5 0 0 0 .5-.5v-1c0-.46.373-.833.833-.833h1a.5.5 0 0 0 0-1h-1C1.487.667.667 1.487.667 2.5v1a.5.5 0 0 0 .5.5Zm13.166-.5a.5.5 0 0 0 1 0v-1c0-1.012-.82-1.833-1.833-1.833h-1a.5.5 0 0 0 0 1h1c.46 0 .833.373.833.833v1Zm-3.146 1.313a.5.5 0 0 1 0 .707L5.52 11.187a.5.5 0 0 1-.707-.707l5.667-5.667a.5.5 0 0 1 .707 0Zm-4.52 1.02a.833.833 0 1 1-1.667 0 .833.833 0 0 1 1.667 0ZM11 10.167a.833.833 0 1 1-1.667 0 .833.833 0 0 1 1.667 0Z"/>
  </g>
  <defs>
    <clipPath id="ic-16-groupon__a">
      <path d="M0 0h16v16H0z"/>
    </clipPath>
  </defs>
</svg>
