<svg width="16" height="16" viewBox="0 0 16 16" fill="none" xmlns="http://www.w3.org/2000/svg">
  <path d="M11.55 10.52a4.032 4.032 0 01-.078-.867l.02-.954-.001-4.028a.479.479 0 00-.15-.358.548.548 0 00-.364-.155.512.512 0 00-.428.235L7.98 8.236 5.445 4.393a.547.547 0 00-.199-.17.542.542 0 00-.251-.065.497.497 0 00-.375.155.496.496 0 00-.15.359l.002 6.474a.52.52 0 00.134.369.45.45 0 00.347.145.466.466 0 00.358-.145.524.524 0 00.134-.37l-.001-5.05L7.53 9.336c.05.064.113.118.188.16.074.043.147.06.219.054a.39.39 0 00.23-.054.648.648 0 00.187-.16l2.073-3.145.001 2.507-.008.97c0 .527.085 1.08.22 1.35.137.27.33.465.545.587a.644.644 0 00.343.085.57.57 0 00.347-.107c.097-.071.145-.182.145-.332a.456.456 0 00-.064-.23.582.582 0 00-.17-.187.46.46 0 01-.236-.316z" />
  <path fill-rule="evenodd" clip-rule="evenodd" d="M0 8c0 4.412 3.59 8 8 8s8-3.588 8-8-3.588-8-8-8-8 3.588-8 8zm.946 0A7.062 7.062 0 018 .946 7.062 7.062 0 0115.054 8 7.062 7.062 0 018 15.054 7.062 7.062 0 01.946 8z" />
</svg>
