<svg xmlns="http://www.w3.org/2000/svg" width="16" height="16" viewBox="0 0 16 16">
  <path fill-rule="evenodd" d="M0 3.167C0 2.522.522 2 1.167 2h13.666C15.478 2 16 2.522 16 3.167v9.666c0 .645-.522 1.167-1.167 1.167H1.167A1.167 1.167 0 0 1 0 12.833V3.167ZM1.167 3A.167.167 0 0 0 1 3.167V7.5h2.955a1.92 1.92 0 0 1-.38-.461c-.526-.901-.05-1.853.582-2.403.642-.56 1.647-.91 2.575-.54.285.114.543.287.768.52V3H1.167ZM8.5 4.616c.225-.233.483-.406.768-.52.928-.37 1.933-.02 2.575.54.632.55 1.108 1.502.583 2.403a1.919 1.919 0 0 1-.38.461H15V3.167A.167.167 0 0 0 14.833 3H8.5v1.616ZM15 8.5H8.737c.116.232.276.504.489.774.552.7 1.46 1.393 2.94 1.393a.5.5 0 1 1 0 1c-1.8 0-2.962-.841-3.666-1.7V13h6.333a.167.167 0 0 0 .167-.167V8.5ZM7.5 13V9.967c-.704.858-1.866 1.7-3.667 1.7a.5.5 0 0 1 0-1c1.481 0 2.389-.694 2.941-1.393.213-.27.373-.542.49-.774H1v4.333c0 .092.075.167.167.167H7.5Zm-.151-5.514c-.96-.045-1.643-.188-2.112-.374-.47-.186-.697-.402-.799-.577a.613.613 0 0 1-.084-.257.72.72 0 0 1 .033-.277 1.39 1.39 0 0 1 .427-.611 1.86 1.86 0 0 1 .762-.402 1.28 1.28 0 0 1 .786.038c.235.093.478.284.682.645.207.366.375.912.434 1.698a.099.099 0 0 1-.032.079.13.13 0 0 1-.097.037Zm1.302 0c.96-.045 1.643-.188 2.113-.374s.696-.402.798-.577a.613.613 0 0 0 .084-.257.72.72 0 0 0-.033-.277 1.39 1.39 0 0 0-.427-.611 1.859 1.859 0 0 0-.762-.402 1.28 1.28 0 0 0-.786.038c-.235.093-.478.284-.682.645-.207.366-.375.912-.434 1.698a.099.099 0 0 0 .032.079.13.13 0 0 0 .097.037Z" clip-rule="evenodd"/>
</svg>
