<svg xmlns="http://www.w3.org/2000/svg" width="16" height="16" viewBox="0 0 16 16">
  <path d="M4.167 9.667a.833.833 0 1 0 0-1.667.833.833 0 0 0 0 1.667Zm8.5-.834a.833.833 0 1 1-1.667 0 .833.833 0 0 1 1.667 0Zm-6-.166a.667.667 0 1 0 0 1.333h2.666a.667.667 0 0 0 0-1.333H6.667Z"/>
  <path fill-rule="evenodd" d="m12.654 3.85.795 2.253.947 1.352a1.5 1.5 0 0 1 .27.86v1.99c0 .51-.257.973-.666 1.237v1.125a.667.667 0 0 1-.667.666h-.666a.667.667 0 0 1-.667-.666v-.791A60.741 60.741 0 0 1 8 12a61.06 61.06 0 0 1-4-.124v.79a.667.667 0 0 1-.667.667h-.666A.667.667 0 0 1 2 12.667v-1.125a1.47 1.47 0 0 1-.667-1.236v-1.99a1.5 1.5 0 0 1 .272-.86l.946-1.353.795-2.252a1.42 1.42 0 0 1 1.116-.943c.657-.102 1.863-.241 3.538-.241 1.675 0 2.88.14 3.538.241.534.083.946.462 1.116.943Zm-8.04.046c.612-.094 1.766-.23 3.386-.23s2.774.136 3.385.23a.42.42 0 0 1 .326.287l.565 1.601c-.185-.01-.4-.022-.645-.033a77.637 77.637 0 0 0-7.907.033l.565-1.6a.42.42 0 0 1 .326-.288ZM2.425 8.03l.85-1.214.125-.009a76.641 76.641 0 0 1 9.328.008l.85 1.215a.5.5 0 0 1 .09.286v1.99c0 .25-.178.442-.404.464-.97.097-2.768.231-5.263.231s-4.293-.134-5.263-.231a.454.454 0 0 1-.404-.463v-1.99a.5.5 0 0 1 .09-.287Z" clip-rule="evenodd"/>
</svg>
