<svg xmlns="http://www.w3.org/2000/svg" width="24" height="24" viewBox="0 0 24 24">
  <path fill-rule="evenodd" d="M12.053 3.529a.25.25 0 0 0-.106 0l-8.25 1.784a.25.25 0 0 0-.197.244V7.25c0 .138.112.25.25.25h16.5a.25.25 0 0 0 .25-.25V5.557a.25.25 0 0 0-.197-.245l-8.25-1.783Zm-.423-1.466a1.75 1.75 0 0 1 .74 0l8.25 1.783A1.75 1.75 0 0 1 22 5.556V7.25A1.75 1.75 0 0 1 20.25 9h-.75v7.5h.75c.966 0 1.75.784 1.75 1.75v2A1.75 1.75 0 0 1 20.25 22H3.75A1.75 1.75 0 0 1 2 20.25v-2c0-.966.784-1.75 1.75-1.75h.75V9h-.75A1.75 1.75 0 0 1 2 7.25V5.557a1.75 1.75 0 0 1 1.38-1.71l8.25-1.784ZM6 9v7.5h3V9H6Zm4.5 0v7.5h3V9h-3ZM15 9v7.5h3V9h-3ZM3.75 18a.25.25 0 0 0-.25.25v2c0 .138.112.25.25.25h16.5a.25.25 0 0 0 .25-.25v-2a.25.25 0 0 0-.25-.25H3.75Z" clip-rule="evenodd"/>
</svg>
