<svg xmlns="http://www.w3.org/2000/svg" width="24" height="24" viewBox="0 0 24 24">
  <path d="M5 2.75a.75.75 0 0 0-1.5 0v7.5c0 .966.784 1.75 1.75 1.75h1.5v9.25a.75.75 0 0 0 1.5 0V12h1.5a1.75 1.75 0 0 0 1.75-1.75v-7.5a.75.75 0 0 0-1.5 0v7.5a.25.25 0 0 1-.25.25h-1.5V2.75a.75.75 0 0 0-1.5 0v7.75h-1.5a.25.25 0 0 1-.25-.25v-7.5Z"/>
  <path fill-rule="evenodd" d="M18.5 2A4.5 4.5 0 0 0 14 6.5V14c0 .966.784 1.75 1.75 1.75h2.75v5.5a.75.75 0 0 0 1.5 0V3.5A1.5 1.5 0 0 0 18.5 2Zm0 1.5v10.75h-2.75a.25.25 0 0 1-.25-.25V6.5a3 3 0 0 1 3-3Z" clip-rule="evenodd"/>
</svg>
