<svg width="24" height="24" viewBox="0 0 24 24" fill="none" xmlns="http://www.w3.org/2000/svg">
  <path d="M6.5 18.75a.75.75 0 000 1.5v-1.5zM20.23 1H5.75v1.5h14.48V1zM5.75 23h14.48v-1.5H5.75V23zM21 16.75V1.77h-1.5v14.98H21zM3 3.749V18.75h1.5V3.749H3zM3 18.75v1.5h1.5v-1.5H3zm17.25-2V16H5.75v1.5h14.499l.001-.75zM5.75 16C4.399 16 3 17.026 3 18.75h1.5c0-.776.601-1.25 1.25-1.25V16zM21 22.23V19.5h-1.5v2.73H21zm0-2.73v-2.75h-1.5v2.75H21zm-.75 0v-.75H6.5v1.5h13.749l.001-.75zm-.02 3.5a.77.77 0 00.77-.77h-1.5a.73.73 0 01.73-.73V23zM5.75 21.5c-.69 0-1.25-.56-1.25-1.25H3A2.75 2.75 0 005.75 23v-1.5zm0-20.5A2.749 2.749 0 003 3.749h1.5c0-.69.559-1.249 1.25-1.249V1zm14.48 1.5a.73.73 0 01-.73-.73H21a.77.77 0 00-.77-.77v1.5z" />
</svg>
