<svg xmlns="http://www.w3.org/2000/svg" width="24" height="24" viewBox="0 0 24 24">
  <path fill-rule="evenodd" d="M5.75 2.75a.75.75 0 0 0-1.5 0v10.345a3.001 3.001 0 0 0 0 5.81v2.345a.75.75 0 0 0 1.5 0v-2.345a3.001 3.001 0 0 0 0-5.81V2.75ZM5 17.5a1.5 1.5 0 1 0 0-3 1.5 1.5 0 0 0 0 3ZM19.75 2.75a.75.75 0 0 0-1.5 0v10.345a3.001 3.001 0 0 0 0 5.81v2.345a.75.75 0 0 0 1.5 0v-2.345a3.001 3.001 0 0 0 0-5.81V2.75ZM20.5 16a1.5 1.5 0 1 1-3 0 1.5 1.5 0 0 1 3 0ZM12 22a.75.75 0 0 0 .75-.75V10.905a3.001 3.001 0 0 0 0-5.81V2.75a.75.75 0 0 0-1.5 0v2.345a3.001 3.001 0 0 0 0 5.81V21.25c0 .414.336.75.75.75Zm0-15.5a1.5 1.5 0 1 1 0 3 1.5 1.5 0 0 1 0-3Z" clip-rule="evenodd"/>
</svg>
