<svg width="24" height="24" viewBox="0 0 24 24" fill="none" xmlns="http://www.w3.org/2000/svg">
  <path fill-rule="evenodd" clip-rule="evenodd" d="M6.736 4.5C4.657 4.5 2.5 6.38 2.5 9.014c0 3.107 2.324 5.96 4.861 8.12a29.66 29.66 0 004.566 3.175l.073.041.073-.04c.271-.153.661-.38 1.13-.674.94-.588 2.19-1.441 3.436-2.502 2.537-2.16 4.861-5.013 4.861-8.12 0-2.634-2.157-4.514-4.236-4.514-2.106 0-3.801 1.389-4.553 3.643a.75.75 0 01-1.422 0C10.537 5.889 8.841 4.5 6.736 4.5zM12 21.203l.343.667a.75.75 0 01-.686 0l.343-.667zM1 9.013C1 5.553 3.829 3 6.736 3 9.03 3 10.881 4.226 12 6.105 13.12 4.226 14.97 3 17.264 3 20.17 3 23 5.552 23 9.014c0 3.818-2.801 7.06-5.389 9.262a31.146 31.146 0 01-5.233 3.576l-.025.013-.007.003-.002.001-.344-.666-.343.667-.003-.002-.007-.003-.025-.013A29.308 29.308 0 0110 20.908a31.147 31.147 0 01-3.611-2.632C3.8 16.073 1 12.832 1 9.014z" />
</svg>
