<svg width="24" height="24" viewBox="0 0 24 24" fill="none" xmlns="http://www.w3.org/2000/svg">
  <path fill-rule="evenodd" clip-rule="evenodd" d="M18.193 5.5H5.245l-2.438 13h12.948l2.438-13zm0-1.5H5.245A1.5 1.5 0 003.77 5.224l-2.438 13A1.5 1.5 0 002.807 20h12.948a1.5 1.5 0 001.474-1.224l2.438-13A1.5 1.5 0 0018.193 4z" />
  <path fill-rule="evenodd" clip-rule="evenodd" d="M19.682 5.288l2.849 12.888A1.5 1.5 0 0121.066 20H19.25a.75.75 0 010-1.5h1.816L18.218 5.612l1.464-.324zm-9.445 3a.75.75 0 01.474.95l-.17.512h1.418l.33-.987a.75.75 0 111.422.474l-.17.513H14a.75.75 0 010 1.5h-.96l-.5 1.5H13a.75.75 0 010 1.5h-.96l-.329.987a.75.75 0 01-1.422-.474l.17-.513H9.041l-.33.987a.75.75 0 01-1.423-.474l.171-.513H7a.75.75 0 010-1.5h.96l.5-1.5H8a.75.75 0 010-1.5h.96l.329-.987a.75.75 0 01.948-.475zm-.196 2.962l-.5 1.5h1.418l.5-1.5h-1.418z" />
</svg>
