<svg width="24" height="24" viewBox="0 0 24 24" fill="none" xmlns="http://www.w3.org/2000/svg">
  <path d="M19.346 3.869c1.075 0 1.923.322 2.544.967.62.62.93 1.42.93 2.4v1.433c0 .955-.31 1.755-.93 2.4-.621.62-1.47.931-2.544.931h-1.29l-.035.206c-.072 1.958-.382 2.74-.931 3.576-.55.812-1.445 1.218-2.687 1.218H7.991c-1.242 0-2.137-.406-2.687-1.218-.549-.836-.86-1.618-.93-3.576L4.11 3.869h15.236zm0 6.304c.55 0 .956-.131 1.218-.394.263-.286.394-.657.394-1.11V7.236c0-.478-.131-.848-.394-1.11-.262-.287-.669-.43-1.218-.43H18.2v4.477h1.146zM2.47 21.113c-.74 0-1.17-.37-1.29-1.11L1 19h22l-.18 1.003c-.119.74-.548 1.11-1.289 1.11H2.47z" />
</svg>
