<svg width="24" height="24" viewBox="0 0 24 24" fill="none" xmlns="http://www.w3.org/2000/svg">
  <path fill-rule="evenodd" clip-rule="evenodd" d="M12 21a1.75 1.75 0 110-3.5 1.75 1.75 0 010 3.5zm-3.25-1.75a3.25 3.25 0 104-3.163V12.5h2.5A3.75 3.75 0 0019 8.75v-.837a3.251 3.251 0 00-.75-6.413 3.25 3.25 0 00-.75 6.413v.837A2.25 2.25 0 0115.25 11h-6.5A2.25 2.25 0 016.5 8.75v-.837A3.251 3.251 0 005.75 1.5 3.25 3.25 0 005 7.913v.837a3.75 3.75 0 003.75 3.75h2.5v3.587a3.251 3.251 0 00-2.5 3.163zm-3-12.75a1.75 1.75 0 110-3.5 1.75 1.75 0 010 3.5zM16.5 4.75a1.75 1.75 0 103.5 0 1.75 1.75 0 00-3.5 0z" />
</svg>
