<svg width="24" height="24" viewBox="0 0 24 24" fill="none" xmlns="http://www.w3.org/2000/svg">
  <path d="M12 1c-2.988 0-3.361.014-4.535.066-1.171.055-1.969.24-2.67.511a5.387 5.387 0 00-1.949 1.27 5.367 5.367 0 00-1.269 1.948c-.272.701-.457 1.499-.511 2.67C1.011 8.64 1 9.012 1 12c0 2.988.014 3.361.066 4.535.055 1.17.24 1.969.511 2.67a5.406 5.406 0 001.27 1.949 5.38 5.38 0 001.948 1.268c.702.272 1.5.458 2.67.512C8.64 22.989 9.012 23 12 23c2.988 0 3.361-.014 4.535-.066 1.17-.055 1.969-.24 2.67-.512a5.407 5.407 0 001.949-1.268 5.375 5.375 0 001.268-1.949c.272-.701.458-1.5.512-2.67C22.989 15.36 23 14.988 23 12c0-2.988-.014-3.361-.066-4.535-.055-1.17-.24-1.97-.512-2.67a5.399 5.399 0 00-1.268-1.949 5.359 5.359 0 00-1.949-1.269c-.701-.272-1.5-.457-2.67-.511C15.36 1.011 14.988 1 12 1zm0 1.98c2.936 0 3.286.015 4.446.065 1.072.05 1.654.228 2.041.38.515.2.88.438 1.267.822.384.385.622.75.821 1.266.15.387.33.969.379 2.041.052 1.16.064 1.509.064 4.446s-.014 3.286-.068 4.446c-.056 1.072-.234 1.654-.386 2.041-.205.515-.439.88-.824 1.267a3.43 3.43 0 01-1.265.821c-.385.15-.976.33-2.048.379-1.168.052-1.512.064-4.454.064-2.944 0-3.288-.014-4.455-.068-1.073-.056-1.664-.234-2.05-.386a3.406 3.406 0 01-1.263-.824 3.34 3.34 0 01-.825-1.265c-.152-.385-.33-.976-.385-2.048-.042-1.155-.056-1.512-.056-4.44 0-2.93.014-3.288.056-4.457.056-1.072.233-1.663.385-2.048.192-.522.439-.88.825-1.265.384-.384.742-.632 1.264-.824.385-.152.963-.33 2.036-.385 1.168-.042 1.512-.055 4.454-.055L12 2.98zm0 3.371a5.648 5.648 0 100 11.297 5.648 5.648 0 000-11.296zm0 9.316A3.666 3.666 0 018.333 12 3.666 3.666 0 0112 8.333 3.666 3.666 0 0115.667 12 3.666 3.666 0 0112 15.667zm7.192-9.538a1.32 1.32 0 01-2.64 0 1.32 1.32 0 012.64 0z" />
</svg>
