<svg xmlns="http://www.w3.org/2000/svg" width="24" height="24" viewBox="0 0 24 24">
  <path d="M1 12C1 5.925 5.925 1 12 1s11 4.925 11 11-4.925 11-11 11c-.252 0-.503-.009-.75-.025A7.222 7.222 0 0 0 13 18.25c0-.779-.123-1.53-.35-2.233 2.403.128 4.62.964 6.443 2.303A9.464 9.464 0 0 0 21.5 12a9.5 9.5 0 0 0-18.997-.234c-.534.268-1.03.6-1.478.985A11.164 11.164 0 0 1 1 12Z"/>
  <path d="M12 14a4.04 4.04 0 0 1-.39-.019 7.27 7.27 0 0 0-3.339-2.53A4 4 0 1 1 12 14Z"/>
  <path fill-rule="evenodd" d="M11.5 18.25a5.75 5.75 0 1 1-11.5 0 5.75 5.75 0 0 1 11.5 0Zm-2.235-1.795a.75.75 0 0 1 .03 1.06l-4 3.75a.75.75 0 0 1-1.05.04l-2.25-2.25a.75.75 0 0 1 1.01-1.11L4.71 19.7l3.495-3.215a.75.75 0 0 1 1.06-.03Z" clip-rule="evenodd"/>
</svg>
