<svg width="24" height="24" viewBox="0 0 24 24" fill="none" xmlns="http://www.w3.org/2000/svg">
<path d="M12.8531 9.91877C11.6765 11.0297 10.9407 12.6047 10.9407 14.3531C10.9407 15.7266 11.3953 16.9922 12.1594 18.0095L9.83905 20.3437C9.6328 20.2687 9.41247 20.2266 9.18275 20.2266C8.67655 20.2266 8.20313 20.4235 7.84683 20.7798C7.49058 21.136 7.29368 21.614 7.29368 22.1204C7.29368 22.6266 7.49053 23.1 7.84683 23.4563C8.20313 23.8125 8.68125 24 9.18275 24C9.68899 24 10.1624 23.8171 10.5234 23.4563C10.8797 23.1 11.0765 22.6219 11.0765 22.1204C11.0765 21.9235 11.0484 21.736 10.9875 21.5531L13.3313 19.2C14.3625 19.9921 15.6468 20.461 17.0484 20.461C20.4188 20.461 23.1421 17.7281 23.1421 14.3578C23.1421 11.3015 20.9063 8.77032 17.9765 8.32501V5.43754C18.7969 5.09058 19.2984 4.32184 19.2984 3.42648C19.2984 2.20305 18.3187 1.18122 17.0952 1.18122C15.8718 1.18122 14.9062 2.20305 14.9062 3.42648C14.9062 4.32184 15.4077 5.09058 16.228 5.43754V8.30623C15.5156 8.40468 14.8406 8.62026 14.2265 8.94374C12.9328 7.96402 8.71876 4.92649 6.30931 3.09367C6.36555 2.88742 6.40312 2.67184 6.40312 2.44686C6.40312 1.09686 5.30156 0 3.94686 0C2.59686 0 1.5 1.09686 1.5 2.44686C1.5 3.80156 2.59686 4.89842 3.94686 4.89842C4.40626 4.89842 4.83278 4.76246 5.20311 4.54218L12.8531 9.91877ZM17.0484 17.5876C15.2625 17.5876 13.814 16.1391 13.814 14.3532C13.814 12.5673 15.2625 11.1189 17.0484 11.1189C18.8343 11.1189 20.2827 12.5673 20.2827 14.3532C20.2828 16.1391 18.8343 17.5876 17.0484 17.5876Z" />
</svg>
