<svg width="24" height="24" viewBox="0 0 24 24" fill="none" xmlns="http://www.w3.org/2000/svg">
  <path fill-rule="evenodd" clip-rule="evenodd" d="M4.295 3.75a.083.083 0 00-.08.06l-1.22 4.273h18.01l-1.22-4.273a.083.083 0 00-.08-.06H4.295zM21.25 9.583h-5.167v.917a2.583 2.583 0 003.78 2.29.748.748 0 01.197-.115 2.587 2.587 0 001.19-2.175v-.917zm-.167 4.208A4.082 4.082 0 0022.75 10.5V8.833c0-.07-.01-.139-.029-.206l-1.494-5.229a1.584 1.584 0 00-1.522-1.148H4.295a1.583 1.583 0 00-1.522 1.148l-1.494 5.23a.75.75 0 00-.029.205V10.5a4.083 4.083 0 001.667 3.291V20.5A1.583 1.583 0 004.5 22.083h15a1.583 1.583 0 001.583-1.583v-6.709zm-1.5.688a4.077 4.077 0 01-3.804-1.092 4.09 4.09 0 01-.446-.529 4.082 4.082 0 01-6.666 0 4.084 4.084 0 01-4.25 1.621V20.5a.083.083 0 00.083.083h15a.083.083 0 00.083-.083v-6.02zM4.137 12.79a2.583 2.583 0 003.78-2.289v-.917H2.75v.917a2.583 2.583 0 001.189 2.175.747.747 0 01.198.115zm5.28-3.206v.917a2.584 2.584 0 005.166 0v-.917H9.417z" />
</svg>
