<svg xmlns="http://www.w3.org/2000/svg" width="24" height="24" viewBox="0 0 24 24">
  <path fill-rule="evenodd" d="M17.517 3a.74.74 0 0 0-.034 0H6.44a.75.75 0 0 0-.567.26l-.001-.001-5.19 6a.75.75 0 0 0 .02 1.003L11.44 21.749a.737.737 0 0 0 .288.2.747.747 0 0 0 .832-.2l10.738-11.487a.75.75 0 0 0 .028-.992l-5-6A.75.75 0 0 0 17.75 3h-.233Zm-3.813 15.33 7.32-7.83h-4.86l-2.46 7.83ZM15.064 9H8.936L7.522 4.5h8.956L15.064 9Zm1.572 0 1.236-3.932L21.148 9h-4.512Zm-2.044 1.5L12 18.749 9.408 10.5h5.184ZM2.89 9l3.282-3.793L7.364 9H2.89Zm.088 1.5h4.857l2.461 7.83-7.318-7.83Z" clip-rule="evenodd"/>
</svg>
