<svg width="24" height="24" viewBox="0 0 24 24" fill="none" xmlns="http://www.w3.org/2000/svg">
  <path d="M8.996 6H6.99V4.475c0-1.051.31-1.887.931-2.508C8.541 1.322 9.354 1 10.357 1h3.312c1.003 0 1.803.322 2.4.967.62.621.931 1.457.931 2.508V6h2.175c.549 0 .99.167 1.325.501.334.335.502.777.502 1.326v11.346c0 .55-.168.991-.502 1.326-.334.334-.776.501-1.325.501H17V6h-1.97v15H8.996V6zm6.034-1.561c0-.526-.131-.932-.394-1.218-.263-.31-.633-.466-1.11-.466H10.5c-.478 0-.848.155-1.11.466-.263.286-.394.692-.394 1.218V6h6.034V4.439zM4.79 21c-.55 0-.99-.167-1.325-.502-.31-.334-.466-.776-.466-1.325V7.827c0-.55.155-.991.466-1.326C3.8 6.167 4.242 6 4.79 6h2.2v15h-2.2z" />
  <path d="M6.99 21h2.006V10H6.99v11zm8.04 0H17V10h-1.97v11zM8.996 6H6.99v1.96h2.006V6zM17 6h-1.97v1.96H17V6z" />
</svg>
