<svg width="24" height="24" viewBox="0 0 24 24" fill="none" xmlns="http://www.w3.org/2000/svg">
<path d="M16.0708 7.79633C18.8012 7.79633 21.1995 9.73018 21.7739 12.3959C21.8635 12.8116 21.7624 13.2405 21.4966 13.5698C21.2345 13.8943 20.8441 14.0805 20.4272 14.0805H11.7144C11.2975 14.0805 10.9071 13.8943 10.645 13.5698C10.3792 13.2405 10.2781 12.8116 10.3677 12.3959C10.9427 9.73031 13.3405 7.79648 16.0708 7.79633ZM16.0708 8.69574C13.7618 8.6959 11.7327 10.3323 11.2466 12.5854C11.2143 12.7352 11.2503 12.8874 11.3442 13.0043C11.4349 13.1167 11.5693 13.181 11.7144 13.1811H20.4272C20.5724 13.1811 20.7067 13.1168 20.7974 13.0043C20.8914 12.8878 20.9284 12.7357 20.896 12.5854C20.4099 10.3321 18.3797 8.69574 16.0708 8.69574Z" fill="#1A1A1A" stroke="#1A1A1A" stroke-width="0.366667"/>
<path d="M21.6704 14.5937C21.891 14.5938 22.0698 14.7725 22.0698 14.9931C22.0696 15.2134 21.8911 15.3915 21.6704 15.3915C21.61 15.3916 21.5767 15.4026 21.5483 15.4179C21.5311 15.4272 21.5141 15.4388 21.4937 15.455L21.4175 15.5195C21.2727 15.647 21.0479 15.8456 20.6382 15.8456C20.3306 15.8456 20.1274 15.7337 19.9839 15.624L19.8579 15.5195C19.796 15.4648 19.7624 15.4354 19.728 15.4169C19.6998 15.4018 19.6661 15.3915 19.606 15.3915C19.5459 15.3916 19.5123 15.4026 19.4839 15.4179C19.4495 15.4365 19.4157 15.4651 19.354 15.5195C19.209 15.6469 18.984 15.8456 18.5737 15.8456C18.2657 15.8456 18.0621 15.7338 17.9185 15.624L17.7935 15.5195C17.7314 15.4648 17.6971 15.4364 17.6626 15.4179C17.6342 15.4027 17.6009 15.3915 17.5405 15.3915C17.4803 15.3916 17.4469 15.4026 17.4185 15.4179C17.4012 15.4272 17.3842 15.4388 17.3638 15.455L17.2876 15.5195C17.1428 15.647 16.9181 15.8455 16.5083 15.8456C16.098 15.8456 15.873 15.6469 15.728 15.5195C15.666 15.4649 15.6317 15.4364 15.5972 15.4179C15.5687 15.4027 15.5355 15.3915 15.4751 15.3915C15.4148 15.3915 15.3814 15.4027 15.353 15.4179C15.3186 15.4365 15.285 15.465 15.2231 15.5195C15.0782 15.6469 14.853 15.8455 14.4429 15.8456C14.0327 15.8456 13.8075 15.6469 13.6626 15.5195C13.6005 15.4648 13.5663 15.4364 13.5317 15.4179C13.5033 15.4027 13.47 15.3915 13.4097 15.3915C13.3495 15.3916 13.3161 15.4026 13.2876 15.4179C13.2704 15.4272 13.2533 15.4388 13.2329 15.455L13.1567 15.5195C13.0117 15.6469 12.7866 15.8456 12.3765 15.8456C11.9661 15.8455 11.7416 15.6468 11.5962 15.5195C11.5341 15.4648 11.4998 15.4365 11.4653 15.4179C11.4369 15.4027 11.4033 15.3916 11.3423 15.3915C11.2815 15.3915 11.2478 15.4026 11.2192 15.4179C11.2018 15.4272 11.1842 15.4386 11.1636 15.455L11.0884 15.5195C10.9432 15.6474 10.7182 15.8455 10.3081 15.8456C10.0875 15.8456 9.90885 15.6677 9.90869 15.4472C9.90869 15.2265 10.0874 15.0478 10.3081 15.0478C10.3683 15.0477 10.4018 15.0375 10.4302 15.0224C10.4648 15.0038 10.4989 14.9744 10.561 14.9199C10.7063 14.7919 10.9319 14.5937 11.3423 14.5937C11.7524 14.5938 11.9772 14.792 12.1226 14.9199C12.1846 14.9745 12.2188 15.0039 12.2534 15.0224C12.2819 15.0376 12.3157 15.0478 12.3765 15.0478C12.4371 15.0478 12.4711 15.0377 12.4995 15.0224C12.5341 15.0038 12.5673 14.9744 12.6294 14.9199C12.7745 14.792 12.9994 14.5937 13.4097 14.5937C13.82 14.5937 14.0448 14.7925 14.1899 14.9199L14.2651 14.9843C14.2857 15.0007 14.3025 15.0131 14.3198 15.0224C14.3481 15.0376 14.3818 15.0478 14.4419 15.0478C14.5024 15.0478 14.5365 15.0377 14.5649 15.0224C14.5995 15.0038 14.6327 14.9744 14.6948 14.9199C14.8396 14.7923 15.0651 14.5937 15.4751 14.5937C15.8849 14.5938 16.1095 14.7925 16.2544 14.9199H16.2554C16.3174 14.9744 16.3507 15.0039 16.3853 15.0224C16.4136 15.0376 16.4471 15.0478 16.5073 15.0478C16.5673 15.0478 16.601 15.0375 16.6294 15.0224C16.664 15.0038 16.6981 14.9744 16.7603 14.9199C16.9051 14.7923 17.1303 14.5937 17.5405 14.5937C17.9509 14.5937 18.1758 14.7924 18.3208 14.9199C18.3828 14.9744 18.4162 15.0039 18.4507 15.0224C18.4791 15.0377 18.5133 15.0478 18.5737 15.0478C18.6338 15.0477 18.6674 15.0377 18.6958 15.0224C18.7304 15.0038 18.7637 14.9743 18.8257 14.9199C18.9705 14.7923 19.1958 14.5937 19.606 14.5937C20.0158 14.5937 20.2402 14.7926 20.3853 14.9199H20.3862C20.4482 14.9745 20.4817 15.0039 20.5161 15.0224C20.5443 15.0375 20.5774 15.0477 20.6372 15.0478C20.6971 15.0478 20.7309 15.0376 20.7593 15.0224C20.7938 15.0038 20.8281 14.9744 20.8901 14.9199C21.0352 14.7924 21.2603 14.5937 21.6704 14.5937Z" fill="#1A1A1A" stroke="#1A1A1A" stroke-width="0.266128"/>
<path d="M7.13477 0.792908C7.55588 0.792908 7.89839 1.13548 7.89844 1.55658V2.79388C7.89844 3.1197 7.69245 3.39364 7.40625 3.50287V3.64056C7.40627 3.87276 7.42667 3.946 7.44922 3.98236C7.47153 4.01824 7.50905 4.04476 7.66797 4.1308C7.83579 4.22173 8.07817 4.35242 8.35254 4.59564C9.12156 5.27892 9.5625 6.25977 9.5625 7.28705V19.6786C9.5625 19.7272 9.55831 19.7747 9.55176 19.8212H11.2676C10.843 19.4384 10.5325 18.896 10.3682 18.1337C10.2786 17.7182 10.3788 17.2892 10.6445 16.9599C10.9067 16.6352 11.2978 16.4492 11.7148 16.4492H20.4277C20.8447 16.4492 21.235 16.6353 21.4971 16.9599C21.7629 17.2892 21.864 17.7181 21.7744 18.1337C21.6113 18.8894 21.2977 19.4338 20.8711 19.8212H22.7334C22.9818 19.8212 23.1836 20.0221 23.1836 20.2704V22.1933C23.1836 22.4417 22.9818 22.6435 22.7334 22.6435H1.2666C1.01818 22.6435 0.816406 22.4417 0.816406 22.1933V20.2704C0.816442 20.0221 1.0182 19.8212 1.2666 19.8212H2.37012C2.36356 19.7746 2.3584 19.7272 2.3584 19.6786V7.28705C2.3584 6.28984 2.77854 5.32827 3.51074 4.64935C3.796 4.38498 4.04964 4.25661 4.22461 4.16791C4.37615 4.09117 4.40197 4.07194 4.41699 4.04779C4.4333 4.02145 4.45115 3.96132 4.45117 3.74408V3.47455C4.19965 3.35087 4.02344 3.09517 4.02344 2.79388V1.55658C4.02348 1.13548 4.366 0.792908 4.78711 0.792908H7.13477ZM1.71582 21.7441H22.2842V20.7197H1.71582V21.7441ZM3.25781 19.6786C3.25782 19.757 3.32201 19.8212 3.40039 19.8212H8.52148C8.59967 19.821 8.66296 19.757 8.66309 19.6796V12.8622H3.25781V19.6786ZM11.7148 17.3476C11.5698 17.3476 11.4354 17.4121 11.3447 17.5244C11.2507 17.6408 11.2139 17.7931 11.2461 17.9433C11.349 18.4206 11.5209 18.7661 11.7451 19.0195C11.969 19.2724 12.2552 19.4449 12.6045 19.5624C13.3157 19.8017 14.2563 19.8047 15.3994 19.8056C15.6201 19.8059 15.8458 19.8064 16.0752 19.8085H16.0762L16.5293 19.8134L17.3008 19.8212H17.4316L18.1133 19.8066C18.7618 19.7769 19.3086 19.6947 19.7471 19.498C20.3123 19.2442 20.7127 18.7912 20.8955 17.9433C20.9277 17.7935 20.8919 17.6412 20.7979 17.5244C20.7072 17.412 20.5727 17.3477 20.4277 17.3476H11.7148ZM3.25781 11.9628H8.66309V7.91888H3.25781V11.9628ZM5.35059 3.74408C5.35054 4.11184 5.28608 4.37262 5.14844 4.57025C5.0123 4.76565 4.82034 4.87405 4.63184 4.96967C4.47546 5.04916 4.31379 5.13204 4.12207 5.30951C3.63083 5.76511 3.33959 6.36404 3.27637 7.01947H8.64355C8.57659 6.34803 8.26432 5.72082 7.75488 5.26849C7.56025 5.09543 7.3964 5.00535 7.24023 4.92084C7.04092 4.81295 6.84506 4.69623 6.70801 4.4931C6.56948 4.28777 6.50688 4.01985 6.50684 3.64056V3.56146H5.35059V3.74408ZM4.92188 2.65814H6.99902V1.69135H4.92188V2.65814Z" fill="#1A1A1A" stroke="#1A1A1A" stroke-width="0.366667"/>
</svg>
