<svg xmlns="http://www.w3.org/2000/svg" width="24" height="24" viewBox="0 0 24 24">
  <path fill-rule="evenodd" d="M2 3.75C2 2.784 2.784 2 3.75 2h5.5c.966 0 1.75.784 1.75 1.75v5.5A1.75 1.75 0 0 1 9.25 11h-5.5A1.75 1.75 0 0 1 2 9.25v-5.5Zm1.75-.25a.25.25 0 0 0-.25.25v5.5c0 .138.112.25.25.25h5.5a.25.25 0 0 0 .25-.25v-5.5a.25.25 0 0 0-.25-.25h-5.5ZM2 14.75c0-.966.784-1.75 1.75-1.75h5.5c.966 0 1.75.784 1.75 1.75v5.5A1.75 1.75 0 0 1 9.25 22h-5.5A1.75 1.75 0 0 1 2 20.25v-5.5Zm1.75-.25a.25.25 0 0 0-.25.25v5.5c0 .138.112.25.25.25h5.5a.25.25 0 0 0 .25-.25v-5.5a.25.25 0 0 0-.25-.25h-5.5Zm11-12.5A1.75 1.75 0 0 0 13 3.75v5.5c0 .966.784 1.75 1.75 1.75h5.5A1.75 1.75 0 0 0 22 9.25v-5.5A1.75 1.75 0 0 0 20.25 2h-5.5Zm-.25 1.75a.25.25 0 0 1 .25-.25h5.5a.25.25 0 0 1 .25.25v5.5a.25.25 0 0 1-.25.25h-5.5a.25.25 0 0 1-.25-.25v-5.5Zm-1.5 11c0-.966.784-1.75 1.75-1.75h5.5c.966 0 1.75.784 1.75 1.75v5.5A1.75 1.75 0 0 1 20.25 22h-5.5A1.75 1.75 0 0 1 13 20.25v-5.5Zm1.75-.25a.25.25 0 0 0-.25.25v5.5c0 .138.112.25.25.25h5.5a.25.25 0 0 0 .25-.25v-5.5a.25.25 0 0 0-.25-.25h-5.5Z" clip-rule="evenodd"/>
</svg>
