<svg xmlns="http://www.w3.org/2000/svg" width="24" height="24" viewBox="0 0 24 24">
  <path d="M1 12C1 5.925 5.925 1 12 1s11 4.925 11 11-4.925 11-11 11c-.252 0-.503-.009-.75-.025A7.222 7.222 0 0 0 13 18.25c0-.779-.123-1.53-.35-2.233 2.403.128 4.62.964 6.443 2.303A9.464 9.464 0 0 0 21.5 12a9.5 9.5 0 0 0-18.997-.234c-.534.268-1.03.6-1.478.985A11.164 11.164 0 0 1 1 12Z"/>
  <path d="M12 14a4.04 4.04 0 0 1-.39-.019 7.27 7.27 0 0 0-3.339-2.53A4 4 0 1 1 12 14Z"/>
  <path fill-rule="evenodd" d="M11.5 18.25a5.75 5.75 0 1 1-11.5 0 5.75 5.75 0 0 1 11.5 0Zm-4.643.795-1.635 1.594a.81.81 0 0 0-.231.549.815.815 0 0 0 .2.562.741.741 0 0 0 .518.25.725.725 0 0 0 .534-.207l3.02-2.961a.827.827 0 0 0 0-1.154l-3.02-2.96a.713.713 0 0 0-1.062.033.83.83 0 0 0-.132.87c.042.095.1.18.173.25l1.635 1.595h-4.11a.728.728 0 0 0-.528.23.813.813 0 0 0-.219.56c0 .209.079.41.219.557.14.149.33.232.528.232h4.11Z" clip-rule="evenodd"/>
</svg>
