<svg xmlns="http://www.w3.org/2000/svg" width="24" height="24" viewBox="0 0 24 24">
  <path fill-rule="evenodd" d="M13.75 5a.75.75 0 0 0 0 1.5h1.722l1.077 3H9.747l-.516-1h1.019a.75.75 0 0 0 0-1.5h-3.5a.75.75 0 0 0 0 1.5h.793l.797 1.545-1.455 1.639a4.5 4.5 0 1 0 2.052 4.566H12a.75.75 0 0 0 .666-1.094L10.521 11h6.567l.207.576a4.5 4.5 0 1 0 1.412-.507l-2.001-5.572A.75.75 0 0 0 16 5h-2.25Zm4.063 8.02.981 2.733a.75.75 0 0 0 1.412-.506l-.982-2.735a3 3 0 1 1-1.412.507Zm-8.875 1.73h1.83l-1.69-3.276-1.071 1.206c.472.587.8 1.295.93 2.07Zm-1.948-.924c.187.278.33.59.415.924H6.17l.82-.924Zm-1.122-.997L3.94 15.002a.75.75 0 0 0 .56 1.248h2.905A3.001 3.001 0 0 1 1.5 15.5a3 3 0 0 1 4.368-2.67Z" clip-rule="evenodd"/>
</svg>
