<svg width="24" height="24" viewBox="0 0 24 24" fill="none" xmlns="http://www.w3.org/2000/svg">
<path fill-rule="evenodd" clip-rule="evenodd" d="M20.6378 1.2088C21.2768 0.680512 22.2016 0.674722 22.7638 1.2674C23.3196 1.85357 23.3169 2.74858 22.7872 3.38459L22.674 3.50763L13.7472 12.4246L13.7247 12.4461C14.1565 13.3226 14.2864 14.3501 14.1154 15.3465L14.1144 15.3455C14.0231 15.9491 13.7825 16.5167 13.4894 17.0438L13.4874 17.0486L10.1759 22.6287L10.173 22.6326C9.99923 22.9095 9.72669 23.0751 9.44251 23.1697L9.42298 23.1756L9.40247 23.1776C9.10621 23.2069 8.82792 23.1323 8.60072 22.951L8.50599 22.866L1.13392 15.5027C0.891316 15.2604 0.788721 14.9449 0.822397 14.6063C0.857972 14.2525 1.07061 13.9754 1.339 13.8074L1.34388 13.8055L6.95912 10.4979L7.15443 10.3895C7.61821 10.1474 8.13973 9.97539 8.65736 9.87189L8.85462 9.83673C9.79432 9.69225 10.7261 9.85694 11.5636 10.2606L11.587 10.2381L20.5148 1.32111L20.6378 1.2088ZM2.59681 14.7479L3.82435 15.9735L5.71595 14.786L5.72279 14.782L5.83119 14.7332C6.09601 14.6447 6.42592 14.7296 6.57728 14.994C6.73354 15.2674 6.66797 15.6675 6.3722 15.8426L6.37318 15.8436L4.72181 16.9002L7.0724 19.2479L8.07533 17.5799L8.07923 17.5731L8.08314 17.5672C8.25463 17.3274 8.55346 17.2318 8.81751 17.3211L8.92787 17.3709L8.93665 17.3758L8.94349 17.3807C9.21798 17.5765 9.30489 17.9384 9.14076 18.2254L9.13685 18.2322L7.9474 20.119L9.11537 21.2625L11.5148 17.242L6.61927 12.3524L2.59681 14.7479ZM11.7599 12.2225C10.9949 11.4874 9.96054 11.1624 8.92787 11.3524L8.92884 11.3533C8.49522 11.4346 8.0995 11.5672 7.7599 11.7947L12.1876 16.2166C12.4182 15.8486 12.5507 15.4789 12.631 15.0516L12.6613 14.8582C12.783 13.8886 12.4745 12.9363 11.7599 12.2225ZM21.6642 2.04279C21.5935 2.05039 21.5155 2.07831 21.4454 2.12775L21.3781 2.18439L12.5734 10.9217C12.6562 10.991 12.7303 11.0631 12.797 11.1297C12.8677 11.2003 12.936 11.2811 12.9992 11.3582L21.7814 2.58673L21.8429 2.51642C21.8958 2.44551 21.9258 2.37183 21.9347 2.30744C21.943 2.24597 21.9325 2.19068 21.9035 2.14337L21.8673 2.09845C21.8292 2.06051 21.7598 2.03285 21.6642 2.04279ZM22.1193 2.23322C22.1216 2.26549 22.1208 2.29875 22.1163 2.33185C22.1254 2.26522 22.1211 2.19919 22.1017 2.13751L22.1193 2.23322ZM22.6173 1.38068C22.5888 1.35152 22.56 1.32345 22.5294 1.29767L22.5255 1.29474C22.557 1.32175 22.5877 1.35036 22.6173 1.38068Z" />
</svg>
