<svg xmlns="http://www.w3.org/2000/svg" width="24" height="24" viewBox="0 0 24 24">
  <path d="M3.24 15.228c1.134 0 2.011-.877 2.011-2.175V8H6.48v8.187H5.263v-.76c-.55.573-1.31.9-2.164.9C1.345 16.327 0 15.053 0 13.124V8h1.228v5.052c0 1.321.865 2.175 2.011 2.175M7.392 8h1.18v2.983a2.95 2.95 0 0 1 2.118-.89 3.11 3.11 0 0 1 3.134 3.123c0 1.72-1.38 3.111-3.134 3.111a2.976 2.976 0 0 1-2.13-.888v.748H7.39L7.392 8Zm3.216 7.287c1.123 0 2.047-.925 2.047-2.07 0-1.159-.924-2.07-2.047-2.07a2.057 2.057 0 0 0-2.058 2.07c0 1.146.912 2.07 2.058 2.07Zm6.748-5.182c1.72 0 2.983 1.322 2.983 3.1v.386h-4.853c.164.97.97 1.696 1.976 1.696.69 0 1.275-.281 1.719-.878l.854.632c-.597.795-1.486 1.275-2.573 1.275-1.79 0-3.17-1.334-3.17-3.111 0-1.684 1.322-3.1 3.065-3.1m-1.848 2.55h3.637c-.199-.912-.936-1.52-1.813-1.52-.877 0-1.614.608-1.824 1.52Zm7.999-1.38c-.772 0-1.333.596-1.333 1.52v3.392h-1.181v-5.965h1.17v.738c.292-.48.772-.784 1.427-.784H24v1.1l-.492-.001Z"/>
</svg>
