<svg xmlns="http://www.w3.org/2000/svg" width="24" height="24" viewBox="0 0 24 24">
  <path fill-rule="evenodd" d="M18.52 3.568a.623.623 0 0 0-.098.073 8.386 8.386 0 0 0-.429.413l-8.118 8.119a6.347 6.347 0 0 0-.12.122l-.024.026a.25.25 0 0 0-.026.047 6.028 6.028 0 0 0-.053.2l-.593 2.36 2.36-.593a5.928 5.928 0 0 0 .2-.053m0 0a.254.254 0 0 0 .047-.026l.026-.024c.027-.025.06-.058.122-.12l8.119-8.118c.206-.207.33-.33.413-.43a.622.622 0 0 0 .073-.097.249.249 0 0 0 0-.148.622.622 0 0 0-.073-.098 8.332 8.332 0 0 0-.413-.43l-.738-.737a8.386 8.386 0 0 0-.429-.413.623.623 0 0 0-.098-.073.25.25 0 0 0-.148 0m-.466-1.426a1.75 1.75 0 0 1 1.081 0c.246.08.439.217.602.355.151.129.319.296.5.478l.775.774c.182.182.35.35.477.5.139.164.276.357.355.603.115.351.115.73 0 1.081-.08.246-.216.44-.355.602a8.636 8.636 0 0 1-.477.5l-8.137 8.138a4.869 4.869 0 0 1-.023.022 2.466 2.466 0 0 1-.31.278 1.745 1.745 0 0 1-.328.186c-.133.057-.27.092-.398.124l-.031.007-3.576.897a.75.75 0 0 1-.91-.91l.897-3.575.008-.031a2.54 2.54 0 0 1 .124-.398c.05-.116.112-.226.186-.328.084-.117.184-.217.277-.31l.023-.023 8.137-8.137c.182-.182.35-.35.5-.478.164-.138.357-.275.603-.355Z" clip-rule="evenodd"/>
  <path fill-rule="evenodd" d="M1 4.75C1 3.783 1.784 3 2.75 3H11a.75.75 0 0 1 0 1.5H2.75a.25.25 0 0 0-.25.25v16.5c0 .138.112.25.25.25h16.5a.25.25 0 0 0 .25-.25V13a.75.75 0 0 1 1.5 0v8.25A1.75 1.75 0 0 1 19.25 23H2.75A1.75 1.75 0 0 1 1 21.25V4.75Z" clip-rule="evenodd"/>
</svg>
