<svg xmlns="http://www.w3.org/2000/svg" width="24" height="24" viewBox="0 0 24 24">
  <g id="ic-24-mailchimp-full__ic24__mailchimp_full">
    <g id="ic-24-mailchimp-full__g46">
      <g id="ic-24-mailchimp-full__g1340">
        <path id="ic-24-mailchimp-full__path1342" fill="#000" d="M15.822 11.491a1.38 1.38 0 0 1 .352 0c.063-.145.074-.394.017-.666-.084-.404-.199-.649-.435-.61-.236.037-.245.33-.16.734.048.228.132.422.226.542Z"/>
      </g>
      <g id="ic-24-mailchimp-full__g1346">
        <path id="ic-24-mailchimp-full__path1348" fill="#000" d="M13.795 11.811c.169.074.272.124.313.08.026-.026.018-.077-.022-.143a.996.996 0 0 0-.437-.352 1.19 1.19 0 0 0-1.158.14c-.113.082-.22.197-.205.267.005.022.022.04.062.045.092.01.418-.154.793-.177a1.39 1.39 0 0 1 .654.14Z"/>
      </g>
      <g id="ic-24-mailchimp-full__g1352">
        <path id="ic-24-mailchimp-full__path1354" fill="#000" d="M13.455 12.005a.796.796 0 0 0-.42.175c-.066.058-.107.123-.107.168l.017.04.036.014c.05 0 .161-.045.161-.045.307-.11.509-.096.709-.073.11.012.163.019.187-.02.007-.01.016-.033-.006-.07-.052-.083-.274-.224-.577-.188Z"/>
      </g>
      <g id="ic-24-mailchimp-full__g1378">
        <path id="ic-24-mailchimp-full__path1380" fill="#000" d="M15.137 12.717c.15.074.314.045.368-.064.053-.11-.024-.257-.174-.33-.15-.074-.313-.045-.367.064-.054.11.024.257.173.33Z"/>
      </g>
      <g id="ic-24-mailchimp-full__g1384">
        <path id="ic-24-mailchimp-full__path1386" fill="#000" d="M16.098 11.878c-.121-.002-.222.131-.225.298-.003.166.094.303.215.305.121.002.222-.131.225-.298.002-.166-.094-.303-.215-.305Z"/>
      </g>
      <g id="ic-24-mailchimp-full__g1390">
        <path id="ic-24-mailchimp-full__path1392" fill="#000" d="M7.945 14.88c-.03-.038-.08-.027-.128-.016a.428.428 0 0 1-.113.016.246.246 0 0 1-.207-.105c-.056-.085-.052-.211.008-.357l.029-.064c.097-.219.26-.584.077-.933a.826.826 0 0 0-.632-.46.812.812 0 0 0-.696.252c-.269.296-.31.699-.259.842.02.052.05.066.07.07.047.005.114-.028.156-.142l.012-.037c.02-.06.054-.172.112-.262a.488.488 0 0 1 .676-.141c.188.123.26.354.18.574-.041.113-.109.33-.094.51.03.361.253.506.452.522.195.007.33-.102.365-.182.02-.047.003-.076-.008-.088Z"/>
      </g>
      <g id="ic-24-mailchimp-full__g1396">
        <path id="ic-24-mailchimp-full__path1398" fill="#000" d="M19.161 14.218a13.326 13.326 0 0 0-.122-.415l-.135-.362c.266-.397.27-.753.235-.954a1.207 1.207 0 0 0-.35-.682c-.21-.22-.639-.446-1.24-.614l-.317-.088c-.001-.013-.016-.745-.03-1.059a3.625 3.625 0 0 0-.14-.93c-.13-.474-.359-.887-.644-1.152.787-.815 1.278-1.714 1.277-2.484-.003-1.482-1.823-1.93-4.066-1.002l-.475.202-.872-.854C9.724 1.593 1.728 10.48 4.285 12.639l.558.474a2.744 2.744 0 0 0-.155 1.268c.06.594.366 1.163.863 1.604.472.417 1.092.682 1.693.681.995 2.293 3.268 3.7 5.933 3.778 2.86.085 5.26-1.256 6.265-3.666.066-.17.345-.931.345-1.604 0-.676-.382-.957-.626-.957ZM7.464 16.022a1.38 1.38 0 0 1-.265.019c-.864-.023-1.796-.8-1.889-1.723-.102-1.018.418-1.803 1.34-1.989.11-.022.244-.035.387-.027.517.028 1.278.425 1.452 1.55.154.996-.09 2.011-1.025 2.17ZM6.5 11.72a2.199 2.199 0 0 0-1.39.886c-.184-.155-.529-.453-.59-.57-.493-.937.54-2.76 1.26-3.79 1.784-2.544 4.576-4.47 5.87-4.12.21.06.905.866.905.866s-1.292.717-2.49 1.717C8.45 7.952 7.23 9.759 6.5 11.719Zm9.064 3.921a.051.051 0 0 0 .029-.05.048.048 0 0 0-.052-.043s-1.353.2-2.63-.267c.138-.453.508-.29 1.068-.244a7.818 7.818 0 0 0 2.58-.28c.578-.165 1.338-.493 1.929-.958.199.437.27.918.27.918s.154-.027.282.052c.122.075.211.23.15.633-.124.752-.444 1.363-.98 1.924a4.035 4.035 0 0 1-1.18.881 4.983 4.983 0 0 1-.769.325c-2.025.662-4.1-.066-4.768-1.628a2.526 2.526 0 0 1-.134-.369c-.285-1.029-.043-2.264.713-3.041.047-.05.094-.108.094-.181a.32.32 0 0 0-.072-.172c-.265-.384-1.18-1.038-.997-2.303.132-.908.927-1.548 1.668-1.51l.188.01c.32.02.601.06.866.072.442.019.84-.045 1.31-.438.16-.132.287-.247.503-.284.023-.004.079-.024.191-.018a.633.633 0 0 1 .323.103c.378.251.432.86.451 1.305.011.255.042.87.053 1.046.024.404.13.46.344.531.121.04.233.07.398.116.5.14.797.283.984.466a.618.618 0 0 1 .18.352c.058.43-.335.961-1.375 1.444-1.137.528-2.516.661-3.47.555l-.333-.037c-.762-.103-1.197.882-.74 1.557.295.435 1.098.718 1.902.718 1.842 0 3.259-.786 3.785-1.466l.042-.06c.026-.039.005-.06-.027-.038-.43.294-2.342 1.464-4.387 1.112 0 0-.249-.041-.475-.13-.18-.07-.558-.243-.604-.63 1.65.51 2.69.028 2.69.028Zm-2.614-.309v.002-.002ZM9.793 8.236c.633-.733 1.414-1.37 2.113-1.727.024-.012.05.014.037.038a2.05 2.05 0 0 0-.197.478.028.028 0 0 0 .044.03c.435-.296 1.191-.614 1.855-.654.029-.002.042.034.02.052a1.558 1.558 0 0 0-.292.293.028.028 0 0 0 .022.045c.466.003 1.123.166 1.55.406.03.017.01.073-.023.065-.648-.148-1.708-.261-2.81.008-.983.24-1.733.61-2.28 1.008-.028.02-.062-.016-.04-.042Z"/>
      </g>
    </g>
  </g>
</svg>
