<svg width="24" height="24" viewBox="0 0 24 24" fill="none" xmlns="http://www.w3.org/2000/svg">
<path d="M18.5183 16.6372C17.9225 16.6372 17.4402 17.1195 17.4402 17.7153C17.4402 18.3111 17.9225 18.7934 18.5183 18.7934C19.1141 18.7934 19.5964 18.3111 19.5964 17.7153C19.5964 17.1195 19.1141 16.6372 18.5183 16.6372ZM18.5183 18.1054C18.302 18.1054 18.1282 17.9316 18.1282 17.7153C18.1282 17.4989 18.302 17.3252 18.5183 17.3252C18.7346 17.3252 18.9084 17.4989 18.9084 17.7153C18.9084 17.9281 18.7346 18.1054 18.5183 18.1054Z" />
<path d="M5.48167 16.6372C4.88587 16.6372 4.40356 17.1195 4.40356 17.7153C4.40356 18.3111 4.88587 18.7934 5.48167 18.7934C6.07746 18.7934 6.55977 18.3111 6.55977 17.7153C6.55977 17.1195 6.07746 16.6372 5.48167 16.6372ZM5.48167 18.1054C5.26534 18.1054 5.09156 17.9316 5.09156 17.7153C5.09156 17.4989 5.26534 17.3252 5.48167 17.3252C5.698 17.3252 5.87177 17.4989 5.87177 17.7153C5.87177 17.9281 5.698 18.1054 5.48167 18.1054Z" />
<path fill-rule="evenodd" clip-rule="evenodd" d="M18.9268 7.91211C19.1889 7.91234 19.4397 8.03665 19.5947 8.24609L21.4414 10.7139L21.5059 10.8125C21.6381 11.0516 21.6443 11.342 21.5205 11.5898C21.3785 11.8737 21.0902 12.0486 20.7744 12.0488H16.6426C16.1804 12.0488 15.8048 11.6743 15.8047 11.2148V8.74609C15.8049 8.28671 16.1804 7.91211 16.6426 7.91211H18.9268ZM16.7441 11.0859L20.5537 11.1094L18.8809 8.85645L16.7656 8.85059L16.7441 11.0859Z" />
<path d="M13.3721 3.2373C14.5102 3.2373 15.4346 4.16165 15.4346 5.2998V6.35449H19.4541C19.8704 6.35449 20.2677 6.55493 20.5166 6.88672L23.3291 10.6387C23.5008 10.8638 23.5947 11.1474 23.5947 11.4346V16.9814L23.5879 17.1172C23.5198 17.7871 22.9546 18.3096 22.2666 18.3096H21.2432C20.9769 19.4939 19.8818 20.3873 18.6582 20.5L18.3975 20.5117C18.2687 20.5117 18.0516 20.4714 17.8516 20.4219C17.6483 20.3715 17.4191 20.3007 17.2656 20.2227C16.9849 20.0799 16.8414 19.9686 16.6133 19.7559C16.2053 19.3753 15.9139 18.8749 15.791 18.3096H8.20898C7.93747 19.5662 6.81997 20.5117 5.48145 20.5117C4.14235 20.5115 3.02988 19.5653 2.75586 18.3096H2.46777C1.32962 18.3096 0.405273 17.3852 0.405273 16.2471V5.2998C0.405273 4.16165 1.32962 3.2373 2.46777 3.2373H13.3721ZM5.48145 16.1035C4.59471 16.1037 3.87305 16.8253 3.87305 17.7119L3.88184 17.876C3.96442 18.6858 4.6502 19.3201 5.48145 19.3203C6.36819 19.3203 7.08974 18.5987 7.08984 17.7119C7.08984 16.8251 6.36828 16.1035 5.48145 16.1035ZM18.5186 16.1035C17.6317 16.1035 16.9102 16.8251 16.9102 17.7119L16.9189 17.876C17.0015 18.686 17.6872 19.3203 18.5186 19.3203L18.6826 19.3115C19.4925 19.2289 20.1269 18.5432 20.127 17.7119C20.127 16.8806 19.4926 16.1949 18.6826 16.1123L18.5186 16.1035ZM1.59277 16.2471C1.59277 16.729 1.98484 17.122 2.46875 17.125H2.75391L2.75488 17.1211C2.76635 17.0678 2.77926 17.015 2.7959 16.9609C2.80167 16.9351 2.8106 16.8989 2.82324 16.8633C2.84021 16.8052 2.86861 16.7281 2.87207 16.7178L2.87988 16.6982C2.88283 16.6913 2.88509 16.6839 2.88965 16.6719C2.89387 16.6608 2.90063 16.6446 2.9082 16.627L2.90918 16.625C2.9781 16.4681 3.05912 16.3161 3.15723 16.1709C3.16838 16.1543 3.17896 16.1396 3.18555 16.1309C3.19322 16.1206 3.19663 16.1162 3.19922 16.1123L3.20703 16.1006L3.31055 15.9629L3.31836 15.9541L3.32617 15.9463C3.32854 15.9439 3.33207 15.9403 3.34277 15.9277C3.35148 15.9175 3.36782 15.8978 3.38672 15.8789C3.40854 15.8539 3.44711 15.8078 3.48242 15.7725C3.50369 15.7512 3.53276 15.7213 3.56641 15.6924C3.59338 15.6679 3.63594 15.6274 3.67676 15.5947C3.69021 15.5834 3.70383 15.5724 3.71484 15.5635C3.72846 15.5524 3.73887 15.544 3.74805 15.5361L3.75488 15.5303L3.87695 15.4395L3.97266 15.376C4.00894 15.3529 4.05529 15.3227 4.10254 15.2969C4.12689 15.2817 4.1611 15.2614 4.2002 15.2432L4.32422 15.1826L4.42578 15.1357L4.43164 15.1338C4.47842 15.1143 4.53062 15.0936 4.58008 15.0771C4.59538 15.072 4.61091 15.067 4.62695 15.0615C4.6428 15.0562 4.65923 15.0504 4.67578 15.0449L4.68164 15.043C4.73849 15.0255 4.80108 15.0128 4.83984 15.0039C4.87066 14.9963 4.90428 14.9882 4.93457 14.9814L4.94043 14.9805C5.00362 14.9679 5.07173 14.9594 5.11914 14.9531H5.12109C5.13359 14.9516 5.14579 14.9501 5.15918 14.9482C5.17188 14.9465 5.18597 14.9443 5.20117 14.9424L5.3418 14.9297C5.3885 14.927 5.43497 14.9258 5.48145 14.9258L5.75195 14.9414L5.76172 14.9424C5.77729 14.9443 5.79172 14.9465 5.80469 14.9482C5.81806 14.9501 5.83028 14.9516 5.84277 14.9531H5.84473L6.01953 14.9805L6.02539 14.9814L6.12207 15.0029C6.1717 15.0136 6.2256 15.0256 6.28223 15.043L6.28809 15.0449C6.30464 15.0504 6.32107 15.0562 6.33691 15.0615C6.35092 15.0663 6.36454 15.0707 6.37793 15.0752L6.53125 15.1299L6.53711 15.1318L6.58594 15.1543L6.63281 15.1748L6.63477 15.1758C6.66169 15.188 6.72286 15.2132 6.77246 15.2402C6.80609 15.2562 6.83637 15.2737 6.86328 15.29C6.90779 15.3143 6.94788 15.3389 6.98926 15.3652C7.0116 15.3792 7.04932 15.4019 7.08594 15.4287C7.12113 15.4533 7.15929 15.4809 7.19824 15.5117C7.21989 15.528 7.25493 15.554 7.28613 15.5801C7.32818 15.6137 7.36825 15.6485 7.40723 15.6875L7.43652 15.7158C7.44839 15.7268 7.46497 15.7413 7.48145 15.7578L7.57324 15.8613L7.65039 15.9453L7.6543 15.9502C7.68228 15.9844 7.71313 16.025 7.74414 16.0693L7.81055 16.1582L7.8125 16.1611C7.85363 16.2247 7.89584 16.2936 7.93457 16.3633L7.96582 16.4199V16.4277L8.05371 16.6094L8.05566 16.6133C8.06437 16.6336 8.07116 16.6538 8.0752 16.665C8.07986 16.6781 8.08219 16.6833 8.08398 16.6875L8.08691 16.6943L8.08984 16.7021C8.09897 16.7277 8.10848 16.7535 8.11719 16.7783L8.14258 16.8516L8.14648 16.8633L8.14941 16.875C8.1513 16.8825 8.15367 16.8906 8.15918 16.9092L8.17676 16.9727V16.9746C8.18081 16.9935 8.18633 17.013 8.19238 17.0361C8.19801 17.0577 8.20463 17.085 8.21094 17.1123L8.21289 17.1182H14.25V14.8516H1.59277V16.2471ZM15.4385 17.1211H15.7871L15.7881 17.1182C15.7987 17.0686 15.8109 17.0142 15.8281 16.958C15.8357 16.926 15.8439 16.8941 15.8555 16.8594C15.8727 16.8024 15.8998 16.7349 15.9102 16.7061L15.9131 16.6982L15.916 16.6914C15.9174 16.688 15.9191 16.6833 15.9238 16.6699C15.9278 16.6586 15.9352 16.6376 15.9443 16.6162L15.9463 16.6123C15.9731 16.5527 16.008 16.4755 16.0488 16.4014C16.0517 16.3945 16.0537 16.3887 16.0557 16.3848C16.0581 16.3797 16.0626 16.3746 16.0664 16.3682L16.0654 16.3672C16.1037 16.2982 16.1456 16.2288 16.1875 16.1641L16.1934 16.1543C16.2062 16.1364 16.2295 16.1027 16.2549 16.0723C16.2658 16.0588 16.277 16.0437 16.292 16.0234C16.3064 16.004 16.3253 15.979 16.3457 15.9541L16.3496 15.9492C16.3639 15.9326 16.3775 15.9172 16.3877 15.9062C16.399 15.8941 16.4072 15.8859 16.4141 15.8779C16.4466 15.8378 16.4823 15.7979 16.5186 15.7617C16.5341 15.7462 16.5496 15.732 16.5615 15.7207C16.5742 15.7088 16.5835 15.6997 16.5928 15.6904L16.5977 15.6855L16.6035 15.6807C16.6249 15.6617 16.6711 15.6174 16.7129 15.584L16.7188 15.5791C16.729 15.5714 16.74 15.5639 16.7539 15.5527C16.7668 15.5424 16.7827 15.5282 16.8008 15.5146L16.8076 15.5098C16.8213 15.5002 16.8361 15.4894 16.8545 15.4756C16.8716 15.4627 16.8925 15.4467 16.9141 15.4316L16.9248 15.4248L16.959 15.4023C16.9723 15.3932 16.9905 15.3802 17.0098 15.3682L17.0137 15.3652C17.0405 15.3491 17.091 15.3174 17.1357 15.293C17.1529 15.2834 17.1692 15.2753 17.1836 15.2676C17.1988 15.2594 17.2126 15.2519 17.2266 15.2441L17.2354 15.2393L17.2441 15.2354C17.2571 15.2294 17.3249 15.1958 17.3672 15.1777C17.3841 15.1702 17.4012 15.1632 17.417 15.1562C17.433 15.1493 17.448 15.1424 17.4629 15.1357L17.4736 15.1309L17.4854 15.127C17.5032 15.121 17.5225 15.1145 17.5449 15.1064C17.5665 15.0987 17.5918 15.0892 17.6162 15.0811L17.6631 15.0654C17.6789 15.0601 17.6954 15.0543 17.7119 15.0488L17.7178 15.0469C17.7749 15.0293 17.8395 15.0164 17.877 15.0078L17.8789 15.0068L17.9746 14.9854L17.9805 14.9844C18.0415 14.9722 18.1008 14.9633 18.1553 14.9561H18.1572C18.1701 14.9544 18.1827 14.953 18.1963 14.9512C18.2092 14.9494 18.2233 14.9472 18.2383 14.9453L18.3818 14.9326C18.4291 14.9302 18.4751 14.9297 18.5186 14.9297L18.7881 14.9443L18.7979 14.9453C18.8134 14.9473 18.8279 14.9494 18.8408 14.9512C18.8542 14.953 18.8664 14.9545 18.8789 14.9561H18.8809L19.0566 14.9844L19.0625 14.9854L19.1582 15.0068C19.208 15.0175 19.2617 15.0295 19.3184 15.0469L19.3242 15.0488C19.3408 15.0543 19.3572 15.0601 19.373 15.0654C19.387 15.0702 19.4007 15.0746 19.4141 15.0791L19.5684 15.1338L19.5742 15.1357L19.6201 15.1562L19.6699 15.1777L19.6719 15.1787C19.6979 15.1906 19.7446 15.2115 19.7891 15.2344C19.7915 15.2354 19.7945 15.2372 19.7969 15.2383C19.8004 15.2401 19.8042 15.2413 19.8076 15.2432C19.8409 15.2588 19.872 15.2758 19.9004 15.293C19.9448 15.3172 19.985 15.3419 20.0264 15.3682C20.0519 15.3841 20.0867 15.4056 20.1221 15.4316C20.1551 15.4548 20.1951 15.4828 20.2354 15.5146C20.2642 15.5363 20.2949 15.56 20.3232 15.584L20.4434 15.6904L20.4746 15.7207C20.4866 15.732 20.5021 15.7463 20.5176 15.7617L20.6104 15.8643L20.6865 15.9492L20.6904 15.9541C20.7149 15.984 20.7485 16.026 20.7812 16.0723L20.8467 16.1611L20.8486 16.1641L20.9717 16.3672L21.002 16.4219V16.4297L21.0898 16.6123L21.0918 16.6162C21.101 16.6376 21.1083 16.6586 21.1123 16.6699C21.117 16.6833 21.1187 16.688 21.1201 16.6914L21.123 16.6982L21.126 16.7061C21.1345 16.7298 21.1433 16.7536 21.1523 16.7783L21.1797 16.8545L21.1836 16.8662L21.1865 16.8779L21.2129 16.9766V16.9785C21.2169 16.9974 21.2225 17.0168 21.2285 17.04C21.2341 17.0616 21.2408 17.089 21.2471 17.1162L21.248 17.1211H22.2666C22.3256 17.1211 22.3754 17.0863 22.3965 17.0361L22.4072 16.9814V11.4346C22.4072 11.3985 22.3964 11.3724 22.3848 11.3574L22.3818 11.3545L19.5664 7.59863C19.5391 7.56221 19.4994 7.54199 19.4541 7.54199H15.4385V17.1211ZM2.46777 4.4248C1.98523 4.4248 1.59277 4.81726 1.59277 5.2998V13.6631H14.25V5.2998C14.25 4.81698 13.8582 4.4248 13.376 4.4248H2.46777Z" />
<path fill-rule="evenodd" clip-rule="evenodd" d="M4.9502 6C4.6377 6.00002 4.38399 6.25397 4.38379 6.56641V6.84375C4.38379 7.00386 4.51283 7.13264 4.67285 7.13281H4.73535L5.19238 8.36816H4.14844C3.79068 8.36818 3.49921 8.65826 3.5 9.0166V9.375C3.5 9.53361 3.62912 9.66504 3.79004 9.66504H3.92969L4.6123 11.5127C4.72467 11.8174 5.00818 12.0155 5.33301 12.0156H9.99707C10.3219 12.0155 10.6054 11.8174 10.7178 11.5127L11.4004 9.66504H11.54C11.7002 9.66504 11.8301 9.53519 11.8301 9.375V9.0166C11.83 8.65852 11.5387 8.36816 11.1807 8.36816H10.1357L10.5928 7.13281H10.6553C10.8154 7.1328 10.9443 7.00393 10.9443 6.84375V6.56641C10.9441 6.25396 10.6904 6 10.3779 6H4.9502ZM10.1748 11.3096L10.1436 11.3662C10.1092 11.4103 10.0579 11.4355 9.99609 11.4355H5.33301L5.27441 11.4268C5.21965 11.4103 5.17709 11.3703 5.15527 11.3115L4.54688 9.66504H6.54395L6.66406 9.88184C6.74031 10.0202 6.89132 10.0889 7.03906 10.0889H8.29297C8.44016 10.0888 8.59089 10.02 8.66699 9.88184L8.78711 9.66504H10.7832L10.1748 11.3096ZM11.1807 8.94629C11.2183 8.94629 11.2499 8.97795 11.25 9.01562V9.08496H4.07812V9.01855L4.08398 8.98926L4.10938 8.95898L4.14746 8.94629H11.1807ZM9.53906 8.31543C9.52669 8.34896 9.49968 8.36801 9.46484 8.36816H5.86523L5.83984 8.36426C5.81673 8.3572 5.7992 8.34026 5.79004 8.31543L5.35254 7.13281H6.7373L6.81934 7.32812L6.82031 7.33105L6.82129 7.33008C6.88318 7.47406 7.0254 7.56348 7.18066 7.56348H8.14844C8.30311 7.56348 8.44779 7.47564 8.50977 7.3291L8.5918 7.13281H9.97656L9.53906 8.31543Z" />
</svg>
