<svg xmlns="http://www.w3.org/2000/svg" width="24" height="24" viewBox="0 0 24 24">
  <path d="M4.5 4.75a.25.25 0 0 1 .25-.25h3.5a.75.75 0 0 0 0-1.5h-3.5A1.75 1.75 0 0 0 3 4.75v3.5a.75.75 0 0 0 1.5 0v-3.5Zm0 14.5c0 .138.112.25.25.25h3.5a.75.75 0 0 1 0 1.5h-3.5A1.75 1.75 0 0 1 3 19.25v-3.5a.75.75 0 0 1 1.5 0v3.5ZM19.25 4.5a.25.25 0 0 1 .25.25v3.5a.75.75 0 0 0 1.5 0v-3.5A1.75 1.75 0 0 0 19.25 3h-3.5a.75.75 0 0 0 0 1.5h3.5Zm.25 14.75a.25.25 0 0 1-.25.25h-3.5a.75.75 0 0 0 0 1.5h3.5A1.75 1.75 0 0 0 21 19.25v-3.5a.75.75 0 0 0-1.5 0v3.5Z"/>
</svg>
