<svg fill="none" height="24" width="24" xmlns="http://www.w3.org/2000/svg"><path clip-rule="evenodd" d="m12.876.64a1.75 1.75 0 0 0 -1.75 0l-8.25 4.762a1.75 1.75 0 0 0 -.875 1.515v9.525c0 .625.334 1.203.875 1.515l8.25 4.763a1.75 1.75 0 0 0 1.75 0l8.25-4.762a1.75 1.75 0 0 0 .875-1.516v-9.525a1.75 1.75 0 0 0 -.875-1.515l-8.25-4.763zm-1 1.298a.25.25 0 0 1 .25 0l7.625 4.402-7.75 4.474-7.75-4.474zm-8.375 5.702v8.803c0 .09.048.172.125.216l7.625 4.402v-8.947zm9.25 13.421 7.625-4.402a.25.25 0 0 0 .125-.216v-8.804l-7.75 4.474v8.947z" fill-rule="evenodd"/></svg>