<svg xmlns="http://www.w3.org/2000/svg" width="24" height="24" viewBox="0 0 24 24">
  <path fill-rule="evenodd" d="M14.75 3a.75.75 0 0 0 0 1.5h1.945a.25.25 0 0 1 .244.197l1.127 5.168-4.162 6.766a.25.25 0 0 1-.213.119H6.92A3.501 3.501 0 0 0 0 17.5a3.5 3.5 0 0 0 6.92.75h6.771a1.75 1.75 0 0 0 1.49-.833l3.347-5.44.51 2.342A3.5 3.5 0 1 0 20.504 14l-2.1-9.623A1.75 1.75 0 0 0 16.694 3H14.75Zm4.622 12.848.395 1.812a.75.75 0 0 0 1.466-.32l-.396-1.812a2 2 0 1 1-1.465.32Zm-14.017.902H3.5a.75.75 0 0 0 0 1.5h1.855a2 2 0 1 1 0-1.5Z" clip-rule="evenodd"/>
</svg>
