<svg xmlns="http://www.w3.org/2000/svg" width="24" height="24" viewBox="0 0 24 24">
  <path fill-rule="evenodd" d="M12 1a.75.75 0 0 1 .75.75v2.285a8.002 8.002 0 0 1 7.215 7.215h2.285a.75.75 0 0 1 0 1.5h-2.285a8.002 8.002 0 0 1-7.215 7.215v2.285a.75.75 0 0 1-1.5 0v-2.285a8.002 8.002 0 0 1-7.215-7.215H1.75a.75.75 0 0 1 0-1.5h2.285a8.002 8.002 0 0 1 7.215-7.215V1.75A.75.75 0 0 1 12 1Zm-.75 4.543a6.503 6.503 0 0 0-5.707 5.707H8.25a.75.75 0 0 1 0 1.5H5.543a6.503 6.503 0 0 0 5.707 5.707V15.75a.75.75 0 0 1 1.5 0v2.707a6.503 6.503 0 0 0 5.707-5.707H15.75a.75.75 0 0 1 0-1.5h2.707a6.503 6.503 0 0 0-5.707-5.707V8.25a.75.75 0 0 1-1.5 0V5.543Z" clip-rule="evenodd"/>
</svg>
