<svg xmlns="http://www.w3.org/2000/svg" width="24" height="24" viewBox="0 0 24 24">
  <g clip-path="url(#ic-24-person-check__a)">
    <path d="M23.795 3.265a.75.75 0 0 0-1.09-1.03L18.46 6.2l-2.206-2.005a.75.75 0 1 0-1.009 1.11l2.75 2.5a.75.75 0 0 0 1.05-.04l4.75-4.5Z"/>
    <path fill-rule="evenodd" d="M9 6.5a3.5 3.5 0 1 0 0 7 3.5 3.5 0 0 0 0-7ZM4 10a5 5 0 1 1 7.916 4.062 7.973 7.973 0 0 1 5.018 7.166.751.751 0 0 1-1.438.334.749.749 0 0 1-.061-.29 6.469 6.469 0 0 0-12.932 0 .75.75 0 0 1-1.499-.044 7.973 7.973 0 0 1 5.059-7.181A4.993 4.993 0 0 1 4 10Z" clip-rule="evenodd"/>
  </g>
  <defs>
    <clipPath id="ic-24-person-check__a">
      <path d="M0 0h24v24H0z"/>
    </clipPath>
  </defs>
</svg>
