<svg width="24" height="24" viewBox="0 0 24 24" fill="none" xmlns="http://www.w3.org/2000/svg">
  <path fill-rule="evenodd" clip-rule="evenodd" d="M5.5 8V2.5h13V8h-13zM4 8V1.75A.75.75 0 014.75 1h14.5a.75.75 0 01.75.75V8h1.25c.966 0 1.75.784 1.75 1.75v7.5A1.75 1.75 0 0121.25 19H19v3.25a.75.75 0 01-.75.75H5.75a.75.75 0 01-.75-.75V19H2.75A1.75 1.75 0 011 17.25v-7.5C1 8.784 1.784 8 2.75 8H4zm17.25 9.5H19v-3.75a.75.75 0 00-.75-.75H5.75a.75.75 0 00-.75.75v3.75H2.75a.25.25 0 01-.25-.25v-7.5a.25.25 0 01.25-.25h18.5a.25.25 0 01.25.25v7.5a.25.25 0 01-.25.25zm-14.75-3h11v7h-11v-7z" />
</svg>
