<svg fill="none" height="24" width="24" xmlns="http://www.w3.org/2000/svg"><g clip-rule="evenodd" fill-rule="evenodd"><path d="m3.75 2a1.75 1.75 0 0 0 -1.75 1.75v16.5c0 .966.784 1.75 1.75 1.75h16.5a1.75 1.75 0 0 0 1.75-1.75v-16.5a1.75 1.75 0 0 0 -1.75-1.75zm-.25 1.75a.25.25 0 0 1 .25-.25h16.5a.25.25 0 0 1 .25.25v16.5a.25.25 0 0 1 -.25.25h-16.5a.25.25 0 0 1 -.25-.25z"/><path d="m3.75 3.5a.25.25 0 0 0 -.25.25v16.5c0 .138.112.25.25.25h16.5a.25.25 0 0 0 .25-.25v-16.5a.25.25 0 0 0 -.25-.25zm13.53 5.78a.75.75 0 0 0 -1.06-1.06l-5.97 5.97-2.47-2.47a.75.75 0 0 0 -1.06 1.06l3 3a.75.75 0 0 0 1.06 0z"/></g></svg>