<svg width="24" height="24" viewBox="0 0 24 24" fill="none" xmlns="http://www.w3.org/2000/svg">
  <path fill-rule="evenodd" clip-rule="evenodd" d="M21.905 2.095a.75.75 0 01.153.84l-8.37 18.5c-.442.977-1.87.84-2.12-.204l-1.69-7.108-7.109-1.692c-1.043-.248-1.18-1.677-.203-2.12l18.5-8.37a.75.75 0 01.84.154zm-17.721 9.13l6.49 1.545a.75.75 0 01.556.556l1.544 6.49 7.098-15.688-15.688 7.098z" />
  <path d="M10.674 12.77l-6.49-1.544 15.688-7.098-7.098 15.688-1.544-6.49a.75.75 0 00-.556-.556z" />
</svg>
