<svg width="24" height="24" viewBox="0 0 24 24" fill="none" xmlns="http://www.w3.org/2000/svg">
  <path d="M12.046 0l1.106 1.924c.221.399.221.885 0 1.283L6.56 14.643l3.12 5.398a2.75 2.75 0 002.366 1.371c.973 0 1.88-.53 2.367-1.371l3.119-5.398-.819-1.46-3.539 6.128a1.282 1.282 0 01-1.106.641c-.464 0-.885-.243-1.106-.641l-2.72-4.668 6.127-10.617 1.106 1.924c.22.398.22.885 0 1.283l-4.27 7.41.841 1.46 4.645-8.051 3.053 5.286a2.66 2.66 0 010 2.633l-3.097 5.375c-.464.818-1.946 2.654-4.6 2.654-2.655 0-4.115-1.836-4.602-2.654L4.348 15.97a2.66 2.66 0 010-2.632L12.046 0z" />
</svg>
