<svg fill="none" height="24" width="24" xmlns="http://www.w3.org/2000/svg"><path clip-rule="evenodd" d="m.408 15.13a2 2 0 0 1 .59-2.642l16.04-11.158a2 2 0 0 1 2.85.602l2.828 4.644a2 2 0 0 1 -.851 2.847l-17.762 8.43a2 2 0 0 1 -2.59-.807zm5.263-4.066 7.842-5.455 2.857 4.76-8.712 4.135zm-1.235.86-2.582 1.796a.5.5 0 0 0 -.147.66l1.105 1.915a.5.5 0 0 0 .648.201l2.838-1.347zm13.295-2.2-2.984-4.974 3.148-2.19a.5.5 0 0 1 .713.151l2.826 4.644a.5.5 0 0 1 -.212.712l-3.49 1.656z" fill-rule="evenodd"/><path d="m17.155 22.87a.75.75 0 0 0 .226-1.036l-4-6.239a.75.75 0 0 0 -.941-.278l-2.75 1.25a.75.75 0 0 0 -.318.274l-3.25 4.989a.75.75 0 0 0 1.256.819l3.131-4.806.51-.232v5.64a.75.75 0 1 0 1.5 0v-6.22l3.6 5.613a.75.75 0 0 0 1.036.226z"/></svg>