<svg xmlns="http://www.w3.org/2000/svg" width="24" height="24" fill="none" viewBox="0 0 24 24">
  <g clip-path="url(#ic-24-klayvio-full__a)">
    <path fill="#000" d="M13.458 10.09a.44.44 0 0 0 .44-.422.437.437 0 0 0-.13-.307.437.437 0 0 0-.306-.129.433.433 0 0 0-.304.133.413.413 0 0 0-.122.304c0 .11.045.218.126.3a.454.454 0 0 0 .296.122Zm2.983.408h1.058v.085a.528.528 0 0 0-.167.059c-.096.044-.288.263-.44.629a36.903 36.903 0 0 0-.792 2.242l-.103.326c-.045.148-.086.244-.104.3-.019.06-.045.148-.089.255a1.38 1.38 0 0 1-.1.237c-.052.096-.148.292-.226.352-.122.103-.303.218-.529.2-.44 0-.77-.326-.773-.711 0-.263.166-.437.418-.437.181 0 .34.096.34.3 0 .148-.147.3-.147.377 0 .2.114.293.34.293.181 0 .33-.115.44-.344.148-.263.163-.552.037-.874l-.928-2.442c-.215-.563-.374-.748-.574-.77v-.085h1.465v.085c-.174.019-.262.122-.262.307 0 .134.051.34.148.604l.174.473c.2.515.362.962.444 1.244.188-.585.362-1.096.529-1.543.122-.334.181-.57.181-.711 0-.252-.137-.366-.34-.366v-.085Zm-10.188 3.12c-.189-.034-.348-.2-.348-.552V8.818l-1.066.229v.089c.182-.019.363.14.363.48v3.45c0 .333-.181.525-.362.551-.019.004-.034.004-.052.007a.566.566 0 0 1-.27-.048.807.807 0 0 1-.363-.336l-.492-.781a.91.91 0 0 0-1.01-.392l.555-.611c.418-.463.806-.755 1.173-.877v-.085H3.159v.085c.315.122.297.392-.066.814l-.777.903V8.818l-1.066.229v.089c.181 0 .363.177.363.492v3.434c0 .381-.178.53-.363.555v.085h1.414v-.085c-.234-.033-.348-.21-.348-.551v-.633l.303-.333.733 1.199c.174.289.337.403.592.403h2.457v-.066c.004 0-.066-.004-.148-.019Zm2.93-.404v-1.436c-.014-.936-.41-1.366-1.316-1.366a1.28 1.28 0 0 0-.8.27c-.24.182-.355.385-.355.622 0 .23.13.404.34.404.226 0 .389-.13.389-.308 0-.133-.089-.322-.089-.447 0-.23.174-.43.478-.43.388 0 .666.29.666.93v.384l-.322.078a6.21 6.21 0 0 0-.418.096 6.19 6.19 0 0 0-.419.14c-.336.13-.514.252-.67.482a.657.657 0 0 0-.114.377c0 .533.374.777.895.777.415 0 .851-.218 1.051-.629a.89.89 0 0 0 .093.374c.218.44.943.181.943.181v-.085c-.325.048-.351-.325-.351-.414Zm-.687-.444c0 .21-.078.385-.234.507a.726.726 0 0 1-.466.185c-.314 0-.522-.204-.522-.585 0-.178.1-.344.182-.44a.736.736 0 0 1 .225-.16c.112-.059.163-.088.241-.122l.296-.107c.148-.06.237-.089.278-.107v.829Zm14.254-2.272h-2.509v-1.68h2.509l-.526.84.526.84Zm-5.103 2.793a1.671 1.671 0 0 1-.477-1.195 1.652 1.652 0 0 1 .477-1.188 1.54 1.54 0 0 1 1.158-.5c.444 0 .833.167 1.151.5a1.632 1.632 0 0 1 .485 1.188c.004.222-.037.44-.122.644a1.706 1.706 0 0 1-.363.548 1.56 1.56 0 0 1-1.15.496 1.54 1.54 0 0 1-1.159-.493Zm1.74-2.327c-.127-.248-.297-.393-.493-.433-.4-.082-.751.33-.884.977-.056.292-.07.588-.041.88.03.296.11.582.244.848.13.248.296.392.492.433.4.081.763-.344.896-1 .11-.547.055-1.213-.215-1.705Z"/>
    <path fill="#000" d="M13.832 13.066v-2.568H11.56v.077c.303.045.448.274.31.64-.71 1.918-.665 1.832-.71 1.984-.044-.148-.148-.51-.314-.966-.167-.455-.278-.755-.322-.892-.174-.532-.115-.729.166-.762v-.085H9.217v.085c.219.044.415.296.574.744l.226.585c.248.629.54 1.498.636 1.794h.489c.159-.455.788-2.275.873-2.46a1.5 1.5 0 0 1 .31-.482.574.574 0 0 1 .437-.181s.356 0 .356.34v2.15c0 .36-.174.526-.356.552v.085h1.407v-.085c-.182-.03-.337-.196-.337-.555Z"/>
  </g>
  <defs>
    <clipPath id="ic-24-klayvio-full__a">
      <path fill="#fff" d="M1.25 8.818h21.5v6.365H1.25z"/>
    </clipPath>
  </defs>
</svg>
