<svg xmlns="http://www.w3.org/2000/svg" width="24" height="24" viewBox="0 0 24 24">
  <path d="M14.5 1.75a.75.75 0 0 1-.75.75h-3.5a.75.75 0 0 1 0-1.5h3.5a.75.75 0 0 1 .75.75Zm-12 8.5a.75.75 0 0 0-1.5 0v3.5a.75.75 0 0 0 1.5 0v-3.5Zm19.75-.75a.75.75 0 0 1 .75.75v3.5a.75.75 0 0 1-1.5 0v-3.5a.75.75 0 0 1 .75-.75ZM14.5 22.25a.75.75 0 0 1-.75.75h-3.5a.75.75 0 0 1 0-1.5h3.5a.75.75 0 0 1 .75.75ZM1.75 18a.75.75 0 0 1 .75.75v1.5c0 .69.56 1.25 1.25 1.25h1.5a.75.75 0 0 1 0 1.5h-1.5A2.75 2.75 0 0 1 1 20.25v-1.5a.75.75 0 0 1 .75-.75Zm19.75.75a.75.75 0 0 1 1.5 0v1.5A2.75 2.75 0 0 1 20.25 23h-1.5a.75.75 0 0 1 0-1.5h1.5c.69 0 1.25-.56 1.25-1.25v-1.5ZM1.75 6a.75.75 0 0 0 .75-.75v-1.5c0-.69.56-1.25 1.25-1.25h1.5a.75.75 0 0 0 0-1.5h-1.5A2.75 2.75 0 0 0 1 3.75v1.5c0 .414.336.75.75.75Zm19.75-.75a.75.75 0 0 0 1.5 0v-1.5A2.75 2.75 0 0 0 20.25 1h-1.5a.75.75 0 0 0 0 1.5h1.5c.69 0 1.25.56 1.25 1.25v1.5Zm-4.72 1.97a.75.75 0 0 1 0 1.06l-8.5 8.5a.75.75 0 0 1-1.06-1.06l8.5-8.5a.75.75 0 0 1 1.06 0ZM10 8.75a1.25 1.25 0 1 1-2.5 0 1.25 1.25 0 0 1 2.5 0Zm6.5 6.5a1.25 1.25 0 1 1-2.5 0 1.25 1.25 0 0 1 2.5 0Z"/>
</svg>
