<svg xmlns="http://www.w3.org/2000/svg" width="24" height="24" viewBox="0 0 24 24">
  <path fill-rule="evenodd" d="M9 6.5a3.5 3.5 0 1 0 0 7 3.5 3.5 0 0 0 0-7ZM4 10a5 5 0 1 1 7.916 4.062 7.973 7.973 0 0 1 5.018 7.166.751.751 0 0 1-1.438.334.747.747 0 0 1-.061-.29 6.469 6.469 0 0 0-12.932 0 .75.75 0 0 1-1.499-.044 7.973 7.973 0 0 1 5.059-7.181A4.993 4.993 0 0 1 4 10Zm12.312-8.676A4.48 4.48 0 0 0 15 4.5a4.5 4.5 0 0 0 7.676 3.188l.012-.012A4.48 4.48 0 0 0 24 4.5a4.5 4.5 0 0 0-7.688-3.176Zm.599 1.66a3 3 0 0 0 4.106 4.106L16.91 2.982Zm5.17 3.048L17.967 1.92a3 3 0 0 1 4.112 4.112Z" clip-rule="evenodd"/>
</svg>
