<svg width="24" height="24" viewBox="0 0 24 24" fill="none" xmlns="http://www.w3.org/2000/svg">
<path d="M1.86418 21.4168H3.05726C3.81358 21.4168 4.39947 20.8309 4.39947 20.0852V18.4234C6.60453 18.5513 9.57656 18.6365 12.0053 18.6365C14.4234 18.6365 17.3955 18.5513 19.6005 18.4234V20.0852C19.6005 20.8309 20.1864 21.4168 20.9427 21.4168H22.1358C22.9028 21.4168 23.478 20.8309 23.478 20.0852V17.4967C23.8189 17.1238 24 16.6232 24 15.9947V14.2157C24 12.5007 23.6698 11.5313 22.7217 10.3169L21.8589 9.20905C21.486 7.39814 20.8149 5.49134 20.474 4.74567C19.9308 3.59521 18.8655 2.91345 17.5126 2.73236C16.8202 2.63648 14.6258 2.58322 12.0053 2.58322C9.37417 2.58322 7.17976 2.64714 6.48735 2.73236C5.13449 2.89214 4.06924 3.59521 3.52597 4.74567C3.18509 5.49134 2.51398 7.39814 2.14115 9.20905L1.2783 10.3169C0.330226 11.5313 0 12.5007 0 14.2157V15.9947C0 16.6232 0.181092 17.1238 0.521971 17.4967V20.0852C0.521971 20.8309 1.0972 21.4168 1.86418 21.4168ZM12.0053 17.2197C8.56458 17.2197 4.19707 17.0706 2.5779 16.8682C1.71505 16.7617 1.40613 16.3249 1.40613 15.5473V14.1838C1.40613 12.8096 1.64048 12.1704 2.3968 11.1798L3.4514 9.80559C3.71771 8.37816 4.36751 6.32224 4.79361 5.40612C5.12384 4.69241 5.76298 4.26631 6.66844 4.15979C7.3289 4.08522 9.34221 3.98935 12.0053 3.98935C14.6578 3.98935 16.7031 4.08522 17.3103 4.15979C18.2477 4.27696 18.8762 4.70306 19.2064 5.40612C19.6431 6.31158 20.2823 8.36751 20.5486 9.80559L21.6032 11.1798C22.3595 12.1704 22.5939 12.8096 22.5939 14.1838V15.5473C22.5939 16.3249 22.285 16.7617 21.4221 16.8682C19.8029 17.0599 15.4354 17.2197 12.0053 17.2197ZM4.82557 8.93209C4.74035 9.30493 4.88948 9.45406 5.29427 9.43276C6.86019 9.32623 8.75632 9.23036 12.0053 9.23036C15.2437 9.23036 17.1398 9.32623 18.7057 9.43276C19.1105 9.45406 19.2597 9.30493 19.1744 8.93209C18.9401 7.88815 18.4927 6.53529 18.1838 5.99201C17.9174 5.5233 17.6085 5.3209 17.0652 5.24634C16.3515 5.15047 14.7004 5.08655 12.0053 5.08655C9.2996 5.08655 7.64847 5.15047 6.93475 5.24634C6.39148 5.3209 6.08256 5.5233 5.81625 5.99201C5.50732 6.53529 5.05992 7.88815 4.82557 8.93209ZM4.72969 15.8562C5.65646 15.8562 6.37017 15.1425 6.37017 14.2157C6.37017 13.2783 5.65646 12.5752 4.72969 12.5752C3.79228 12.5752 3.08921 13.2783 3.08921 14.2157C3.08921 15.1425 3.79228 15.8562 4.72969 15.8562ZM19.2703 15.8562C20.2077 15.8562 20.9108 15.1425 20.9108 14.2157C20.9108 13.2783 20.2077 12.5752 19.2703 12.5752C18.3435 12.5752 17.6298 13.2783 17.6298 14.2157C17.6298 15.1425 18.3435 15.8562 19.2703 15.8562ZM9.32091 15.4514H14.6791C15.3822 15.4514 15.8615 14.9614 15.8615 14.269C15.8615 13.5659 15.3822 13.0866 14.6791 13.0866H9.32091C8.61784 13.0866 8.13848 13.5659 8.13848 14.269C8.13848 14.9614 8.61784 15.4514 9.32091 15.4514Z" />
</svg>
