<svg xmlns="http://www.w3.org/2000/svg" width="24" height="24" fill="none" viewBox="0 0 24 24">
  <path id="helmet" d="M16.03 8.085c.78-2.18 3.043-3.17 4.541-2.224 1.335.825 1.608 2.778.627 4.377l-.7 1.263"/>
  <path d="M16.03 8.085c.78-2.18 3.043-3.17 4.541-2.224 1.335.825 1.608 2.778.627 4.377l-.7 1.263m-.154-5.777L22.215 2"/>
  <path id="base" d="M12.579 21.363a19.8 19.8 0 0 0 7.41-7.329 3.922 3.922 0 0 0-.753-4.977 3.93 3.93 0 0 0-5.976.908l-3.088 5.16a7.91 7.91 0 0 1-6.766 3.83h-.754a.644.644 0 0 0-.49 1.073 9.027 9.027 0 0 0 10.417 1.335Z"/>
</svg>
