<svg xmlns="http://www.w3.org/2000/svg" width="24" height="24" fill="none" viewBox="0 0 24 24">
  <g clip-path="url(#a)">
    <path fill="#000" d="M3.615 7.72V4.255H2.77V7.76c0 .165.015.33.04.485.03.15.07.29.12.425.055.135.115.26.195.375.075.115.16.225.255.32a2.196 2.196 0 0 0 .68.45c.13.05.26.085.4.11.145.03.29.04.44.04.29 0 .56-.06.82-.18.255-.115.48-.28.655-.485v.56h.845V4.255h-.84V7.72c0 .45-.135.81-.41 1.08a1.31 1.31 0 0 1-.98.41c-.39 0-.72-.135-.985-.41-.26-.27-.39-.63-.39-1.08Zm4.23 2.15h.8v-.51c.185.19.4.34.65.45.255.105.525.16.81.16.135 0 .26-.015.385-.04.13-.02.25-.055.365-.095.115-.045.23-.09.34-.155.105-.065.205-.135.3-.205.095-.08.185-.165.255-.255.08-.095.15-.195.205-.3.065-.105.115-.215.16-.34.05-.115.08-.235.105-.36.02-.13.035-.255.035-.385 0-.135-.01-.26-.035-.385-.02-.13-.06-.25-.105-.36a2.33 2.33 0 0 0-.365-.64 1.368 1.368 0 0 0-.255-.255c-.09-.08-.19-.15-.3-.205a1.773 1.773 0 0 0-.34-.16 1.868 1.868 0 0 0-.365-.095 1.962 1.962 0 0 0-1.185.13c-.25.105-.47.255-.65.44V4.25h-.81v5.62Zm.795-2.035c0-.1.01-.2.025-.29.02-.09.055-.18.085-.265.04-.085.08-.165.13-.24.055-.08.11-.155.18-.215.065-.065.135-.12.205-.17.075-.055.155-.095.23-.13.085-.04.175-.065.265-.08.095-.02.195-.035.29-.035.095 0 .19.01.28.035.09.015.18.045.265.08a1.322 1.322 0 0 1 .615.515c.055.075.1.155.135.24.04.085.065.175.08.265.02.09.035.19.035.29 0 .095-.01.195-.035.29a1.244 1.244 0 0 1-.215.505c-.05.075-.105.145-.17.205-.06.065-.125.12-.205.18-.075.05-.155.09-.24.13-.085.04-.175.07-.265.085a1.715 1.715 0 0 1-.57 0c-.09-.02-.18-.055-.265-.085a1.115 1.115 0 0 1-.24-.13 1.176 1.176 0 0 1-.205-.18c-.065-.065-.12-.135-.18-.205a1.834 1.834 0 0 1-.13-.24 1.619 1.619 0 0 1-.08-.265 1.885 1.885 0 0 1-.02-.29Zm3.895-.01c0 .135.01.265.035.39.02.13.055.25.095.365.05.115.1.23.16.34.065.1.135.205.205.3.08.09.17.18.265.255.095.075.2.14.305.205a2.124 2.124 0 0 0 .705.25c.135.02.265.035.4.035a2.17 2.17 0 0 0 1.005-.23c.305-.155.56-.365.76-.64l-.585-.435c-.15.205-.33.355-.53.46-.2.095-.415.145-.65.145-.345 0-.64-.11-.895-.33-.25-.225-.405-.5-.46-.835h3.33v-.265c0-.135-.01-.265-.035-.39-.02-.13-.055-.25-.095-.365a1.943 1.943 0 0 0-.145-.33 1.62 1.62 0 0 0-.195-.3 1.968 1.968 0 0 0-.25-.25c-.085-.08-.18-.15-.28-.205a1.9 1.9 0 0 0-.67-.25 1.983 1.983 0 0 0-.765.005c-.12.02-.24.055-.36.095-.11.045-.22.095-.33.16-.1.06-.2.13-.29.205a2.255 2.255 0 0 0-.61.895c-.045.11-.075.23-.095.35-.01.115-.025.24-.025.37Zm2.09-1.42c.3 0 .565.095.795.29.23.195.38.445.45.755h-2.495c.07-.31.215-.56.45-.755.23-.19.495-.29.8-.29Zm4.555.1V5.75h-.28c-.225 0-.42.05-.585.145a1.12 1.12 0 0 0-.39.39V5.78h-.8v4.09h.81V7.545c0-.315.085-.565.255-.755a.851.851 0 0 1 .655-.29h.335v.005ZM7.76 15.03c0 .39-.075.76-.23 1.115-.15.355-.355.66-.615.915a2.927 2.927 0 0 1-2.045.835H2.83V12.15h2.045c.525 0 1.005.13 1.45.385.445.26.795.605 1.05 1.05.26.445.385.925.385 1.445Zm-2.88-2.525H3.225v5.04h1.66c.34 0 .66-.065.965-.2.305-.13.57-.31.79-.535a2.539 2.539 0 0 0 .53-2.76 2.55 2.55 0 0 0-.525-.805 2.519 2.519 0 0 0-.79-.54 2.397 2.397 0 0 0-.975-.2Zm3.94.385a.277.277 0 0 1-.41 0 .29.29 0 0 1-.09-.215c0-.08.03-.15.09-.205a.303.303 0 0 1 .42 0c.06.06.09.125.09.205a.346.346 0 0 1-.1.215Zm-.03.945v4.06h-.375v-4.06h.375Zm2.435.325h-.27c-.3 0-.545.11-.725.335-.185.225-.275.5-.275.83v2.565H9.58v-4.06h.375v.595a1.13 1.13 0 0 1 .395-.455c.17-.11.365-.17.59-.17h.285v.36Zm.275 2.755a2.064 2.064 0 0 1-.275-1.055c0-.385.09-.735.27-1.055a2.032 2.032 0 0 1 1.79-1.04c.355 0 .68.09.98.27.295.18.535.425.705.735.17.31.26.645.26 1.005v.19H11.6c.02.305.105.585.265.835.155.25.365.45.62.595a1.72 1.72 0 0 0 1.62.025c.245-.13.445-.305.605-.53l.305.205c-.19.265-.435.475-.735.63a2.05 2.05 0 0 1-.965.23 2.1 2.1 0 0 1-1.06-.28 2.077 2.077 0 0 1-.755-.76Zm1.785-2.81c-.42 0-.79.145-1.105.435-.315.29-.5.65-.56 1.085h3.215c-.035-.43-.2-.79-.5-1.08a1.46 1.46 0 0 0-1.05-.44Zm2.77 1.755c0 .49.165.905.5 1.245.335.34.74.51 1.21.51a1.7 1.7 0 0 0 1.395-.72l.305.205c-.19.265-.435.475-.735.63a2.05 2.05 0 0 1-.965.23 2.052 2.052 0 0 1-1.815-1.045 2.064 2.064 0 0 1-.275-1.055 2.077 2.077 0 0 1 1.03-1.81c.32-.19.675-.28 1.06-.28.345 0 .67.075.965.23.295.155.54.365.735.63l-.305.205a1.79 1.79 0 0 0-.61-.535 1.645 1.645 0 0 0-.785-.195c-.475 0-.88.17-1.215.51a1.72 1.72 0 0 0-.495 1.245Zm5 2.035c-.235 0-.42-.06-.56-.19-.14-.125-.205-.295-.205-.51v-3.02h-.755v-.345h.755v-1.24h.375v1.24h.995v.345h-.995v2.98c0 .125.04.22.115.29.075.07.185.105.325.105h.555v.345h-.605Z"/>
  </g>
  <defs>
    <clipPath id="a">
      <path fill="#fff" d="M0 0h24v24H0z"/>
    </clipPath>
  </defs>
</svg>
