<svg width="24" height="24" viewBox="0 0 24 24" fill="none" xmlns="http://www.w3.org/2000/svg">
  <path d="M4.676 1A3.676 3.676 0 001 4.676v14.648C1 21.35 2.65 22.991 4.676 23h14.648A3.681 3.681 0 0023 19.324V4.667A3.676 3.676 0 0019.324 1H4.667h.009zM6.16 4.997h11.678c.642 0 1.155.522 1.155 1.164v11.678c0 .642-.513 1.164-1.155 1.164H6.161a1.158 1.158 0 01-1.155-1.164V6.161A1.164 1.164 0 016.16 4.997zm3.51 3.987a.67.67 0 00-.668.67v4.665c0 .367.293.66.66.66h4.675a.67.67 0 00.669-.66V9.653a.668.668 0 00-.67-.669H9.663h.01z" />
</svg>
