<svg width="24" height="24" viewBox="0 0 24 24" fill="none" xmlns="http://www.w3.org/2000/svg">
    <path
        d="M5.84,13.85c0.11-0.1,0.23-0.19,0.33-0.29c0.69-0.65,1.24-1.4,1.68-2.23c0.4-0.75,0.72-1.53,0.88-2.37
		c0.01-0.08,0.05-0.1,0.12-0.06c0.18,0.1,0.32,0.23,0.42,0.41c0.02,0.03,0.01,0.09,0,0.13c-0.1,0.4-0.26,0.78-0.44,1.16
		c-0.01,0.03-0.03,0.05-0.04,0.09c0.26,0.21,0.29,0.45,0.07,0.72c0.01,0,0.02,0.01,0.02,0.01c0.04-0.03,0.09-0.05,0.13-0.08
		c0.17-0.14,0.34-0.29,0.51-0.43c0.02-0.02,0.07-0.03,0.1-0.02c0.08,0.04,0.15,0.09,0.22,0.14c0.12,0.09,0.12,0.23,0.07,0.35
		c-0.09,0.23-0.2,0.45-0.3,0.67c-0.11,0.23-0.24,0.45-0.35,0.68c-0.03,0.07-0.04,0.15-0.06,0.23c-0.01,0.06,0.03,0.09,0.08,0.07
		c0.07-0.03,0.14-0.06,0.2-0.1c0.25-0.21,0.36-0.49,0.45-0.79c0.12-0.4,0.31-0.76,0.63-1.04c0.24-0.21,0.52-0.3,0.83-0.22
		c0.16,0.04,0.28,0.12,0.35,0.26c0.07,0.14,0.11,0.3,0.16,0.45c0.03,0.11,0,0.15-0.12,0.16c-0.02,0-0.04,0-0.05,0
		c0.09,0.09,0.18,0.17,0.27,0.26c0.07,0.08,0.08,0.18,0.06,0.29c-0.04,0.19-0.08,0.39-0.11,0.58c-0.01,0.07,0,0.15,0,0.26
		c0.09-0.07,0.18-0.11,0.24-0.18c0.09-0.12,0.18-0.24,0.25-0.37c0.2-0.36,0.28-0.76,0.34-1.16c0.02-0.14,0.05-0.28,0.06-0.43
		c0.01-0.09,0.05-0.11,0.12-0.09c0.18,0.04,0.32,0.15,0.43,0.29c0.02,0.02,0.03,0.04,0.04,0.06c0.13-0.09,0.25-0.18,0.38-0.25
		c0.46-0.24,0.94-0.02,1.06,0.49c0.11,0.45,0.01,0.87-0.19,1.28c-0.16,0.33-0.39,0.61-0.74,0.77c-0.35,0.16-0.63,0.1-0.89-0.19
		c-0.01-0.01-0.01-0.01-0.04-0.03c-0.05,0.18-0.11,0.35-0.15,0.52c-0.1,0.39-0.18,0.79-0.16,1.2c0,0.06-0.02,0.09-0.08,0.08
		c-0.17-0.01-0.31-0.08-0.42-0.2c-0.03-0.02-0.04-0.07-0.04-0.11c-0.05-0.38,0.02-0.76,0.09-1.13c0.02-0.07,0.03-0.15,0.05-0.25
		c-0.18,0.17-0.37,0.26-0.6,0.19c-0.24-0.06-0.35-0.24-0.42-0.46c-0.08,0.08-0.14,0.16-0.21,0.23c-0.33,0.32-0.75,0.28-1.01-0.1
		c-0.05-0.07-0.09-0.16-0.14-0.24c-0.07,0.08-0.12,0.17-0.2,0.24c-0.1,0.1-0.21,0.2-0.33,0.26c-0.41,0.22-0.82-0.01-0.87-0.47
		c-0.03-0.28,0.04-0.54,0.16-0.78c0.09-0.17,0.18-0.34,0.27-0.51c0.03-0.05,0.07-0.08,0.1-0.13c-0.1,0.01-0.2,0.02-0.3,0.04
		c-0.02,0-0.04,0.04-0.05,0.07c-0.06,0.15-0.13,0.29-0.19,0.44c-0.04,0.09-0.08,0.11-0.17,0.06C8.19,12.2,8.17,12.14,8.23,12
		c0.05-0.12,0.1-0.25,0.15-0.37c0.01-0.03,0-0.07,0-0.11c-0.01,0-0.02,0-0.03-0.01c-0.09,0.15-0.18,0.3-0.28,0.44
		c-0.44,0.68-0.91,1.33-1.5,1.89C6.4,14,6.19,14.13,5.99,14.26c-0.19,0.12-0.38,0.07-0.54-0.06c-0.12-0.1-0.22-0.22-0.25-0.37
		c-0.01-0.06,0-0.13,0-0.21c-0.08,0.09-0.14,0.16-0.21,0.23c-0.05,0.06-0.11,0.11-0.17,0.17c-0.35,0.31-0.99,0.29-1.22-0.32
		c-0.13-0.33-0.1-0.66-0.04-0.99c0.13-0.68,0.34-1.33,0.6-1.97c0.14-0.36,0.31-0.71,0.46-1.06C4.62,9.64,4.63,9.6,4.66,9.54
		C4.49,9.58,4.35,9.6,4.21,9.65c-0.7,0.23-1.25,0.65-1.63,1.28c-0.13,0.22-0.23,0.45-0.19,0.72c0.01,0.08-0.03,0.11-0.11,0.09
		c-0.34-0.05-0.58-0.39-0.51-0.73c0.13-0.65,0.51-1.13,1.05-1.49c0.53-0.36,1.12-0.56,1.76-0.56c0.3,0,0.63,0.23,0.72,0.51
		C5.33,9.54,5.32,9.62,5.3,9.69c-0.16,0.48-0.33,0.96-0.5,1.44c-0.23,0.64-0.47,1.27-0.59,1.94c-0.03,0.16-0.04,0.32-0.03,0.49
		c0,0.17,0.13,0.24,0.29,0.16c0.11-0.06,0.2-0.14,0.29-0.23c0.28-0.3,0.47-0.66,0.65-1.03c0.41-0.82,0.75-1.66,0.99-2.55
		C6.43,9.81,6.45,9.7,6.46,9.59c0.02-0.09,0.07-0.12,0.15-0.1C6.8,9.52,7.1,9.8,7.13,9.99c0.01,0.05,0,0.11-0.02,0.17
		c-0.19,0.58-0.38,1.16-0.58,1.73c-0.21,0.59-0.44,1.18-0.66,1.77c-0.02,0.06-0.03,0.12-0.05,0.18C5.83,13.84,5.83,13.85,5.84,13.85
		z M14.3,11.66c0-0.02,0-0.03,0-0.05c-0.01-0.19-0.08-0.25-0.26-0.21c-0.17,0.04-0.32,0.11-0.44,0.24c-0.1,0.1-0.2,0.21-0.25,0.34
		c-0.07,0.2-0.11,0.41-0.14,0.62c-0.01,0.1,0,0.21,0.04,0.3c0.05,0.14,0.16,0.18,0.3,0.12c0.05-0.02,0.09-0.04,0.13-0.08
		C14.06,12.61,14.23,12.16,14.3,11.66z M11.61,11.69c-0.03-0.09-0.05-0.17-0.09-0.25c-0.06-0.13-0.16-0.18-0.29-0.13
		c-0.1,0.04-0.2,0.1-0.27,0.18c-0.18,0.19-0.27,0.43-0.34,0.67c-0.07,0.22-0.12,0.45-0.07,0.69c0.02,0.07,0.07,0.16,0.13,0.2
		c0.08,0.04,0.18,0,0.24-0.08c0.26-0.31,0.49-0.64,0.5-1.07c0-0.07,0-0.15,0-0.24C11.46,11.67,11.53,11.68,11.61,11.69z" />
    <path d="M21.24,13.06c0.16,0.07,0.25-0.1,0.32-0.23c0.1-0.18,0.19-0.37,0.28-0.56c0.03-0.06,0.06-0.12,0.08-0.18
		c0.03-0.1,0.09-0.1,0.17-0.06c0.16,0.07,0.18,0.13,0.12,0.28c-0.14,0.33-0.25,0.67-0.48,0.96c-0.07,0.09-0.16,0.19-0.25,0.26
		c-0.29,0.23-0.69,0.13-0.85-0.21c-0.02-0.05-0.04-0.1-0.07-0.15c-0.07,0.07-0.12,0.14-0.18,0.2c-0.38,0.38-0.87,0.3-1.11-0.19
		c-0.02-0.04-0.04-0.09-0.07-0.15c-0.06,0.08-0.11,0.14-0.16,0.21c-0.27,0.36-0.82,0.52-1.24,0.35c-0.26-0.1-0.41-0.31-0.49-0.57
		c-0.14-0.44-0.05-0.85,0.13-1.25c0.16-0.37,0.42-0.64,0.79-0.81c0.16-0.07,0.32-0.1,0.49-0.06c0.32,0.08,0.48,0.43,0.36,0.77
		c-0.18,0.54-0.52,0.93-1.06,1.14c-0.05,0.02-0.06,0.05-0.04,0.1c0.08,0.29,0.3,0.38,0.56,0.23c0.28-0.16,0.45-0.42,0.58-0.7
		c0.06-0.14,0.1-0.29,0.16-0.43c0.12-0.33,0.29-0.64,0.56-0.87c0.23-0.21,0.51-0.31,0.82-0.24c0.11,0.02,0.2,0.09,0.32,0.14
		c0.05-0.16,0.12-0.33,0.16-0.5c0.08-0.36,0.15-0.73,0.22-1.1c0.01-0.07,0.04-0.08,0.1-0.08c0.18,0.01,0.49,0.26,0.54,0.44
		C22.01,9.85,22,9.93,21.98,10c-0.14,0.5-0.3,0.99-0.44,1.49c-0.1,0.33-0.18,0.67-0.26,1c-0.03,0.12-0.05,0.23-0.07,0.35
		C21.2,12.94,21.18,13.02,21.24,13.06z M19.81,12.67c0.01,0.07,0.01,0.13,0.03,0.19c0.01,0.08,0.04,0.16,0.13,0.19
		c0.09,0.02,0.17-0.01,0.23-0.08c0.22-0.26,0.41-0.53,0.48-0.87c0.04-0.17,0.07-0.34,0.12-0.51c0.02-0.08,0.03-0.16-0.04-0.22
		c-0.07-0.07-0.15-0.08-0.25-0.06c-0.14,0.04-0.24,0.13-0.32,0.24C19.95,11.89,19.85,12.27,19.81,12.67z M17.97,12.41
		c0.02,0,0.02,0,0.03,0c0.38-0.19,0.64-0.49,0.76-0.9c0.01-0.03,0.01-0.06,0.01-0.09c0-0.06-0.02-0.1-0.09-0.07
		c-0.07,0.03-0.15,0.06-0.21,0.11C18.17,11.7,18.04,12.04,17.97,12.41z" />
    <path
        d="M15.35,13.32c-0.08,0.33-0.17,0.65-0.23,0.98c-0.04,0.24-0.04,0.48-0.06,0.72c0,0.08-0.03,0.1-0.1,0.1
		c-0.16-0.01-0.29-0.08-0.41-0.19c-0.03-0.03-0.04-0.08-0.05-0.13c-0.05-0.47,0.03-0.93,0.16-1.38c0.21-0.75,0.38-1.51,0.49-2.28
		c0.01-0.04,0.01-0.09,0.01-0.13c0.01-0.11,0.04-0.12,0.14-0.1c0.2,0.05,0.35,0.18,0.46,0.34c0.12-0.08,0.23-0.17,0.35-0.24
		c0.49-0.27,0.99-0.03,1.09,0.51c0.1,0.54-0.05,1.01-0.33,1.46c-0.16,0.26-0.38,0.46-0.66,0.57c-0.3,0.12-0.58,0.06-0.8-0.18
		c-0.02-0.02-0.04-0.04-0.05-0.06C15.38,13.33,15.37,13.32,15.35,13.32z M16.66,11.66c0-0.02,0-0.05,0-0.07
		c-0.01-0.17-0.08-0.23-0.24-0.19c-0.1,0.02-0.2,0.06-0.29,0.11c-0.23,0.14-0.43,0.32-0.47,0.61c-0.02,0.16-0.08,0.31-0.09,0.47
		c-0.01,0.1,0,0.21,0.03,0.31c0.04,0.13,0.16,0.17,0.29,0.13c0.05-0.02,0.1-0.04,0.14-0.08C16.43,12.61,16.59,12.16,16.66,11.66z" />

</svg>