<svg width="24" height="24" fill="none" xmlns="http://www.w3.org/2000/svg">
  <path fill-rule="evenodd" clip-rule="evenodd" d="M11.85.75C6.901.75 4 4.491 4 8.6c0 2.509 1.193 4.206 2.264 5.569l.336.423c.411.516.773.97 1.061 1.439.353.573.547 1.098.547 1.658v1.17A3.64 3.64 0 0011.85 22.5a3.64 3.64 0 003.643-3.64v-1.171c0-.56.194-1.084.546-1.658.289-.469.65-.922 1.061-1.438.109-.136.221-.277.336-.424 1.072-1.363 2.265-3.06 2.265-5.569 0-4.109-2.902-7.85-7.85-7.85zM5.5 8.6c0-3.386 2.33-6.35 6.35-6.35S18.2 5.214 18.2 8.6c0 1.976-.91 3.33-1.943 4.642l-.3.379c-.419.524-.854 1.07-1.196 1.625a5.51 5.51 0 00-.585 1.254H9.525a5.507 5.507 0 00-.586-1.255c-.341-.555-.777-1.101-1.195-1.625-.102-.128-.203-.254-.3-.379C6.41 11.93 5.5 10.576 5.5 8.601zM9.708 18v.86A2.14 2.14 0 0011.85 21a2.14 2.14 0 002.143-2.14V18H9.708z" />
</svg>
