<svg width="24" height="24" viewBox="0 0 24 24" fill="none" xmlns="http://www.w3.org/2000/svg">
<g clip-path="url(#clip0_3240_989)">
<path d="M15.469 5.14066V18.6429C15.469 20.151 16.5158 21.0027 17.6159 21.0027C18.6449 21.0027 19.7627 20.293 19.7627 18.6429V5.24712C19.7627 3.86318 18.7337 2.99377 17.6159 2.99377C16.4981 2.99377 15.469 3.9519 15.469 5.14066Z" fill="#F8AB00"/>
<path d="M9.84448 12.0071V18.6606C9.84448 20.1688 10.8913 21.0204 11.9914 21.0204C13.0204 21.0204 14.1382 20.3107 14.1382 18.6606V12.1136C14.1382 10.7296 13.1092 9.86023 11.9914 9.86023C10.8736 9.86023 9.84448 10.8006 9.84448 12.0071Z" fill="#E37300"/>
<path d="M8.53155 18.8559C8.53155 20.0446 7.57344 21.0027 6.38467 21.0027C5.19591 21.0027 4.23779 20.0446 4.23779 18.8559C4.23779 17.6671 5.19591 16.709 6.38467 16.709C7.57344 16.709 8.53155 17.6671 8.53155 18.8559Z" fill="#E37300"/>
</g>
<defs>
<clipPath id="clip0_3240_989">
<rect width="24" height="24" fill="white"/>
</clipPath>
</defs>
</svg>
