<svg fill="none" height="24" width="24" xmlns="http://www.w3.org/2000/svg" xmlns:xlink="http://www.w3.org/1999/xlink"><clipPath id="a"><path d="m0 0h24v24h-24z"/></clipPath><g clip-path="url(#a)"><path clip-rule="evenodd" d="m0 3.75c0-.966.784-1.75 1.75-1.75h20.5c.966 0 1.75.784 1.75 1.75v16.5a1.75 1.75 0 0 1 -1.75 1.75h-20.5a1.75 1.75 0 0 1 -1.75-1.75zm1.75-.25a.25.25 0 0 0 -.25.25v1.75h4v-2zm5.25 0v2h4v-2zm5.5 0v2h10v-1.75a.25.25 0 0 0 -.25-.25zm10 3.5h-21v13.25c0 .138.112.25.25.25h20.5a.25.25 0 0 0 .25-.25z" fill-rule="evenodd"/></g></svg>