<svg xmlns="http://www.w3.org/2000/svg" width="24" height="24" viewBox="0 0 24 24">
  <path d="M11.036 17.801c-.363.456-.721.869-1.14 1.226-.83.707-2.24.765-3.024-.127-.411-.467-.605-1.028-.73-1.623-.131-.63-.054-1.255.056-1.875.45-2.535 1.319-4.938 2.314-7.3.272-.645.56-1.283.864-1.914.021-.045.07-.095.032-.143-.038-.05-.097-.012-.147-.004-1.833.3-3.364 1.168-4.657 2.48-.585.595-1.085 1.25-1.424 2.02-.216.488-.324.994-.26 1.531.03.26-.054.346-.301.313-.604-.08-1.488-.763-1.602-1.408-.039-.22-.003-.432.03-.642.2-1.263.78-2.341 1.659-3.252 1.5-1.553 3.35-2.43 5.47-2.772.44-.07.883-.072 1.325-.06.18.004.361.037.525.12.534.267.96.655 1.28 1.16a.869.869 0 0 1 .117.686c-.187.834-.496 1.627-.787 2.426-.628 1.726-1.285 3.44-1.828 5.196-.287.93-.538 1.87-.674 2.836a3.41 3.41 0 0 0-.011 1.045c.062.378.32.541.68.414.411-.147.71-.44.989-.758.682-.778 1.196-1.666 1.669-2.578.671-1.295 1.25-2.632 1.8-3.984.538-1.326.953-2.69 1.35-4.062.06-.207.085-.422.11-.636.03-.268.158-.364.424-.335a.826.826 0 0 1 .3.087c.52.273.929.66 1.192 1.19a.8.8 0 0 1 .049.592c-.531 1.962-1.25 3.859-1.955 5.76-.587 1.586-1.204 3.16-1.755 4.759-.03.083-.081.167-.033.289.167-.138.326-.262.477-.395 1.63-1.446 3.008-3.106 4.19-4.932a28.104 28.104 0 0 0 2.842-5.664 21.62 21.62 0 0 0 .914-3.262c.04-.201.114-.243.308-.174.214.076.382.223.55.366.268.228.509.481.693.784a.551.551 0 0 1 .06.45c-.292 1.153-.74 2.248-1.259 3.313-1.398 2.878-3.106 5.557-5.173 8.002-.766.906-1.592 1.754-2.58 2.425a4.02 4.02 0 0 1-.87.447c-.313.117-.614.115-.912-.035-.597-.301-1.007-.76-1.19-1.412-.051-.185.027-.355.041-.569h.002Z"/>
</svg>
