<svg width="24" height="24" viewBox="0 0 24 24" fill="none" xmlns="http://www.w3.org/2000/svg">
<path d="M12.0461 1L13.0083 2.76406C13.2008 3.12903 13.2008 3.57512 13.0083 3.94009L7.27363 14.423L9.98704 19.3705C10.4104 20.141 11.1994 20.6276 12.0461 20.6276C12.8929 20.6276 13.6819 20.141 14.1052 19.3705L16.8187 14.423L16.1066 13.0848L13.0276 18.7014C12.8351 19.0664 12.4503 19.2894 12.0654 19.2894C11.6613 19.2894 11.2956 19.0664 11.1032 18.7014L8.73618 14.423L14.0668 4.69032L15.029 6.45438C15.2214 6.81935 15.2214 7.26544 15.029 7.63041L11.3149 14.423L12.0461 15.7613L16.0874 8.38064L18.743 13.2267C19.1472 13.977 19.1472 14.8894 18.743 15.6396L16.0489 20.5668C15.6448 21.3171 14.3554 23 12.0461 23C9.73686 23 8.46676 21.3171 8.04339 20.5668L5.34924 15.6396C4.94511 14.8894 4.94511 13.977 5.34924 13.2267L12.0461 1Z" fill="#ED5253"/>
</svg>
