<svg xmlns="http://www.w3.org/2000/svg" width="24" height="24" viewBox="0 0 24 24">
  <path d="m22.639 5.778-2.344-2.135v5.61a.728.728 0 0 1-.232.528.812.812 0 0 1-.558.219.813.813 0 0 1-.558-.219.728.728 0 0 1-.231-.528v-5.61L16.37 5.778a.79.79 0 0 1-.25.173.826.826 0 0 1-.87-.132.75.75 0 0 1-.181-.239.715.715 0 0 1 .148-.823l3.71-3.52a.792.792 0 0 1 .263-.175.828.828 0 0 1 .891.175l3.71 3.52a.723.723 0 0 1 .207.534.731.731 0 0 1-.25.517.815.815 0 0 1-.561.201.81.81 0 0 1-.55-.231Z"/>
  <path fill-rule="evenodd" d="M9 6.5a3.5 3.5 0 1 0 0 7 3.5 3.5 0 0 0 0-7ZM4 10a5 5 0 1 1 7.916 4.062 7.973 7.973 0 0 1 5.018 7.166.751.751 0 0 1-1.438.334.747.747 0 0 1-.061-.29 6.469 6.469 0 0 0-12.932 0 .75.75 0 0 1-1.499-.044 7.973 7.973 0 0 1 5.059-7.181A4.993 4.993 0 0 1 4 10Z" clip-rule="evenodd"/>
</svg>
