<svg width="24" height="24" viewBox="0 0 24 24" fill="none" xmlns="http://www.w3.org/2000/svg">
  <path d="M2.237 21.248h1.088c.697 0 1.236-.53 1.236-1.218v-1.562c2.065.13 5.05.224 7.439.224 2.39 0 5.384-.093 7.448-.224v1.562c0 .688.53 1.218 1.227 1.218h1.098c.697 0 1.227-.53 1.227-1.218v-5.365c0-1.562-.316-2.445-1.172-3.561l-.79-1.014c-.335-1.673-.958-3.43-1.274-4.119-.502-1.05-1.46-1.673-2.696-1.84C16.445 4.055 14.408 4 12 4c-2.399 0-4.435.065-5.058.13-1.237.149-2.204.79-2.697 1.841-.325.688-.939 2.446-1.283 4.12l-.781 1.013C1.316 12.22 1 13.104 1 14.665v5.365c0 .688.54 1.218 1.237 1.218zM4.84 9.319c.214-1.022.67-2.352.977-2.891.25-.437.52-.623 1.022-.688.707-.102 2.288-.158 5.161-.158 2.883 0 4.463.037 5.16.158.503.074.763.25 1.023.688.317.53.744 1.869.986 2.892.084.344-.065.474-.418.446-1.544-.093-3.385-.195-6.751-.195-3.357 0-5.198.102-6.741.195-.363.028-.502-.102-.419-.446zm.456 6.863a1.467 1.467 0 01-1.497-1.497c0-.846.65-1.488 1.497-1.488.846 0 1.497.642 1.497 1.488 0 .855-.651 1.497-1.497 1.497zm13.408 0c-.846 0-1.488-.642-1.488-1.497 0-.846.642-1.488 1.488-1.488.856 0 1.497.642 1.497 1.488 0 .855-.641 1.497-1.497 1.497z" />
</svg>
