<svg width="24" height="24" viewBox="0 0 24 24" fill="none" xmlns="http://www.w3.org/2000/svg">
<path fill-rule="evenodd" clip-rule="evenodd" d="M20.0325 3C20.7553 3 21.3324 3.60619 21.3324 4.33858V5.15111C21.3324 5.4363 21.1089 5.67715 20.8182 5.67715H20.4311L18.9078 9.94392L22.3059 9.94488C23.1573 9.94498 23.8393 10.6599 23.8369 11.5259V12.5789C23.8367 12.8607 23.6139 13.1049 23.3227 13.1049H22.7151L20.7055 18.7352C20.433 19.5002 19.7434 20 18.9463 20H5.72752C4.93045 20 4.24077 19.5002 3.96829 18.7352L1.9587 13.1049H1.35111C1.06058 13.1049 0.83714 12.8639 0.836914 12.5789V11.5259C0.836952 10.6601 1.51912 9.94488 2.37082 9.94488H5.77181L5.77085 9.94296L4.24753 5.67715H3.86044C3.56977 5.67715 3.34529 5.43629 3.34529 5.15111V4.33858C3.34529 3.60619 3.92337 3 4.64617 3H20.0325ZM4.9389 18.373C5.0675 18.7321 5.36876 18.9459 5.72944 18.946H18.9463C19.307 18.946 19.6092 18.7321 19.7378 18.373L21.6145 13.1049H15.3364L14.9088 13.906C14.7591 14.1874 14.4468 14.3477 14.1115 14.3477H10.5575C10.2243 14.3477 9.91263 14.1871 9.76306 13.906L9.33553 13.1049H3.05738L4.9389 18.373ZM2.37082 10.997C2.10059 10.997 1.86844 11.2278 1.86819 11.523V12.05H22.8104V11.523C22.8102 11.2278 22.578 10.997 22.3078 10.997H2.37082ZM6.73857 9.58173C6.81959 9.80959 7.01188 9.94488 7.23639 9.94488H17.4374C17.6646 9.94488 17.8562 9.81015 17.9372 9.58268L19.3324 5.67715H14.7634L14.4524 6.44657C14.3296 6.74409 14.0387 6.93999 13.711 6.94003H10.9657C10.6389 6.94003 10.3474 6.74852 10.2243 6.44753L10.2233 6.44657L9.91327 5.67715H5.34428L6.73857 9.58173ZM4.64617 4.05208C4.50233 4.05208 4.37463 4.17408 4.37463 4.33858V4.62507H20.304V4.33858C20.304 4.17408 20.1763 4.05208 20.0325 4.05208H4.64617Z" />
</svg>
