<svg fill="none" height="24" width="24" xmlns="http://www.w3.org/2000/svg"><g clip-rule="evenodd" fill-rule="evenodd"><path d="m18.193 5.5h-12.948l-2.438 13h12.948zm0-1.5h-12.948a1.5 1.5 0 0 0 -1.475 1.224l-2.438 13a1.5 1.5 0 0 0 1.475 1.776h12.948a1.5 1.5 0 0 0 1.474-1.224l2.438-13a1.5 1.5 0 0 0 -1.474-1.776z"/><path d="m19.682 5.288 2.849 12.888a1.5 1.5 0 0 1 -1.465 1.824h-1.816a.75.75 0 0 1 0-1.5h1.816l-2.848-12.888zm-9.445 3a.75.75 0 0 1 .474.95l-.17.512h1.418l.33-.987a.75.75 0 1 1 1.422.474l-.17.513h.459a.75.75 0 0 1 0 1.5h-.96l-.5 1.5h.46a.75.75 0 0 1 0 1.5h-.96l-.329.987a.75.75 0 0 1 -1.422-.474l.17-.513h-1.418l-.33.987a.75.75 0 0 1 -1.423-.474l.171-.513h-.459a.75.75 0 0 1 0-1.5h.96l.5-1.5h-.46a.75.75 0 0 1 0-1.5h.96l.329-.987a.75.75 0 0 1 .948-.475zm-.196 2.962-.5 1.5h1.418l.5-1.5z"/></g></svg>