<svg xmlns="http://www.w3.org/2000/svg" width="24" height="24" viewBox="0 0 24 24">
  <path d="m16.361 5.222 2.344 2.135v-5.61c0-.198.084-.388.232-.528A.812.812 0 0 1 19.495 1c.21 0 .41.079.558.219.148.14.231.33.231.528v5.61l2.345-2.135a.825.825 0 0 1 1.121-.041.75.75 0 0 1 .18.239.715.715 0 0 1-.148.823l-3.71 3.52a.792.792 0 0 1-.263.175.828.828 0 0 1-.891-.175l-3.71-3.52A.725.725 0 0 1 15 5.709a.731.731 0 0 1 .25-.517.815.815 0 0 1 .562-.201.81.81 0 0 1 .548.231Z"/>
  <path fill-rule="evenodd" d="M9 6.5a3.5 3.5 0 1 0 0 7 3.5 3.5 0 0 0 0-7ZM4 10a5 5 0 1 1 7.916 4.062 7.973 7.973 0 0 1 5.018 7.166.751.751 0 0 1-1.438.334.747.747 0 0 1-.061-.29 6.469 6.469 0 0 0-12.932 0 .75.75 0 0 1-1.499-.044 7.973 7.973 0 0 1 5.059-7.181A4.993 4.993 0 0 1 4 10Z" clip-rule="evenodd"/>
</svg>
