<svg xmlns="http://www.w3.org/2000/svg" width="24" height="24" viewBox="0 0 24 24">
  <g id="ic-24-square-pos-colour-brand__ic24__square-pos-colour-brand">
    <path id="ic-24-square-pos-colour-brand__Vector" fill="#1A1A1A" d="M4.676 1A3.676 3.676 0 0 0 1 4.676v14.648C1 21.35 2.65 22.991 4.676 23h14.648A3.681 3.681 0 0 0 23 19.324V4.667A3.676 3.676 0 0 0 19.324 1H4.667h.009ZM6.16 4.997h11.678c.642 0 1.155.522 1.155 1.164v11.678c0 .642-.513 1.164-1.155 1.164H6.161a1.158 1.158 0 0 1-1.155-1.164V6.161A1.164 1.164 0 0 1 6.16 4.997Zm3.51 3.987a.67.67 0 0 0-.668.67v4.665c0 .367.293.66.66.66h4.675a.67.67 0 0 0 .669-.66V9.653a.668.668 0 0 0-.67-.669H9.663h.01Z"/>
  </g>
</svg>
