<svg width="24" height="24" viewBox="0 0 24 24" fill="none" xmlns="http://www.w3.org/2000/svg">
<path d="M23.0711 8.40906C22.5504 7.43105 21.7727 6.61361 20.8219 6.0448C19.871 5.47599 18.783 5.17736 17.6751 5.18106H0.584064C0.468291 5.18203 0.355372 5.2171 0.259417 5.28189C0.163463 5.34667 0.0887294 5.4383 0.0445562 5.54532C0.000382956 5.65234 -0.0112707 5.77 0.0110515 5.8836C0.0333737 5.99721 0.0886817 6.10172 0.170064 6.18406L3.89406 9.93006C4.05689 10.0936 4.25044 10.2234 4.46358 10.312C4.67672 10.4005 4.90526 10.4461 5.13606 10.4461H17.1851C17.5972 10.442 17.9941 10.6017 18.2884 10.8903C18.5828 11.1788 18.7505 11.5724 18.7546 11.9846C18.7587 12.3967 18.5989 12.7936 18.3104 13.0879C18.0218 13.3823 17.6282 13.55 17.2161 13.5541H8.91006C8.79421 13.5548 8.68115 13.5898 8.58504 13.6545C8.48894 13.7192 8.41405 13.8108 8.36976 13.9179C8.32546 14.0249 8.31372 14.1427 8.33601 14.2564C8.3583 14.3701 8.41362 14.4747 8.49506 14.5571L12.2201 18.3041C12.3828 18.4677 12.5764 18.5976 12.7895 18.6861C13.0027 18.7747 13.2312 18.8202 13.4621 18.8201H17.2191C22.1061 18.8201 25.8031 13.5951 23.0711 8.40706" fill="#FF3008"/>
</svg>
