<svg xmlns="http://www.w3.org/2000/svg" width="24" height="24" fill="none" viewBox="0 0 24 24">
  <g clip-path="url(#ic-24-doshii__a)">
    <path fill="#005059" d="M5.135 14.22c-.465.37-.98.49-1.545.39-.43-.075-.8-.27-1.095-.595-.59-.665-.665-1.735-.15-2.465.14-.2.325-.375.53-.51a2.018 2.018 0 0 1 1.415-.28c.24.035.465.145.705.23V9.5h.99v5.035c-.225 0-.455 0-.68-.005-.025 0-.055-.04-.065-.065-.045-.075-.07-.15-.105-.245Zm-1.11-.515c.59.01 1.035-.415 1.045-.995.01-.595-.42-1.045-1.005-1.05-.59-.01-1.04.415-1.045.99-.005.605.41 1.045 1.005 1.055Zm10.69-4.21h.985v1.68c.06-.045.095-.07.125-.095.49-.35 1.025-.45 1.585-.22.44.175.66.545.745.99.03.13.035.27.035.405.005.705 0 1.41.005 2.115 0 .125-.035.16-.155.155-.27-.01-.54-.005-.83-.005v-2c0-.1-.01-.2-.02-.3-.05-.565-.49-.7-.915-.57-.345.105-.505.37-.555.7-.025.175-.025.35-.025.53-.005.49 0 .98 0 1.47v.17c-.315 0-.625 0-.925-.005-.02 0-.05-.04-.06-.065-.01-.03-.005-.07-.005-.105v-4.68c.01-.055.01-.11.01-.17ZM10.61 12.68c-.005 1.125-.875 1.96-2.025 1.95-1.145-.01-2.005-.86-2-1.97.01-1.11.875-1.945 2.025-1.945 1.14.005 2.005.85 2 1.965Zm-2.015-1.03c-.585 0-1.01.43-1.005 1.03 0 .6.42 1.025 1.01 1.025.585 0 1.005-.43 1.005-1.03-.005-.605-.415-1.025-1.01-1.025Zm5.43.29H13.1c-.15-.385-.45-.525-.835-.395-.175.055-.27.17-.27.315 0 .125.075.235.255.28.26.07.53.12.8.18.11.025.22.05.33.09.74.26.965 1.155.43 1.74-.24.265-.555.395-.905.45-.44.065-.875.03-1.275-.18-.405-.215-.665-.65-.645-1.085h.94l.03.09c.03.145.12.25.245.31a.83.83 0 0 0 .655.025c.145-.055.245-.155.25-.325.005-.17-.105-.255-.24-.29-.25-.065-.51-.115-.76-.17-.27-.06-.53-.135-.745-.315-.485-.415-.425-1.235.125-1.635.335-.24.715-.315 1.115-.3.375.01.725.1 1.02.35.26.22.385.51.405.865Zm4.985-.725h.97v3.295h-.97v-3.295Zm2.82 0v3.29h-.97v-3.29h.97Zm-.485-1.855c.365 0 .66.29.655.65a.655.655 0 0 1-.645.635.654.654 0 0 1-.655-.655.647.647 0 0 1 .645-.63Zm-2.485.635a.633.633 0 0 1 .65-.635.65.65 0 0 1 .645.65.65.65 0 0 1-.655.64.638.638 0 0 1-.64-.655Z"/>
  </g>
  <defs>
    <clipPath id="ic-24-doshii__a">
      <path fill="#fff" d="M0 0h24v24H0z"/>
    </clipPath>
  </defs>
</svg>
