<svg xmlns="http://www.w3.org/2000/svg" width="24" height="24" fill="none" viewBox="0 0 24 24">
  <path fill="#000" d="M20.266 13.463c-.433 0-.807-.09-1.123-.27a1.83 1.83 0 0 1-.723-.771c-.169-.334-.253-.727-.253-1.18 0-.444.084-.834.253-1.17.17-.338.41-.6.715-.788.306-.19.665-.284 1.078-.284.266 0 .518.043.754.13.238.084.449.215.63.393.184.179.329.406.434.681.105.274.158.6.158.98v.312h-3.544v-.687h2.567a1.096 1.096 0 0 0-.127-.52.922.922 0 0 0-.346-.363.973.973 0 0 0-.512-.132.993.993 0 0 0-.549.151c-.158.1-.28.231-.369.394-.086.162-.13.34-.132.532v.6c0 .251.046.467.138.647.092.178.22.315.386.411.165.094.358.14.58.14.148 0 .282-.02.402-.061a.893.893 0 0 0 .312-.189.785.785 0 0 0 .2-.306l.951.106c-.06.252-.174.471-.343.659a1.66 1.66 0 0 1-.642.433 2.44 2.44 0 0 1-.895.152Zm-5.724-2.617v2.533h-1.019V9.056h.974v.735h.05c.1-.242.259-.435.476-.577.22-.143.49-.214.813-.214.299 0 .559.064.78.191.223.128.396.313.518.555.124.242.185.535.183.88v2.753h-1.019v-2.595c0-.289-.075-.515-.225-.678-.148-.163-.354-.245-.616-.245a.946.946 0 0 0-.476.118.82.82 0 0 0-.324.335 1.13 1.13 0 0 0-.115.532ZM9.59 15a2.064 2.064 0 0 1-.664-.107l.237-.794c.148.043.28.064.396.062a.487.487 0 0 0 .307-.11c.09-.069.166-.185.228-.348l.087-.234-1.567-4.413h1.08l.997 3.265h.045l.999-3.265h1.083l-1.73 4.846a1.94 1.94 0 0 1-.321.589c-.133.165-.297.29-.49.377-.191.088-.42.132-.687.132ZM2 13.379V9.056h.973v.735h.05c.09-.248.24-.441.448-.58A1.3 1.3 0 0 1 4.217 9c.293 0 .54.071.74.214.203.14.345.333.428.577h.045c.096-.24.257-.432.484-.574.229-.145.5-.217.813-.217.398 0 .723.126.974.377.252.251.377.618.377 1.1v2.902H7.057v-2.744c0-.268-.072-.464-.214-.588a.763.763 0 0 0-.524-.189c-.245 0-.438.077-.577.231-.137.152-.205.35-.205.594v2.696h-1v-2.786c0-.223-.067-.402-.202-.535a.708.708 0 0 0-.523-.2.739.739 0 0 0-.4.113.785.785 0 0 0-.287.312.976.976 0 0 0-.107.467v2.629H2Z"/>
</svg>
