<svg xmlns="http://www.w3.org/2000/svg" width="24" height="24" viewBox="0 0 24 24">
  <path fill-rule="evenodd" d="M15.25 1a.75.75 0 0 1 .75.75v2a.75.75 0 0 1-1.5 0v-2a.75.75 0 0 1 .75-.75Zm-4.53 3.22a.75.75 0 0 1 1.06 0l1.2 1.2a.75.75 0 0 1-1.06 1.06l-1.2-1.2a.75.75 0 0 1 0-1.06Zm9.06 0a.75.75 0 0 1 0 1.06l-1.2 1.2a.75.75 0 1 1-1.06-1.06l1.2-1.2a.75.75 0 0 1 1.06 0ZM7.5 8.75A.75.75 0 0 1 8.25 8h2a.75.75 0 0 1 0 1.5h-2a.75.75 0 0 1-.75-.75Zm12 0a.75.75 0 0 1 .75-.75h2a.75.75 0 0 1 0 1.5h-2a.75.75 0 0 1-.75-.75Zm-1.98 2.27a.75.75 0 0 1 1.06 0l1.2 1.2a.75.75 0 1 1-1.06 1.06l-1.2-1.2a.75.75 0 0 1 0-1.06Zm-4.74.2a.75.75 0 0 1 0 1.06l-10.5 10.5a.75.75 0 0 1-1.06-1.06l10.5-10.5a.75.75 0 0 1 1.06 0ZM15.25 13a.75.75 0 0 1 .75.75v2a.75.75 0 0 1-1.5 0v-2a.75.75 0 0 1 .75-.75Z" clip-rule="evenodd"/>
</svg>
