<svg xmlns="http://www.w3.org/2000/svg" width="24" height="24" fill="none" viewBox="0 0 24 24">
  <g clip-path="url(#ic-24-stripe-payments__a)">
    <path fill="#635BFF" fill-rule="evenodd" d="M22 12.14c0-1.42-.69-2.545-2.005-2.545-1.32 0-2.12 1.12-2.12 2.535 0 1.67.945 2.515 2.3 2.515.66 0 1.16-.15 1.54-.36v-1.11c-.38.19-.81.305-1.36.305-.54 0-1.015-.19-1.08-.845h2.715c0-.075.01-.365.01-.495Zm-2.745-.53c0-.63.385-.89.735-.89.34 0 .7.26.7.89h-1.435ZM15.73 9.595c-.545 0-.895.255-1.09.435l-.07-.345h-1.22v6.48l1.39-.295.005-1.57c.2.145.495.35.985.35.995 0 1.9-.8 1.9-2.56-.015-1.62-.93-2.495-1.9-2.495Zm-.335 3.825c-.33 0-.52-.115-.655-.26l-.005-2.06c.145-.16.345-.27.66-.27.505 0 .855.565.855 1.295 0 .74-.345 1.295-.855 1.295Zm-3.96-4.155 1.395-.3V7.84l-1.395.295v1.13Z" clip-rule="evenodd"/>
    <path fill="#635BFF" d="M12.83 9.69h-1.395v4.86h1.395V9.69Z"/>
    <path fill="#635BFF" fill-rule="evenodd" d="m9.94 10.1-.09-.41h-1.2v4.86h1.39v-3.295c.33-.43.885-.35 1.055-.29v-1.28c-.18-.065-.83-.185-1.155.415ZM7.16 8.485l-1.355.29-.005 4.45c0 .82.615 1.43 1.44 1.43.455 0 .79-.085.97-.185v-1.13c-.18.07-1.055.33-1.055-.495v-1.97H8.21V9.69H7.155l.005-1.205ZM3.405 11.1c0-.215.18-.3.47-.3.42 0 .955.13 1.38.355V9.85a3.624 3.624 0 0 0-1.38-.255c-1.125 0-1.875.59-1.875 1.57 0 1.535 2.11 1.29 2.11 1.95 0 .255-.22.34-.535.34-.46 0-1.05-.19-1.515-.445v1.32c.515.22 1.04.315 1.515.315 1.155 0 1.95-.57 1.95-1.565-.005-1.65-2.12-1.36-2.12-1.98Z" clip-rule="evenodd"/>
  </g>
  <defs>
    <clipPath id="ic-24-stripe-payments__a">
      <path fill="#fff" d="M0 0h24v24H0z"/>
    </clipPath>
  </defs>
</svg>
