<svg xmlns="http://www.w3.org/2000/svg" width="24" height="24" viewBox="0 0 24 24">
  <path d="M1 3.75A2.75 2.75 0 0 1 3.75 1h17.5A2.75 2.75 0 0 1 24 3.75v12.5A2.75 2.75 0 0 1 21.25 19h-6.5a.75.75 0 0 1 0-1.5h6.5c.69 0 1.25-.56 1.25-1.25V3.75c0-.69-.56-1.25-1.25-1.25H3.75c-.69 0-1.25.56-1.25 1.25a.75.75 0 0 1-1.5 0ZM3.75 18.5a.75.75 0 0 0 0 1.5h4.5a.75.75 0 0 0 0-1.5h-4.5Z"/>
  <path fill-rule="evenodd" d="M2.75 5.75A2.75 2.75 0 0 0 0 8.5v11.75A2.75 2.75 0 0 0 2.75 23h6.5A2.75 2.75 0 0 0 12 20.25V8.5a2.75 2.75 0 0 0-2.75-2.75h-6.5ZM1.5 8.5c0-.69.56-1.25 1.25-1.25H4v.5a1 1 0 0 0 1 1h2a1 1 0 0 0 1-1v-.5h1.25c.69 0 1.25.56 1.25 1.25v11.75c0 .69-.56 1.25-1.25 1.25h-6.5c-.69 0-1.25-.56-1.25-1.25V8.5Z" clip-rule="evenodd"/>
</svg>
