<svg width="24" height="24" viewBox="0 0 24 24" fill="none" xmlns="http://www.w3.org/2000/svg">
<path d="M7.13477 0.610352C7.65713 0.610352 8.08199 1.03429 8.08203 1.55664V2.79395C8.08201 3.1528 7.88104 3.46117 7.58887 3.62109V3.64062C7.58888 3.74893 7.59403 3.8145 7.60059 3.85645C7.60215 3.86647 7.60222 3.87441 7.60352 3.87988C7.60558 3.88148 7.60778 3.88426 7.61133 3.88672C7.63838 3.90546 7.67762 3.92737 7.75586 3.96973C7.92592 4.06186 8.18299 4.20043 8.47363 4.45801L8.47461 4.45898C9.28249 5.17697 9.74609 6.20751 9.74609 7.28711V19.6377H10.8438C10.5429 19.2616 10.3197 18.7806 10.1885 18.1719C10.0874 17.7026 10.2012 17.2174 10.502 16.8447C10.7989 16.4768 11.2425 16.2656 11.7148 16.2656H20.4277C20.8999 16.2657 21.3427 16.477 21.6396 16.8447C21.9405 17.2175 22.0542 17.7026 21.9531 18.1719C21.8225 18.7773 21.5973 19.2589 21.2939 19.6377H22.7334C23.083 19.6377 23.3662 19.9209 23.3662 20.2705V22.1934C23.3662 22.543 23.0831 22.8262 22.7334 22.8262H1.2666C0.916948 22.8262 0.633822 22.543 0.633789 22.1934V20.2705C0.633824 19.9209 0.916949 19.6377 1.2666 19.6377H2.1748V7.28711C2.1748 6.23893 2.61641 5.22915 3.38574 4.51562L3.60742 4.3291C3.82096 4.16699 4.00781 4.07271 4.1416 4.00488C4.20256 3.97401 4.23562 3.95564 4.25781 3.94238L4.25879 3.94141C4.26424 3.90464 4.26854 3.845 4.26855 3.74414V3.58301C4.01215 3.41526 3.83986 3.12665 3.83984 2.79395V1.55664C3.83989 1.03429 4.26475 0.610352 4.78711 0.610352H7.13477ZM1.00391 22.2402C1.00432 22.2426 1.00539 22.2448 1.00586 22.2471C1.00233 22.2298 1 22.2117 1 22.1934L1.00391 22.2402ZM1.89844 21.5605H22.1016V20.9033H1.89844V21.5605ZM1.00488 20.2217C1.00189 20.2375 1 20.2538 1 20.2705L1.00586 20.2168L1.00488 20.2217ZM11.8359 20.0039H11.8379C11.7603 19.9605 11.6846 19.9143 11.6123 19.8633C11.6842 19.914 11.7589 19.9607 11.8359 20.0039ZM20.3086 20.0039H20.3105C20.3857 19.9607 20.4581 19.9136 20.5283 19.8633C20.4576 19.9139 20.3842 19.9605 20.3086 20.0039ZM3.09961 19.8057C3.10223 19.8118 3.10639 19.8173 3.10938 19.8232C3.09698 19.7983 3.08679 19.7721 3.08105 19.7441L3.09961 19.8057ZM3.44043 19.6377H8.47949V13.0449H3.44043V19.6377ZM11.7148 17.5312C11.625 17.5312 11.5431 17.5705 11.4873 17.6396C11.4284 17.7126 11.4049 17.8084 11.4258 17.9053C11.5235 18.3585 11.6831 18.6727 11.8818 18.8975C12.0802 19.1216 12.3373 19.2791 12.6631 19.3887C13.3395 19.6162 14.2452 19.6211 15.3994 19.6221C15.62 19.6223 15.8469 19.6229 16.0771 19.625H16.0781L16.5312 19.6309C16.7984 19.6343 17.0544 19.6372 17.3018 19.6377H17.4307C18.3861 19.635 19.1278 19.5758 19.6729 19.3311C20.1789 19.1037 20.5449 18.7025 20.7168 17.9053C20.7376 17.8089 20.7135 17.7131 20.6543 17.6396V17.6387C20.5986 17.5701 20.5171 17.5314 20.4277 17.5312H11.7148ZM11.6074 19.1406C11.6161 19.1505 11.6259 19.1593 11.6348 19.1689C11.619 19.1519 11.6031 19.135 11.5879 19.1172L11.6074 19.1406ZM11.1201 17.5381C11.1131 17.5525 11.1066 17.5672 11.1006 17.582C11.116 17.5438 11.1349 17.5069 11.1572 17.4717L11.1201 17.5381ZM11.6787 17.166L11.7148 17.165H20.4277L20.4619 17.166C20.4506 17.1653 20.4392 17.1641 20.4277 17.1641H11.7148C11.7027 17.1641 11.6907 17.1653 11.6787 17.166ZM21.6709 14.46C21.9647 14.4603 22.2031 14.6992 22.2031 14.9932C22.2028 15.2866 21.965 15.5251 21.6709 15.5254C21.6297 15.5254 21.6175 15.5318 21.6113 15.5352C21.6046 15.5388 21.5935 15.5458 21.5762 15.5596C21.5575 15.5744 21.5363 15.5924 21.5059 15.6191C21.3568 15.7504 21.0998 15.9792 20.6387 15.9795C20.2926 15.9795 20.061 15.8509 19.9043 15.7314L19.7705 15.6191C19.74 15.5923 19.7188 15.5734 19.7002 15.5586C19.683 15.5449 19.6717 15.5378 19.665 15.5342C19.659 15.5309 19.6469 15.5254 19.6064 15.5254C19.5657 15.5254 19.5541 15.5318 19.5479 15.5352C19.5411 15.5388 19.5303 15.5457 19.5127 15.5596C19.494 15.5744 19.4728 15.5924 19.4424 15.6191C19.2932 15.7503 19.0358 15.9793 18.5742 15.9795C18.2282 15.9795 17.9966 15.8509 17.8398 15.7314L17.7061 15.6191C17.6416 15.5624 17.6188 15.545 17.6006 15.5352C17.5944 15.5319 17.5827 15.5254 17.541 15.5254C17.5006 15.5254 17.4888 15.5317 17.4824 15.5352C17.4756 15.5388 17.464 15.5456 17.4463 15.5596C17.4276 15.5744 17.4064 15.5924 17.376 15.6191C17.2269 15.7504 16.97 15.9792 16.5088 15.9795C16.0471 15.9795 15.7898 15.7503 15.6406 15.6191C15.5763 15.5625 15.5534 15.5451 15.5352 15.5352C15.529 15.5319 15.5172 15.5254 15.4756 15.5254C15.4348 15.5254 15.4231 15.5318 15.417 15.5352C15.4103 15.5388 15.3995 15.5456 15.3818 15.5596C15.3632 15.5744 15.342 15.5923 15.3115 15.6191C15.1624 15.7502 14.9048 15.9792 14.4434 15.9795C14.0971 15.9795 13.8657 15.85 13.709 15.7305L13.5752 15.6191C13.5107 15.5624 13.488 15.545 13.4697 15.5352C13.4636 15.5319 13.4518 15.5254 13.4102 15.5254C13.3697 15.5254 13.3579 15.5317 13.3516 15.5352C13.3448 15.5388 13.3331 15.5456 13.3154 15.5596C13.2967 15.5744 13.2756 15.5924 13.2451 15.6191C13.0959 15.7503 12.8386 15.9793 12.377 15.9795C11.9153 15.9794 11.6583 15.7511 11.5088 15.6201V15.6191C11.4782 15.5922 11.4562 15.5744 11.4375 15.5596C11.4205 15.5461 11.4101 15.5389 11.4033 15.5352C11.3973 15.5319 11.3851 15.5255 11.3428 15.5254C11.301 15.5254 11.2886 15.5317 11.2822 15.5352C11.2754 15.5388 11.2646 15.5457 11.2471 15.5596L11.1768 15.6191C11.0271 15.751 10.77 15.9792 10.3086 15.9795C10.0146 15.9795 9.77558 15.7412 9.77539 15.4473C9.77539 15.1531 10.0144 14.915 10.3086 14.915C10.3503 14.9149 10.3619 14.9076 10.3682 14.9043C10.375 14.9006 10.3859 14.8937 10.4033 14.8799C10.422 14.8651 10.4432 14.8471 10.4736 14.8203L10.6074 14.709C10.7646 14.5892 10.9962 14.46 11.3428 14.46C11.8043 14.4602 12.0613 14.6887 12.2109 14.8203L12.3164 14.9043C12.3227 14.9077 12.3352 14.915 12.377 14.915C12.4183 14.915 12.4303 14.9086 12.4365 14.9053C12.4433 14.9016 12.4541 14.8938 12.4717 14.8799C12.4904 14.8651 12.5115 14.8471 12.542 14.8203L12.6758 14.709C12.8327 14.5892 13.0638 14.46 13.4102 14.46C13.8718 14.4601 14.1292 14.6894 14.2783 14.8203L14.3838 14.9053C14.39 14.9086 14.4021 14.915 14.4424 14.915C14.4836 14.915 14.4958 14.9086 14.502 14.9053C14.5087 14.9016 14.5196 14.8938 14.5371 14.8799C14.5558 14.8651 14.577 14.8471 14.6074 14.8203L14.7412 14.709C14.898 14.5893 15.1295 14.46 15.4756 14.46C15.9369 14.4602 16.1937 14.6893 16.3428 14.8203H16.3438C16.4083 14.8771 16.43 14.8954 16.4482 14.9053C16.4545 14.9086 16.4669 14.915 16.5078 14.915C16.5489 14.915 16.5611 14.9086 16.5674 14.9053C16.5742 14.9015 16.585 14.8938 16.6025 14.8799C16.6212 14.8651 16.6424 14.847 16.6729 14.8203L16.8066 14.709C16.9635 14.5893 17.1947 14.46 17.541 14.46C18.0027 14.4601 18.2601 14.6893 18.4092 14.8203L18.5146 14.9053C18.521 14.9087 18.5338 14.915 18.5742 14.915C18.6145 14.9149 18.6265 14.9087 18.6328 14.9053C18.6396 14.9015 18.6504 14.8938 18.668 14.8799C18.6866 14.8651 18.7079 14.847 18.7383 14.8203C18.8874 14.689 19.1449 14.46 19.6064 14.46C20.0679 14.4601 20.3246 14.6896 20.4736 14.8203H20.4746C20.5051 14.8472 20.5263 14.8661 20.5449 14.8809C20.5621 14.8945 20.5725 14.9017 20.5791 14.9053C20.5851 14.9085 20.5971 14.915 20.6377 14.915C20.679 14.915 20.6911 14.9086 20.6973 14.9053C20.7041 14.9016 20.715 14.8947 20.7324 14.8809C20.7511 14.866 20.7722 14.8472 20.8027 14.8203L20.9365 14.709C21.0934 14.5894 21.3247 14.46 21.6709 14.46ZM18.2324 15.0205C18.3502 15.1242 18.4158 15.1807 18.5732 15.1807V15.1797L18.4707 15.1699C18.4105 15.156 18.3638 15.1287 18.3135 15.0889L18.2334 15.0205C18.2003 14.9914 18.1634 14.9601 18.123 14.9287C18.1633 14.96 18.1994 14.9915 18.2324 15.0205ZM12.543 15.1465C12.5492 15.1436 12.5564 15.1429 12.5625 15.1396L12.5801 15.1279C12.5681 15.1352 12.5555 15.1407 12.543 15.1465ZM14.6074 15.1465C14.6139 15.1435 14.6216 15.143 14.6279 15.1396L14.6455 15.1279C14.6333 15.1354 14.6203 15.1406 14.6074 15.1465ZM21.9355 14.9922C21.9355 15.0282 21.9279 15.0624 21.915 15.0938C21.9214 15.0783 21.9283 15.0627 21.9316 15.0459L21.9365 14.9932L21.9355 14.9922ZM11.4688 14.7344C11.5052 14.7388 11.5396 14.7451 11.5723 14.7529C11.5399 14.7452 11.5058 14.7388 11.4697 14.7344C11.4298 14.7295 11.3876 14.7266 11.3428 14.7266L11.4688 14.7344ZM13.5361 14.7344C13.5726 14.7388 13.607 14.7451 13.6396 14.7529C13.6073 14.7451 13.5732 14.7388 13.5371 14.7344C13.4972 14.7295 13.455 14.7266 13.4102 14.7266L13.5361 14.7344ZM15.6016 14.7344C15.638 14.7388 15.6724 14.7451 15.7051 14.7529C15.6727 14.7451 15.6386 14.7388 15.6025 14.7344C15.5627 14.7295 15.5204 14.7266 15.4756 14.7266L15.6016 14.7344ZM17.667 14.7344C17.7034 14.7388 17.7379 14.7451 17.7705 14.7529C17.7382 14.7451 17.704 14.7388 17.668 14.7344C17.6281 14.7295 17.5859 14.7266 17.541 14.7266L17.667 14.7344ZM19.7324 14.7344C19.7689 14.7388 19.8033 14.7451 19.8359 14.7529C19.8036 14.7451 19.7695 14.7388 19.7334 14.7344C19.6935 14.7295 19.6513 14.7266 19.6064 14.7266L19.7324 14.7344ZM16.0713 7.61328C18.8876 7.61351 21.3604 9.60734 21.9531 12.3574C22.0541 12.8264 21.9401 13.311 21.6396 13.6836C21.3428 14.0514 20.8998 14.2635 20.4277 14.2637H11.7148C11.2425 14.2637 10.7999 14.0515 10.5029 13.6836C10.2021 13.3109 10.0874 12.8257 10.1885 12.3564C10.782 9.60665 13.2551 7.61344 16.0713 7.61328ZM21.3545 13.4541C21.2989 13.523 21.2355 13.5838 21.168 13.6377C21.2011 13.6113 21.2343 13.5838 21.2646 13.5537C21.2961 13.5225 21.3263 13.4891 21.3545 13.4541ZM11.7148 13.3652H20.4277V13.3643H11.7148V13.3652ZM20.9404 13.1191C20.9247 13.1386 20.9082 13.1574 20.8906 13.1748C20.908 13.1576 20.9248 13.1395 20.9404 13.1201C20.9566 13.1001 20.9709 13.0791 20.9844 13.0576V13.0566C20.9708 13.0781 20.9565 13.0992 20.9404 13.1191ZM16.0713 8.87793C13.8485 8.87809 11.8938 10.4556 11.4258 12.624C11.4051 12.7203 11.4282 12.8163 11.4873 12.8896C11.5431 12.9587 11.6251 12.998 11.7148 12.998H20.4277C20.5173 12.9979 20.5996 12.9585 20.6553 12.8896C20.7138 12.8168 20.7375 12.7206 20.7168 12.624C20.2489 10.4556 18.2938 8.87816 16.0713 8.87793ZM21.0869 12.624C21.0895 12.6495 21.0901 12.6749 21.0898 12.7002C21.0896 12.7255 21.088 12.7505 21.085 12.7754H21.0859C21.092 12.7253 21.0922 12.6742 21.0869 12.623V12.624ZM3.44141 11.7803H8.48047V8.10254H3.44141V11.7803ZM17.7412 8.79688C17.7065 8.78476 17.6717 8.7731 17.6367 8.76172C17.6717 8.77308 17.7065 8.78478 17.7412 8.79688ZM17.29 8.66309C17.3447 8.67673 17.3991 8.69068 17.4531 8.70605C17.3991 8.69069 17.3447 8.67668 17.29 8.66309ZM17.125 8.62402C17.0828 8.61502 17.0405 8.60657 16.998 8.59863C17.0405 8.60661 17.0828 8.61498 17.125 8.62402ZM5.53418 3.74512C5.53402 4.13172 5.46605 4.43461 5.29883 4.6748C5.13433 4.91088 4.90526 5.03721 4.71484 5.13379C4.5614 5.2118 4.41894 5.28438 4.24707 5.44336C3.83958 5.82123 3.58064 6.30469 3.48633 6.83691H8.43262C8.33288 6.28767 8.05699 5.78111 7.63379 5.40527H7.63281C7.45507 5.24724 7.3071 5.16623 7.15332 5.08301C6.95298 4.97457 6.72003 4.83931 6.55566 4.5957C6.40342 4.36997 6.33908 4.09277 6.32812 3.74512H5.53418ZM4.04883 4.47168C4.03944 4.47735 4.03007 4.48331 4.02051 4.48926C4.07226 4.45711 4.12167 4.42937 4.16797 4.4043L4.04883 4.47168ZM6.72852 4.06641C6.72915 4.06935 6.72982 4.07228 6.73047 4.0752C6.71771 4.01801 6.70795 3.95548 6.70117 3.88672L6.72852 4.06641ZM4.61621 4.01953C4.61775 4.01128 4.62076 4.00301 4.62207 3.99414L4.62305 3.98242C4.62131 3.99551 4.61842 4.00773 4.61621 4.01953ZM4.23535 2.97266C4.2359 2.97432 4.23674 2.97588 4.2373 2.97754C4.2279 2.94972 4.21991 2.92116 4.21484 2.8916L4.23535 2.97266ZM5.10547 2.47461H6.81543V1.875H5.10547V2.47461Z" />
</svg>
