<svg width="26" height="24" viewBox="0 0 26 24" fill="none" xmlns="http://www.w3.org/2000/svg">
<path d="M18.9156 12.9875H17.8203C17.6177 12.9875 17.4564 13.1488 17.4564 13.3514C17.4564 13.5539 17.6177 13.7152 17.8203 13.7152H18.9156C19.1182 13.7152 19.2795 13.5539 19.2795 13.3514C19.2795 13.1488 19.1144 12.9875 18.9156 12.9875Z"  stroke="black" stroke-width="0.545455"/>
<path d="M19.8946 17.1701C19.2644 17.1701 18.7543 17.6802 18.7543 18.3104C18.7543 18.9406 19.2644 19.4508 19.8946 19.4508C20.5248 19.4508 21.035 18.9406 21.035 18.3104C21.035 17.6802 20.5248 17.1701 19.8946 17.1701ZM19.8946 18.7231C19.6658 18.7231 19.482 18.5393 19.482 18.3104C19.482 18.0816 19.6658 17.8978 19.8946 17.8978C20.1235 17.8978 20.3073 18.0816 20.3073 18.3104C20.3073 18.5355 20.1235 18.7231 19.8946 18.7231Z" 
 stroke="black" stroke-width="0.545455"/>
<path d="M6.10532 17.1701C5.47513 17.1701 4.96497 17.6802 4.96497 18.3104C4.96497 18.9406 5.47513 19.4508 6.10532 19.4508C6.73552 19.4508 7.24568 18.9406 7.24568 18.3104C7.24568 17.6802 6.73552 17.1701 6.10532 17.1701ZM6.10532 18.7231C5.8765 18.7231 5.69269 18.5393 5.69269 18.3104C5.69269 18.0816 5.8765 17.8978 6.10532 17.8978C6.33414 17.8978 6.51795 18.0816 6.51795 18.3104C6.51795 18.5355 6.33414 18.7231 6.10532 18.7231Z" 
 stroke="black" stroke-width="0.545455"/>
<path d="M17.9102 12.1847H22.2804C22.5654 12.1847 22.8243 12.0272 22.9518 11.7721C23.0793 11.517 23.0531 11.2132 22.8805 10.9844L20.9262 8.37355C20.7874 8.18599 20.5623 8.07346 20.326 8.07346H17.9102C17.4939 8.07346 17.1562 8.41106 17.1562 8.82369V11.4345C17.1562 11.8471 17.4939 12.1847 17.9102 12.1847ZM17.9102 8.80118L20.3447 8.80869L22.3029 11.4458C22.2954 11.457 22.2879 11.457 22.2804 11.457L17.884 11.4308L17.9102 8.80118Z" 
 stroke="black" stroke-width="0.545455"/>
<path d="M2.91685 18.6743H3.44201C3.62207 19.9872 4.74367 21.0038 6.10535 21.0038C7.46702 21.0038 8.59237 19.9872 8.76868 18.6743H17.2313C17.3176 19.3045 17.6177 19.8634 18.0603 20.276H15.352C15.1494 20.276 14.9881 20.4373 14.9881 20.6399C14.9881 20.8425 15.1494 21.0038 15.352 21.0038H19.8947C21.2563 21.0038 22.3817 19.9872 22.558 18.6743H23.8596C24.4898 18.6743 25 18.1641 25 17.5339V11.6671C25 11.4195 24.9175 11.1757 24.7712 10.9844L21.7965 7.01564C21.5827 6.73055 21.2413 6.55799 20.885 6.55799H16.3686V5.17756C16.3686 4.11973 15.5095 3.26071 14.4517 3.26071H2.91685C1.85902 3.26071 1 4.11973 1 5.17756V16.7574C1 17.8153 1.85902 18.6743 2.91685 18.6743ZM1.72773 16.7574V15.0169H15.6446V17.9428H8.77243C8.76868 17.909 8.76118 17.8753 8.75367 17.8415C8.74617 17.804 8.74242 17.7702 8.73492 17.7327C8.72366 17.684 8.70866 17.6352 8.69741 17.5827C8.6899 17.5489 8.67865 17.5152 8.67115 17.4852C8.65239 17.4326 8.63364 17.3801 8.61488 17.3276C8.60363 17.3013 8.59612 17.2751 8.58487 17.2488C8.55111 17.1738 8.51735 17.095 8.47609 17.0238C8.47233 17.02 8.46858 17.0125 8.46858 17.0088C8.43107 16.9412 8.38981 16.8737 8.34855 16.8099C8.33354 16.7874 8.31479 16.7612 8.29603 16.7387C8.26602 16.6937 8.23226 16.6524 8.1985 16.6111C8.17599 16.5849 8.15349 16.5586 8.13098 16.5361C8.09722 16.4986 8.06721 16.4611 8.03345 16.4273C8.00719 16.4011 7.98093 16.3786 7.95467 16.3523C7.92091 16.3185 7.88715 16.2885 7.84964 16.2585C7.82338 16.236 7.79337 16.2135 7.76336 16.191C7.72585 16.161 7.68834 16.1347 7.65083 16.1085C7.62082 16.086 7.59081 16.0672 7.5608 16.0485C7.51954 16.0222 7.48203 15.9997 7.44076 15.9772C7.41075 15.9584 7.37699 15.9397 7.34323 15.9247C7.30197 15.9022 7.25696 15.8834 7.21569 15.8646C7.18193 15.8496 7.14817 15.8346 7.11441 15.8196C7.0694 15.8009 7.02438 15.7859 6.97562 15.7709C6.94186 15.7596 6.9081 15.7484 6.87434 15.7371C6.82557 15.7221 6.7768 15.7109 6.72429 15.6996C6.69053 15.6921 6.65677 15.6846 6.62301 15.6771C6.56674 15.6658 6.51047 15.6583 6.4542 15.6508C6.42419 15.6471 6.39794 15.6433 6.36793 15.6396C6.28165 15.6321 6.19162 15.6246 6.10535 15.6246C6.01532 15.6246 5.92904 15.6283 5.84276 15.6396C5.81275 15.6433 5.7865 15.6471 5.75649 15.6508C5.70022 15.6583 5.6402 15.6658 5.58393 15.6771C5.55017 15.6846 5.51641 15.6921 5.4864 15.6996C5.43764 15.7109 5.38512 15.7221 5.33635 15.7371C5.30259 15.7484 5.26883 15.7596 5.23507 15.7709C5.19006 15.7859 5.14129 15.8046 5.09628 15.8234C5.06252 15.8384 5.02876 15.8534 4.99875 15.8684C4.95374 15.8872 4.91247 15.9097 4.86746 15.9322C4.8337 15.9472 4.80369 15.9659 4.77368 15.9847C4.73242 16.0072 4.69115 16.0335 4.64989 16.0597C4.61988 16.0785 4.58987 16.0972 4.55986 16.1197C4.52235 16.146 4.48109 16.176 4.44358 16.206C4.41732 16.2285 4.38731 16.251 4.36105 16.2735C4.32354 16.3035 4.28978 16.3373 4.25227 16.3711C4.22601 16.3936 4.2035 16.4161 4.17724 16.4423C4.13973 16.4798 4.10972 16.5174 4.07596 16.5549C4.05345 16.5774 4.0347 16.6036 4.01219 16.6261C3.97468 16.6712 3.94467 16.7162 3.91091 16.7612C3.89591 16.7837 3.8809 16.8024 3.8659 16.8249C3.77212 16.9637 3.69334 17.11 3.62582 17.2638C3.61457 17.2901 3.60706 17.3126 3.59581 17.3389C3.58081 17.3839 3.5583 17.4364 3.54329 17.4927C3.53204 17.5227 3.52454 17.5564 3.51704 17.5902C3.50203 17.639 3.49078 17.6877 3.47952 17.7402C3.47202 17.774 3.46452 17.8115 3.46077 17.849C3.45327 17.8828 3.44576 17.9165 3.44201 17.9503H2.91685C2.26039 17.9465 1.72773 17.4139 1.72773 16.7574ZM6.10535 20.2723C5.02126 20.2723 4.13973 19.3908 4.13973 18.3067C4.13973 17.2226 5.02126 16.3411 6.10535 16.3411C7.18943 16.3411 8.07096 17.2226 8.07096 18.3067C8.07096 19.3908 7.18943 20.2723 6.10535 20.2723ZM19.8947 20.2723C18.8106 20.2723 17.929 19.3908 17.929 18.3067C17.929 17.2226 18.8106 16.3411 19.8947 16.3411C20.9787 16.3411 21.8603 17.2226 21.8603 18.3067C21.8603 19.3908 20.9787 20.2723 19.8947 20.2723ZM16.3723 7.28572H20.885C21.0163 7.28572 21.1363 7.34574 21.2151 7.45077L24.1935 11.4233C24.246 11.4908 24.2723 11.5771 24.2723 11.6671V17.5339C24.2723 17.7627 24.0885 17.9466 23.8596 17.9466H22.5617C22.558 17.9128 22.5505 17.879 22.543 17.8453C22.5355 17.8078 22.5317 17.774 22.5242 17.7365C22.513 17.6877 22.498 17.639 22.4867 17.5864C22.4792 17.5527 22.468 17.5189 22.4605 17.4889C22.4417 17.4364 22.4229 17.3839 22.4042 17.3314C22.3929 17.3051 22.3854 17.2788 22.3742 17.2526C22.3404 17.1776 22.3067 17.0988 22.2654 17.0275C22.2616 17.0238 22.2579 17.0163 22.2579 17.0125C22.2204 16.945 22.1791 16.8775 22.1379 16.8137C22.1229 16.7912 22.1041 16.7649 22.0853 16.7424C22.0553 16.6974 22.0216 16.6561 21.9878 16.6149C21.9653 16.5886 21.9428 16.5624 21.9203 16.5399C21.8865 16.5023 21.8565 16.4648 21.8228 16.4311C21.7965 16.4048 21.7702 16.3823 21.744 16.3561C21.7102 16.3223 21.6765 16.2923 21.6389 16.2623C21.6127 16.2398 21.5827 16.2173 21.5527 16.1948C21.5152 16.1647 21.4776 16.1385 21.4401 16.1122C21.4101 16.0897 21.3801 16.071 21.3501 16.0522C21.3088 16.0259 21.2713 16.0034 21.2301 15.9809C21.2001 15.9622 21.1663 15.9434 21.1325 15.9284C21.0913 15.9059 21.0463 15.8872 21.005 15.8684C20.9712 15.8534 20.9375 15.8384 20.9037 15.8234C20.8587 15.8046 20.8137 15.7896 20.7649 15.7746C20.7312 15.7634 20.6974 15.7521 20.6636 15.7409C20.6149 15.7259 20.5661 15.7146 20.5136 15.7033C20.4798 15.6958 20.4461 15.6883 20.4123 15.6808C20.356 15.6696 20.2998 15.6621 20.2435 15.6546C20.2135 15.6508 20.1872 15.6471 20.1572 15.6433C20.071 15.6358 19.9809 15.6283 19.8947 15.6283C19.8084 15.6283 19.7183 15.6321 19.6321 15.6433C19.6021 15.6471 19.5758 15.6508 19.5458 15.6546C19.4895 15.6621 19.4333 15.6696 19.377 15.6808C19.3432 15.6883 19.3095 15.6958 19.2757 15.7033C19.2269 15.7146 19.1744 15.7259 19.1257 15.7409C19.0919 15.7521 19.0581 15.7634 19.0244 15.7746C18.9794 15.7896 18.9306 15.8084 18.8856 15.8234C18.8518 15.8384 18.8181 15.8534 18.7843 15.8684C18.7393 15.8872 18.698 15.9097 18.6568 15.9284C18.623 15.9472 18.593 15.9622 18.5592 15.9809C18.518 16.0034 18.4767 16.0297 18.4392 16.0522C18.4092 16.071 18.3792 16.0935 18.3492 16.1122C18.3117 16.1385 18.2741 16.1685 18.2366 16.1948C18.2066 16.2173 18.1804 16.2398 18.1504 16.2623C18.1128 16.2923 18.0791 16.326 18.0453 16.3561C18.0191 16.3823 17.9928 16.4048 17.9666 16.4311C17.9328 16.4648 17.899 16.5023 17.869 16.5399C17.8465 16.5661 17.824 16.5886 17.8015 16.6149C17.7677 16.6561 17.7377 16.7012 17.704 16.7424C17.6852 16.7649 17.6702 16.7874 17.6515 16.8137C17.6102 16.8775 17.5689 16.945 17.5314 17.0125C17.5277 17.0163 17.5239 17.0238 17.5239 17.0275C17.4827 17.0988 17.4489 17.1776 17.4151 17.2526C17.4039 17.2788 17.3964 17.3051 17.3851 17.3314C17.3664 17.3839 17.3439 17.4364 17.3289 17.4889C17.3176 17.5227 17.3101 17.5527 17.3026 17.5864C17.2876 17.6352 17.2763 17.684 17.2651 17.7365C17.2576 17.7702 17.2501 17.8078 17.2463 17.8453C17.2388 17.879 17.2313 17.9128 17.2276 17.9466H16.3723V7.28572ZM1.72773 5.17756C1.72773 4.52111 2.26039 3.98844 2.91685 3.98844H14.4555C15.1119 3.98844 15.6446 4.52111 15.6446 5.17756V14.2892H1.72773V5.17756Z" 
 stroke="black" stroke-width="0.327273"/>
<path d="M12.4485 21C12.6511 21 12.8124 20.8387 12.8124 20.6361C12.8124 20.4336 12.6511 20.2723 12.4485 20.2723H9.54514C9.34258 20.2723 9.18127 20.4336 9.18127 20.6361C9.18127 20.8387 9.34258 21 9.54514 21H12.4485Z" 
 stroke="black" stroke-width="0.545455"/>
<path d="M13.6227 11.2732H13.2138C12.8987 9.16504 11.1581 7.53328 9.04623 7.36448V6.68177C9.04623 6.4792 8.88493 6.3179 8.68236 6.3179C8.4798 6.3179 8.3185 6.4792 8.3185 6.68177V7.36448C6.20659 7.53328 4.46605 9.16504 4.15095 11.2732H3.74582C3.54326 11.2732 3.38196 11.4345 3.38196 11.6371C3.38196 11.8396 3.54326 12.0009 3.74582 12.0009H4.4773H12.8949H13.6264C13.829 12.0009 13.9903 11.8396 13.9903 11.6371C13.9865 11.4345 13.8252 11.2732 13.6227 11.2732ZM4.88618 11.2732C5.20503 9.42387 6.77677 8.07345 8.68612 8.07345C10.5617 8.07345 12.1597 9.45013 12.4823 11.2732H4.88618Z" 
 stroke="black" stroke-width="0.545455"/>
</svg>
