<svg xmlns="http://www.w3.org/2000/svg" width="24" height="24" viewBox="0 0 24 24">
  <path d="m19.222 8.139 2.135-2.094h-5.61a.728.728 0 0 1-.528-.232.812.812 0 0 1-.219-.558c0-.21.079-.41.219-.558a.728.728 0 0 1 .528-.231h5.61L19.222 2.37a.826.826 0 0 1-.041-1.121.75.75 0 0 1 .239-.18.714.714 0 0 1 .823.148l3.52 3.46a.792.792 0 0 1 .175.263.828.828 0 0 1-.175.891l-3.52 3.46a.724.724 0 0 1-.534.207.731.731 0 0 1-.517-.25.815.815 0 0 1-.201-.561.81.81 0 0 1 .231-.55Z"/>
  <path fill-rule="evenodd" d="M9 6.5a3.5 3.5 0 1 0 0 7 3.5 3.5 0 0 0 0-7ZM4 10a5 5 0 1 1 7.916 4.062 7.973 7.973 0 0 1 5.018 7.166.751.751 0 0 1-1.438.334.747.747 0 0 1-.061-.29 6.469 6.469 0 0 0-12.932 0 .75.75 0 0 1-1.499-.044 7.973 7.973 0 0 1 5.059-7.181A4.993 4.993 0 0 1 4 10Z" clip-rule="evenodd"/>
</svg>
