<svg xmlns="http://www.w3.org/2000/svg" width="24" height="24" viewBox="0 0 24 24">
  <path d="M7 6a1 1 0 1 1-2 0 1 1 0 0 1 2 0Z"/>
  <path fill-rule="evenodd" d="M2 3.75C2 2.784 2.784 2 3.75 2h4.5C9.216 2 10 2.784 10 3.75v4.5A1.75 1.75 0 0 1 8.25 10h-4.5A1.75 1.75 0 0 1 2 8.25v-4.5Zm1.75-.25a.25.25 0 0 0-.25.25v4.5c0 .138.112.25.25.25h4.5a.25.25 0 0 0 .25-.25v-4.5a.25.25 0 0 0-.25-.25h-4.5Z" clip-rule="evenodd"/>
  <path d="M2 12a.75.75 0 0 1 .75-.75h6.5a.75.75 0 0 1 0 1.5h-6.5A.75.75 0 0 1 2 12Zm10-5a.75.75 0 0 1 .75.75V11c0 .138.112.25.25.25h1.25a.75.75 0 0 1 0 1.5H13A1.75 1.75 0 0 1 11.25 11V7.75A.75.75 0 0 1 12 7Zm0 7.25a.75.75 0 0 0 0 1.5h2.25a.75.75 0 0 0 0-1.5H12Zm9.25-.25a.75.75 0 0 1 .75.75v5.5A1.75 1.75 0 0 1 20.25 22h-2.5a.75.75 0 0 1 0-1.5h2.5a.25.25 0 0 0 .25-.25v-5.5a.75.75 0 0 1 .75-.75Zm-8.5 5a.25.25 0 0 1 .25-.25h1.25a.75.75 0 0 0 0-1.5H13A1.75 1.75 0 0 0 11.25 19v2.25a.75.75 0 0 0 1.5 0V19ZM6 19a1 1 0 1 0 0-2 1 1 0 0 0 0 2Z"/>
  <path fill-rule="evenodd" d="M3.75 14A1.75 1.75 0 0 0 2 15.75v4.5c0 .966.784 1.75 1.75 1.75h4.5A1.75 1.75 0 0 0 10 20.25v-4.5A1.75 1.75 0 0 0 8.25 14h-4.5Zm-.25 1.75a.25.25 0 0 1 .25-.25h4.5a.25.25 0 0 1 .25.25v4.5a.25.25 0 0 1-.25.25h-4.5a.25.25 0 0 1-.25-.25v-4.5Z" clip-rule="evenodd"/>
  <path d="M18 7a1 1 0 1 0 0-2 1 1 0 0 0 0 2Z"/>
  <path fill-rule="evenodd" d="M14 3.75c0-.966.784-1.75 1.75-1.75h4.5c.966 0 1.75.784 1.75 1.75v4.5A1.75 1.75 0 0 1 20.25 10h-4.5A1.75 1.75 0 0 1 14 8.25v-4.5Zm1.75-.25a.25.25 0 0 0-.25.25v4.5c0 .138.112.25.25.25h4.5a.25.25 0 0 0 .25-.25v-4.5a.25.25 0 0 0-.25-.25h-4.5Z" clip-rule="evenodd"/>
  <path d="M19 12a1 1 0 1 1-2 0 1 1 0 0 1 2 0Zm-1 7a1 1 0 1 0 0-2 1 1 0 0 0 0 2Z"/>
</svg>
