<svg width="26" height="24" viewBox="0 0 26 24" fill="none" xmlns="http://www.w3.org/2000/svg">
<path d="M23.5497 10.1022H19.6891C19.7295 10.0315 19.7624 9.95821 19.7927 9.88241L21.4451 5.41036H21.9757C22.1829 5.41036 22.3496 5.2436 22.3496 5.03642V4.20518C22.3496 3.54069 21.8089 3 21.1444 3H4.86062C4.19613 3 3.65544 3.54069 3.65544 4.20518V5.03642C3.65544 5.2436 3.82219 5.41036 4.02937 5.41036H4.55995L6.21234 9.88241C6.24013 9.96073 6.2755 10.0315 6.31593 10.1022H2.45278C1.65186 10.1022 1 10.7541 1 11.555V12.6313C1 12.8385 1.16675 13.0053 1.37393 13.0053H2.13696L4.30477 18.872C4.57006 19.5921 5.23708 20.0569 6.00516 20.0569H19.9948C20.7629 20.0569 21.4299 19.5921 21.6952 18.872L23.863 13.0053H24.6261C24.8332 13.0053 25 12.836 25 12.6313V11.555C25.0025 10.7541 24.3507 10.1022 23.5497 10.1022ZM4.4033 4.20518C4.4033 3.95252 4.60796 3.74787 4.86062 3.74787H21.1444C21.3971 3.74787 21.6017 3.95252 21.6017 4.20518V4.66249H15.7653H10.2372H4.4033V4.20518ZM6.91473 9.62217L5.35835 5.41036H10.5505L10.9219 6.29971C11.0255 6.54479 11.2706 6.70144 11.5485 6.70144H14.454C14.732 6.70144 14.977 6.54227 15.0806 6.29971L15.452 5.41036H20.6442L19.0878 9.62217C18.9791 9.91778 18.7139 10.1022 18.398 10.1022H7.60196C7.28866 10.1022 7.02337 9.91778 6.91473 9.62217ZM20.9928 18.6117C20.8337 19.0413 20.4521 19.3066 19.9948 19.3066H6.00768C5.55037 19.3066 5.16886 19.0413 5.00968 18.6117L2.93789 13.0053H9.92641L10.4267 13.9123C10.5505 14.1372 10.8158 14.2761 11.1164 14.2761H14.8785C15.1817 14.2761 15.447 14.1372 15.5708 13.9123L16.0711 13.0053H23.0596L20.9928 18.6117ZM24.2521 12.2549H24.141H16.4879H9.51458H1.86156H1.75039V11.5525C1.75039 11.1659 2.06622 10.8501 2.45278 10.8501H7.60448H18.4006H23.5523C23.9388 10.8501 24.2547 11.1659 24.2547 11.5525V12.2549H24.2521Z" fill="black" stroke="black" stroke-width="0.326892"/>
</svg>
