<svg width="24" height="24" viewBox="0 0 24 24" fill="none" xmlns="http://www.w3.org/2000/svg">
  <path d="M17.064 5.417l2.245 2.501v-.001a.25.25 0 00.372 0l2.244-2.5A.25.25 0 0021.74 5h-4.49a.25.25 0 00-.186.417zM3.22 5.72a.75.75 0 01.53-.22h10a.75.75 0 110 1.5h-10a.75.75 0 01-.53-1.28zm5 6a.75.75 0 01.53-.22h11.5a.75.75 0 110 1.5H8.75a.75.75 0 01-.53-1.28zm0 6a.75.75 0 01.53-.22h11.5a.75.75 0 110 1.5H8.75a.75.75 0 01-.53-1.28zm-3.513-5.013a1 1 0 10-1.414-1.414 1 1 0 001.414 1.414zm0 6a1 1 0 11-1.414-1.414 1 1 0 011.414 1.414z" />
</svg>
