<svg xmlns="http://www.w3.org/2000/svg" width="24" height="24" viewBox="0 0 24 24">
  <path fill-rule="evenodd" d="M5.75 24a5.75 5.75 0 1 0 0-11.5 5.75 5.75 0 0 0 0 11.5Zm-.795-4.393-1.594-1.385a.81.81 0 0 0-.549-.231.815.815 0 0 0-.561.2.731.731 0 0 0-.25.518.724.724 0 0 0 .206.534l2.961 2.77a.791.791 0 0 0 .262.175.828.828 0 0 0 .892-.175l2.96-2.77a.712.712 0 0 0 .148-.823.75.75 0 0 0-.18-.239.83.83 0 0 0-.87-.132.789.789 0 0 0-.252.173l-1.594 1.385v-4.36a.728.728 0 0 0-.23-.528.812.812 0 0 0-.56-.219.81.81 0 0 0-.557.219.728.728 0 0 0-.232.528v4.36Z" clip-rule="evenodd"/>
  <path d="M12 1C5.925 1 1 5.925 1 12c0 .252.008.503.025.75a7.264 7.264 0 0 1 1.478-.984 9.5 9.5 0 1 1 16.59 6.554 11.938 11.938 0 0 0-6.443-2.303c.227.704.35 1.454.35 2.233 0 1.805-.66 3.456-1.75 4.725.247.016.498.025.75.025 6.075 0 11-4.925 11-11S18.075 1 12 1Z"/>
  <path d="M11.61 13.981a4 4 0 1 0-3.34-2.531 7.27 7.27 0 0 1 3.34 2.531Z"/>
</svg>
