<svg width="24" height="24" viewBox="0 0 24 24" fill="none" xmlns="http://www.w3.org/2000/svg">
<path d="M3.68371 20.6669H13.1227C13.1043 20.575 13.0951 20.4923 13.0859 20.3912L12.9756 19.1964H3.72967C2.91169 19.1964 2.47972 18.7553 2.47972 17.9281V8.96706C2.47972 8.64538 2.48891 8.51671 2.62677 8.34209L4.31788 6.10872C4.44655 5.92491 4.50169 5.77785 4.50169 5.53889V4.02241C4.50169 3.54449 4.72227 3.30553 5.15424 3.30553H12.3506C12.7918 3.30553 13.0124 3.54449 13.0124 4.02241V5.53889C13.0124 5.77785 13.0675 5.92491 13.1962 6.10872L14.8597 8.30532C14.9884 8.44318 15.0252 8.53509 15.0435 8.75567H16.5049C16.4865 8.2318 16.413 7.98364 16.1464 7.63439L14.4737 5.41941V3.82021C14.4737 2.54269 13.7384 1.84419 12.3966 1.84419H5.11748C3.77562 1.84419 3.03117 2.54269 3.03117 3.82021V5.41941L1.36763 7.63439C1.08272 8.02041 1 8.28694 1 8.91191V18.02C1 19.7754 1.90989 20.6669 3.68371 20.6669ZM6.42257 5.77785H11.0731C11.3764 5.77785 11.6429 5.51132 11.6429 5.19883C11.6429 4.88635 11.3764 4.61981 11.0731 4.61981H6.42257C6.11008 4.61981 5.85274 4.88635 5.85274 5.19883C5.85274 5.51132 6.11008 5.77785 6.42257 5.77785ZM16.1832 22.1559H20.1904C21.3668 22.1559 21.9642 21.5585 22.0929 20.2717L22.9936 10.8512C23.0487 10.3181 22.7454 9.96886 22.2215 9.96886H18.8945L18.9221 9.59203C18.9496 9.16926 19.0783 8.92111 19.3908 8.69134L22.2951 6.60502C22.9844 6.11791 22.2583 5.07016 21.523 5.60323L18.7199 7.6252C18.0397 8.11232 17.7456 8.65457 17.6721 9.51851L17.6353 9.96886H14.1428C13.6373 9.96886 13.334 10.3273 13.38 10.8512L14.2899 20.2717C14.4186 21.5585 14.9976 22.1559 16.1832 22.1559ZM16.2475 20.7313C15.9075 20.7313 15.742 20.575 15.7053 20.2074L14.8689 11.4026H21.5139L20.6775 20.2074C20.6407 20.575 20.4753 20.7313 20.1352 20.7313H16.2475Z" />
</svg>
