<svg width="24" height="24" viewBox="0 0 24 24" fill="none" xmlns="http://www.w3.org/2000/svg">
  <path fill-rule="evenodd" clip-rule="evenodd" d="M10.729 1a7.32 7.32 0 017.249 8.275 7.869 7.869 0 012.522 5.797c0 4.372-3.556 7.928-7.928 7.928H8.855A4.86 4.86 0 014 18.145V5.855A4.86 4.86 0 018.855 1h1.874zm0 2.337H8.855a2.521 2.521 0 00-2.518 2.518v12.29a2.521 2.521 0 002.518 2.518h3.717a5.597 5.597 0 005.591-5.59c0-1.18-.364-2.301-1.028-3.234a7.33 7.33 0 01-2.162 2.428l-.017.012a7.492 7.492 0 01-.308.208l-.054.033a3.956 3.956 0 01-5.955-3.417 3.966 3.966 0 013.94-3.958c.067 0 .178.004.209.005a7.886 7.886 0 012.889.626 4.984 4.984 0 00-4.948-4.44zm1.853 6.145a1.623 1.623 0 00-1.607 1.62 1.623 1.623 0 002.423 1.41c.067-.042.137-.09.206-.139l.015-.01a4.981 4.981 0 001.711-2.154 5.543 5.543 0 00-2.608-.723h-.012a2.337 2.337 0 00-.128-.004z" />
</svg>
