<svg width="24" height="24" viewBox="0 0 24 24" fill="none" xmlns="http://www.w3.org/2000/svg">
  <path fill-rule="evenodd" clip-rule="evenodd" d="M17.577 4.589c-1.812 1.31-3.86 3.25-5.574 4.944l-.092.092 2.689 2.688.098-.097c1.71-1.69 3.657-3.731 4.962-5.543.658-.912 1.115-1.715 1.318-2.353.207-.652.091-.916-.033-1.04-.114-.114-.366-.23-1.019-.018-.635.207-1.437.668-2.349 1.327zm-4.083 8.74l-2.605-2.604c-.754.879-1.293 1.684-1.655 2.377a4.836 4.836 0 011.89 1.893c.69-.36 1.483-.904 2.37-1.665zm-1.855 3.087a4.825 4.825 0 01-1.328 4.33c-.526.524-1.303.88-2.08 1.13-.795.256-1.681.43-2.506.54a19.05 19.05 0 01-2.217.173c-.3.004-.567-.002-.778-.021a2.49 2.49 0 01-.31-.044 1.209 1.209 0 01-.179-.054.857.857 0 01-.296-.19.857.857 0 01-.19-.296 1.205 1.205 0 01-.053-.179 2.485 2.485 0 01-.045-.31 8.009 8.009 0 01-.02-.778c.007-.604.06-1.39.172-2.216.111-.826.284-1.712.54-2.507.25-.777.606-1.554 1.131-2.08a4.825 4.825 0 014.333-1.326c.6-1.21 1.618-2.623 3.135-4.122 1.714-1.693 3.835-3.709 5.75-5.093.953-.688 1.905-1.258 2.764-1.538.843-.274 1.827-.333 2.544.385.72.719.672 1.703.402 2.554-.276.866-.843 1.822-1.53 2.776-1.385 1.92-3.408 4.036-5.125 5.733-1.518 1.5-2.897 2.531-4.114 3.133zm-2.389-1.44a3.33 3.33 0 00-4.71 0c-.27.27-.536.774-.763 1.477-.22.684-.378 1.478-.482 2.248a17.559 17.559 0 00-.159 2.036c-.002.131-.001.249.001.35.103.003.22.004.351.002a17.492 17.492 0 002.036-.159c.77-.104 1.564-.262 2.248-.482.704-.226 1.207-.492 1.478-.764a3.33 3.33 0 000-4.709z" />
</svg>
