<svg width="24" height="24" viewBox="0 0 24 24" fill="none" xmlns="http://www.w3.org/2000/svg">
  <path d="M17.326 15.779c-.054-.219-.118-.689-.118-1.3l.03-1.43-.002-6.042a.718.718 0 00-.225-.537.823.823 0 00-.546-.233c-.257 0-.471.118-.642.353l-3.85 5.763-3.806-5.762a.821.821 0 00-.297-.256.813.813 0 00-.378-.097.745.745 0 00-.562.234.743.743 0 00-.225.537l.003 9.711c0 .224.066.41.2.554a.676.676 0 00.521.217.7.7 0 00.538-.217.785.785 0 00.2-.554l-.002-7.577 3.132 4.863a.974.974 0 00.28.24c.113.064.223.09.33.08a.585.585 0 00.344-.08.973.973 0 00.281-.24l3.11-4.718.002 3.76-.013 1.454c0 .792.128 1.62.332 2.026.204.406.494.698.816.88.14.086.31.129.515.129a.854.854 0 00.52-.161c.145-.107.217-.273.217-.498a.684.684 0 00-.095-.345.872.872 0 00-.256-.281.69.69 0 01-.354-.473z" />
  <path fill-rule="evenodd" clip-rule="evenodd" d="M0 12c0 6.618 5.384 12 12 12s12-5.382 12-12S18.618 0 12 0 0 5.382 0 12zm1.42 0C1.42 6.166 6.166 1.42 12 1.42S22.58 6.165 22.58 12 17.834 22.58 12 22.58 1.42 17.834 1.42 12z" />
</svg>
