<svg width="24" height="24" viewBox="0 0 24 24" fill="none" xmlns="http://www.w3.org/2000/svg">
  <path fill-rule="evenodd" clip-rule="evenodd" d="M5.75 3a1.75 1.75 0 100 3.5 1.75 1.75 0 000-3.5zM2.5 4.75a3.25 3.25 0 113.995 3.164A.758.758 0 016.5 8v4.507A6.737 6.737 0 0111.75 10h3.337a3.251 3.251 0 110 1.5H11.75a5.25 5.25 0 00-5.21 4.597 3.251 3.251 0 01-.79 6.403 3.25 3.25 0 01-.745-6.414A.757.757 0 015 16V8a.81.81 0 01.005-.086A3.251 3.251 0 012.5 4.75zM5.75 17.5a1.75 1.75 0 100 3.5 1.75 1.75 0 000-3.5zm10.75-6.75a1.75 1.75 0 113.5 0 1.75 1.75 0 01-3.5 0z" />
</svg>
