<svg xmlns="http://www.w3.org/2000/svg" width="24" height="24" viewBox="0 0 24 24">
  <path fill-rule="evenodd" d="M3.324 12h.852c.258 0 .494 0 .692.016.213.018.446.057.676.175.33.168.597.435.765.765.106.207.149.416.169.61a133.81 133.81 0 0 1 1.685-.409c.68-.16 1.395-.321 2.005-.443.58-.116 1.145-.214 1.475-.214.46 0 .916.055 1.362.163l2.386.58c1.025.249 1.767 1.154 1.767 2.216v.307c0 .033 0 .067-.002.1l2.144-1.422a2.36 2.36 0 0 1 3.01.221c.92.894.92 2.352 0 3.245l-2.157 2.098c-.728.709-1.881 1.136-2.757 1.306l-3.05.594a5.026 5.026 0 0 1-2.147-.05l-2.759-.671a8.641 8.641 0 0 0-.725-.12 7.2 7.2 0 0 0-.715-.07H6.499a5.5 5.5 0 0 1-.015.37 1.774 1.774 0 0 1-.175.677 1.75 1.75 0 0 1-.765.764c-.23.118-.463.158-.676.175C4.67 23 4.434 23 4.176 23h-.852c-.258 0-.494 0-.692-.016a1.775 1.775 0 0 1-.676-.175 1.75 1.75 0 0 1-.765-.764 1.774 1.774 0 0 1-.175-.677C1 21.17 1 20.934 1 20.676v-6.352c0-.258 0-.494.016-.692a1.77 1.77 0 0 1 .175-.676 1.75 1.75 0 0 1 .765-.765 1.77 1.77 0 0 1 .676-.175C2.83 12 3.066 12 3.324 12ZM6.5 19.498H8c.225 0 .593.04.912.081.323.043.677.1.885.151l2.757.67c.493.12 1.007.132 1.506.035l3.05-.593c.735-.143 1.564-.488 1.997-.91l2.158-2.098a.754.754 0 0 0 0-1.093.86.86 0 0 0-1.123-.056l-2.752 1.826a2.867 2.867 0 0 1-1.676.539h-.016L13.27 18a.75.75 0 0 1 .03-1.5l1.809.037c.216-.013.322-.093.39-.182.086-.111.159-.308.159-.59v-.306a.792.792 0 0 0-.62-.758l-2.386-.58A4.285 4.285 0 0 0 11.643 14c-.152 0-.564.061-1.18.185-.586.117-1.283.274-1.956.432-.672.159-1.315.317-1.79.436l-.217.055v4.39ZM2.63 13.53h.002Zm.003-.001a.638.638 0 0 1 .121-.018c.13-.01.304-.01.596-.01h.8c.292 0 .467 0 .596.01a.638.638 0 0 1 .12.018.25.25 0 0 1 .105.105.626.626 0 0 1 .018.12c.01.13.011.304.011.596v6.3c0 .293 0 .467-.011.596a.626.626 0 0 1-.018.12.25.25 0 0 1-.104.105.638.638 0 0 1-.121.018c-.13.01-.304.011-.596.011h-.8c-.292 0-.467 0-.596-.011a.638.638 0 0 1-.12-.018.25.25 0 0 1-.105-.104.625.625 0 0 1-.018-.121 8.336 8.336 0 0 1-.011-.596v-6.3c0-.292 0-.466.011-.596a.625.625 0 0 1 .018-.12.25.25 0 0 1 .104-.105Zm-.103.102v.002Zm0 7.738v-.001Zm.1.101h.002Zm2.24 0h-.002Zm.1-.1v-.002Zm0-7.739v.002Zm-.102-.102h.001ZM8.5 5.25a4.25 4.25 0 0 1 7.416-2.835 4.25 4.25 0 1 1-1.332 6.67A4.25 4.25 0 0 1 8.5 5.25Zm5.29 2.547a4.238 4.238 0 0 1-.29-1.547c0-1.145.453-2.185 1.19-2.95a2.75 2.75 0 1 0-.9 4.496ZM17.75 3.5a2.75 2.75 0 1 0 0 5.5 2.75 2.75 0 0 0 0-5.5Z" clip-rule="evenodd"/>
</svg>
