<svg width="24" height="24" viewBox="0 0 24 24" fill="none" xmlns="http://www.w3.org/2000/svg">
  <path fill-rule="evenodd" clip-rule="evenodd" d="M11.47 1.22a.75.75 0 011.06 0l3.25 3.25a.75.75 0 01-1.06 1.06l-1.97-1.97v4.69a.75.75 0 01-1.5 0V3.56L9.28 5.53a.75.75 0 01-1.06-1.06l3.25-3.25zM2.75 12a.75.75 0 01.75-.75h1a.75.75 0 010 1.5h-1a.75.75 0 01-.75-.75zm8.75-.75a.75.75 0 000 1.5h1a.75.75 0 100-1.5h-1zm-.25 4.5v4.69l-1.97-1.97a.75.75 0 00-1.06 1.06l3.25 3.25a.75.75 0 001.06 0l3.25-3.25a.75.75 0 10-1.06-1.06l-1.97 1.97v-4.69a.75.75 0 00-1.5 0zm4.25-4.5a.75.75 0 000 1.5h1a.75.75 0 000-1.5h-1zM6.75 12a.75.75 0 01.75-.75h1a.75.75 0 010 1.5h-1a.75.75 0 01-.75-.75zm12.75-.75a.75.75 0 000 1.5h1a.75.75 0 000-1.5h-1z" />
</svg>
