<svg width="24" height="24" viewBox="0 0 24 24" fill="none" xmlns="http://www.w3.org/2000/svg">
<path d="M15.9293 11.4789C16.0565 11.4635 16.1786 11.4632 16.2905 11.4789C16.3553 11.33 16.3665 11.0737 16.3083 10.7948C16.2214 10.3799 16.1043 10.1289 15.862 10.1679C15.6197 10.207 15.6106 10.5075 15.6974 10.9224C15.7462 11.1557 15.8327 11.3555 15.9293 11.4789Z" fill="black"/>
<path d="M13.8481 11.8076C14.0217 11.8836 14.1281 11.9341 14.1699 11.8902C14.1968 11.8626 14.1887 11.8103 14.1473 11.7427C14.0618 11.6029 13.8854 11.4613 13.6989 11.3815C13.3167 11.2169 12.861 11.2717 12.5096 11.5244C12.3935 11.6095 12.2837 11.7274 12.2994 11.7988C12.3046 11.8219 12.3217 11.8393 12.3625 11.8452C12.458 11.856 12.7924 11.6873 13.1776 11.6636C13.4496 11.6468 13.6748 11.7315 13.8481 11.8076Z" fill="black"/>
<path d="M13.4991 12.0067C13.2732 12.0422 13.1487 12.1168 13.0686 12.1862C13.0002 12.2458 12.958 12.3117 12.9584 12.3581L12.9758 12.3993L13.0131 12.4135C13.064 12.4135 13.1784 12.3679 13.1784 12.3679C13.4929 12.2553 13.7003 12.2689 13.9057 12.2922C14.0194 12.3051 14.073 12.3121 14.0978 12.273C14.1051 12.2619 14.1142 12.2378 14.0915 12.2009C14.0385 12.1151 13.8105 11.9701 13.4995 12.007L13.4991 12.0067Z" fill="black"/>
<path d="M15.2266 12.7377C15.38 12.813 15.5488 12.7834 15.6039 12.6714C15.6589 12.5595 15.5791 12.4078 15.4257 12.3325C15.2723 12.2572 15.1035 12.2869 15.0484 12.3988C14.9933 12.5107 15.0732 12.6624 15.2266 12.7377Z" fill="black"/>
<path d="M16.2127 11.876C16.0882 11.8739 15.9847 12.0106 15.9819 12.1818C15.9791 12.3526 16.0778 12.4928 16.2022 12.4949C16.3267 12.497 16.4302 12.3603 16.433 12.1894C16.4358 12.0186 16.3372 11.8784 16.2127 11.876Z" fill="black"/>
<path d="M7.84264 14.9573C7.81161 14.9186 7.76071 14.9304 7.71155 14.9416C7.67703 14.9496 7.63798 14.9586 7.59544 14.958C7.50375 14.9562 7.42599 14.9172 7.38241 14.8502C7.32558 14.7631 7.32907 14.633 7.39148 14.4841L7.42076 14.4175C7.52083 14.1933 7.68784 13.8178 7.50026 13.4605C7.35905 13.1913 7.12824 13.0236 6.85105 12.9884C6.58502 12.9545 6.31098 13.0532 6.1363 13.246C5.86051 13.5501 5.81762 13.9639 5.87097 14.1104C5.89049 14.1641 5.92117 14.1787 5.94314 14.1818C5.99021 14.1881 6.05924 14.1539 6.10283 14.0371L6.11538 13.9991C6.1349 13.9374 6.17082 13.8224 6.22974 13.73C6.30087 13.6187 6.41174 13.542 6.54214 13.5141C6.67463 13.4859 6.81026 13.511 6.92357 13.5853C7.11673 13.7118 7.191 13.9482 7.10871 14.1742C7.06618 14.291 6.99679 14.5141 7.01213 14.6975C7.04317 15.0688 7.27154 15.2181 7.47655 15.2337C7.67598 15.2414 7.81545 15.1291 7.85066 15.0472C7.87158 14.9987 7.8538 14.9695 7.84264 14.9566V14.9573Z" fill="black"/>
<path d="M19.3574 14.2781C19.3497 14.2512 19.3002 14.0703 19.2322 13.8523L19.0938 13.481C19.3665 13.0727 19.3714 12.7077 19.3351 12.5009C19.2964 12.2447 19.1897 12.0261 18.9746 11.8005C18.7595 11.5745 18.3198 11.3434 17.7016 11.1701L17.3774 11.0801C17.3756 11.0669 17.3603 10.3155 17.3463 9.99302C17.3362 9.75977 17.316 9.39612 17.203 9.03735C17.0685 8.55201 16.8342 8.12769 16.5413 7.85608C17.3491 7.01895 17.8533 6.09639 17.8519 5.30528C17.8495 3.78373 15.981 3.32315 13.6781 4.27673L13.1903 4.48384C13.1882 4.48175 12.3082 3.61846 12.2949 3.60696C9.66953 1.31695 1.46032 10.4414 4.08503 12.6575L4.65858 13.1435C4.5097 13.5288 4.45148 13.9705 4.49924 14.4454C4.56061 15.0552 4.8751 15.6399 5.38519 16.0918C5.86913 16.5206 6.50579 16.7923 7.12326 16.7916C8.14449 19.1454 10.4781 20.5892 13.2144 20.6704C16.1494 20.7576 18.6134 19.3804 19.6458 16.9063C19.7134 16.7326 20 15.9502 20 15.2595C20 14.5654 19.6078 14.2777 19.3578 14.2777L19.3574 14.2781ZM7.34885 16.1305C7.25959 16.1458 7.16859 16.1518 7.07689 16.1497C6.19025 16.126 5.23282 15.3279 5.13764 14.3813C5.03235 13.3353 5.56684 12.5299 6.51346 12.3392C6.62642 12.3165 6.76345 12.3033 6.91093 12.3109C7.44124 12.3399 8.22259 12.7471 8.4011 13.9022C8.55905 14.9252 8.30801 15.967 7.34885 16.1305ZM6.359 11.7133C5.76976 11.828 5.25061 12.1617 4.93298 12.623C4.74331 12.4647 4.38941 12.1582 4.327 12.039C3.82005 11.0763 4.88033 9.2047 5.62088 8.14791C7.45135 5.53575 10.318 3.55884 11.6454 3.91726C11.8612 3.97828 12.5756 4.8067 12.5756 4.8067C12.5756 4.8067 11.249 5.54272 10.0189 6.56883C8.36136 7.84527 7.10897 9.70015 6.359 11.7133ZM15.6641 15.7393C15.6832 15.7313 15.6965 15.709 15.6944 15.6874C15.6916 15.6605 15.6675 15.641 15.6407 15.6438C15.6407 15.6438 14.252 15.8495 12.94 15.369C13.0829 14.9046 13.463 15.0723 14.0372 15.1187C15.0724 15.1804 16.0002 15.0291 16.6856 14.8324C17.2797 14.6619 18.0601 14.3258 18.6664 13.8475C18.8707 14.2965 18.9429 14.7906 18.9429 14.7906C18.9429 14.7906 19.1012 14.7624 19.2333 14.8436C19.3581 14.9206 19.4498 15.0803 19.3874 15.4938C19.2598 16.2661 18.9317 16.8927 18.3801 17.4694C18.0444 17.8309 17.6368 18.1451 17.1703 18.3734C16.9227 18.5035 16.6588 18.6161 16.3802 18.7071C14.3008 19.3863 12.1719 18.6395 11.4857 17.036C11.431 16.9153 11.3846 16.7891 11.348 16.6573C11.0555 15.6005 11.3037 14.3328 12.0798 13.5347C12.1276 13.4838 12.1764 13.4238 12.1764 13.3485C12.1764 13.2854 12.1363 13.2192 12.1018 13.1721C11.8302 12.7785 10.8898 12.1073 11.0788 10.8085C11.2144 9.87553 12.0303 9.21865 12.7911 9.2577L12.9839 9.26886C13.3134 9.28838 13.601 9.33057 13.8726 9.34208C14.3269 9.3616 14.7352 9.2957 15.2188 8.89265C15.382 8.75667 15.5127 8.63883 15.7341 8.60117C15.7575 8.59734 15.8154 8.57642 15.9308 8.582C16.049 8.58827 16.1612 8.6207 16.2624 8.68799C16.6501 8.946 16.7052 9.57115 16.7254 10.0282C16.7369 10.2894 16.7683 10.9208 16.7791 11.1018C16.8038 11.5163 16.9126 11.5746 17.133 11.6474C17.2571 11.6882 17.3721 11.7185 17.5416 11.7663C18.0548 11.9103 18.3592 12.0567 18.5513 12.2443C18.6657 12.3618 18.719 12.4863 18.7354 12.6055C18.7961 13.0473 18.3927 13.5926 17.3247 14.0884C16.1574 14.6302 14.7415 14.7672 13.7632 14.6585L13.4204 14.6198C12.6377 14.5145 12.1914 15.5259 12.661 16.2187C12.9637 16.6653 13.7883 16.9558 14.6132 16.9561C16.5047 16.9565 17.9586 16.1486 18.4994 15.451L18.5426 15.3892C18.5691 15.3491 18.5471 15.3272 18.514 15.3498C18.0723 15.6521 16.1096 16.8526 14.0104 16.4914C14.0104 16.4914 13.7551 16.4495 13.5226 16.3589C13.3374 16.287 12.9504 16.1089 12.9034 15.7114C14.5975 16.2354 15.6641 15.74 15.6641 15.74V15.7393ZM12.9804 15.4224L12.9808 15.4227L12.9811 15.4234L12.9804 15.4224ZM9.73961 8.13676C10.3902 7.38469 11.1914 6.73096 11.909 6.36382C11.9337 6.35126 11.9602 6.37811 11.9466 6.40252C11.8898 6.50572 11.78 6.72677 11.7451 6.89413C11.7395 6.92028 11.7681 6.9398 11.7901 6.92481C12.2364 6.62043 13.0132 6.29443 13.6945 6.25259C13.7238 6.25085 13.7377 6.28816 13.7147 6.30629C13.6111 6.38578 13.4978 6.49561 13.4152 6.60683C13.4012 6.62566 13.4145 6.65286 13.4379 6.6532C13.9162 6.65669 14.5905 6.82405 15.0298 7.07055C15.0595 7.08729 15.0386 7.14482 15.0051 7.13714C14.3402 6.98478 13.2517 6.86902 12.121 7.14482C11.1116 7.39097 10.3411 7.77101 9.77901 8.17999C9.75077 8.20056 9.7166 8.1636 9.73961 8.13676Z" fill="black"/>
</svg>
