<svg xmlns="http://www.w3.org/2000/svg" xmlns:xlink="http://www.w3.org/1999/xlink" width="24" height="24" fill="none" viewBox="0 0 24 24">
  <g clip-path="url(#a)">
    <mask id="b" width="20" height="14" x="2" y="5" maskUnits="userSpaceOnUse" style="mask-type:luminance">
      <path fill="#fff" d="M16.355 5.355c-1.64 0-2.92 1.235-4.08 2.805-1.595-2.03-2.93-2.805-4.525-2.805C4.495 5.355 2 9.59 2 14.07c0 2.805 1.355 4.575 3.63 4.575 1.635 0 2.81-.77 4.905-4.425l1.47-2.6c.21.34.43.705.665 1.095l.98 1.65c1.91 3.195 2.975 4.28 4.905 4.28C20.77 18.645 22 16.85 22 13.99c0-4.695-2.55-8.635-5.645-8.635ZM8.94 13.23c-1.695 2.66-2.28 3.255-3.225 3.255-.97 0-1.55-.855-1.55-2.375 0-3.255 1.62-6.58 3.555-6.58 1.045 0 1.925.605 3.265 2.525C9.71 12.005 8.94 13.23 8.94 13.23Zm6.4-.335-1.175-1.955a36.18 36.18 0 0 0-.915-1.425c1.055-1.63 1.93-2.445 2.965-2.445 2.155 0 3.875 3.17 3.875 7.065 0 1.485-.485 2.345-1.495 2.345-.96 0-1.425-.635-3.255-3.585Z"/>
    </mask>
    <g mask="url(#b)">
      <mask id="c" width="22" height="14" x="1" y="5" maskUnits="userSpaceOnUse" style="mask-type:luminance">
        <path fill="#fff" d="M22.07 5.29H1.935v13.425H22.07V5.29Z"/>
      </mask>
      <g mask="url(#c)">
        <mask id="d" width="22" height="14" x="1" y="5" maskUnits="userSpaceOnUse" style="mask-type:luminance">
          <path fill="#fff" d="M22.07 5.29H1.935v13.425H22.07V5.29Z"/>
        </mask>
        <g mask="url(#d)">
          <path fill="url(#e)" d="M1.928 5.286h20.205v13.472H1.928z"/>
        </g>
      </g>
    </g>
    <path fill="url(#f)" d="M14.165 10.94c-2.54-4.135-4.235-5.585-6.42-5.585l-.025 2.17c1.43 0 2.54 1.125 4.95 5.19l.145.245 1.35-2.02Z"/>
  </g>
  <defs>
    <linearGradient id="f" x1="13.503" x2="7.969" y1="12.438" y2="5.186" gradientUnits="userSpaceOnUse">
      <stop offset=".134" stop-color="#0869E1"/>
      <stop offset=".873" stop-color="#0064E0"/>
    </linearGradient>
    <clipPath id="a">
      <path fill="#fff" d="M0 0h24v24H0z"/>
    </clipPath>
    <pattern id="e" width="1" height="1" patternContentUnits="objectBoundingBox">
      <use xlink:href="#g" transform="scale(.00032 .00048)"/>
    </pattern>
  </defs>
</svg>
