<svg xmlns="http://www.w3.org/2000/svg" width="24" height="24" viewBox="0 0 24 24">
    <g id="ic-24-stripe-circle__ic24__stripe-circle">
        <path id="ic-24-stripe-circle__circle"
            d="M12 23c6.075 0 11-4.925 11-11S18.075 1 12 1 1 5.925 1 12s4.925 11 11 11Z" />
        <path id="ic-24-stripe-circle__stroke" fill="#fff"
            d="M11.182 9.573c0-.513.401-.715 1.068-.715.958 0 2.167.306 3.125.846V6.605A7.954 7.954 0 0 0 12.255 6C9.698 6 8 7.396 8 9.73c0 3.64 4.787 3.06 4.787 4.632 0 .605-.506.802-1.209.802-1.047 0-2.38-.448-3.437-1.053v3.136a8.369 8.369 0 0 0 3.437.753C14.198 18 16 16.642 16 14.28c-.02-3.927-4.818-3.23-4.818-4.707Z" />
    </g>
</svg>