<svg width="24" height="24" viewBox="0 0 24 24" fill="none" xmlns="http://www.w3.org/2000/svg">
  <path fill-rule="evenodd" clip-rule="evenodd" d="M.545 2.73C0 3.8 0 5.2 0 8v8c0 2.8 0 4.2.545 5.27a5 5 0 002.185 2.185C3.8 24 5.2 24 8 24h8c2.8 0 4.2 0 5.27-.545a5 5 0 002.185-2.185C24 20.2 24 18.8 24 16V8c0-2.8 0-4.2-.545-5.27A5 5 0 0021.27.545C20.2 0 18.8 0 16 0H8C5.2 0 3.8 0 2.73.545A5 5 0 00.545 2.73zm15.917 6.59A5.325 5.325 0 0011.144 4H9.78a3.535 3.535 0 00-3.53 3.531v8.938A3.535 3.535 0 009.781 20h2.703a5.772 5.772 0 005.766-5.765 5.723 5.723 0 00-1.834-4.217 5.28 5.28 0 00.046-.7zM9.781 5.7h1.363a3.625 3.625 0 013.598 3.23 5.735 5.735 0 00-2.1-.456h-.006c-.028-.001-.101-.004-.146-.004a2.884 2.884 0 00-2.866 2.879 2.876 2.876 0 004.33 2.485l.04-.024c.074-.048.15-.099.224-.151l.012-.01a5.329 5.329 0 001.573-1.765 4.07 4.07 0 01-3.319 6.418H9.781a1.834 1.834 0 01-1.832-1.832V7.531c0-1.01.822-1.832 1.832-1.832zm1.542 5.649a1.18 1.18 0 011.261-1.177h.01c.674.018 1.32.198 1.896.526a3.624 3.624 0 01-1.245 1.567l-.01.008a1.176 1.176 0 01-.732.255c-.65 0-1.18-.53-1.18-1.18z" />
</svg>
