<svg width="24" height="24" viewBox="0 0 24 24" fill="none" xmlns="http://www.w3.org/2000/svg">
<path d="M18 0.5C18.9847 0.500005 19.8198 1.18851 20.082 1.64941C20.3693 2.15451 20.4999 2.41785 20.5 2.99707V16.9814C20.5 17.5608 20.3689 17.8257 20.0811 18.3311C19.8181 18.7924 18.9839 19.4795 18 19.4795H14.5254V22.9756C14.5252 23.265 14.2898 23.5 14 23.5H10C9.71018 23.5 9.47482 23.265 9.47461 22.9756V19.4795H6C5.01613 19.4795 4.18197 18.7927 3.91895 18.3311C3.63107 17.8255 3.50006 17.561 3.5 16.9814V2.99707C3.50009 2.4177 3.63119 2.15383 3.91895 1.64844C4.1819 1.18677 5.01605 0.5 6 0.5H18ZM10.5254 22.4502H13.4746V19.5049H10.5254V22.4502ZM6 1.99805C5.58081 1.99805 5.00022 2.26098 5 2.99707V16.9814C5.00013 17.7177 5.58078 17.9805 6 17.9805H18C18.4193 17.9805 18.9999 17.7166 19 16.9814V2.99707C18.9998 2.26098 18.4185 1.99806 18 1.99805H6Z" />
</svg>
