<svg xmlns="http://www.w3.org/2000/svg" width="24" height="24" fill="none" viewBox="0 0 24 24">
  <g clip-path="url(#ic-24-uber-icon__a)">
    <mask id="ic-24-uber-icon__b" width="24" height="24" x="0" y="0" maskUnits="userSpaceOnUse" style="mask-type:luminance">
      <path fill="#fff" d="M24 0H0v24h24V0Z"/>
    </mask>
    <g mask="url(#ic-24-uber-icon__b)">
      <g filter="url(#ic-24-uber-icon__c)">
        <path fill="#fff" fill-rule="evenodd" d="M24 7.508c0-.287 0-.574-.002-.86a36.414 36.414 0 0 0-.01-.724 10.525 10.525 0 0 0-.139-1.577 5.31 5.31 0 0 0-.494-1.499A5.036 5.036 0 0 0 21.152.645 5.316 5.316 0 0 0 19.654.15a10.694 10.694 0 0 0-1.577-.139 35.053 35.053 0 0 0-.725-.01L16.492 0H7.508c-.287 0-.574 0-.86.002a36.41 36.41 0 0 0-.724.01 10.53 10.53 0 0 0-1.577.14 5.316 5.316 0 0 0-1.498.493A5.038 5.038 0 0 0 .645 2.848a5.33 5.33 0 0 0-.494 1.5c-.093.52-.124 1.05-.138 1.576-.007.24-.01.482-.011.724C0 6.934 0 7.22 0 7.508v8.984c0 .287 0 .574.002.86.001.242.004.483.01.724.015.526.046 1.057.14 1.577a5.29 5.29 0 0 0 .493 1.499 5.032 5.032 0 0 0 2.204 2.203c.479.244.97.399 1.498.494.52.093 1.05.125 1.577.139.24.006.482.009.724.01.286.002.573.002.86.002h8.984c.287 0 .574 0 .86-.002.242-.001.483-.004.725-.01a10.535 10.535 0 0 0 1.577-.14 5.316 5.316 0 0 0 1.498-.493 5.027 5.027 0 0 0 2.203-2.203c.245-.48.4-.971.494-1.5.093-.52.125-1.05.139-1.576.006-.24.009-.482.01-.724.002-.286.002-.573.002-.86V7.508Z" clip-rule="evenodd"/>
      </g>
      <mask id="ic-24-uber-icon__d" width="24" height="24" x="0" y="0" maskUnits="userSpaceOnUse" style="mask-type:alpha">
        <path fill="#fff" d="M0 1.92C0 .86.86 0 1.92 0h20.16C23.14 0 24 .86 24 1.92v20.16c0 1.06-.86 1.92-1.92 1.92H1.92A1.92 1.92 0 0 1 0 22.08V1.92Z"/>
      </mask>
      <g mask="url(#ic-24-uber-icon__d)">
        <path fill="#000" d="M25.2-.54H-1.2v25.08h26.4V-.54Z"/>
        <path fill="#fff" d="M4.665 14.56c.95 0 1.685-.732 1.685-1.817v-4.22h1.028v6.838H6.36v-.635a2.477 2.477 0 0 1-1.812.753c-1.47 0-2.596-1.065-2.596-2.676v-4.28H2.98v4.22c0 1.104.725 1.817 1.685 1.817Zm3.477-6.037h.99v2.49a2.471 2.471 0 0 1 1.773-.742 2.601 2.601 0 0 1 2.625 2.609 2.599 2.599 0 0 1-2.625 2.598 2.501 2.501 0 0 1-1.784-.742v.625h-.98l.001-6.838Zm2.694 6.086c.94 0 1.714-.772 1.714-1.73a1.718 1.718 0 1 0-3.438 0c0 .958.764 1.73 1.724 1.73Zm5.652-4.328c1.44 0 2.498 1.104 2.498 2.59v.322h-4.065c.138.81.814 1.416 1.655 1.416.579 0 1.068-.234 1.44-.732l.716.527a2.622 2.622 0 0 1-2.155 1.065c-1.5 0-2.655-1.114-2.655-2.599 0-1.407 1.107-2.589 2.566-2.589Zm-1.547 2.13h3.046c-.166-.762-.784-1.27-1.518-1.27-.735 0-1.352.508-1.528 1.27Zm6.699-1.153c-.647 0-1.117.499-1.117 1.27v2.834h-.99v-4.983h.981v.616c.245-.4.647-.654 1.195-.654h.343v.918h-.412Z"/>
      </g>
    </g>
  </g>
  <defs>
    <clipPath id="ic-24-uber-icon__a">
      <path fill="#fff" d="M0 0h24v24H0z"/>
    </clipPath>
    <filter id="ic-24-uber-icon__c" width="56" height="56" x="-16" y="-16" color-interpolation-filters="sRGB" filterUnits="userSpaceOnUse">
      <feFlood flood-opacity="0" result="BackgroundImageFix"/>
      <feColorMatrix in="SourceAlpha" result="hardAlpha" values="0 0 0 0 0 0 0 0 0 0 0 0 0 0 0 0 0 0 127 0"/>
      <feOffset/>
      <feGaussianBlur stdDeviation="8"/>
      <feColorMatrix values="0 0 0 0 0 0 0 0 0 0 0 0 0 0 0 0 0 0 0.1 0"/>
      <feBlend in2="BackgroundImageFix" result="effect1_dropShadow_3172_195"/>
      <feBlend in="SourceGraphic" in2="effect1_dropShadow_3172_195" result="shape"/>
    </filter>
  </defs>
</svg>
