<svg xmlns="http://www.w3.org/2000/svg" width="24" height="24" viewBox="0 0 24 24">
  <path fill-rule="evenodd" d="M9.006 3.811 5.91 10H3.75A1.75 1.75 0 0 0 2 11.75v9.5c0 .966.784 1.75 1.75 1.75h16.5A1.75 1.75 0 0 0 22 21.25v-9.5A1.75 1.75 0 0 0 20.25 10h-2.162l-3.094-6.189a3 3 0 0 0-5.988 0Zm1.494.177v.025a1.5 1.5 0 1 0 0-.025Zm3.846 1.882A2.994 2.994 0 0 1 12 7c-.95 0-1.797-.441-2.346-1.13L7.589 10h8.822l-2.065-4.13ZM3.75 11.5a.25.25 0 0 0-.25.25v9.5c0 .138.112.25.25.25h16.5a.25.25 0 0 0 .25-.25v-9.5a.25.25 0 0 0-.25-.25H3.75Z" clip-rule="evenodd"/>
</svg>
