<svg xmlns="http://www.w3.org/2000/svg" width="24" height="24" viewBox="0 0 24 24">
  <g id="ic-24-google-color__ic24_google-color">
    <g id="ic-24-google-color__Google__G__logo 1">
      <path id="ic-24-google-color__Vector" fill="#4285F4" d="M19.92 12.188a9.48 9.48 0 0 0-.15-1.688H12v3.195h4.44a3.804 3.804 0 0 1-1.658 2.482v2.078h2.678c1.56-1.44 2.46-3.555 2.46-6.067Z"/>
      <path id="ic-24-google-color__Vector_2" fill="#34A853" d="M12 20.25c2.227 0 4.095-.735 5.46-1.995l-2.678-2.077c-.735.495-1.672.795-2.782.795-2.145 0-3.967-1.448-4.62-3.398H4.635v2.13A8.242 8.242 0 0 0 12 20.25Z"/>
      <path id="ic-24-google-color__Vector_3" fill="#FBBC05" d="M7.38 13.568A4.944 4.944 0 0 1 7.117 12c0-.547.098-1.072.263-1.568v-2.13H4.635A8.148 8.148 0 0 0 3.75 12c0 1.335.322 2.588.885 3.697l2.138-1.664.607-.465Z"/>
      <path id="ic-24-google-color__Vector_4" fill="#EA4335" d="M12 7.035c1.215 0 2.295.42 3.158 1.23l2.362-2.363C16.087 4.567 14.227 3.75 12 3.75c-3.225 0-6.007 1.853-7.365 4.553l2.745 2.13c.653-1.95 2.475-3.398 4.62-3.398Z"/>
    </g>
  </g>
</svg>
