<svg width="24" height="24" viewBox="0 0 24 24" fill="none" xmlns="http://www.w3.org/2000/svg">
<path d="M17.1063 15.8269C16.9558 15.7342 16.8574 15.6069 16.8168 15.439C16.7589 15.2074 16.7358 14.9758 16.7184 14.7384C16.7011 14.4721 16.7358 9.23844 16.7358 7.55371C16.7358 7.47844 16.73 7.40318 16.7242 7.32213C16.6953 7.02107 16.4926 6.79529 16.1858 6.70844C15.9137 6.63318 15.6011 6.73739 15.4447 6.97476C15.2132 7.32792 12.3647 11.5774 11.9711 12.1737C11.9074 12.2721 11.8784 12.2316 11.8379 12.1679C11.311 11.3632 9.06473 7.96476 8.47421 7.06739C8.38158 6.92265 8.26 6.81265 8.10368 6.74897C7.66368 6.5695 7.09631 6.83581 7.1021 7.36844C7.10789 7.9416 7.09631 15.5374 7.09631 16.209C7.09631 16.2842 7.09631 16.3595 7.10789 16.4348C7.17158 16.8111 7.47263 17.0253 7.86631 16.9732C8.17895 16.9327 8.38158 16.7416 8.4221 16.429C8.47421 16.0758 8.43947 15.7169 8.43947 15.3637C8.43947 15.3348 8.44526 15.3 8.44526 15.2711C8.44526 13.65 8.44526 12.029 8.44526 10.4079C8.44526 10.379 8.43947 10.3442 8.43947 10.3153C8.43947 10.0432 8.44526 9.77686 8.44526 9.50476C8.47421 9.49897 8.46842 9.47581 8.46842 9.45844C8.57842 9.55107 8.6421 9.67844 8.72316 9.79423C8.95473 10.1532 11.0447 13.43 11.2647 13.7658C11.4674 14.0727 11.8784 14.2116 12.2142 13.9974C12.3416 13.9163 12.4342 13.8005 12.5211 13.6732C12.8511 13.1637 15.08 9.74792 15.2305 9.59739C15.2479 9.60318 15.2595 9.61476 15.2768 9.62055C15.2768 10.3674 15.2768 11.1142 15.2768 11.8611C15.2768 12.1042 15.2826 12.3532 15.2826 12.5963C15.2711 13.1637 15.2711 13.7311 15.2711 14.2984C15.2653 14.75 15.3174 15.1958 15.41 15.6358C15.5026 16.0584 15.7053 16.4058 16.0179 16.6895C16.2611 16.9095 16.5274 17.06 16.8689 17.0195C17.2163 16.979 17.5 16.7532 17.4595 16.3653C17.4305 16.1279 17.3089 15.9484 17.1063 15.8269Z" fill="url(#paint0_linear_3240_1307)"/>
<path d="M12 2.24474C13.32 2.24474 14.5937 2.50526 15.7979 3.00895C16.9616 3.50105 18.0037 4.20158 18.9011 5.09895C19.7984 5.99632 20.4989 7.03842 20.9911 8.20211C21.5005 9.40632 21.7553 10.68 21.7553 12C21.7553 13.32 21.4947 14.5937 20.9911 15.7979C20.4989 16.9616 19.7984 18.0037 18.9011 18.9011C18.0037 19.7984 16.9616 20.4989 15.7979 20.9911C14.5937 21.5005 13.32 21.7553 12 21.7553C10.68 21.7553 9.40632 21.4947 8.20211 20.9911C7.03842 20.4989 5.99632 19.7984 5.09895 18.9011C4.20158 18.0037 3.50105 16.9616 3.00895 15.7979C2.49947 14.5937 2.24474 13.32 2.24474 12C2.24474 10.68 2.50526 9.40632 3.00895 8.20211C3.50105 7.03842 4.20158 5.99632 5.09895 5.09895C5.99632 4.20158 7.03842 3.50105 8.20211 3.00895C9.40632 2.49947 10.68 2.24474 12 2.24474ZM12 1C5.92684 1 1 5.92684 1 12C1 18.0732 5.92684 23 12 23C18.0732 23 23 18.0732 23 12C23 5.92684 18.0732 1 12 1Z" fill="url(#paint1_linear_3240_1307)"/>
<defs>
<linearGradient id="paint0_linear_3240_1307" x1="19.1174" y1="5.04958" x2="6.32325" y2="17.8437" gradientUnits="userSpaceOnUse">
<stop stop-color="#2EB5E4"/>
<stop offset="1" stop-color="#A654D6"/>
</linearGradient>
<linearGradient id="paint1_linear_3240_1307" x1="19.0339" y1="4.96608" x2="6.23976" y2="17.7602" gradientUnits="userSpaceOnUse">
<stop stop-color="#2EB5E4"/>
<stop offset="1" stop-color="#A654D6"/>
</linearGradient>
</defs>
</svg>
