<svg fill="none" height="24" width="24" xmlns="http://www.w3.org/2000/svg"><path d="m12.046 0 1.106 1.924c.221.399.221.885 0 1.283l-6.592 11.436 3.12 5.398a2.75 2.75 0 0 0 2.366 1.371c.973 0 1.88-.53 2.367-1.371l3.119-5.398-.819-1.46-3.539 6.128a1.282 1.282 0 0 1 -1.106.641c-.464 0-.885-.243-1.106-.641l-2.72-4.668 6.127-10.617 1.106 1.924c.22.398.22.885 0 1.283l-4.27 7.41.841 1.46 4.645-8.051 3.053 5.286a2.66 2.66 0 0 1 0 2.633l-3.097 5.375c-.464.818-1.946 2.654-4.6 2.654-2.655 0-4.115-1.836-4.602-2.654l-3.097-5.376a2.66 2.66 0 0 1 0-2.632z"/></svg>