<svg width="79" height="104" viewBox="0 0 79 104" fill="none" xmlns="http://www.w3.org/2000/svg">
<path d="M67.5302 104L6.00624 103.999C3.76921 103.999 1.95558 102.186 1.9556 99.9487L1.95639 4.05025C1.95641 1.81323 3.77007 1.49355e-05 6.00709 3.33575e-05L67.5311 0.00054001C73.7585 0.000591293 78.8066 5.04837 78.8066 11.2758L78.8059 92.724C78.8058 98.9514 73.7576 104 67.5302 104Z" />
<path fill-rule="evenodd" clip-rule="evenodd" d="M23.1451 60.6359C22.3489 60.4205 21.5991 60.2176 20.0415 60.2176L20.0415 58.1509C21.8631 58.1509 22.8082 58.4037 23.7006 58.6452L23.7165 58.6495C24.5127 58.8649 25.2625 59.0677 26.8201 59.0677C28.3772 59.0678 29.1269 58.8649 29.923 58.6495L29.9389 58.6452C30.8313 58.4038 31.7764 58.151 33.5978 58.151C35.4196 58.151 36.3649 58.4038 37.2575 58.6453L37.2734 58.6496C38.0698 58.865 38.8198 59.0678 40.3777 59.0679C41.9355 59.0679 42.6857 58.865 43.4822 58.6496L43.4981 58.6453C44.3908 58.4039 45.3362 58.1511 47.1579 58.1511C48.9801 58.1511 49.9255 58.404 50.8182 58.6454L50.8342 58.6497C51.6306 58.8651 52.3806 59.068 53.9386 59.068C55.497 59.068 56.2473 58.8651 57.0438 58.6497L57.0596 58.6454C57.9524 58.404 58.8978 58.1512 60.7198 58.1512L60.7198 60.218C59.1617 60.2179 58.4116 60.4208 57.615 60.6362L57.5991 60.6405C56.7063 60.8819 55.7608 61.1347 53.9386 61.1347C52.1167 61.1347 51.1713 60.8819 50.2787 60.6404L50.2629 60.6362C49.4664 60.4208 48.7162 60.2179 47.1579 60.2178C45.6001 60.2178 44.8499 60.4207 44.0534 60.6361L44.0375 60.6404C43.1448 60.8818 42.1994 61.1346 40.3776 61.1346C38.5559 61.1346 37.6105 60.8817 36.7179 60.6403L36.7021 60.636C35.9057 60.4206 35.1556 60.2177 33.5978 60.2177C32.0404 60.2177 31.2906 60.4206 30.4944 60.636L30.4786 60.6403C29.5863 60.8817 28.6412 61.1345 26.8201 61.1345C24.9985 61.1345 24.0533 60.8816 23.1609 60.6402L23.1451 60.6359Z" fill="#1A1A1A"/>
<path d="M21.4043 62.179L59.3576 62.1794C60.1096 62.1794 60.7203 62.7896 60.7203 63.542C60.7203 65.9421 58.7745 67.8878 56.3744 67.8878L24.3873 67.8875C21.9873 67.8875 20.0416 65.9418 20.0416 63.5417C20.0416 62.7892 20.6518 62.179 21.4043 62.179ZM59.3055 52.176L21.4553 52.1757C20.6744 52.1757 20.0413 51.5426 20.0413 50.7616C20.0413 42.6709 26.6 36.1124 34.6903 36.1124L46.0707 36.1125C54.1615 36.1126 60.72 42.6713 60.72 50.762C60.7199 51.5429 60.0868 52.176 59.3055 52.176ZM59.254 56.5902L21.5071 56.5899C20.6977 56.5899 20.0412 55.9338 20.0412 55.124C20.0412 54.3146 20.6977 53.6586 21.5071 53.6586L59.2541 53.6589C60.0634 53.6589 60.7199 54.315 60.7199 55.1243C60.7199 55.9341 60.0634 56.5902 59.254 56.5902Z" fill="white"/>
<path d="M48.5763 44.944L46.5266 44.944C46.085 44.944 45.727 44.5864 45.727 44.1448C45.727 43.7032 46.085 43.3448 46.5266 43.3448L48.5763 43.3448C49.018 43.3448 49.3759 43.7032 49.3759 44.1448C49.3759 44.5864 49.018 44.944 48.5763 44.944ZM44.9274 41.2105L42.8781 41.2105C42.4365 41.2105 42.0785 40.8525 42.0785 40.4109C42.0785 39.9692 42.4365 39.6108 42.8781 39.6108L44.9274 39.6109C45.3691 39.6109 45.7274 39.9693 45.7274 40.4109C45.7274 40.8525 45.369 41.2105 44.9274 41.2105Z" />
<path fill-rule="evenodd" clip-rule="evenodd" d="M0.000601609 15.4366C0.000606437 14.8503 0.475908 14.375 1.06222 14.375L6.02332 14.375C6.60963 14.3751 7.08493 14.8504 7.08492 15.4367C7.08492 16.023 6.60962 16.4983 6.02331 16.4983L1.0622 16.4982C0.475891 16.4982 0.000596781 16.0229 0.000601609 15.4366Z" fill="#1A1A1A"/>
<path fill-rule="evenodd" clip-rule="evenodd" d="M0.000479539 37.9874C0.000484367 37.4011 0.475786 36.9258 1.0621 36.9258L6.0232 36.9258C6.60951 36.9258 7.08481 37.4011 7.0848 37.9874C7.0848 38.5738 6.60949 39.049 6.02318 39.049L1.06208 39.049C0.475769 39.049 0.000474711 38.5737 0.000479539 37.9874Z" fill="#1A1A1A"/>
<path fill-rule="evenodd" clip-rule="evenodd" d="M0.000235398 60.5382C0.000240227 59.9519 0.475542 59.4766 1.06185 59.4766L6.02296 59.4766C6.60927 59.4766 7.08456 59.9519 7.08456 60.5382C7.08455 61.1245 6.60925 61.5998 6.02294 61.5998L1.06183 61.5998C0.475525 61.5998 0.00023057 61.1245 0.000235398 60.5382Z" fill="#1A1A1A"/>
<path fill-rule="evenodd" clip-rule="evenodd" d="M-8.74239e-06 83.0885C-3.9141e-06 82.5022 0.475298 82.0269 1.06161 82.0269L6.02271 82.0269C6.60902 82.0269 7.08432 82.5022 7.08431 83.0885C7.08431 83.6748 6.60901 84.1501 6.0227 84.1501L1.06159 84.1501C0.475281 84.1501 -1.35707e-05 83.6748 -8.74239e-06 83.0885Z" fill="#1A1A1A"/>
</svg>
