<svg fill="none" height="20" viewBox="0 0 20 20" width="20" xmlns="http://www.w3.org/2000/svg"><rect fill="#5b52ff" height="20" rx="6" width="20"/><path clip-rule="evenodd" d="m15.78 6.21995c.1404.14062.2193.33125.2193.53s-.0789.38937-.2193.53l-7.25 7.25005c-.14063.1404-.33125.2193-.53.2193s-.38938-.0789-.53-.2193l-3.25-3.25c-.13248-.1422-.2046-.3303-.20118-.5246.00343-.1943.08214-.3797.21956-.5171.13741-.1374.3228-.2161.5171-.2195.1943-.0035.38234.0687.52452.2012l2.72 2.7199 6.72-6.71995c.1406-.14045.3312-.21934.53-.21934.1987 0 .3894.07889.53.21934z" fill="#fff" fill-rule="evenodd"/><rect height="19" rx="5.5" stroke="#1a1a1a" stroke-opacity=".16" width="19" x=".5" y=".5"/></svg>